<svg width="62" height="56" viewBox="0 0 62 56" fill="none" xmlns="http://www.w3.org/2000/svg">
<path d="M8.26005 52.6894C8.60125 52.6894 8.87768 52.4023 8.87768 52.048V34.0227C8.87768 33.6684 8.60125 33.3814 8.26005 33.3814H3.31899C3.23788 33.3814 3.15756 33.3979 3.08261 33.4302C3.00767 33.4624 2.93958 33.5096 2.88222 33.5692C2.82487 33.6287 2.77937 33.6994 2.74834 33.7773C2.71731 33.8551 2.70134 33.9385 2.70136 34.0227V52.048C2.70136 52.4023 2.97778 52.6894 3.31899 52.6894H8.26005ZM8.26005 55.2546H3.31899C1.61338 55.2546 0.23083 53.819 0.23083 52.048V34.0227C0.23083 32.2517 1.61338 30.8161 3.31899 30.8161H8.26005C9.96565 30.8161 11.3482 32.2517 11.3482 34.0227V52.048C11.3482 53.819 9.96565 55.2546 8.26005 55.2546ZM25.0528 52.6894C25.394 52.6894 25.6704 52.4023 25.6704 52.048V30.3005C25.6704 29.9462 25.394 29.6592 25.0528 29.6592H20.1117C20.0306 29.6592 19.9503 29.6758 19.8753 29.708C19.8004 29.7402 19.7323 29.7875 19.6749 29.847C19.6176 29.9066 19.5721 29.9773 19.5411 30.0551C19.51 30.1329 19.4941 30.2163 19.4941 30.3005V52.048C19.4941 52.4023 19.7705 52.6894 20.1117 52.6894H25.0528ZM25.0528 55.2546H20.1117C18.4061 55.2546 17.0235 53.819 17.0235 52.048V30.3005C17.0235 28.5295 18.4061 27.094 20.1117 27.094H25.0528C26.7584 27.094 28.1409 28.5295 28.1409 30.3005V52.048C28.1409 53.819 26.7584 55.2546 25.0528 55.2546ZM41.8455 52.7281C42.1867 52.7281 42.4631 52.441 42.4631 52.0867V26.6164C42.4631 26.2625 42.1864 25.9751 41.8455 25.9751H36.9044C36.5635 25.9751 36.2868 26.2625 36.2868 26.6164V52.0867C36.2868 52.441 36.5632 52.7281 36.9044 52.7281H41.8455ZM41.8455 55.2933H36.9044C35.1988 55.2933 33.8163 53.8577 33.8163 52.0867V26.6164C33.8163 24.8459 35.1989 23.4099 36.9044 23.4099H41.8455C43.551 23.4099 44.9336 24.8459 44.9336 26.6164V52.0867C44.9336 53.8577 43.5511 55.2933 41.8455 55.2933ZM58.6382 52.7282C58.9794 52.7282 59.2558 52.4412 59.2558 52.0869V23.41C59.2558 23.0557 58.9794 22.7687 58.6382 22.7687H53.6971C53.616 22.7687 53.5357 22.7852 53.4608 22.8175C53.3858 22.8497 53.3177 22.8969 53.2604 22.9565C53.203 23.016 53.1575 23.0867 53.1265 23.1646C53.0955 23.2424 53.0795 23.3258 53.0795 23.41V52.0869C53.0795 52.4412 53.3559 52.7282 53.6971 52.7282H58.6382ZM58.6382 55.2934H53.6971C51.9915 55.2934 50.609 53.8579 50.609 52.0869V23.41C50.609 21.639 51.9915 20.2034 53.6971 20.2034H58.6382C60.3438 20.2034 61.7263 21.639 61.7263 23.41V52.0869C61.7263 53.8579 60.3438 55.2934 58.6382 55.2934ZM58.2639 2.56676C40.8565 12.75 21.4282 18.7575 1.16072 20.0304C0.479752 20.0732 -0.0389019 20.681 0.00229368 21.3881C0.0434892 22.0952 0.628913 22.6337 1.30988 22.5909C21.9533 21.2944 41.7449 15.1746 59.4766 4.8017C60.0709 4.45399 60.2813 3.67183 59.9464 3.05463C59.6116 2.43743 58.8583 2.21905 58.2639 2.56676Z" fill="black"/>
<path d="M54.3567 2.82696L60.5325 2.83661C61.2147 2.83767 61.7686 2.26431 61.7696 1.55593C61.7706 0.847543 61.2184 0.27243 60.5362 0.271365L54.3605 0.26172C53.6783 0.260656 53.1244 0.834015 53.1234 1.5424C53.1223 2.25079 53.6745 2.8259 54.3567 2.82696Z" fill="black"/>
<path d="M59.2993 1.55023L59.2808 7.92746C59.2788 8.63584 59.8301 9.21183 60.5124 9.21396C61.1946 9.21609 61.7493 8.64361 61.7514 7.93522L61.7699 1.558C61.7719 0.84961 61.2206 0.27362 60.5383 0.27149C59.8561 0.269361 59.3014 0.841844 59.2993 1.55023Z" fill="black"/>
</svg>
