<svg width="22" height="22" viewBox="0 0 22 22" fill="none" xmlns="http://www.w3.org/2000/svg">
<path d="M17.875 6.16L11.825 2.662C11.319 2.365 10.681 2.365 10.175 2.662L4.125 6.16C3.619 6.457 3.3 6.996 3.3 7.59V14.575C3.3 15.169 3.619 15.708 4.125 16.005L10.175 19.503C10.681 19.8 11.319 19.8 11.825 19.503L17.875 16.005C18.381 15.708 18.7 15.169 18.7 14.575V7.59C18.7 6.996 18.381 6.457 17.875 6.16ZM5.5 14.256V9.174L9.9 11.726V16.797L5.5 14.256ZM11 9.823L6.6 7.271L11 4.73L15.4 7.271L11 9.823ZM12.1 16.797V11.726L16.5 9.174V14.256L12.1 16.797ZM5.5 0H1.65C0.737 0 0 0.737 0 1.65V5.5H2.2V2.2H5.5V0ZM16.5 0H20.35C21.263 0 22 0.737 22 1.65V5.5H19.8V2.2H16.5V0ZM5.5 22H1.65C0.737 22 0 21.263 0 20.35V16.5H2.2V19.8H5.5V22ZM16.5 22H20.35C21.263 22 22 21.263 22 20.35V16.5H19.8V19.8H16.5V22Z" fill="#FCFCFC"/>
</svg>
