<svg width="65" height="69" viewBox="0 0 65 69" fill="none" xmlns="http://www.w3.org/2000/svg">
<path d="M65 66.1172H62.9032V68.2943H65V66.1172Z" fill="black"/>
<path d="M50.3226 11.6876V2.97892H33.5484V0.801758H31.4516V2.97892H14.6774V26.4999L8.3871 22.729V22.5734H8.12814L7.90169 22.4373L7.82516 22.5734H0V37.8135C0 40.2149 1.88081 42.1678 4.19355 42.1678H14.6774V46.5222H23.8823L20.1081 66.1166H0V68.2938H31.4516H33.5484H60.8064V66.1166H44.8919L41.1177 46.5222H50.3226V29.1049H58.7097V26.9277H56.9064L58.804 19.0485L54.9177 14.0041C58.8523 14.7204 61.8548 18.2855 61.8548 22.5734H63.9516C63.9516 19.0105 62.2868 15.8514 59.7308 13.8647H65V11.6876H50.3226ZM6.29032 37.8135C6.29032 39.0142 5.34992 39.9907 4.19355 39.9907C3.03718 39.9907 2.09677 39.0142 2.09677 37.8135V24.7505H6.29032V37.8135ZM14.039 29.3977L16.1357 33.1674L9.36 37.23L13.5525 29.6894L14.039 29.3977ZM8.3871 25.9186L8.66911 25.4113L12.2997 27.5885L8.3871 34.6251V25.9186ZM8.94694 39.9907L16.2112 35.6363H16.7742V39.9907H8.94694ZM31.4516 66.1166H22.2468L26.021 46.5222H31.4516V66.1166ZM42.7532 66.1166H33.5484V46.5222H38.979L42.7532 66.1166ZM48.1315 19.0485L50.029 26.9277H48.2258V28.0163V29.1049V44.345H16.7742V42.1678H18.871V34.0416L19.001 33.9632L18.871 33.7302V33.4592H18.72L16.7742 29.9594V5.15608H48.2258V11.6876H41.9355V13.8647H47.2047C44.6487 15.8514 42.9839 19.0105 42.9839 22.5734H45.0806C45.0806 18.2855 48.0832 14.7204 52.0178 14.0041L48.1315 19.0485ZM56.5185 19.5678L54.7468 26.9277H52.1887L50.4169 19.5667L52.4194 16.9683V21.4848H54.5161V16.9683L56.5185 19.5678Z" fill="black"/>
<path d="M23.0644 9.51074H20.9677V11.6879H23.0644V9.51074Z" fill="black"/>
<path d="M44.0323 37.8135H41.9355V39.9906H44.0323V37.8135Z" fill="black"/>
<path d="M41.9354 24.7502C41.9354 19.3476 37.7031 14.953 32.4999 14.953C30.8036 14.953 29.2143 15.4265 27.8378 16.243L24.961 12.1357L23.2657 13.4159L26.1467 17.5286C24.2575 19.3215 23.0645 21.8905 23.0645 24.7502C23.0645 30.1528 27.2968 34.5474 32.4999 34.5474C34.1962 34.5474 35.7856 34.0739 37.1621 33.2575L40.0389 37.3647L41.7341 36.0845L38.8532 31.9719C40.7424 30.179 41.9354 27.6099 41.9354 24.7502ZM32.4999 32.3703C28.4542 32.3703 25.1612 28.951 25.1612 24.7502C25.1612 22.6133 26.0157 20.6822 27.3849 19.2975L35.9219 31.4864C34.8986 32.0481 33.736 32.3703 32.4999 32.3703ZM29.078 18.0141C30.1012 17.4524 31.2639 17.1302 32.4999 17.1302C36.5457 17.1302 39.8386 20.5494 39.8386 24.7502C39.8386 26.8871 38.9842 28.8182 37.615 30.2029L29.078 18.0141Z" fill="black"/>
</svg>
