<svg width="70" height="74" viewBox="0 0 70 74" fill="none" xmlns="http://www.w3.org/2000/svg">
<path d="M39.7727 0.724609V2.37651H36.5909V15.5917H19.0909V12.2879H15.9091V15.5917H11.1364C6.81108 15.5917 3.18182 19.1795 3.18182 23.8512C3.18182 26 3.57955 30.0459 3.97727 33.711C4.375 37.3762 4.77273 40.5768 4.77273 40.5768L4.97159 42.0222H11.1364V45.326H9.54545V48.6298H15.9091V45.326H14.3182V42.0222H20.3338L21.6264 36.6535C21.8066 35.9114 22.4343 35.4146 23.1676 35.4146H31.5696C33.1108 35.4146 34.4469 36.5115 34.7017 38.0473C34.8509 38.9442 35 41.3575 35 42.9514C35 44.5452 34.8571 46.7133 34.7017 47.649C34.4469 49.1847 33.1108 50.2817 31.5696 50.2817H7.95455C3.57955 50.2817 0 53.9985 0 58.5412V66.8007C0 69.5173 2.15643 71.7564 4.77273 71.7564H7.95455V73.4083H15.9091V71.7564H47.7273V73.4083H55.6818V71.7564H58.8636C61.4799 71.7564 63.6364 69.5173 63.6364 66.8007V35.4146H70V20.5474H62.9403C61.7037 17.6437 58.9196 15.5917 55.6818 15.5917H52.5V8.98412H49.3182V15.5917H46.1364V2.37651H42.9545V0.724609H39.7727ZM39.7727 5.68032H42.9545V15.5917H39.7727V5.68032ZM11.1364 18.8955H12.7273V33.7627H15.9091V18.8955H55.6818C58.3354 18.8955 60.4545 21.0959 60.4545 23.8512V66.8007C60.4545 67.7364 59.7647 68.4526 58.8636 68.4526H4.77273C3.87163 68.4526 3.18182 67.7364 3.18182 66.8007V58.5412C3.18182 55.7859 5.30096 53.5855 7.95455 53.5855H31.5696C34.6085 53.5855 37.3056 51.3657 37.8338 48.2168C38.0637 46.8617 38.1818 44.7323 38.1818 42.9514C38.1818 41.1704 38.07 38.8732 37.8338 37.4794C37.3056 34.3305 34.6085 32.1108 31.5696 32.1108H23.1676C20.9863 32.1108 19.0723 33.6852 18.544 35.8792L17.848 38.7184H7.8054C7.68732 37.7569 7.46982 36.2147 7.15909 33.3497C6.76136 29.7103 6.36364 25.5225 6.36364 23.8512C6.36364 20.883 8.43306 18.8955 11.1364 18.8955ZM49.3182 23.8512C46.7019 23.8512 44.5455 26.0903 44.5455 28.807C44.5455 31.5236 46.7019 33.7627 49.3182 33.7627C51.9345 33.7627 54.0909 31.5236 54.0909 28.807C54.0909 26.0903 51.9345 23.8512 49.3182 23.8512ZM63.6364 23.8512H66.8182V32.1108H63.6364V23.8512ZM49.3182 27.155C50.2131 27.155 50.9091 27.8778 50.9091 28.807C50.9091 29.7361 50.2131 30.4589 49.3182 30.4589C48.4233 30.4589 47.7273 29.7361 47.7273 28.807C47.7273 27.8778 48.4233 27.155 49.3182 27.155ZM49.3182 40.3703C44.9432 40.3703 41.3636 44.087 41.3636 48.6298C41.3636 53.1725 44.9432 56.8893 49.3182 56.8893C53.6932 56.8893 57.2727 53.1725 57.2727 48.6298C57.2727 44.087 53.6932 40.3703 49.3182 40.3703ZM49.3182 43.6741C51.9718 43.6741 54.0909 45.8745 54.0909 48.6298C54.0909 51.3851 51.9718 53.5855 49.3182 53.5855C46.6646 53.5855 44.5455 51.3851 44.5455 48.6298C44.5455 45.8745 46.6646 43.6741 49.3182 43.6741Z" fill="black"/>
</svg>
