<svg width="29" height="28" viewBox="0 0 29 28" fill="none" xmlns="http://www.w3.org/2000/svg">
<path d="M15.2632 4.57894H27.4737L24.6572 0.654144C24.3652 0.247747 23.8247 -0.00185176 23.2408 1.03467e-05H15.2632V4.57894ZM12.2105 1.03467e-05H4.23298C3.64902 -0.00185176 3.10854 0.247747 2.81656 0.654144L0 4.57894H12.2105V1.03467e-05ZM0 7.63157V23.6579C0 24.9223 1.02501 25.9474 2.28943 25.9474H11.4474C12.9737 25.9474 13.7368 24.421 13.7368 24.421C13.7376 23.6057 13.7417 22.792 13.7516 22.1316C13.7516 16.6611 18.1989 12.2105 23.6652 12.2105H25.9474C25.9474 12.2105 27.4737 12.2105 27.4737 10.6842V7.63157H0ZM29 16.7895C29 15.9465 28.3167 15.2632 27.4737 15.2632C26.6307 15.2632 25.9474 15.9465 25.9474 16.7895V18.3158C25.9474 20.0018 24.5807 21.3684 22.8947 21.3684H22.0006L22.4477 20.9214C23.0437 20.3253 23.0437 19.3589 22.4477 18.7628C21.8517 18.1668 20.8852 18.1668 20.2892 18.7628L17.2365 21.8155C16.6405 22.4115 16.6405 23.378 17.2365 23.974L20.2892 27.0266C20.8852 27.6226 21.8517 27.6226 22.4477 27.0266C23.0437 26.4306 23.0437 25.4641 22.4477 24.8681L22.0006 24.421H22.8947C26.2665 24.421 29 21.6876 29 18.3158V16.7895Z" fill="#696565"/>
</svg>
