<svg width="27" height="29" viewBox="0 0 27 29" fill="none" xmlns="http://www.w3.org/2000/svg">
<path d="M13.2728 0.000644638C13.7366 0.000644638 14.1933 0.0307368 14.6181 0.101542C15.0365 0.156367 15.4493 0.247579 15.8519 0.374141C16.2554 0.496279 16.6502 0.64851 17.0449 0.839684C17.429 1.02201 17.8238 1.24504 18.2185 1.48755C18.8859 1.91238 19.5426 2.25578 20.2117 2.53015C21.5289 3.05735 22.9218 3.37107 24.3378 3.45947C25.0565 3.5108 25.7946 3.54089 26.5629 3.54089V10.6214C26.5629 11.9667 26.3912 13.2412 26.0478 14.4555C25.7179 15.6525 25.2492 16.8068 24.6511 17.8948C24.0556 18.9814 23.351 20.0045 22.5482 20.9483C21.7331 21.9136 20.8506 22.8198 19.9072 23.6601C18.9514 24.503 17.9446 25.2862 16.8927 26.0055C15.8412 26.7348 14.7792 27.4128 13.7171 28.0288L13.2923 28.2819L12.8674 28.0288C11.7756 27.3967 10.7092 26.7217 9.67058 26.0055C8.61275 25.2943 7.60549 24.5107 6.65606 23.6601C5.71327 22.8198 4.8313 21.9135 4.01681 20.9483C3.21617 20.0005 2.50841 18.978 1.90328 17.8948C1.31547 16.8019 0.847225 15.6488 0.506648 14.4555C0.161066 13.2071 -0.00931574 11.9167 0.000392616 10.6214V3.54089C0.770397 3.54089 1.50854 3.5108 2.22721 3.45947C2.93466 3.41033 3.63753 3.30916 4.33012 3.15678C5.00808 3.00455 5.68603 2.80275 6.35337 2.53015C7.04585 2.25068 7.70977 1.90508 8.33591 1.49817C9.11476 0.991914 9.90424 0.618418 10.6831 0.372371C11.5219 0.115228 12.3955 -0.0101735 13.2728 0.000644638ZM24.7821 5.28093C23.4422 5.21591 22.1147 4.99189 20.8277 4.61359C19.5474 4.23169 18.328 3.66966 17.206 2.94436C16.624 2.56236 15.992 2.26273 15.3279 2.05399C14.6645 1.8535 13.9746 1.75443 13.2816 1.76015C12.5835 1.75563 11.8885 1.85466 11.2194 2.05399C10.5544 2.25595 9.92314 2.55604 9.34665 2.94436C8.22272 3.67361 7.00013 4.23811 5.71613 4.62067C4.46111 4.98531 3.14767 5.20835 1.77052 5.28978V10.6302C1.77052 11.8038 1.92275 12.9261 2.22721 14.0076C2.53738 15.0798 2.96479 16.1145 3.5017 17.093C4.04504 18.0816 4.68544 19.0138 5.41343 19.8756C6.15158 20.7447 6.93928 21.5537 7.78894 22.3219C8.6386 23.0919 9.52897 23.8 10.4601 24.4567C11.4 25.1152 12.3417 25.7117 13.2816 26.2569C14.2441 25.6966 15.1825 25.096 16.0944 24.4567C17.0316 23.802 17.9267 23.089 18.7743 22.3219C19.624 21.5537 20.4135 20.7447 21.1516 19.8756C21.8797 19.0138 22.5201 18.0817 23.0633 17.093C23.5979 16.1157 24.0189 15.0805 24.3184 14.0076C24.6321 12.9095 24.7882 11.7723 24.7821 10.6302V5.28093Z" fill="#696565"/>
<path fill-rule="evenodd" clip-rule="evenodd" d="M19.8718 8.33512L19.0929 7.66602L18.3742 7.72797L10.6565 16.8406L8.02787 13.0879L7.31982 12.9675L6.50025 13.5535L6.37811 14.2615L9.75728 19.0869L10.1414 19.2993L10.9503 19.3488L11.3646 19.1683L19.9231 9.05202L19.8718 8.33512Z" fill="#696565"/>
</svg>
