<svg width="47" height="29" viewBox="0 0 47 29" fill="none" xmlns="http://www.w3.org/2000/svg">
<path d="M46.5669 20.6757H45.6356V16.5778C45.6356 15.1994 44.6074 14.1563 43.2141 14.1563H38.7437C38.6505 14.1563 38.5388 14.106 38.4754 14.0446L31.509 7.26257C31.1961 6.94964 30.8161 6.72053 30.3616 6.70563H25.3324V23.8423H32.7831C32.9545 23.8423 33.124 23.6262 33.1556 23.4697C33.625 20.7763 35.918 18.7329 38.7511 18.7329C41.5861 18.7329 43.9331 20.7837 44.4025 23.4772C44.4341 23.6504 44.7191 23.8423 44.8905 23.8423H45.263C46.1552 23.8423 46.9394 23.0394 46.9394 22.1621V21.0035C46.9394 20.8322 46.755 20.6757 46.5669 20.6757ZM35.2046 14.1563H27.5676C27.3795 14.1563 27.1951 13.9719 27.1951 13.7838L27.1876 8.96878C27.1876 8.78065 27.3795 8.56831 27.5676 8.56831H29.9891C30.0822 8.56831 30.2722 8.67076 30.3504 8.73409L35.3908 13.5975C35.579 13.8322 35.5026 14.1563 35.2046 14.1563ZM0 0V22.2478C0 23.0823 0.655662 23.8423 1.49014 23.8423H5.58803C5.75939 23.8423 5.9289 23.6262 5.96056 23.4697C6.42996 20.7763 8.81604 18.9173 11.6492 18.9173C14.4823 18.9173 16.8311 20.7837 17.3005 23.4772C17.3322 23.6504 17.5241 23.8423 17.6954 23.8423H23.8423V0H0ZM16.2053 15.8327H7.82324V8.00951H8.83653V6.40015C8.83653 4.66787 10.254 3.24851 11.9882 3.24851C13.7223 3.24851 15.1398 4.66787 15.1398 6.40015V8.00951H16.2053V15.8327ZM11.9994 4.50954C10.9581 4.50954 10.1087 5.36078 10.1087 6.40015V8.00951H13.89V6.40015C13.89 5.36078 13.0387 4.50954 11.9994 4.50954ZM13.1859 11.3176C13.1859 10.6228 12.6178 10.0566 11.9249 10.0566C11.2319 10.0566 10.6638 10.6228 10.6638 11.3176C10.6638 11.7572 10.8855 12.1353 11.2319 12.357L10.9805 13.8378H12.8711L12.6178 12.357C12.9661 12.1353 13.1859 11.7572 13.1859 11.3176ZM38.7511 20.2063C36.3725 20.2063 34.4465 22.1305 34.4465 24.511C34.4465 26.8896 36.3725 28.8156 38.7511 28.8156C41.1316 28.8156 43.0576 26.8896 43.0576 24.511C43.0576 22.1305 41.1316 20.2063 38.7511 20.2063ZM38.7511 26.1594C37.8477 26.1594 37.1026 25.4143 37.1026 24.511C37.1026 23.6076 37.8477 22.8625 38.7511 22.8625C39.6564 22.8625 40.4014 23.6076 40.4014 24.511C40.4014 25.4143 39.6564 26.1594 38.7511 26.1594ZM11.6492 20.3888C9.26867 20.3888 7.34453 22.3149 7.34453 24.6935C7.34453 27.074 9.26867 29 11.6492 29C14.0278 29 15.9538 27.074 15.9538 24.6935C15.9538 22.3149 14.0278 20.3888 11.6492 20.3888ZM11.6492 26.3438C10.7458 26.3438 10.0007 25.5988 10.0007 24.6935C10.0007 23.7901 10.7458 23.045 11.6492 23.045C12.5526 23.045 13.2976 23.7901 13.2976 24.6935C13.2976 25.5988 12.5526 26.3438 11.6492 26.3438Z" fill="#696565"/>
</svg>
