<svg width="350" height="249" viewBox="0 0 350 249" fill="none" xmlns="http://www.w3.org/2000/svg">
<rect width="350" height="249" fill="#8293FF"/>
<path d="M238.147 161.033H96.0001V184.511H238.147V161.033Z" fill="#FFCC5C"/>
<path d="M110.105 161.032H107.735V167.494H110.105V161.032Z" fill="#FF9000"/>
<path d="M123.031 161.032H120.66V167.494H123.031V161.032Z" fill="#FF9000"/>
<path d="M135.955 161.032H133.585V167.494H135.955V161.032Z" fill="#FF9000"/>
<path d="M148.872 161.032H146.501V167.494H148.872V161.032Z" fill="#FF9000"/>
<path d="M161.797 161.032H159.426V167.494H161.797V161.032Z" fill="#FF9000"/>
<path d="M174.721 161.032H172.35V167.494H174.721V161.032Z" fill="#FF9000"/>
<path d="M187.638 161.032H185.268V167.494H187.638V161.032Z" fill="#FF9000"/>
<path d="M200.562 161.032H198.192V167.494H200.562V161.032Z" fill="#FF9000"/>
<path d="M213.487 161.032H211.117V167.494H213.487V161.032Z" fill="#FF9000"/>
<path d="M226.411 161.032H224.041V167.494H226.411V161.032Z" fill="#FF9000"/>
<path d="M206.013 70.9681H124.175V184.513H206.013V70.9681Z" fill="#E3C1BA"/>
<path d="M172.259 174.225H171.025V173.043H171.415C171.792 171.965 172.169 170.867 172.545 169.731L173.669 170.107C173.247 171.387 172.818 172.627 172.389 173.835L172.259 174.225ZM166.291 174.225H161.55V173.043H166.291V174.225ZM156.809 174.225H152.068V173.043H156.809V174.225ZM147.333 174.225H142.592V173.043H147.333V174.225ZM137.851 174.225H136.214L136.539 173.413C137.026 172.205 137.507 170.971 137.994 169.718L139.098 170.146C138.682 171.218 138.267 172.277 137.851 173.316V174.225ZM140.78 165.704L139.67 165.295C140.209 163.84 140.741 162.353 141.274 160.846L142.391 161.242C141.858 162.756 141.319 164.243 140.78 165.704ZM175.13 165.574L174 165.224C174.455 163.756 174.903 162.243 175.344 160.69L176.481 161.015C176.033 162.58 175.585 164.1 175.13 165.574ZM143.943 156.748L142.819 156.371C143.313 154.897 143.807 153.397 144.294 151.877L145.424 152.241C144.93 153.761 144.437 155.267 143.943 156.748ZM177.728 156.436L176.585 156.138C176.974 154.637 177.358 153.111 177.728 151.552L178.877 151.825C178.507 153.39 178.124 154.93 177.728 156.436ZM146.827 147.701L145.69 147.357C146.138 145.863 146.586 144.35 147.028 142.817L148.165 143.142C147.729 144.688 147.281 146.207 146.827 147.701ZM179.93 147.188L178.767 146.941C179.092 145.422 179.403 143.882 179.709 142.311L180.871 142.531C180.566 144.11 180.254 145.662 179.93 147.188ZM149.444 138.576L148.301 138.265C148.71 136.758 149.106 135.232 149.502 133.692L150.652 133.985C150.256 135.53 149.853 137.063 149.444 138.576ZM181.709 137.855L180.54 137.654C180.8 136.121 181.047 134.563 181.274 132.984L182.449 133.153C182.222 134.744 181.975 136.31 181.709 137.855ZM151.782 129.367L150.632 129.094C150.957 127.724 151.275 126.34 151.594 124.944L151.698 124.483L152.854 124.736L152.75 125.204C152.431 126.607 152.107 127.99 151.782 129.367ZM183.086 128.451L181.91 128.308C181.982 127.73 182.053 127.159 182.118 126.574C182.235 125.581 182.339 124.593 182.443 123.613L183.618 123.73C183.521 124.717 183.411 125.71 183.294 126.711C183.229 127.289 183.157 127.873 183.086 128.451ZM153.841 120.099L152.678 119.859C153.003 118.3 153.308 116.754 153.6 115.222L154.763 115.443C154.471 116.982 154.166 118.534 153.841 120.099ZM184.047 118.995L182.865 118.904C182.988 117.313 183.099 115.741 183.19 114.189L184.372 114.254C184.281 115.813 184.177 117.391 184.047 118.995ZM155.62 110.773L154.451 110.565C154.724 108.993 154.984 107.435 155.231 105.895L156.4 106.084C156.159 107.636 155.9 109.195 155.62 110.773ZM184.593 109.506L183.411 109.468C183.469 107.87 183.502 106.292 183.528 104.746L184.71 104.759C184.684 106.311 184.645 107.896 184.593 109.506ZM157.121 101.395L155.945 101.226C156.172 99.6412 156.387 98.0825 156.588 96.5368L157.764 96.6862C157.562 98.2384 157.348 99.8036 157.121 101.395ZM183.534 100.011C183.521 98.4072 183.489 96.8291 183.443 95.2898L184.625 95.2509C184.671 96.8031 184.703 98.3878 184.716 100.005L183.534 100.011ZM158.335 91.9776L157.16 91.8412C157.341 90.25 157.51 88.6848 157.66 87.1391L158.842 87.256C158.686 88.8082 158.517 90.3799 158.335 91.9776ZM183.242 90.5618C183.157 88.9446 183.053 87.3729 182.943 85.8467L184.125 85.7558C184.242 87.295 184.339 88.8732 184.424 90.4968L183.242 90.5618ZM159.27 82.4825L158.088 82.4306L158.179 81.2615H163.466V82.4436L159.27 82.4825ZM182.423 82.4436H177.682V81.2615H182.423V82.4436ZM172.948 82.4436H168.207V81.2615H172.948V82.4436Z" fill="#F4DBCD"/>
<path d="M155.153 70.9681H96.0001V130.121H155.153V70.9681Z" fill="#F4DBCD"/>
<path d="M150.881 69.9291V70.9747H149.445V69.9291C149.445 67.5586 147.231 65.6427 144.516 65.6427C141.788 65.6427 139.574 67.5651 139.574 69.9291V84.5614C139.574 86.0292 140.95 87.2242 142.62 87.2242C144.302 87.2242 145.678 86.0292 145.678 84.5614V70.1564C145.678 69.8836 145.549 69.6239 145.334 69.4225C145.107 69.2342 144.815 69.1238 144.516 69.1238C144.211 69.1238 143.912 69.2277 143.698 69.4095C143.477 69.6109 143.347 69.8836 143.347 70.1629V84.3471C143.347 84.6653 143.016 84.9381 142.626 84.9381C142.249 84.9381 141.918 84.6653 141.918 84.3471V70.1629C141.905 69.5719 142.178 69.0264 142.665 68.5977C143.139 68.1821 143.802 67.9547 144.522 67.9547C145.23 67.9547 145.899 68.1821 146.373 68.5977C146.86 69.0264 147.133 69.5719 147.12 70.1499V84.5549C147.12 86.6786 145.107 88.4062 142.633 88.4062C141.438 88.4062 140.301 88.0035 139.457 87.2696C138.612 86.5487 138.151 85.5746 138.151 84.5549V69.9291C138.151 66.9091 141.009 64.4542 144.529 64.4542C148.03 64.4542 150.881 66.9091 150.881 69.9291Z" fill="#64FCD9"/>
<path d="M117.757 80.5408L125.394 86.6327L131.265 79.9498L135.013 80.9759C135.013 80.9759 131.636 93.3091 133.103 100.362C134.571 107.409 139.345 122.535 139.345 122.535H111.814C111.814 122.535 118.568 102.564 118.419 99.6284C118.27 96.6928 114.893 82.3008 114.893 82.3008L117.757 80.5408Z" fill="#E3C1BA"/>
<path d="M219.209 123.165C219.209 123.165 219.787 130.361 220.463 139.019C221.385 150.774 222.495 165.211 222.599 167.946C222.788 172.693 223.548 180.292 223.548 180.292C223.548 180.292 225.353 182.097 228.964 181.337C228.964 181.337 232.179 170.492 233.101 159.016C233.114 158.827 233.127 158.639 233.147 158.451C234.004 146.767 235.329 122.172 235.329 122.172L219.209 123.165Z" fill="#006A99"/>
<path d="M219.209 123.165C219.209 123.165 219.787 130.361 220.463 139.019L233.101 159.016C233.114 158.827 233.127 158.639 233.147 158.451C234.004 146.767 235.329 122.172 235.329 122.172L219.209 123.165Z" fill="#003650"/>
<path d="M221.845 124.023C221.845 124.023 232.243 150.092 239.082 162.348C245.92 174.596 248.057 178.019 248.057 178.019C248.719 177.72 249.388 177.415 250.057 177.103C250.895 176.714 251.726 176.33 252.545 175.941C249.564 161.854 246.998 152.281 245.134 145.968C244.466 143.702 242.602 137.506 240.569 128.985C239.601 124.926 238.893 121.562 238.439 119.327L221.845 124.023Z" fill="#006A99"/>
<path d="M223.93 180.291C223.93 180.291 215.103 182.544 214.792 184.512H228.69L228.891 180.291H223.93Z" fill="#003650"/>
<path d="M247.973 177.856C246.512 179.61 245.063 180.571 243.953 181.136C242.758 181.74 241.258 182.227 240.959 183.422C240.848 183.857 240.933 184.266 241.03 184.546C242.342 184.546 243.661 184.546 244.972 184.546C247.979 183 250.986 181.448 254 179.902C253.519 178.577 253.032 177.259 252.552 175.934L247.973 177.856Z" fill="#003650"/>
<path d="M212.967 102.812C212.967 102.812 212.532 104.975 211.655 107.593C210.662 110.541 209.109 114.074 206.973 115.691C206.401 116.133 205.784 116.432 205.122 116.542C203.751 116.776 202.141 116.613 200.51 116.237C195.854 115.172 191.009 112.411 191.009 112.411L191.691 109.638C191.691 109.638 196.893 110.463 200.017 110.736C201.257 110.84 202.173 110.859 202.303 110.697C202.758 110.145 209.285 98.0779 209.285 98.0779L212.967 102.812Z" fill="#FF7F50"/>
<path d="M159.589 126.342L156.822 128.537C155.627 129.485 155.179 131.089 155.718 132.518C156.251 133.947 157.647 134.863 159.167 134.798L162.693 134.635L159.589 126.342Z" fill="#003650"/>
<path d="M231.944 93.0751L226.84 94.9844L234.002 114.127L239.105 112.218L231.944 93.0751Z" fill="#003650"/>
<path d="M175.227 135.946C175.084 135.965 174.935 135.972 174.792 135.978C174.487 135.991 174.175 135.985 173.863 135.946C173.857 135.946 173.85 135.946 173.844 135.946L162.686 134.64L159.581 126.34L167.141 118.034C167.148 118.027 167.148 118.027 167.154 118.021C167.362 117.794 167.589 117.579 167.83 117.384C167.94 117.293 168.057 117.209 168.18 117.125L175.227 135.946Z" fill="#F4DBCD"/>
<path d="M239.109 112.241L231.946 93.0954L238.012 90.8288C240.655 89.8416 243.597 91.1795 244.591 93.8228L248.169 103.396C249.157 106.039 247.819 108.981 245.175 109.975L239.109 112.241Z" fill="#FF2B4B"/>
<path d="M229.23 101.383L170.519 123.348L169.597 123.692C169.447 123.302 169.123 122.978 168.674 122.854L166.7 122.322C165.797 122.081 165.401 121.023 165.921 120.243L167.843 117.392C167.954 117.301 168.07 117.217 168.194 117.133C168.596 116.86 169.032 116.626 169.493 116.457L226.846 94.999L229.23 101.383Z" fill="#FFDA94"/>
<path d="M234.003 114.151L176.65 135.603C176.188 135.772 175.708 135.889 175.227 135.947C175.084 135.967 174.935 135.973 174.792 135.98L171.473 135.09C170.571 134.85 170.174 133.784 170.694 133.012L171.837 131.317C172.097 130.927 172.129 130.472 171.98 130.076L172.902 129.732L231.613 107.767L234.003 114.151Z" fill="#FFB200"/>
<path d="M229.23 101.382L169.597 123.691C169.746 124.081 169.714 124.542 169.454 124.931L168.311 126.626C167.792 127.399 168.188 128.464 169.091 128.705L171.065 129.237C171.519 129.361 171.844 129.685 171.987 130.075L231.62 107.766L229.23 101.382Z" fill="#FFCC5C"/>
<path d="M215.577 92.479C215.577 92.479 214.246 97.6292 209.94 98.1033C209.94 98.1033 208.459 96.2913 207.732 94.9209C207.641 94.7521 207.557 94.5897 207.472 94.4339C206.647 92.9011 206.141 92.0568 206.141 92.0568C206.271 91.901 210.434 86.9521 210.525 87.1404C212.622 91.3684 215.577 92.479 215.577 92.479Z" fill="#FFB29F"/>
<path d="M210.525 88.4195C210.506 89.634 209.72 92.4072 207.479 94.44C206.654 92.9073 206.148 92.063 206.148 92.063C206.278 91.9461 210.525 88.0623 210.525 88.4195Z" fill="#FF876F"/>
<path d="M204.784 92.2388C204.784 92.2388 211.214 90.5762 210.117 86.5171C209.019 82.4515 209.116 79.5029 204.96 80.3927C200.81 81.2824 200.433 83.049 200.472 84.4973C200.518 85.9326 203.083 92.5635 204.784 92.2388Z" fill="#FFB29F"/>
<path d="M210.844 87.7382C212.065 87.4979 214.123 80.6721 210.077 77.6326C207.616 75.7817 203.914 76.0999 201.797 78.0223C200.862 78.8731 200.4 79.8863 200.167 80.5877C200.024 80.5942 197.53 80.6851 197.108 81.8931C196.634 83.2375 198.887 85.5106 200.628 85.3417C202.186 85.1923 202.596 83.1401 203.979 83.3154C204.589 83.3933 205.869 83.9908 206.505 84.8741C206.824 85.3157 207.142 85.6535 208.103 84.6078C209.064 83.5622 209.519 86.0107 209.538 86.5107C209.915 87.1407 210.422 87.8226 210.844 87.7382Z" fill="#003650"/>
<path d="M239.765 121.413C237.531 122.686 234.498 124.134 230.724 125.173C226.249 126.407 222.327 126.635 219.489 126.583C219.32 120.835 217.768 116.925 216.365 114.405C213.507 109.268 209.253 106.274 208.773 100.182C208.662 98.8053 208.779 97.6753 208.883 96.9544C210.714 95.6944 212.546 94.4409 214.377 93.181C215.709 92.2653 217.469 92.2133 218.82 93.0901C220.404 94.1162 222.021 95.2982 223.639 96.6556C233.432 104.897 237.784 115.178 239.765 121.413Z" fill="#FF7F50"/>
<path d="M215.578 113.106L219.612 104.611L217.949 117.938L215.578 113.106Z" fill="#B9425D"/>
<path d="M213 117.711C212.292 118.893 211.708 119.789 211.331 120.199C210.305 121.322 208.396 122.64 206.252 123.92C201.557 126.726 195.77 129.356 195.77 129.356C195.238 130.408 193.692 131.083 192.055 131.031C190.425 130.98 190.854 131.142 189.698 131.129C189.12 131.122 188.983 130.759 188.99 130.395C189.003 130.005 189.185 129.635 189.477 129.369C190.932 128.05 191.737 127.797 192.581 127.635C192.308 127.498 192.12 127.323 192.088 127.174C192.042 126.966 193.653 127.057 194.367 127.102C196.322 126.407 199.953 122.9 202.589 120.147C204.181 118.49 205.408 117.107 205.694 116.776C205.928 116.51 206.369 115.087 206.863 113.236C208.649 114.957 210.825 116.717 213 117.711Z" fill="#FFB29F"/>
<path d="M220.021 104.728C217.631 109.372 213.209 118.036 211.903 120.01C211.065 121.283 210.202 123.361 208.221 125.03C203.876 124.524 202.583 120.146 202.583 120.146C204.175 118.49 205.402 117.107 205.688 116.776C206.454 115.905 209.442 102.559 209.442 102.559C209.442 102.559 210.422 97.1749 213.436 96.4021C216.053 95.7331 217.963 96.9346 219.255 98.3959C220.794 100.143 221.086 102.663 220.021 104.728Z" fill="#FF7F50"/>
</svg>
