<svg width="350" height="249" viewBox="0 0 350 249" fill="none" xmlns="http://www.w3.org/2000/svg">
<rect width="350" height="249" fill="#FFE281"/>
<path d="M257.486 145.458H229.1V165.937H257.486V145.458Z" fill="#353C8E"/>
<path d="M248.993 171.099V160.31H193.055V171.099H248.993Z" fill="#FF92A4"/>
<path d="M263.8 165.706L260.1 164.355V167.054L263.8 165.706Z" fill="#FF5053"/>
<path d="M260.1 164.355L248.992 160.312V171.101L260.1 167.054V164.355Z" fill="#FFE9CE"/>
<path d="M248.993 167.055V164.356H193.055V167.055H248.993Z" fill="#F97D97"/>
<path d="M211.036 159.25H180.426V173.555H211.036V159.25Z" fill="#353C8E"/>
<path d="M196.171 175.323H192.097L207.624 98.694H211.036L196.171 175.323Z" fill="#142544"/>
<path d="M222.49 175.323H226.564L211.037 98.694H207.624L222.49 175.323Z" fill="#142544"/>
<path d="M243.527 101.678H178.34V165.761H243.527V101.678Z" fill="#F4F5FE"/>
<path d="M183.652 101.678H182.606V162.017H183.652V101.678Z" fill="#7C87D8"/>
<path d="M239.258 101.678H238.212V162.017H239.258V101.678Z" fill="#7C87D8"/>
<path d="M241.188 104.129H180.772V163.309H241.188V104.129Z" fill="#F6E5E8"/>
<path d="M241.188 104.129H180.673V106.6H241.188V104.129Z" fill="#4E51BF"/>
<path d="M237.654 154.892C231.743 154.892 225.061 148.001 224.657 141.319L226.189 134.648C233.503 124.949 237.654 154.892 237.654 154.892Z" fill="#FF92A4"/>
<path d="M230.502 112.93H229.102H227.702C227.702 112.93 227.877 115.324 223.559 117.073V120.225C223.559 120.225 225.632 124.076 225.632 128.161C225.884 128.414 226.228 128.622 226.598 128.795C228.177 129.528 230.027 129.528 231.608 128.795C231.982 128.622 232.325 128.414 232.575 128.161C232.575 124.076 234.647 120.225 234.647 120.225V117.073C230.326 115.322 230.502 112.93 230.502 112.93Z" fill="#243172"/>
<path d="M232.039 126.896H226.101C226.101 126.896 222.005 130.547 222.931 141.319C226.897 142.763 231.243 142.763 235.21 141.319C236.135 130.547 232.039 126.896 232.039 126.896Z" fill="#243172"/>
<path d="M225.316 125.501C225.316 125.501 220.943 133.404 223.556 140.119C226.173 146.837 237.654 154.892 237.654 154.892C237.654 154.892 237.541 134.423 233.055 128.224C228.657 125.586 225.316 125.501 225.316 125.501Z" fill="#F97D97"/>
<path d="M232.712 116.074C232.712 116.074 230.824 118.728 227.002 123.752C228.287 126.585 233.056 124.458 233.056 124.458L233.92 121.822L234.642 117.073L232.712 116.074Z" fill="#F97D97"/>
<path d="M226.857 114.888L223.557 117.073C223.557 117.073 221.347 129.921 233.059 128.227V124.458C233.059 124.458 227.886 123.368 226.857 114.888Z" fill="#FF92A4"/>
<path d="M192.016 112.93H184.206C184.247 121.394 191.056 128.252 199.495 128.381V120.543C195.555 120.049 192.442 116.892 192.016 112.93Z" stroke="#C56F60" stroke-width="0.5013" stroke-miterlimit="10"/>
<path d="M184.206 134.314C184.206 154.538 197.784 155.7 197.784 155.7V134.314H184.206Z" stroke="#C56F60" stroke-width="0.5013" stroke-miterlimit="10"/>
<path d="M203.267 134.314C203.267 157.086 217.43 158.393 217.43 158.393V134.314H203.267Z" stroke="#C56F60" stroke-width="0.4825" stroke-miterlimit="10"/>
<path d="M205.323 128.381L210.912 112.93H217.432V128.381H205.323Z" stroke="#C56F60" stroke-width="0.5013" stroke-miterlimit="10"/>
<path d="M217.397 129.344H205.356" stroke="#C56F60" stroke-width="0.2506" stroke-miterlimit="10"/>
<path d="M217.429 129.122H217.361V129.57H217.429V129.122Z" fill="#C56F60"/>
<path d="M205.391 129.122H205.323V129.57H205.391V129.122Z" fill="#C56F60"/>
<path d="M199.461 129.344H184.241" stroke="#C56F60" stroke-width="0.2506" stroke-miterlimit="10"/>
<path d="M199.497 129.122H199.428V129.57H199.497V129.122Z" fill="#C56F60"/>
<path d="M184.275 129.122H184.206V129.57H184.275V129.122Z" fill="#C56F60"/>
<path d="M218.393 128.29V112.963" stroke="#C56F60" stroke-width="0.2506" stroke-miterlimit="10"/>
<path d="M218.618 128.257H218.171V128.326H218.618V128.257Z" fill="#C56F60"/>
<path d="M218.618 112.93H218.171V112.999H218.618V112.93Z" fill="#C56F60"/>
<path d="M200.491 128.291V120.661" stroke="#C56F60" stroke-width="0.2506" stroke-miterlimit="10"/>
<path d="M200.713 128.259H200.266V128.327H200.713V128.259Z" fill="#C56F60"/>
<path d="M200.713 120.629H200.266V120.697H200.713V120.629Z" fill="#C56F60"/>
<path d="M198.781 134.349V155.663" stroke="#C56F60" stroke-width="0.2506" stroke-miterlimit="10"/>
<path d="M199.003 134.313H198.556V134.382H199.003V134.313Z" fill="#C56F60"/>
<path d="M199.003 155.628H198.556V155.697H199.003V155.628Z" fill="#C56F60"/>
<path d="M184.241 133.399H197.751" stroke="#C56F60" stroke-width="0.2506" stroke-miterlimit="10"/>
<path d="M184.275 133.176H184.206V133.624H184.275V133.176Z" fill="#C56F60"/>
<path d="M197.787 133.176H197.718V133.624H197.787V133.176Z" fill="#C56F60"/>
<path d="M218.393 158.356V134.349" stroke="#C56F60" stroke-width="0.2506" stroke-miterlimit="10"/>
<path d="M218.618 158.324H218.171V158.392H218.618V158.324Z" fill="#C56F60"/>
<path d="M218.618 134.313H218.171V134.382H218.618V134.313Z" fill="#C56F60"/>
<path d="M203.302 133.399H217.397" stroke="#C56F60" stroke-width="0.2506" stroke-miterlimit="10"/>
<path d="M203.336 133.176H203.267V133.624H203.336V133.176Z" fill="#C56F60"/>
<path d="M217.43 133.176H217.361V133.624H217.43V133.176Z" fill="#C56F60"/>
<path d="M217.383 111.845H211.008" stroke="#C56F60" stroke-width="0.2506" stroke-miterlimit="10"/>
<path d="M217.416 111.62H217.347V112.068H217.416V111.62Z" fill="#C56F60"/>
<path d="M211.044 111.62H210.976V112.068H211.044V111.62Z" fill="#C56F60"/>
<path d="M103.377 115.896H99.012C96.0471 115.896 93.645 113.494 93.645 110.529V102.453C93.645 99.4876 96.0471 97.0855 99.012 97.0855H103.377C104.011 97.0855 104.525 97.5988 104.525 98.233V114.754C104.525 115.383 104.011 115.896 103.377 115.896Z" fill="#656DCE"/>
<path d="M184.162 133.532C185.378 133.532 186.367 132.546 186.367 131.327V129.123H181.961V131.327C181.958 132.546 182.943 133.532 184.162 133.532Z" fill="#656DCE"/>
<path d="M184.162 141.751C184.423 141.751 184.635 141.54 184.635 141.279V133.252H183.69V141.279C183.69 141.54 183.902 141.751 184.162 141.751Z" fill="#656DCE"/>
<path d="M208.244 144.344H141.24C139.79 144.344 138.613 143.169 138.613 141.716V128.83C138.613 123.883 142.624 119.872 147.571 119.872H160.457C162.788 119.872 164.674 121.761 164.674 124.089C164.674 128.089 167.916 131.328 171.913 131.328H194.578C198.578 131.328 201.817 128.086 201.817 124.089V112.63V97.1438C201.817 93.1439 198.575 89.9045 194.578 89.9045H171.913H131.373H103.201C101.689 89.9045 100.461 91.1316 100.461 92.6443V112.633V168.035C100.461 172.035 103.704 175.275 107.701 175.275H130.621H131.373H208.247C212.038 175.275 215.113 172.2 215.113 168.409V151.212C215.113 147.418 212.038 144.344 208.244 144.344Z" fill="#7C87D8"/>
<mask id="mask0_554_2074" style="mask-type:luminance" maskUnits="userSpaceOnUse" x="100" y="89" width="116" height="87">
<path d="M208.244 144.344H141.24C139.79 144.344 138.613 143.169 138.613 141.717V128.83C138.613 123.883 142.624 119.872 147.571 119.872H160.457C162.788 119.872 164.674 121.761 164.674 124.089C164.674 128.089 167.916 131.329 171.913 131.329H194.578C198.578 131.329 201.817 128.086 201.817 124.089V112.63V97.1442C201.817 93.1443 198.575 89.9049 194.578 89.9049H171.913H131.373H103.201C101.689 89.9049 100.461 91.132 100.461 92.6447V112.633V168.036C100.461 172.036 103.704 175.275 107.701 175.275H130.621H131.373H208.247C212.038 175.275 215.113 172.2 215.113 168.409V151.213C215.113 147.419 212.038 144.344 208.244 144.344Z" fill="white"/>
</mask>
<g mask="url(#mask0_554_2074)">
<path d="M215.943 152.45H132.972C130.449 152.45 128.404 150.405 128.404 147.882V124.44C128.404 121.917 130.449 119.872 132.972 119.872H150.978C153.501 119.872 155.547 121.917 155.547 124.44V132.621C155.547 134.704 156.958 136.524 158.975 137.043L182.711 143.165C183.085 143.261 183.466 143.311 183.853 143.311H215.943C218.348 143.311 220.341 145.175 220.503 147.571C220.679 150.212 218.587 152.45 215.943 152.45Z" fill="#656DCE"/>
</g>
<path d="M165.401 102.371H137.888C134.289 102.371 131.371 99.4524 131.371 95.8533V89.9043H171.916V95.8533C171.916 99.4524 169 102.371 165.401 102.371Z" fill="#656DCE"/>
<path d="M175.018 122.652H178.562C178.933 122.652 179.235 122.351 179.235 121.98V120.544C179.235 120.174 178.933 119.872 178.562 119.872H175.018C174.647 119.872 174.345 120.174 174.345 120.544V121.98C174.345 122.351 174.647 122.652 175.018 122.652Z" fill="#656DCE"/>
<path d="M168.575 122.652H172.119C172.489 122.652 172.791 122.351 172.791 121.98V120.544C172.791 120.174 172.489 119.872 172.119 119.872H168.575C168.204 119.872 167.902 120.174 167.902 120.544V121.98C167.902 122.351 168.204 122.652 168.575 122.652Z" fill="#656DCE"/>
<path d="M118.641 89.9046H119.379V175.953H118.641" fill="#656DCE"/>
<path d="M116.545 89.9046H117.284V175.953H116.545" fill="#656DCE"/>
<path d="M121.545 169.626C125.971 167.655 127.962 162.468 125.99 158.042C124.019 153.615 118.833 151.625 114.406 153.596C109.98 155.567 107.989 160.754 109.96 165.18C111.932 169.607 117.118 171.597 121.545 169.626Z" fill="#353C8E"/>
<path d="M113.309 161.609C113.309 164.186 115.401 166.278 117.979 166.278C120.557 166.278 122.649 164.186 122.649 161.609C122.649 159.031 120.557 156.939 117.979 156.939C115.401 156.939 113.309 159.031 113.309 161.609Z" fill="#142544"/>
<path d="M117.979 97.2948C112.901 97.2948 108.783 101.413 108.783 106.492C108.783 111.57 112.901 115.688 117.979 115.688C123.058 115.688 127.176 111.57 127.176 106.492C127.179 101.413 123.061 97.2948 117.979 97.2948Z" fill="#656DCE"/>
<path d="M112.972 89.9037H118.177H123.384L120.733 86.7411H118.177H115.621L112.972 89.9037Z" fill="#353C8E"/>
<path d="M123.385 73.58H118.177H112.972L115.621 76.7425H118.177H120.733L123.385 73.58Z" fill="#353C8E"/>
<path d="M115.177 76.2105V87.2712H121.178V76.2105H115.177Z" fill="#353C8E"/>
<path d="M121.836 76.4107V87.0762C121.836 87.3479 121.617 87.5676 121.345 87.5676H115.011C114.74 87.5676 114.52 87.3479 114.52 87.0762V76.4107C114.52 76.1389 114.74 75.9193 115.011 75.9193H121.345C121.617 75.9193 121.836 76.1389 121.836 76.4107Z" fill="#F3A6B4"/>
<path d="M114.52 75.9195L121.836 77.9098L114.52 79.8096L121.836 81.3414L114.52 84.2405L121.836 85.7202L114.52 87.565" stroke="#FF5053" stroke-width="0.749" stroke-miterlimit="10" stroke-linecap="round" stroke-linejoin="round"/>
<path d="M121.836 87.3124L114.52 86.3241L121.836 83.6667L114.52 82.3819L121.836 79.4719L114.52 76.96L121.836 75.9195" stroke="#FF5053" stroke-width="0.749" stroke-miterlimit="10" stroke-linecap="round" stroke-linejoin="round"/>
<path d="M186.531 156.938H127.348V176.945H186.531V156.938Z" fill="#353C8E"/>
<path opacity="0.5" d="M132.518 156.938H127.348V176.945H132.518V156.938Z" fill="#293277"/>
<path opacity="0.5" d="M141.528 156.938H136.359V176.945H141.528V156.938Z" fill="#293277"/>
<path opacity="0.5" d="M150.538 156.938H145.369V176.945H150.538V156.938Z" fill="#293277"/>
<path opacity="0.5" d="M159.548 156.938H154.379V176.945H159.548V156.938Z" fill="#293277"/>
<path opacity="0.5" d="M168.555 156.938H163.386V176.945H168.555V156.938Z" fill="#293277"/>
<path opacity="0.5" d="M177.565 156.938H172.396V176.945H177.565V156.938Z" fill="#293277"/>
<path opacity="0.5" d="M186.576 156.938H181.406V176.945H186.576V156.938Z" fill="#293277"/>
<path d="M165.629 86.3981C165.629 86.3981 166.823 86.6836 167.647 86.6781C167.957 86.6754 169.703 86.4146 169.58 85.9643C169.522 85.7502 168.042 85.8985 168.042 85.8985C168.042 85.8985 168.959 84.9898 170.008 84.1634C171.059 83.3399 170.669 83.3508 169.585 83.1971C168.498 83.0434 166.637 83.812 165.173 85.1545" fill="#F7A079"/>
<path d="M166.409 120.478C166.409 120.478 166.19 163.054 183.99 166.148C178.519 150.755 178.294 122.416 178.294 122.416L166.409 120.478Z" fill="#FF92A4"/>
<path d="M175.621 80.1383H173.241H170.861C170.861 80.1383 171.157 84.2041 163.819 87.18V92.5388C163.819 92.5388 167.342 99.0863 167.342 106.029C167.77 106.457 168.352 106.814 168.986 107.108C171.671 108.354 174.817 108.354 177.499 107.108C178.133 106.814 178.715 106.457 179.144 106.029C179.144 99.0863 182.666 92.5388 182.666 92.5388V87.1827C175.325 84.2068 175.621 80.1383 175.621 80.1383Z" fill="white"/>
<path d="M173.234 146.833C168.534 146.833 165.841 147.516 165.841 148.705H166.242C166.242 148.159 167.713 147.233 173.234 147.233C178.755 147.233 180.226 148.159 180.226 148.705H180.627C180.63 147.516 177.934 146.833 173.234 146.833Z" fill="white"/>
<path d="M178.326 103.74H168.157C168.157 103.74 161.14 109.994 162.727 128.445C169.519 130.915 176.964 130.915 183.756 128.445C185.343 109.996 178.326 103.74 178.326 103.74Z" fill="white"/>
<path d="M173.686 121.999H172.794V175.603H173.686V121.999Z" fill="#142544"/>
<path d="M178.389 174.409C176.195 170.719 173.242 170.357 173.242 170.357C173.242 170.357 170.288 170.719 168.091 174.409C165.898 178.099 163.534 178.461 163.534 178.461V178.966C163.534 178.966 167.131 178.996 168.747 176.43C169.178 175.746 169.703 175.101 170.337 174.544C172.001 173.08 173.242 173.034 173.242 173.034C173.242 173.034 174.482 173.083 176.146 174.544C176.78 175.101 177.305 175.743 177.736 176.43C179.353 178.996 182.949 178.966 182.949 178.966V178.461C182.949 178.461 180.585 178.099 178.389 174.409Z" fill="#142544"/>
<path d="M171.704 164.611C171.704 165.459 172.393 166.148 173.241 166.148C174.09 166.148 174.779 165.459 174.779 164.611C174.779 163.763 174.09 163.074 173.241 163.074C172.393 163.074 171.704 163.763 171.704 164.611Z" fill="#142544"/>
<path d="M171.704 175.891C171.704 176.739 172.393 177.429 173.241 177.429C174.09 177.429 174.779 176.739 174.779 175.891C174.779 175.043 174.09 174.354 173.241 174.354C172.393 174.354 171.704 175.043 171.704 175.891Z" fill="#142544"/>
<path d="M173.242 170.711C174.502 170.711 175.523 169.689 175.523 168.429C175.523 167.169 174.502 166.148 173.242 166.148C171.982 166.148 170.961 167.169 170.961 168.429C170.961 169.689 171.982 170.711 173.242 170.711Z" fill="#142544"/>
<path d="M163.339 128.061L162.939 128.117L165.856 148.823L166.256 148.767L163.339 128.061Z" fill="white"/>
<path d="M168.394 127.598L167.992 127.628L169.685 150.178L170.088 150.147L168.394 127.598Z" fill="white"/>
<path d="M183.132 128.068L180.232 148.776L180.632 148.832L183.532 128.124L183.132 128.068Z" fill="white"/>
<path d="M178.084 127.604L176.407 150.153L176.809 150.183L178.487 127.634L178.084 127.604Z" fill="white"/>
<path d="M173.234 150.58C177.934 150.58 180.627 149.896 180.627 148.708H180.226C180.226 149.254 178.755 150.179 173.234 150.179C167.713 150.179 166.242 149.254 166.242 148.708H165.841C165.841 149.896 168.537 150.58 173.234 150.58Z" fill="white"/>
<path d="M166.409 104.833C166.409 104.833 162.653 110.197 162.653 119.147C162.653 128.096 176.138 140.906 177.92 152.208C179.701 163.51 183.99 166.151 183.99 166.151C183.99 166.151 181.799 153.68 183.344 140.211C184.887 126.743 185.121 118.691 182.666 112.264C172.531 113.423 166.409 104.833 166.409 104.833Z" fill="#F97D97"/>
<path d="M179.304 103.37C171.186 98.9496 169.377 83.5211 169.377 83.5211L163.818 87.1806C163.818 87.1806 163.667 100.07 167.694 107.721C169.119 110.425 172.207 111.921 175.161 111.139C177.086 110.631 178.766 109.261 179.499 107.15C179.916 105.953 179.949 104.668 179.304 103.37Z" fill="#FF92A4"/>
<path d="M168.704 109.393C167.762 108.441 169.475 110.497 168.704 109.393V109.393Z" fill="#FF92A4"/>
<path d="M104.302 149.701H95.251H86.1998L90.8091 155.2H95.251H99.6929L104.302 149.701Z" fill="#FF92A4"/>
<path d="M86.1996 178.079H95.2509H104.302L99.6927 172.58H95.2509H90.809L86.1996 178.079Z" fill="#FF92A4"/>
<path d="M100.468 173.504V154.276H90.0357V173.504H100.468Z" fill="#353C8E"/>
<path d="M88.8925 173.16V154.621C88.8925 154.149 89.2741 153.768 89.7463 153.768H100.758C101.23 153.768 101.611 154.149 101.611 154.621V173.16C101.611 173.632 101.23 174.014 100.758 174.014H89.7463C89.2741 174.014 88.8925 173.63 88.8925 173.16Z" fill="#FF5053"/>
<path d="M88.8925 155.558L101.609 158.468L88.8925 161.243L101.609 163.483L88.8925 167.722L101.609 169.885L88.8925 172.581" stroke="#FF92A4" stroke-width="0.7355" stroke-miterlimit="10" stroke-linecap="round" stroke-linejoin="round"/>
<path d="M101.609 172.213L88.8925 170.767L101.609 166.885L88.8925 165.004L101.609 160.752L88.8925 157.081L101.609 155.558" stroke="#FF92A4" stroke-width="0.7355" stroke-miterlimit="10" stroke-linecap="round" stroke-linejoin="round"/>
<path d="M163.052 138.257H131.341V157.485H163.052V138.257Z" fill="#243172"/>
<path d="M131.341 142.803H162.942" stroke="#353C8E" stroke-width="1.4711" stroke-miterlimit="10"/>
<path d="M147.546 157.485V142.803" stroke="#353C8E" stroke-width="1.4711" stroke-miterlimit="10"/>
<path d="M149.605 153.362H123.256V170.742H149.605V153.362Z" fill="#142544"/>
<path d="M123.255 155.684H149.605" stroke="#353C8E" stroke-width="1.4711" stroke-miterlimit="10"/>
<path d="M123.255 168.027H149.605" stroke="#353C8E" stroke-width="1.4711" stroke-miterlimit="10"/>
<path d="M123.255 161.856H149.605" stroke="#353C8E" stroke-width="1.4711" stroke-miterlimit="10"/>
<path d="M156.556 170.321H112.804V178.999H156.556V170.321Z" fill="#4957BA"/>
<path d="M156.746 170.321H112.609V173.555H156.746V170.321Z" fill="#243172"/>
<path d="M150.475 82.7545C150.475 82.7545 148.109 82.9329 148.109 86.4881C148.109 90.0432 150.827 92.1763 148.109 97.8673C151.881 99.9125 155.033 100.349 155.033 100.349C155.033 100.349 155.214 95.3801 156.002 91.9128C156.789 88.4427 157.841 87.556 150.475 82.7545Z" fill="#243172"/>
<path d="M153.632 134.759C151.774 130.954 150.3 126.603 151.689 118.098C145.111 105.387 148.34 97.3624 148.34 97.3624C148.34 97.3624 153.984 92.8025 154.86 98.9355C155.735 105.068 155.035 111.948 155.035 113.993C155.035 116.039 155.035 134.405 155.035 134.405C155.035 134.405 156.065 135.868 156.844 136.648C157.624 137.427 159.472 137.287 159.137 138.259C157.69 138.259 153.009 138.061 153.009 138.061C153.009 138.061 152.227 136.162 153.632 134.759Z" fill="#F7A079"/>
<path d="M148.905 83.6803L150.395 78.725L153.363 80.5507L152.331 84.567L148.905 83.6803Z" fill="#F7A079"/>
<path d="M157.95 92.8302C157.95 92.8302 152.117 89.1405 150.59 88.1742C150.335 88.0122 150.137 87.82 149.984 87.6086C148.71 85.8681 150.895 83.5841 152.707 84.7563C152.97 84.9265 153.245 85.1544 153.528 85.4454C155.189 87.1667 158.763 89.5249 158.763 89.5249L165.516 84.9402L166.409 85.4701C166.409 85.4756 161.857 91.9517 157.95 92.8302Z" fill="#F7A079"/>
<path d="M153.363 84.9129L158.008 88.361L155.685 91.551L152.331 88.232L153.363 84.9129Z" fill="#243172"/>
<path d="M154.151 91.4956L157.091 87.5643L158.961 89.206L156.144 93.0549L154.151 91.4956Z" fill="#353C8E"/>
<path d="M153.418 101.541L148.106 97.8676C148.106 97.8676 147.532 98.8147 146.955 100.572C146.044 103.347 146.033 106.334 146.766 109.162C147.266 111.089 147.839 112.898 148.13 118.331C144.754 123.031 143.395 129.771 142.964 132.494C141.245 133.084 140.973 134.951 140.973 134.951C140.973 134.951 145.003 137.328 146.25 138.061C147.032 137.394 145.563 136.669 145.289 135.602C145.053 134.693 144.701 133.323 144.6 132.936C146.692 129.485 151.779 120.964 151.946 119.349C152.158 117.312 153.418 101.541 153.418 101.541Z" fill="#F6B28F"/>
<path d="M154.006 85.4395C154.006 85.4395 151.463 87.9844 148.106 87.449C148.905 95.317 143.884 102.559 144.274 109.002C144.559 113.697 144.663 113.689 144.663 113.689C144.663 113.689 150.198 115.893 156.553 114.202C154.772 95.7288 160.174 88.0997 154.006 85.4395Z" fill="#F4BACD"/>
<mask id="mask1_554_2074" style="mask-type:luminance" maskUnits="userSpaceOnUse" x="144" y="85" width="14" height="30">
<path d="M154.005 85.4396C154.005 85.4396 151.463 87.9845 148.106 87.4491C148.905 95.3171 143.883 102.559 144.273 109.002C144.559 113.697 144.663 113.689 144.663 113.689C144.663 113.689 150.198 115.893 156.553 114.202C154.771 95.7289 160.174 88.0998 154.005 85.4396Z" fill="white"/>
</mask>
<g mask="url(#mask1_554_2074)">
<path d="M143.425 110.611C143.425 110.611 149.761 113.637 157.258 111.007" stroke="#FF92A4" stroke-width="0.7355" stroke-miterlimit="10"/>
</g>
<mask id="mask2_554_2074" style="mask-type:luminance" maskUnits="userSpaceOnUse" x="144" y="85" width="14" height="30">
<path d="M154.005 85.4396C154.005 85.4396 151.463 87.9845 148.106 87.4491C148.905 95.3171 143.883 102.559 144.273 109.002C144.559 113.697 144.663 113.689 144.663 113.689C144.663 113.689 150.198 115.893 156.553 114.202C154.771 95.7289 160.174 88.0998 154.005 85.4396Z" fill="white"/>
</mask>
<g mask="url(#mask2_554_2074)">
<path d="M143.425 111.805C143.425 111.805 149.761 114.83 157.258 112.203" stroke="#FF92A4" stroke-width="0.7355" stroke-miterlimit="10"/>
</g>
<path d="M156.422 94.041C156.422 94.041 151.527 89.1736 150.247 87.8998C150.033 87.6884 149.882 87.455 149.778 87.2162C148.913 85.2396 151.54 83.4853 153.056 85.0227C153.275 85.2478 153.495 85.5278 153.709 85.8738C154.958 87.9162 157.937 90.9937 157.937 90.9937C157.937 90.9937 162.132 93.2558 166.063 96.1796C165.239 97.8679 165.239 97.8679 165.239 97.8679C165.239 97.8679 159.203 95.8995 156.422 94.041Z" fill="#F6B28F"/>
<path d="M153.418 84.2597C153.418 84.2597 153.418 84.2597 153.418 83.4773C151.922 81.9811 148.523 81.5885 148.523 81.5885L148.106 82.7525C144.839 86.0194 148.477 92.0233 145.564 94.9334C142.651 97.8434 142.533 101.248 142.533 101.248C142.533 101.248 146.179 104.372 150.67 103.35C153.015 97.7747 153.418 92.0041 153.418 92.0041L155.227 93.7007L158.008 90.3158L153.418 84.2597Z" fill="#243172"/>
<path d="M151.595 130.262L155.271 129.82V132.198C155.271 133.883 155.985 135.508 157.281 136.59C157.379 136.672 157.47 136.741 157.552 136.796C158.285 137.282 159.444 137.334 159.444 138.257H152.743C152.743 138.257 152.509 137.603 152.567 136.461C152.63 135.256 152.487 134.051 152.21 132.876C151.883 131.489 151.595 130.262 151.595 130.262Z" fill="#142544"/>
<path d="M143.815 127.366L147.197 128.873L145.976 130.913C145.108 132.36 144.889 134.122 145.443 135.714C145.484 135.835 145.528 135.942 145.569 136.03C145.948 136.823 146.915 137.463 146.44 138.256L140.691 134.814C140.691 134.814 140.826 134.133 141.462 133.183C142.135 132.181 142.632 131.075 143 129.925C143.434 128.568 143.815 127.366 143.815 127.366Z" fill="#142544"/>
<path d="M148.899 76.9023C148.861 76.1007 149.031 75.2936 149.462 74.6155C149.92 73.8962 150.725 73.1852 152.125 73.1852C154.961 73.1852 155.076 75.2524 155.183 77.1329C155.738 78.1651 155.356 79.5021 154.598 80.7869C154.384 81.1493 153.97 81.3414 153.552 81.2783C152.15 81.0614 149.802 80.6963 148.899 76.9023Z" fill="#F6B28F"/>
<path d="M149.997 80.1277C149.997 80.1277 146.192 79.09 147.661 74.1924C146.299 74.1924 146.53 72.6358 147.167 72.4244C146.662 70.78 148.97 68.9242 150.807 70.7635C152.328 70.6922 152.309 72.106 152.309 72.106C152.309 72.106 155.74 71.5679 155.96 74.898C153.81 75.771 150.95 74.5328 150.95 74.5328C150.95 74.5328 151.803 78.0907 149.997 80.1277Z" fill="#142544"/>
<path d="M151.244 78.8264C151.258 78.2334 150.975 77.6761 150.525 77.2918C150.143 76.9651 149.663 76.718 149.347 77.1518C148.759 77.9671 149.967 79.6692 150.766 79.5676C151.129 79.521 151.236 79.1833 151.244 78.8264Z" fill="#F6B28F"/>
<path d="M153.036 77.2861C153.036 77.4481 152.937 77.5661 152.817 77.5661C152.696 77.5661 152.597 77.4481 152.597 77.2861C152.597 77.1241 152.696 76.9923 152.817 76.9923C152.94 76.9951 153.036 77.1241 153.036 77.2861Z" fill="#262425"/>
<path d="M154.774 77.2861C154.774 77.4481 154.675 77.5661 154.554 77.5661C154.434 77.5661 154.335 77.4481 154.335 77.2861C154.335 77.1241 154.434 76.9923 154.554 76.9923C154.675 76.9923 154.774 77.1241 154.774 77.2861Z" fill="#262425"/>
<path d="M152.38 76.619C152.432 76.7371 152.578 76.781 152.682 76.7041C152.759 76.6492 152.849 76.5943 152.948 76.5586C153.033 76.5284 153.097 76.4543 153.097 76.3637V76.317C153.097 76.188 152.978 76.0892 152.852 76.1194C152.718 76.1496 152.55 76.2237 152.41 76.4076C152.364 76.4708 152.35 76.5504 152.38 76.619Z" fill="#142544"/>
<path d="M154.939 76.6469C154.887 76.7649 154.741 76.8089 154.637 76.732C154.56 76.6771 154.47 76.6222 154.371 76.5865C154.286 76.5563 154.223 76.4822 154.223 76.3916V76.3449C154.223 76.2159 154.341 76.1171 154.467 76.1473C154.601 76.1775 154.769 76.2516 154.909 76.4355C154.958 76.4987 154.969 76.5783 154.939 76.6469Z" fill="#142544"/>
<path d="M153.811 77.0941C153.811 77.0941 153.956 77.6404 154.321 78.2444C154.686 78.8483 154.091 78.7083 154.091 78.7083" stroke="#262425" stroke-width="0.3478" stroke-miterlimit="10" stroke-linecap="round" stroke-linejoin="round"/>
<path d="M152.693 78.9473C152.693 78.9473 153.097 78.9803 153.509 78.9803C153.94 78.9803 154.162 79.145 154.162 79.145C154.162 79.145 154.357 78.9007 154.626 79.145C154.497 79.9796 153.66 80.0592 152.693 78.9473Z" fill="#FF5053"/>
<path d="M153.865 92.575L157.055 88.8469L158.815 90.6038L155.754 94.2633L153.865 92.575Z" fill="#353C8E"/>
<path d="M148.106 81.2919L147.878 83.0022C147.878 83.0022 151.592 82.9034 153.865 84.8498C153.865 83.6419 154.025 83.1752 154.025 83.1752C154.025 83.1752 152.399 81.2919 148.106 81.2919Z" fill="#353C8E"/>
<path d="M150.631 95.3781C149.242 97.4069 147.878 97.8681 147.878 97.8681L148.265 98.5791C150.269 97.8681 151.227 95.9738 151.227 95.9738L150.631 95.3781Z" fill="#353C8E"/>
<path d="M153.58 92.1406L150.939 89.7412L153.215 93.8043L153.58 92.1406Z" fill="#1E2C60"/>
<path d="M152.729 78.9473C152.729 78.9473 154.022 79.5211 154.59 79.1807" stroke="#262425" stroke-width="0.3478" stroke-miterlimit="10" stroke-linecap="round" stroke-linejoin="round"/>
<path d="M149.698 77.5798C149.698 77.5798 150.212 77.3931 150.437 78.4062C150.225 78.7356 150.437 78.947 150.437 78.947" stroke="#262425" stroke-width="0.3478" stroke-miterlimit="10" stroke-linecap="round" stroke-linejoin="round"/>
<path d="M170.079 97.4007C168.789 96.8571 167.608 96.1927 167.608 96.1927C167.608 96.1927 169.143 95.9319 169.143 95.6986C169.143 95.2099 167.304 95.4268 166.991 95.5119C166.156 95.7343 165.025 96.3547 165.025 96.3547L164.912 97.7383C166.765 98.6937 168.86 98.9545 169.917 98.496C170.974 98.0376 171.369 97.9415 170.079 97.4007Z" fill="#F6B28F"/>
<path d="M236.07 179H241.47H246.87L244.12 175.72H241.47H238.818L236.07 179Z" fill="#353C8E"/>
<path d="M246.871 162.07H241.471H236.071L238.819 165.351H241.471H244.12L246.871 162.07Z" fill="#353C8E"/>
<path d="M238.359 164.797V176.269H244.583V164.797H238.359Z" fill="#353C8E"/>
<path d="M245.265 165.004V176.065C245.265 176.345 245.037 176.573 244.757 176.573H238.187C237.907 176.573 237.679 176.345 237.679 176.065V165.004C237.679 164.724 237.907 164.496 238.187 164.496H244.757C245.037 164.496 245.265 164.724 245.265 165.004Z" fill="#142544"/>
<path d="M237.677 164.809L245.265 166.769L237.677 168.639L245.265 170.143L237.677 172.999L245.265 174.454L237.677 176.271" stroke="#353C8E" stroke-width="0.7355" stroke-miterlimit="10" stroke-linecap="round" stroke-linejoin="round"/>
<path d="M245.265 176.021L237.677 175.049L245.265 172.436L237.677 171.17L245.265 168.307L237.677 165.836L245.265 164.809" stroke="#353C8E" stroke-width="0.7355" stroke-miterlimit="10" stroke-linecap="round" stroke-linejoin="round"/>
<path d="M104.804 165.499C102.35 165.499 100.36 167.489 100.36 169.943V178.336H109.249V169.943C109.249 167.489 107.259 165.499 104.804 165.499Z" fill="#C6CEFB"/>
<path d="M100.228 179H109.384C109.749 179 110.048 178.703 110.048 178.335C110.048 177.97 109.751 177.671 109.384 177.671H100.228C99.863 177.671 99.5637 177.968 99.5637 178.335C99.5637 178.701 99.8602 179 100.228 179Z" fill="#E2E5FF"/>
<path d="M104.805 166.009V177.32" stroke="#E2E5FF" stroke-width="0.8659" stroke-miterlimit="10" stroke-dasharray="0.87 0.87"/>
<path d="M101.194 177.32V169.726C101.194 167.673 102.811 166.009 104.804 166.009C106.797 166.009 108.414 167.673 108.414 169.726V177.32" stroke="#E2E5FF" stroke-width="0.8659" stroke-miterlimit="10" stroke-dasharray="0.87 0.87"/>
<path d="M102.949 177.32V167.961C102.949 166.882 103.797 166.009 104.846 166.009C105.892 166.009 106.743 166.882 106.743 167.961V177.32" stroke="#E2E5FF" stroke-width="0.8659" stroke-miterlimit="10" stroke-dasharray="0.87 0.87"/>
</svg>
