<svg width="714" height="594" viewBox="0 0 714 594" fill="none" xmlns="http://www.w3.org/2000/svg">
<path fill-rule="evenodd" clip-rule="evenodd" d="M329.352 17H-646V577H329.352C330.092 577 330.829 576.987 331.562 576.96C333.59 576.987 335.623 577 337.66 577C535.013 577 695 451.64 695 297C695 142.36 535.013 17 337.66 17C335.623 17 333.59 17.0133 331.562 17.0399C330.829 17.0134 330.092 17 329.352 17Z" fill="#FFE281"/>
<mask id="path-2-inside-1_3_31" fill="white">
<path fill-rule="evenodd" clip-rule="evenodd" d="M329.503 0H-708.709V594H329.504C329.953 594 330.402 593.995 330.849 593.985C332.122 593.995 333.397 594 334.673 594C544.008 594 713.708 461.029 713.708 297C713.708 132.971 544.008 0 334.673 0C333.397 0 332.122 0.00493986 330.849 0.0147969C330.402 0.00494945 329.953 0 329.503 0Z"/>
</mask>
<path d="M-708.709 0V-1H-709.709V0H-708.709ZM-708.709 594H-709.709V595H-708.709V594ZM330.849 593.985L330.857 592.985L330.842 592.985L330.827 592.985L330.849 593.985ZM330.849 0.0147969L330.827 1.01455L330.842 1.01488L330.857 1.01477L330.849 0.0147969ZM-709.709 0V2.97H-707.709V0H-709.709ZM-709.709 8.91V14.85H-707.709V8.91H-709.709ZM-709.709 20.79V26.73H-707.709V20.79H-709.709ZM-709.709 32.67V38.61H-707.709V32.67H-709.709ZM-709.709 44.55V50.49H-707.709V44.55H-709.709ZM-709.709 56.43V62.37H-707.709V56.43H-709.709ZM-709.709 68.31V74.25H-707.709V68.31H-709.709ZM-709.709 80.19V86.13H-707.709V80.19H-709.709ZM-709.709 92.07V98.01H-707.709V92.07H-709.709ZM-709.709 103.95V109.89H-707.709V103.95H-709.709ZM-709.709 115.83V121.77H-707.709V115.83H-709.709ZM-709.709 127.71V133.65H-707.709V127.71H-709.709ZM-709.709 139.59V145.53H-707.709V139.59H-709.709ZM-709.709 151.47V157.41H-707.709V151.47H-709.709ZM-709.709 163.35V169.29H-707.709V163.35H-709.709ZM-709.709 175.23V181.17H-707.709V175.23H-709.709ZM-709.709 187.11V193.05H-707.709V187.11H-709.709ZM-709.709 198.99V204.93H-707.709V198.99H-709.709ZM-709.709 210.87V216.81H-707.709V210.87H-709.709ZM-709.709 222.75V228.69H-707.709V222.75H-709.709ZM-709.709 234.63V240.57H-707.709V234.63H-709.709ZM-709.709 246.51V252.45H-707.709V246.51H-709.709ZM-709.709 258.39V264.33H-707.709V258.39H-709.709ZM-709.709 270.27V276.21H-707.709V270.27H-709.709ZM-709.709 282.15V288.09H-707.709V282.15H-709.709ZM-709.709 294.03V299.97H-707.709V294.03H-709.709ZM-709.709 305.91V311.85H-707.709V305.91H-709.709ZM-709.709 317.79V323.73H-707.709V317.79H-709.709ZM-709.709 329.67V335.61H-707.709V329.67H-709.709ZM-709.709 341.55V347.49H-707.709V341.55H-709.709ZM-709.709 353.43V359.37H-707.709V353.43H-709.709ZM-709.709 365.31V371.25H-707.709V365.31H-709.709ZM-709.709 377.19V383.13H-707.709V377.19H-709.709ZM-709.709 389.07V395.01H-707.709V389.07H-709.709ZM-709.709 400.95V406.89H-707.709V400.95H-709.709ZM-709.709 412.83V418.77H-707.709V412.83H-709.709ZM-709.709 424.71V430.65H-707.709V424.71H-709.709ZM-709.709 436.59V442.53H-707.709V436.59H-709.709ZM-709.709 448.47V454.41H-707.709V448.47H-709.709ZM-709.709 460.35V466.29H-707.709V460.35H-709.709ZM-709.709 472.23V478.17H-707.709V472.23H-709.709ZM-709.709 484.11V490.05H-707.709V484.11H-709.709ZM-709.709 495.99V501.93H-707.709V495.99H-709.709ZM-709.709 507.87V513.81H-707.709V507.87H-709.709ZM-709.709 519.75V525.69H-707.709V519.75H-709.709ZM-709.709 531.63V537.57H-707.709V531.63H-709.709ZM-709.709 543.51V549.45H-707.709V543.51H-709.709ZM-709.709 555.39V561.33H-707.709V555.39H-709.709ZM-709.709 567.27V573.21H-707.709V567.27H-709.709ZM-709.709 579.15V585.09H-707.709V579.15H-709.709ZM-709.709 591.03V594H-707.709V591.03H-709.709ZM-708.709 595H-705.726V593H-708.709V595ZM-699.759 595H-693.792V593H-699.759V595ZM-687.825 595H-681.859V593H-687.825V595ZM-675.892 595H-669.925V593H-675.892V595ZM-663.958 595H-657.992V593H-663.958V595ZM-652.025 595H-646.058V593H-652.025V595ZM-640.091 595H-634.125V593H-640.091V595ZM-628.158 595H-622.191V593H-628.158V595ZM-616.225 595H-610.258V593H-616.225V595ZM-604.291 595H-598.324V593H-604.291V595ZM-592.358 595H-586.391V593H-592.358V595ZM-580.424 595H-574.457V593H-580.424V595ZM-568.491 595H-562.524V593H-568.491V595ZM-556.557 595H-550.59V593H-556.557V595ZM-544.624 595H-538.657V593H-544.624V595ZM-532.69 595H-526.723V593H-532.69V595ZM-520.757 595H-514.79V593H-520.757V595ZM-508.823 595H-502.857V593H-508.823V595ZM-496.89 595H-490.923V593H-496.89V595ZM-484.956 595H-478.99V593H-484.956V595ZM-473.023 595H-467.056V593H-473.023V595ZM-461.089 595H-455.123V593H-461.089V595ZM-449.156 595H-443.189V593H-449.156V595ZM-437.222 595H-431.256V593H-437.222V595ZM-425.289 595H-419.322V593H-425.289V595ZM-413.355 595H-407.389V593H-413.355V595ZM-401.422 595H-395.455V593H-401.422V595ZM-389.489 595H-383.522V593H-389.489V595ZM-377.555 595H-371.588V593H-377.555V595ZM-365.622 595H-359.655V593H-365.622V595ZM-353.688 595H-347.721V593H-353.688V595ZM-341.755 595H-335.788V593H-341.755V595ZM-329.821 595H-323.854V593H-329.821V595ZM-317.888 595H-311.921V593H-317.888V595ZM-305.954 595H-299.988V593H-305.954V595ZM-294.021 595H-288.054V593H-294.021V595ZM-282.087 595H-276.121V593H-282.087V595ZM-270.154 595H-264.187V593H-270.154V595ZM-258.22 595H-252.254V593H-258.22V595ZM-246.287 595H-240.32V593H-246.287V595ZM-234.353 595H-228.387V593H-234.353V595ZM-222.42 595H-216.453V593H-222.42V595ZM-210.486 595H-204.52V593H-210.486V595ZM-198.553 595H-192.586V593H-198.553V595ZM-186.62 595H-180.653V593H-186.62V595ZM-174.686 595H-168.719V593H-174.686V595ZM-162.753 595H-156.786V593H-162.753V595ZM-150.819 595H-144.852V593H-150.819V595ZM-138.886 595H-132.919V593H-138.886V595ZM-126.952 595H-120.985V593H-126.952V595ZM-115.019 595H-109.052V593H-115.019V595ZM-103.085 595H-97.1185V593H-103.085V595ZM-91.1517 595H-85.185V593H-91.1517V595ZM-79.2183 595H-73.2515V593H-79.2183V595ZM-67.2848 595H-61.3181V593H-67.2848V595ZM-55.3513 595H-49.3846V593H-55.3513V595ZM-43.4178 595H-37.4511V593H-43.4178V595ZM-31.4844 595H-25.5176V593H-31.4844V595ZM-19.5509 595H-13.5842V593H-19.5509V595ZM-7.61743 595H-1.6507V593H-7.61743V595ZM4.31604 595H10.2828V593H4.31604V595ZM16.2495 595H22.2162V593H16.2495V595ZM28.183 595H34.1497V593H28.183V595ZM40.1165 595H46.0832V593H40.1165V595ZM52.0499 595H58.0167V593H52.0499V595ZM63.9834 595H69.9501V593H63.9834V595ZM75.9169 595H81.8836V593H75.9169V595ZM87.8503 595H93.8171V593H87.8503V595ZM99.7838 595H105.751V593H99.7838V595ZM111.717 595H117.684V593H111.717V595ZM123.651 595H129.617V593H123.651V595ZM135.584 595H141.551V593H135.584V595ZM147.518 595H153.484V593H147.518V595ZM159.451 595H165.418V593H159.451V595ZM171.385 595H177.351V593H171.385V595ZM183.318 595H189.285V593H183.318V595ZM195.252 595H201.218V593H195.252V595ZM207.185 595H213.152V593H207.185V595ZM219.119 595H225.085V593H219.119V595ZM231.052 595H237.019V593H231.052V595ZM242.985 595H248.952V593H242.985V595ZM254.919 595H260.886V593H254.919V595ZM266.852 595H272.819V593H266.852V595ZM278.786 595H284.753V593H278.786V595ZM290.719 595H296.686V593H290.719V595ZM302.653 595H308.62V593H302.653V595ZM314.586 595H320.553V593H314.586V595ZM326.52 595H329.504V593H326.52V595ZM329.504 595C329.618 595 329.732 595 329.845 594.999L329.835 592.999C329.724 593 329.614 593 329.504 593V595ZM330.529 594.992C330.643 594.99 330.757 594.987 330.871 594.985L330.827 592.985C330.717 592.988 330.607 592.99 330.496 592.992L330.529 594.992ZM330.842 594.985C331.161 594.988 331.48 594.99 331.799 594.992L331.811 592.992C331.493 592.99 331.175 592.988 330.857 592.985L330.842 594.985ZM333.715 594.999C334.034 595 334.353 595 334.673 595V593C334.355 593 334.037 593 333.719 592.999L333.715 594.999ZM334.673 595C335.69 595 336.707 594.997 337.722 594.991L337.71 592.991C336.698 592.997 335.686 593 334.673 593V595ZM343.804 594.916C345.827 594.878 347.847 594.828 349.862 594.766L349.8 592.767C347.793 592.829 345.782 592.879 343.767 592.916L343.804 594.916ZM355.916 594.542C357.947 594.455 359.973 594.354 361.995 594.242L361.884 592.245C359.87 592.357 357.852 592.457 355.829 592.544L355.916 594.542ZM368.048 593.867C370.064 593.729 372.075 593.579 374.081 593.417L373.92 591.424C371.922 591.585 369.919 591.734 367.912 591.871L368.048 593.867ZM380.149 592.889C382.166 592.7 384.179 592.499 386.187 592.286L385.976 590.297C383.976 590.509 381.972 590.71 379.963 590.897L380.149 592.889ZM392.196 591.609C394.215 591.368 396.23 591.116 398.239 590.85L397.977 588.868C395.976 589.132 393.97 589.383 391.959 589.623L392.196 591.609ZM404.253 590.017C406.252 589.727 408.246 589.425 410.234 589.11L409.922 587.135C407.942 587.448 405.956 587.749 403.966 588.038L404.253 590.017ZM416.238 588.121C418.237 587.778 420.23 587.423 422.218 587.056L421.854 585.089C419.875 585.455 417.891 585.808 415.9 586.15L416.238 588.121ZM428.161 585.917C430.153 585.522 432.139 585.115 434.119 584.695L433.704 582.738C431.733 583.156 429.756 583.562 427.772 583.955L428.161 585.917ZM440.054 583.396C442.025 582.951 443.991 582.493 445.949 582.024L445.483 580.079C443.533 580.546 441.576 581.002 439.613 581.445L440.054 583.396ZM451.852 580.567C453.818 580.068 455.778 579.556 457.731 579.032L457.213 577.101C455.269 577.622 453.318 578.131 451.359 578.629L451.852 580.567ZM463.568 577.425C465.521 576.873 467.468 576.309 469.406 575.732L468.836 573.815C466.906 574.389 464.969 574.951 463.024 575.501L463.568 577.425ZM475.219 573.961C477.149 573.358 479.071 572.743 480.985 572.117L480.363 570.216C478.457 570.84 476.544 571.452 474.623 572.051L475.219 573.961ZM486.751 570.185C488.671 569.527 490.582 568.857 492.485 568.175L491.81 566.292C489.916 566.971 488.013 567.638 486.103 568.293L486.751 570.185ZM498.168 566.094C500.071 565.382 501.966 564.657 503.851 563.921L503.124 562.058C501.247 562.791 499.362 563.512 497.467 564.221L498.168 566.094ZM509.494 561.672C511.366 560.91 513.228 560.137 515.082 559.351L514.302 557.51C512.457 558.291 510.603 559.061 508.74 559.819L509.494 561.672ZM520.671 556.936C522.526 556.117 524.373 555.287 526.209 554.446L525.376 552.628C523.548 553.465 521.711 554.291 519.864 555.106L520.671 556.936ZM531.689 551.885C533.527 551.01 535.354 550.123 537.171 549.224L536.284 547.431C534.476 548.326 532.658 549.208 530.829 550.079L531.689 551.885ZM542.591 546.492C544.391 545.568 546.18 544.633 547.958 543.686L547.018 541.92C545.248 542.863 543.468 543.794 541.678 544.713L542.591 546.492ZM553.311 540.782C555.085 539.802 556.847 538.811 558.598 537.808L557.604 536.073C555.862 537.07 554.109 538.056 552.344 539.031L553.311 540.782ZM563.838 534.753C565.586 533.715 567.322 532.666 569.046 531.606L567.999 529.902C566.283 530.957 564.556 532.001 562.817 533.033L563.838 534.753ZM574.183 528.39C575.895 527.299 577.594 526.197 579.281 525.083L578.179 523.414C576.501 524.522 574.811 525.618 573.108 526.703L574.183 528.39ZM584.328 521.693C585.998 520.551 587.654 519.398 589.298 518.234L588.142 516.602C586.508 517.76 584.86 518.906 583.199 520.042L584.328 521.693ZM594.237 514.675C595.873 513.475 597.496 512.264 599.104 511.041L597.895 509.449C596.295 510.664 594.681 511.869 593.054 513.062L594.237 514.675ZM603.896 507.336C605.495 506.078 607.08 504.808 608.651 503.527L607.387 501.977C605.825 503.251 604.249 504.513 602.659 505.765L603.896 507.336ZM613.319 499.652C614.868 498.343 616.402 497.023 617.921 495.692L616.604 494.188C615.093 495.511 613.568 496.823 612.028 498.125L613.319 499.652ZM622.462 491.642C623.96 490.282 625.443 488.91 626.91 487.528L625.538 486.072C624.08 487.446 622.606 488.809 621.117 490.162L622.462 491.642ZM631.301 483.313C632.752 481.895 634.187 480.465 635.606 479.025L634.181 477.622C632.771 479.053 631.345 480.473 629.903 481.883L631.301 483.313ZM639.819 474.667C641.219 473.191 642.602 471.704 643.968 470.207L642.49 468.859C641.133 470.347 639.759 471.824 638.368 473.291L639.819 474.667ZM648.013 465.685C649.352 464.159 650.673 462.623 651.976 461.076L650.447 459.788C649.152 461.324 647.84 462.85 646.51 464.366L648.013 465.685ZM655.848 456.386C657.12 454.813 658.375 453.23 659.61 451.637L658.03 450.411C656.802 451.993 655.557 453.566 654.293 455.129L655.848 456.386ZM663.295 446.783C664.504 445.155 665.694 443.517 666.865 441.87L665.234 440.712C664.072 442.347 662.89 443.974 661.689 445.59L663.295 446.783ZM670.331 436.881C671.472 435.2 672.594 433.51 673.695 431.811L672.016 430.724C670.923 432.411 669.81 434.089 668.677 435.757L670.331 436.881ZM676.937 426.685C678.005 424.955 679.052 423.216 680.078 421.468L678.353 420.456C677.335 422.191 676.295 423.917 675.235 425.634L676.937 426.685ZM683.095 416.194C684.082 414.422 685.047 412.641 685.991 410.852L684.223 409.919C683.286 411.695 682.327 413.462 681.348 415.22L683.095 416.194ZM688.768 405.439C689.672 403.625 690.553 401.804 691.413 399.973L689.602 399.123C688.75 400.939 687.875 402.747 686.978 404.547L688.768 405.439ZM693.934 394.434C694.752 392.579 695.547 390.715 696.32 388.843L694.471 388.08C693.705 389.937 692.916 391.786 692.104 393.627L693.934 394.434ZM698.571 383.197C699.299 381.304 700.004 379.402 700.685 377.494L698.801 376.821C698.126 378.715 697.426 380.601 696.704 382.479L698.571 383.197ZM702.657 371.744C703.292 369.819 703.902 367.885 704.488 365.945L702.573 365.367C701.992 367.291 701.387 369.209 700.758 371.118L702.657 371.744ZM706.173 360.101C706.71 358.148 707.223 356.187 707.711 354.219L705.77 353.738C705.286 355.689 704.777 357.634 704.245 359.571L706.173 360.101ZM709.099 348.299C709.537 346.32 709.951 344.333 710.339 342.34L708.375 341.958C707.991 343.934 707.581 345.904 707.147 347.867L709.099 348.299ZM711.423 336.364C711.759 334.366 712.07 332.361 712.356 330.35L710.375 330.069C710.092 332.063 709.784 334.051 709.451 336.032L711.423 336.364ZM713.133 324.321C713.366 322.311 713.573 320.296 713.755 318.275L711.763 318.096C711.583 320.099 711.377 322.098 711.146 324.091L713.133 324.321ZM714.223 312.197C714.352 310.183 714.455 308.164 714.533 306.14L712.535 306.064C712.458 308.071 712.355 310.072 712.227 312.069L714.223 312.197ZM714.689 300.054C714.702 299.037 714.708 298.019 714.708 297H712.708C712.708 298.011 712.702 299.02 712.689 300.028L714.689 300.054ZM714.708 297C714.708 295.981 714.702 294.963 714.689 293.946L712.689 293.971C712.702 294.98 712.708 295.989 712.708 297H714.708ZM714.533 287.859C714.455 285.835 714.352 283.816 714.223 281.803L712.227 281.931C712.355 283.927 712.458 285.929 712.535 287.936L714.533 287.859ZM713.755 275.725C713.573 273.704 713.366 271.688 713.133 269.679L711.146 269.909C711.377 271.902 711.583 273.9 711.763 275.904L713.755 275.725ZM712.355 263.649C712.07 261.639 711.759 259.634 711.423 257.636L709.45 257.968C709.784 259.949 710.092 261.937 710.375 263.93L712.355 263.649ZM710.339 251.66C709.951 249.667 709.537 247.68 709.099 245.7L707.147 246.132C707.581 248.095 707.991 250.065 708.375 252.042L710.339 251.66ZM707.711 239.78C707.223 237.813 706.71 235.852 706.173 233.898L704.245 234.428C704.777 236.366 705.286 238.31 705.77 240.262L707.711 239.78ZM704.488 228.055C703.902 226.114 703.291 224.181 702.657 222.256L700.758 222.881C701.387 224.791 701.992 226.708 702.573 228.633L704.488 228.055ZM700.685 216.506C700.004 214.597 699.299 212.696 698.571 210.803L696.704 211.521C697.426 213.399 698.125 215.285 698.801 217.178L700.685 216.506ZM696.32 205.156C695.547 203.285 694.752 201.421 693.934 199.565L692.104 200.372C692.916 202.213 693.705 204.062 694.471 205.919L696.32 205.156ZM691.412 194.026C690.553 192.196 689.671 190.374 688.768 188.561L686.978 189.453C687.875 191.252 688.749 193.06 689.602 194.877L691.412 194.026ZM685.991 183.148C685.047 181.358 684.082 179.578 683.095 177.806L681.348 178.779C682.327 180.538 683.285 182.305 684.222 184.081L685.991 183.148ZM680.078 172.532C679.052 170.784 678.005 169.045 676.937 167.315L675.235 168.366C676.295 170.083 677.335 171.809 678.353 173.544L680.078 172.532ZM673.695 162.189C672.594 160.489 671.472 158.799 670.331 157.119L668.677 158.242C669.81 159.911 670.923 161.589 672.016 163.276L673.695 162.189ZM666.864 152.13C665.694 150.482 664.504 148.845 663.294 147.217L661.689 148.409C662.89 150.026 664.072 151.652 665.234 153.288L666.864 152.13ZM659.61 142.363C658.374 140.77 657.12 139.187 655.848 137.613L654.293 138.871C655.557 140.434 656.802 142.007 658.03 143.589L659.61 142.363ZM651.976 132.923C650.673 131.377 649.352 129.841 648.013 128.314L646.51 129.633C647.839 131.149 649.152 132.676 650.446 134.212L651.976 132.923ZM643.968 123.793C642.602 122.296 641.219 120.809 639.819 119.333L638.368 120.709C639.759 122.176 641.133 123.653 642.49 125.141L643.968 123.793ZM635.606 114.974C634.187 113.534 632.752 112.105 631.301 110.686L629.903 112.116C631.345 113.526 632.771 114.947 634.181 116.378L635.606 114.974ZM626.91 106.472C625.443 105.09 623.96 103.718 622.462 102.357L621.117 103.838C622.606 105.191 624.08 106.554 625.538 107.928L626.91 106.472ZM617.921 98.3074C616.402 96.9766 614.868 95.6566 613.318 94.3476L612.028 95.8752C613.568 97.1766 615.093 98.4889 616.603 99.8118L617.921 98.3074ZM608.651 90.4726C607.08 89.1918 605.495 87.9221 603.896 86.6635L602.659 88.2352C604.249 89.4866 605.825 90.7491 607.387 92.0225L608.651 90.4726ZM599.104 82.9584C597.495 81.7362 595.873 80.525 594.237 79.325L593.054 80.9377C594.681 82.131 596.294 83.3355 597.894 84.5509L599.104 82.9584ZM589.298 75.7655C587.654 74.6016 585.997 73.4488 584.328 72.3072L583.199 73.9582C584.86 75.0936 586.507 76.2402 588.142 77.3978L589.298 75.7655ZM579.281 68.9166C577.594 67.8031 575.895 66.701 574.183 65.6103L573.108 67.297C574.811 68.3819 576.501 69.4782 578.179 70.5857L579.281 68.9166ZM569.046 62.3943C567.322 61.3337 565.585 60.2845 563.837 59.247L562.817 60.9668C564.556 61.999 566.283 63.0428 567.998 64.0978L569.046 62.3943ZM558.597 56.1918C556.847 55.189 555.084 54.1978 553.311 53.2181L552.344 54.9688C554.108 55.9435 555.861 56.9297 557.603 57.9273L558.597 56.1918ZM547.958 50.3142C546.179 49.367 544.39 48.4314 542.591 47.5075L541.677 49.2867C543.468 50.2061 545.248 51.137 547.017 52.0794L547.958 50.3142ZM537.171 44.776C535.354 43.8772 533.526 42.9901 531.689 42.1149L530.829 43.9206C532.657 44.7915 534.476 45.6743 536.284 46.5687L537.171 44.776ZM526.209 39.5542C524.372 38.7125 522.526 37.8824 520.67 37.0642L519.864 38.8943C521.71 39.7085 523.548 40.5346 525.375 41.3723L526.209 39.5542ZM515.082 34.6486C513.228 33.8633 511.365 33.0898 509.493 32.3281L508.74 34.1806C510.603 34.9387 512.457 35.7086 514.301 36.4902L515.082 34.6486ZM503.851 30.0787C501.965 29.3426 500.071 28.6184 498.168 27.9062L497.467 29.7794C499.361 30.4882 501.247 31.209 503.123 31.9417L503.851 30.0787ZM492.484 25.8246C490.582 25.1427 488.67 24.4727 486.751 23.8148L486.102 25.7067C488.013 26.3616 489.916 27.0286 491.81 27.7074L492.484 25.8246ZM480.985 21.8831C479.071 21.2566 477.149 20.6419 475.219 20.0393L474.623 21.9484C476.544 22.5483 478.457 23.1602 480.362 23.7839L480.985 21.8831ZM469.406 18.2678C467.467 17.6913 465.521 17.1269 463.567 16.5747L463.023 18.4993C464.968 19.0491 466.906 19.611 468.836 20.1848L469.406 18.2678ZM457.731 14.9674C455.778 14.4438 453.818 13.9322 451.851 13.4329L451.359 15.3714C453.317 15.8685 455.269 16.3778 457.213 16.8992L457.731 14.9674ZM445.949 11.9762C443.99 11.5067 442.025 11.0493 440.053 10.6041L439.613 12.5549C441.576 12.9983 443.532 13.4537 445.482 13.9211L445.949 11.9762ZM434.118 9.30497C432.139 8.88533 430.153 8.47792 428.161 8.08285L427.772 10.0446C429.755 10.438 431.733 10.8437 433.703 11.2615L434.118 9.30497ZM422.217 6.9442C420.23 6.57685 418.237 6.22174 416.237 5.87896L415.899 7.85019C417.89 8.19151 419.875 8.54511 421.854 8.91089L422.217 6.9442ZM410.234 4.88952C408.245 4.57505 406.251 4.27275 404.252 3.98272L403.965 5.962C405.956 6.25081 407.941 6.55183 409.921 6.86496L410.234 4.88952ZM398.238 3.14955C396.229 2.88433 394.215 2.63146 392.195 2.39106L391.959 4.37704C393.97 4.61644 395.976 4.86824 397.976 5.13235L398.238 3.14955ZM386.187 1.71426C384.179 1.50093 382.166 1.29989 380.148 1.11124L379.962 3.10255C381.971 3.29042 383.976 3.49062 385.975 3.70307L386.187 1.71426ZM374.081 0.582587C372.074 0.420524 370.063 0.2707 368.048 0.13321L367.912 2.12857C369.919 2.2655 371.922 2.4147 373.92 2.57609L374.081 0.582587ZM361.995 -0.241789C359.973 -0.354417 357.946 -0.454641 355.915 -0.542365L355.829 1.45577C357.851 1.54314 359.87 1.64295 361.883 1.75512L361.995 -0.241789ZM349.862 -0.766368C347.846 -0.828478 345.827 -0.878281 343.803 -0.915686L343.766 1.08397C345.781 1.12123 347.793 1.17083 349.8 1.23268L349.862 -0.766368ZM337.722 -0.99061C336.706 -0.996866 335.69 -1 334.673 -1V1C335.686 1 336.698 1.00312 337.709 1.00935L337.722 -0.99061ZM334.673 -1C334.353 -1 334.034 -0.999691 333.715 -0.999074L333.719 1.00092C334.037 1.00031 334.354 1 334.673 1V-1ZM331.799 -0.991661C331.48 -0.989807 331.161 -0.987645 330.842 -0.985173L330.857 1.01477C331.175 1.01231 331.493 1.01015 331.811 1.0083L331.799 -0.991661ZM330.871 -0.984961C330.757 -0.987468 330.643 -0.989663 330.529 -0.991544L330.496 1.00818C330.607 1.01 330.717 1.01213 330.827 1.01455L330.871 -0.984961ZM329.845 -0.999061C329.731 -0.999687 329.617 -1 329.503 -1V1C329.614 1 329.724 1.0003 329.834 1.00091L329.845 -0.999061ZM329.503 -1H326.52V1H329.503V-1ZM320.553 -1H314.587V1H320.553V-1ZM308.62 -1H302.653V1H308.62V-1ZM296.686 -1H290.72V1H296.686V-1ZM284.753 -1H278.786V1H284.753V-1ZM272.819 -1H266.853V1H272.819V-1ZM260.886 -1H254.919V1H260.886V-1ZM248.952 -1H242.986V1H248.952V-1ZM237.019 -1H231.052V1H237.019V-1ZM225.086 -1H219.119V1H225.086V-1ZM213.152 -1H207.185V1H213.152V-1ZM201.219 -1H195.252V1H201.219V-1ZM189.285 -1H183.318V1H189.285V-1ZM177.352 -1H171.385V1H177.352V-1ZM165.418 -1H159.451V1H165.418V-1ZM153.485 -1H147.518V1H153.485V-1ZM141.551 -1H135.584V1H141.551V-1ZM129.618 -1H123.651V1H129.618V-1ZM117.684 -1H111.718V1H117.684V-1ZM105.751 -1H99.7841V1H105.751V-1ZM93.8173 -1H87.8506V1H93.8173V-1ZM81.8839 -1H75.9171V1H81.8839V-1ZM69.9504 -1H63.9836V1H69.9504V-1ZM58.0169 -1H52.0502V1H58.0169V-1ZM46.0834 -1H40.1167V1H46.0834V-1ZM34.15 -1H28.1832V1H34.15V-1ZM22.2165 -1H16.2498V1H22.2165V-1ZM10.283 -1H4.31628V1H10.283V-1ZM-1.65045 -1H-7.61719V1H-1.65045V-1ZM-13.5839 -1H-19.5507V1H-13.5839V-1ZM-25.5174 -1H-31.4841V1H-25.5174V-1ZM-37.4509 -1H-43.4176V1H-37.4509V-1ZM-49.3843 -1H-55.3511V1H-49.3843V-1ZM-61.3178 -1H-67.2845V1H-61.3178V-1ZM-73.2513 -1H-79.218V1H-73.2513V-1ZM-85.1848 -1H-91.1515V1H-85.1848V-1ZM-97.1182 -1H-103.085V1H-97.1182V-1ZM-109.052 -1H-115.018V1H-109.052V-1ZM-120.985 -1H-126.952V1H-120.985V-1ZM-132.919 -1H-138.885V1H-132.919V-1ZM-144.852 -1H-150.819V1H-144.852V-1ZM-156.786 -1H-162.752V1H-156.786V-1ZM-168.719 -1H-174.686V1H-168.719V-1ZM-180.653 -1H-186.619V1H-180.653V-1ZM-192.586 -1H-198.553V1H-192.586V-1ZM-204.519 -1H-210.486V1H-204.519V-1ZM-216.453 -1H-222.42V1H-216.453V-1ZM-228.386 -1H-234.353V1H-228.386V-1ZM-240.32 -1H-246.287V1H-240.32V-1ZM-252.253 -1H-258.22V1H-252.253V-1ZM-264.187 -1H-270.154V1H-264.187V-1ZM-276.12 -1H-282.087V1H-276.12V-1ZM-288.054 -1H-294.021V1H-288.054V-1ZM-299.987 -1H-305.954V1H-299.987V-1ZM-311.921 -1H-317.887V1H-311.921V-1ZM-323.854 -1H-329.821V1H-323.854V-1ZM-335.788 -1H-341.754V1H-335.788V-1ZM-347.721 -1H-353.688V1H-347.721V-1ZM-359.655 -1H-365.621V1H-359.655V-1ZM-371.588 -1H-377.555V1H-371.588V-1ZM-383.522 -1H-389.488V1H-383.522V-1ZM-395.455 -1H-401.422V1H-395.455V-1ZM-407.388 -1H-413.355V1H-407.388V-1ZM-419.322 -1H-425.289V1H-419.322V-1ZM-431.255 -1H-437.222V1H-431.255V-1ZM-443.189 -1H-449.156V1H-443.189V-1ZM-455.122 -1H-461.089V1H-455.122V-1ZM-467.056 -1H-473.023V1H-467.056V-1ZM-478.989 -1H-484.956V1H-478.989V-1ZM-490.923 -1H-496.89V1H-490.923V-1ZM-502.856 -1H-508.823V1H-502.856V-1ZM-514.79 -1H-520.756V1H-514.79V-1ZM-526.723 -1H-532.69V1H-526.723V-1ZM-538.657 -1H-544.623V1H-538.657V-1ZM-550.59 -1H-556.557V1H-550.59V-1ZM-562.524 -1H-568.49V1H-562.524V-1ZM-574.457 -1H-580.424V1H-574.457V-1ZM-586.391 -1H-592.357V1H-586.391V-1ZM-598.324 -1H-604.291V1H-598.324V-1ZM-610.257 -1H-616.224V1H-610.257V-1ZM-622.191 -1H-628.158V1H-622.191V-1ZM-634.124 -1H-640.091V1H-634.124V-1ZM-646.058 -1H-652.025V1H-646.058V-1ZM-657.991 -1H-663.958V1H-657.991V-1ZM-669.925 -1H-675.892V1H-669.925V-1ZM-681.858 -1H-687.825V1H-681.858V-1ZM-693.792 -1H-699.759V1H-693.792V-1ZM-705.725 -1H-708.709V1H-705.725V-1ZM-708.709 0V-2H-710.709V0H-708.709ZM-708.709 594H-710.709V596H-708.709V594ZM330.849 593.985L330.865 591.985L330.835 591.985L330.805 591.986L330.849 593.985ZM330.849 0.0147969L330.805 2.01431L330.835 2.01497L330.865 2.01474L330.849 0.0147969ZM-710.709 0V2.97H-706.709V0H-710.709ZM-710.709 8.91V14.85H-706.709V8.91H-710.709ZM-710.709 20.79V26.73H-706.709V20.79H-710.709ZM-710.709 32.67V38.61H-706.709V32.67H-710.709ZM-710.709 44.55V50.49H-706.709V44.55H-710.709ZM-710.709 56.43V62.37H-706.709V56.43H-710.709ZM-710.709 68.31V74.25H-706.709V68.31H-710.709ZM-710.709 80.19V86.13H-706.709V80.19H-710.709ZM-710.709 92.07V98.01H-706.709V92.07H-710.709ZM-710.709 103.95V109.89H-706.709V103.95H-710.709ZM-710.709 115.83V121.77H-706.709V115.83H-710.709ZM-710.709 127.71V133.65H-706.709V127.71H-710.709ZM-710.709 139.59V145.53H-706.709V139.59H-710.709ZM-710.709 151.47V157.41H-706.709V151.47H-710.709ZM-710.709 163.35V169.29H-706.709V163.35H-710.709ZM-710.709 175.23V181.17H-706.709V175.23H-710.709ZM-710.709 187.11V193.05H-706.709V187.11H-710.709ZM-710.709 198.99V204.93H-706.709V198.99H-710.709ZM-710.709 210.87V216.81H-706.709V210.87H-710.709ZM-710.709 222.75V228.69H-706.709V222.75H-710.709ZM-710.709 234.63V240.57H-706.709V234.63H-710.709ZM-710.709 246.51V252.45H-706.709V246.51H-710.709ZM-710.709 258.39V264.33H-706.709V258.39H-710.709ZM-710.709 270.27V276.21H-706.709V270.27H-710.709ZM-710.709 282.15V288.09H-706.709V282.15H-710.709ZM-710.709 294.03V299.97H-706.709V294.03H-710.709ZM-710.709 305.91V311.85H-706.709V305.91H-710.709ZM-710.709 317.79V323.73H-706.709V317.79H-710.709ZM-710.709 329.67V335.61H-706.709V329.67H-710.709ZM-710.709 341.55V347.49H-706.709V341.55H-710.709ZM-710.709 353.43V359.37H-706.709V353.43H-710.709ZM-710.709 365.31V371.25H-706.709V365.31H-710.709ZM-710.709 377.19V383.13H-706.709V377.19H-710.709ZM-710.709 389.07V395.01H-706.709V389.07H-710.709ZM-710.709 400.95V406.89H-706.709V400.95H-710.709ZM-710.709 412.83V418.77H-706.709V412.83H-710.709ZM-710.709 424.71V430.65H-706.709V424.71H-710.709ZM-710.709 436.59V442.53H-706.709V436.59H-710.709ZM-710.709 448.47V454.41H-706.709V448.47H-710.709ZM-710.709 460.35V466.29H-706.709V460.35H-710.709ZM-710.709 472.23V478.17H-706.709V472.23H-710.709ZM-710.709 484.11V490.05H-706.709V484.11H-710.709ZM-710.709 495.99V501.93H-706.709V495.99H-710.709ZM-710.709 507.87V513.81H-706.709V507.87H-710.709ZM-710.709 519.75V525.69H-706.709V519.75H-710.709ZM-710.709 531.63V537.57H-706.709V531.63H-710.709ZM-710.709 543.51V549.45H-706.709V543.51H-710.709ZM-710.709 555.39V561.33H-706.709V555.39H-710.709ZM-710.709 567.27V573.21H-706.709V567.27H-710.709ZM-710.709 579.15V585.09H-706.709V579.15H-710.709ZM-710.709 591.03V594H-706.709V591.03H-710.709ZM-708.709 596H-705.726V592H-708.709V596ZM-699.759 596H-693.792V592H-699.759V596ZM-687.825 596H-681.859V592H-687.825V596ZM-675.892 596H-669.925V592H-675.892V596ZM-663.958 596H-657.992V592H-663.958V596ZM-652.025 596H-646.058V592H-652.025V596ZM-640.091 596H-634.125V592H-640.091V596ZM-628.158 596H-622.191V592H-628.158V596ZM-616.225 596H-610.258V592H-616.225V596ZM-604.291 596H-598.324V592H-604.291V596ZM-592.358 596H-586.391V592H-592.358V596ZM-580.424 596H-574.457V592H-580.424V596ZM-568.491 596H-562.524V592H-568.491V596ZM-556.557 596H-550.59V592H-556.557V596ZM-544.624 596H-538.657V592H-544.624V596ZM-532.69 596H-526.723V592H-532.69V596ZM-520.757 596H-514.79V592H-520.757V596ZM-508.823 596H-502.857V592H-508.823V596ZM-496.89 596H-490.923V592H-496.89V596ZM-484.956 596H-478.99V592H-484.956V596ZM-473.023 596H-467.056V592H-473.023V596ZM-461.089 596H-455.123V592H-461.089V596ZM-449.156 596H-443.189V592H-449.156V596ZM-437.222 596H-431.256V592H-437.222V596ZM-425.289 596H-419.322V592H-425.289V596ZM-413.355 596H-407.389V592H-413.355V596ZM-401.422 596H-395.455V592H-401.422V596ZM-389.489 596H-383.522V592H-389.489V596ZM-377.555 596H-371.588V592H-377.555V596ZM-365.622 596H-359.655V592H-365.622V596ZM-353.688 596H-347.721V592H-353.688V596ZM-341.755 596H-335.788V592H-341.755V596ZM-329.821 596H-323.854V592H-329.821V596ZM-317.888 596H-311.921V592H-317.888V596ZM-305.954 596H-299.988V592H-305.954V596ZM-294.021 596H-288.054V592H-294.021V596ZM-282.087 596H-276.121V592H-282.087V596ZM-270.154 596H-264.187V592H-270.154V596ZM-258.22 596H-252.254V592H-258.22V596ZM-246.287 596H-240.32V592H-246.287V596ZM-234.353 596H-228.387V592H-234.353V596ZM-222.42 596H-216.453V592H-222.42V596ZM-210.486 596H-204.52V592H-210.486V596ZM-198.553 596H-192.586V592H-198.553V596ZM-186.62 596H-180.653V592H-186.62V596ZM-174.686 596H-168.719V592H-174.686V596ZM-162.753 596H-156.786V592H-162.753V596ZM-150.819 596H-144.852V592H-150.819V596ZM-138.886 596H-132.919V592H-138.886V596ZM-126.952 596H-120.985V592H-126.952V596ZM-115.019 596H-109.052V592H-115.019V596ZM-103.085 596H-97.1185V592H-103.085V596ZM-91.1517 596H-85.185V592H-91.1517V596ZM-79.2183 596H-73.2515V592H-79.2183V596ZM-67.2848 596H-61.3181V592H-67.2848V596ZM-55.3513 596H-49.3846V592H-55.3513V596ZM-43.4178 596H-37.4511V592H-43.4178V596ZM-31.4844 596H-25.5176V592H-31.4844V596ZM-19.5509 596H-13.5842V592H-19.5509V596ZM-7.61743 596H-1.6507V592H-7.61743V596ZM4.31604 596H10.2828V592H4.31604V596ZM16.2495 596H22.2162V592H16.2495V596ZM28.183 596H34.1497V592H28.183V596ZM40.1165 596H46.0832V592H40.1165V596ZM52.0499 596H58.0167V592H52.0499V596ZM63.9834 596H69.9501V592H63.9834V596ZM75.9169 596H81.8836V592H75.9169V596ZM87.8503 596H93.8171V592H87.8503V596ZM99.7838 596H105.751V592H99.7838V596ZM111.717 596H117.684V592H111.717V596ZM123.651 596H129.617V592H123.651V596ZM135.584 596H141.551V592H135.584V596ZM147.518 596H153.484V592H147.518V596ZM159.451 596H165.418V592H159.451V596ZM171.385 596H177.351V592H171.385V596ZM183.318 596H189.285V592H183.318V596ZM195.252 596H201.218V592H195.252V596ZM207.185 596H213.152V592H207.185V596ZM219.119 596H225.085V592H219.119V596ZM231.052 596H237.019V592H231.052V596ZM242.985 596H248.952V592H242.985V596ZM254.919 596H260.886V592H254.919V596ZM266.852 596H272.819V592H266.852V596ZM278.786 596H284.753V592H278.786V596ZM290.719 596H296.686V592H290.719V596ZM302.653 596H308.62V592H302.653V596ZM314.586 596H320.553V592H314.586V596ZM326.52 596H329.504V592H326.52V596ZM329.504 596C329.619 596 329.735 596 329.851 595.999L329.829 591.999C329.721 592 329.612 592 329.504 592V596ZM330.546 595.991C330.662 595.99 330.778 595.987 330.893 595.985L330.805 591.986C330.697 591.988 330.589 591.99 330.48 591.992L330.546 595.991ZM330.834 595.985C331.154 595.988 331.474 595.99 331.794 595.992L331.817 591.992C331.499 591.99 331.182 591.988 330.865 591.985L330.834 595.985ZM333.713 595.999C334.033 596 334.353 596 334.673 596V592C334.355 592 334.038 592 333.721 591.999L333.713 595.999ZM334.673 596C335.692 596 336.711 595.997 337.728 595.991L337.704 591.991C336.694 591.997 335.684 592 334.673 592V596ZM343.822 595.916C345.85 595.878 347.873 595.828 349.893 595.766L349.77 591.768C347.766 591.83 345.759 591.879 343.748 591.916L343.822 595.916ZM355.959 595.541C357.994 595.453 360.025 595.353 362.051 595.24L361.828 591.246C359.819 591.358 357.805 591.458 355.786 591.545L355.959 595.541ZM368.116 594.864C370.136 594.727 372.151 594.577 374.162 594.414L373.839 590.427C371.846 590.588 369.847 590.737 367.844 590.874L368.116 594.864ZM380.242 593.884C382.264 593.695 384.281 593.494 386.293 593.28L385.87 589.302C383.875 589.514 381.875 589.714 379.869 589.902L380.242 593.884ZM392.314 592.602C394.338 592.361 396.356 592.108 398.369 591.842L397.846 587.876C395.85 588.14 393.848 588.391 391.841 588.63L392.314 592.602ZM404.396 591.007C406.4 590.716 408.398 590.413 410.39 590.098L409.765 586.147C407.79 586.46 405.809 586.76 403.822 587.048L404.396 591.007ZM416.407 589.107C418.41 588.763 420.408 588.407 422.399 588.039L421.672 584.106C419.698 584.471 417.717 584.824 415.731 585.164L416.407 589.107ZM428.356 586.898C430.352 586.502 432.342 586.094 434.326 585.673L433.496 581.76C431.53 582.177 429.557 582.582 427.578 582.974L428.356 586.898ZM440.274 584.371C442.25 583.925 444.219 583.467 446.182 582.996L445.25 579.106C443.304 579.573 441.352 580.027 439.393 580.47L440.274 584.371ZM452.098 581.536C454.069 581.036 456.033 580.523 457.99 579.998L456.954 576.135C455.014 576.655 453.067 577.163 451.113 577.659L452.098 581.536ZM463.839 578.387C465.798 577.834 467.748 577.268 469.692 576.691L468.551 572.857C466.626 573.429 464.692 573.99 462.752 574.538L463.839 578.387ZM475.517 574.915C477.451 574.311 479.378 573.695 481.296 573.067L480.052 569.266C478.151 569.888 476.242 570.498 474.325 571.097L475.517 574.915ZM487.075 571.131C488.999 570.472 490.915 569.8 492.822 569.117L491.473 565.351C489.583 566.028 487.685 566.694 485.778 567.347L487.075 571.131ZM498.519 567.03C500.426 566.316 502.325 565.591 504.215 564.853L502.76 561.127C500.888 561.858 499.007 562.577 497.117 563.284L498.519 567.03ZM509.871 562.598C511.747 561.835 513.614 561.059 515.472 560.272L513.912 556.589C512.071 557.369 510.222 558.137 508.363 558.893L509.871 562.598ZM521.074 557.851C522.934 557.031 524.785 556.198 526.626 555.355L524.959 551.718C523.136 552.554 521.303 553.378 519.46 554.191L521.074 557.851ZM532.119 552.788C533.961 551.91 535.793 551.021 537.615 550.12L535.841 546.535C534.037 547.427 532.223 548.308 530.399 549.176L532.119 552.788ZM543.048 547.382C544.852 546.456 546.645 545.518 548.428 544.568L546.548 541.038C544.783 541.978 543.007 542.906 541.221 543.824L543.048 547.382ZM553.795 541.657C555.573 540.675 557.339 539.681 559.095 538.676L557.107 535.205C555.369 536.2 553.62 537.184 551.861 538.156L553.795 541.657ZM564.348 535.613C566.101 534.573 567.841 533.521 569.57 532.457L567.475 529.05C565.764 530.103 564.041 531.143 562.306 532.173L564.348 535.613ZM574.721 529.233C576.437 528.139 578.141 527.034 579.832 525.918L577.628 522.579C575.955 523.684 574.269 524.777 572.571 525.859L574.721 529.233ZM584.893 522.518C586.567 521.373 588.228 520.218 589.876 519.05L587.565 515.786C585.934 516.94 584.291 518.084 582.635 519.216L584.893 522.518ZM594.829 515.481C596.469 514.278 598.096 513.063 599.709 511.838L597.29 508.653C595.694 509.865 594.085 511.066 592.463 512.256L594.829 515.481ZM604.515 508.122C606.118 506.86 607.708 505.587 609.283 504.302L606.755 501.202C605.198 502.472 603.626 503.731 602.041 504.979L604.515 508.122ZM613.964 500.416C615.518 499.103 617.057 497.779 618.58 496.445L615.945 493.436C614.439 494.755 612.918 496.063 611.382 497.361L613.964 500.416ZM623.134 492.383C624.637 491.018 626.124 489.642 627.596 488.256L624.853 485.344C623.399 486.714 621.93 488.073 620.445 489.422L623.134 492.383ZM632 484.028C633.456 482.605 634.895 481.172 636.318 479.727L633.469 476.92C632.063 478.346 630.642 479.763 629.204 481.168L632 484.028ZM640.545 475.355C641.949 473.874 643.336 472.383 644.707 470.881L641.752 468.185C640.399 469.668 639.029 471.14 637.642 472.602L640.545 475.355ZM648.765 466.345C650.108 464.814 651.433 463.272 652.741 461.721L649.682 459.143C648.392 460.674 647.084 462.196 645.758 463.707L648.765 466.345ZM656.625 457.015C657.902 455.437 659.161 453.848 660.4 452.249L657.24 449.798C656.016 451.375 654.775 452.942 653.515 454.5L656.625 457.015ZM664.097 447.379C665.311 445.746 666.505 444.103 667.68 442.449L664.419 440.132C663.261 441.762 662.083 443.383 660.886 444.994L664.097 447.379ZM671.159 437.443C672.304 435.756 673.429 434.06 674.534 432.355L671.177 430.18C670.088 431.861 668.979 433.533 667.849 435.195L671.159 437.443ZM677.788 427.21C678.86 425.474 679.911 423.729 680.941 421.974L677.491 419.949C676.476 421.678 675.441 423.398 674.385 425.109L677.788 427.21ZM683.969 416.68C684.959 414.902 685.928 413.115 686.876 411.319L683.338 409.452C682.405 411.221 681.45 412.982 680.474 414.734L683.969 416.68ZM689.663 405.885C690.57 404.065 691.455 402.236 692.318 400.398L688.697 398.698C687.848 400.507 686.976 402.308 686.083 404.1L689.663 405.885ZM694.849 394.838C695.67 392.975 696.469 391.104 697.244 389.225L693.547 387.699C692.783 389.548 691.997 391.39 691.189 393.224L694.849 394.838ZM699.504 383.556C700.235 381.655 700.943 379.746 701.627 377.83L697.859 376.485C697.187 378.371 696.49 380.249 695.771 382.12L699.504 383.556ZM703.607 372.057C704.244 370.123 704.857 368.182 705.445 366.234L701.616 365.078C701.037 366.994 700.434 368.904 699.808 370.806L703.607 372.057ZM707.137 360.366C707.677 358.405 708.192 356.436 708.682 354.46L704.799 353.497C704.317 355.44 703.811 357.377 703.281 359.306L707.137 360.366ZM710.076 348.516C710.516 346.527 710.931 344.532 711.32 342.531L707.394 341.767C707.011 343.735 706.603 345.696 706.17 347.651L710.076 348.516ZM712.409 336.53C712.747 334.523 713.059 332.51 713.346 330.491L709.385 329.929C709.104 331.914 708.796 333.893 708.464 335.866L712.409 336.53ZM714.126 324.436C714.36 322.418 714.568 320.394 714.751 318.364L710.767 318.006C710.588 320.001 710.383 321.991 710.153 323.975L714.126 324.436ZM715.221 312.261C715.35 310.239 715.454 308.211 715.532 306.179L711.535 306.025C711.459 308.024 711.356 310.017 711.229 312.005L715.221 312.261ZM715.689 300.067C715.702 299.046 715.708 298.023 715.708 297H711.708C711.708 298.006 711.702 299.012 711.689 300.015L715.689 300.067ZM715.708 297C715.708 295.976 715.702 294.954 715.689 293.933L711.689 293.984C711.702 294.988 711.708 295.993 711.708 297H715.708ZM715.532 287.821C715.454 285.788 715.35 283.761 715.221 281.739L711.229 281.995C711.356 283.983 711.459 285.976 711.535 287.974L715.532 287.821ZM714.751 275.635C714.568 273.606 714.36 271.582 714.126 269.564L710.153 270.024C710.383 272.008 710.588 273.998 710.767 275.994L714.751 275.635ZM713.346 263.509C713.059 261.49 712.747 259.477 712.409 257.47L708.464 258.133C708.796 260.107 709.103 262.086 709.385 264.071L713.346 263.509ZM711.32 251.469C710.931 249.467 710.516 247.472 710.076 245.484L706.17 246.348C706.603 248.303 707.011 250.265 707.394 252.233L711.32 251.469ZM708.681 239.54C708.191 237.564 707.677 235.595 707.137 233.633L703.28 234.693C703.811 236.623 704.317 238.559 704.799 240.503L708.681 239.54ZM705.445 227.766C704.857 225.817 704.244 223.876 703.607 221.943L699.808 223.194C700.434 225.096 701.037 227.005 701.616 228.922L705.445 227.766ZM701.627 216.17C700.943 214.253 700.235 212.345 699.504 210.444L695.771 211.88C696.49 213.75 697.186 215.629 697.859 217.514L701.627 216.17ZM697.244 204.775C696.469 202.896 695.67 201.025 694.849 199.162L691.189 200.776C691.997 202.609 692.783 204.451 693.547 206.301L697.244 204.775ZM692.318 193.601C691.455 191.764 690.57 189.935 689.663 188.115L686.083 189.899C686.976 191.692 687.848 193.492 688.697 195.302L692.318 193.601ZM686.876 182.681C685.928 180.885 684.959 179.098 683.968 177.319L680.474 179.266C681.45 181.018 682.405 182.778 683.338 184.548L686.876 182.681ZM680.94 172.025C679.911 170.271 678.86 168.526 677.788 166.79L674.384 168.891C675.44 170.602 676.476 172.321 677.491 174.05L680.94 172.025ZM674.534 161.645C673.429 159.939 672.303 158.243 671.158 156.557L667.849 158.804C668.978 160.467 670.088 162.139 671.177 163.82L674.534 161.645ZM667.679 151.55C666.505 149.897 665.31 148.254 664.097 146.62L660.886 149.006C662.083 150.617 663.26 152.237 664.419 153.867L667.679 151.55ZM660.4 141.75C659.16 140.152 657.902 138.563 656.625 136.984L653.515 139.5C654.775 141.057 656.016 142.625 657.239 144.202L660.4 141.75ZM652.741 132.279C651.433 130.727 650.108 129.186 648.765 127.655L645.758 130.293C647.083 131.804 648.391 133.325 649.682 134.857L652.741 132.279ZM644.706 123.119C643.336 121.617 641.949 120.125 640.544 118.645L637.642 121.397C639.029 122.859 640.399 124.332 641.751 125.815L644.706 123.119ZM636.318 114.273C634.895 112.828 633.456 111.394 632 109.971L629.204 112.831C630.642 114.237 632.063 115.653 633.469 117.08L636.318 114.273ZM627.595 105.744C626.124 104.358 624.637 102.982 623.134 101.617L620.445 104.578C621.929 105.927 623.399 107.286 624.853 108.656L627.595 105.744ZM618.58 97.5552C617.056 96.2205 615.518 94.8966 613.964 93.5838L611.382 96.639C612.918 97.9366 614.439 99.245 615.944 100.564L618.58 97.5552ZM609.282 89.6976C607.707 88.4132 606.118 87.1398 604.514 85.8777L602.04 89.021C603.626 90.2689 605.198 91.5278 606.755 92.7975L609.282 89.6976ZM599.709 82.1622C598.096 80.9365 596.469 79.7219 594.828 78.5186L592.463 81.744C594.085 82.9341 595.694 84.1352 597.289 85.3472L599.709 82.1622ZM589.876 74.9494C588.228 73.7823 586.566 72.6264 584.892 71.4817L582.635 74.7837C584.291 75.916 585.934 77.0595 587.564 78.2139L589.876 74.9494ZM579.832 68.082C578.14 66.9656 576.436 65.8605 574.72 64.767L572.571 68.1403C574.269 69.2224 575.955 70.3158 577.628 71.4203L579.832 68.082ZM569.57 61.5425C567.841 60.4792 566.1 59.4273 564.348 58.387L562.306 61.8268C564.041 62.8563 565.763 63.8973 567.474 64.9496L569.57 61.5425ZM559.094 55.324C557.339 54.3187 555.572 53.3249 553.795 52.3428L551.86 55.8441C553.62 56.8163 555.369 57.8 557.106 58.7951L559.094 55.324ZM548.428 49.4315C546.645 48.4821 544.852 47.5441 543.047 46.6179L541.221 50.1763C543.007 51.0934 544.782 52.022 546.547 52.962L548.428 49.4315ZM537.614 43.8796C535.793 42.9786 533.961 42.0894 532.119 41.2121L530.399 44.8235C532.223 45.6923 534.037 46.5728 535.841 47.465L537.614 43.8796ZM526.625 38.6452C524.785 37.8014 522.934 36.9693 521.074 36.1492L519.46 39.8093C521.303 40.6216 523.135 41.4457 524.958 42.2814L526.625 38.6452ZM515.472 33.7278C513.614 32.9407 511.747 32.1653 509.87 31.4018L508.363 35.1068C510.221 35.8632 512.071 36.6312 513.911 37.4109L515.472 33.7278ZM504.214 29.1471C502.325 28.4093 500.426 27.6834 498.518 26.9697L497.116 30.7159C499.006 31.4231 500.887 32.1423 502.76 32.8732L504.214 29.1471ZM492.822 24.8833C490.915 24.1997 488.999 23.5282 487.075 22.8688L485.778 26.6527C487.684 27.3061 489.583 27.9715 491.472 28.6488L492.822 24.8833ZM481.296 20.9328C479.377 20.3048 477.451 19.6887 475.517 19.0848L474.324 22.903C476.241 23.5015 478.15 24.112 480.051 24.7343L481.296 20.9328ZM469.691 17.3093C467.748 16.7315 465.797 16.1658 463.839 15.6124L462.751 19.4616C464.692 20.0101 466.625 20.5708 468.551 21.1434L469.691 17.3093ZM457.99 14.0016C456.033 13.4767 454.068 12.964 452.097 12.4636L451.113 16.3406C453.067 16.8367 455.014 17.3448 456.954 17.865L457.99 14.0016ZM446.182 11.0038C444.219 10.5333 442.25 10.0748 440.273 9.62863L439.392 13.5304C441.351 13.9727 443.304 14.4272 445.249 14.8936L446.182 11.0038ZM434.326 8.32671C432.342 7.90616 430.352 7.49788 428.355 7.10195L427.577 11.0255C429.556 11.4181 431.529 11.8228 433.496 12.2397L434.326 8.32671ZM422.399 5.96086C420.407 5.59273 418.41 5.23685 416.406 4.89334L415.73 8.83581C417.717 9.17639 419.697 9.52924 421.672 9.89423L422.399 5.96086ZM410.39 3.90179C408.397 3.58666 406.399 3.28372 404.396 2.99308L403.822 6.95165C405.808 7.23984 407.789 7.54022 409.765 7.85268L410.39 3.90179ZM398.369 2.15816C396.356 1.89238 394.337 1.63898 392.314 1.39807L391.841 5.37003C393.848 5.60892 395.849 5.8602 397.845 6.12375L398.369 2.15816ZM386.292 0.71986C384.28 0.506078 382.263 0.304619 380.241 0.115581L379.869 4.09821C381.874 4.28568 383.875 4.48547 385.87 4.69747L386.292 0.71986ZM374.161 -0.414167C372.151 -0.576564 370.135 -0.726698 368.116 -0.864472L367.844 3.12625C369.847 3.26289 371.845 3.41179 373.839 3.57285L374.161 -0.414167ZM362.05 -1.24024C360.024 -1.3531 357.993 -1.45353 355.958 -1.54143L355.786 2.45484C357.804 2.54203 359.818 2.64163 361.828 2.75357L362.05 -1.24024ZM349.892 -1.76589C347.873 -1.82813 345.849 -1.87803 343.822 -1.91552L343.748 2.0838C345.759 2.12098 347.766 2.17048 349.769 2.23221L349.892 -1.76589ZM337.728 -1.99059C336.71 -1.99686 335.692 -2 334.673 -2V2C335.684 2 336.694 2.00311 337.703 2.00933L337.728 -1.99059ZM334.673 -2C334.353 -2 334.033 -1.99969 333.713 -1.99907L333.721 2.00092C334.038 2.00031 334.355 2 334.673 2V-2ZM331.793 -1.99164C331.474 -1.98979 331.154 -1.98762 330.834 -1.98514L330.865 2.01474C331.182 2.01228 331.499 2.01013 331.817 2.00829L331.793 -1.99164ZM330.893 -1.98472C330.777 -1.98727 330.662 -1.9895 330.546 -1.99141L330.48 2.00805C330.588 2.00984 330.697 2.01193 330.805 2.01431L330.893 -1.98472ZM329.851 -1.99905C329.735 -1.99968 329.619 -2 329.503 -2V2C329.612 2 329.72 2.0003 329.829 2.00089L329.851 -1.99905ZM329.503 -2H326.52V2H329.503V-2ZM320.553 -2H314.587V2H320.553V-2ZM308.62 -2H302.653V2H308.62V-2ZM296.686 -2H290.72V2H296.686V-2ZM284.753 -2H278.786V2H284.753V-2ZM272.819 -2H266.853V2H272.819V-2ZM260.886 -2H254.919V2H260.886V-2ZM248.952 -2H242.986V2H248.952V-2ZM237.019 -2H231.052V2H237.019V-2ZM225.086 -2H219.119V2H225.086V-2ZM213.152 -2H207.185V2H213.152V-2ZM201.219 -2H195.252V2H201.219V-2ZM189.285 -2H183.318V2H189.285V-2ZM177.352 -2H171.385V2H177.352V-2ZM165.418 -2H159.451V2H165.418V-2ZM153.485 -2H147.518V2H153.485V-2ZM141.551 -2H135.584V2H141.551V-2ZM129.618 -2H123.651V2H129.618V-2ZM117.684 -2H111.718V2H117.684V-2ZM105.751 -2H99.7841V2H105.751V-2ZM93.8173 -2H87.8506V2H93.8173V-2ZM81.8839 -2H75.9171V2H81.8839V-2ZM69.9504 -2H63.9836V2H69.9504V-2ZM58.0169 -2H52.0502V2H58.0169V-2ZM46.0834 -2H40.1167V2H46.0834V-2ZM34.15 -2H28.1832V2H34.15V-2ZM22.2165 -2H16.2498V2H22.2165V-2ZM10.283 -2H4.31628V2H10.283V-2ZM-1.65045 -2H-7.61719V2H-1.65045V-2ZM-13.5839 -2H-19.5507V2H-13.5839V-2ZM-25.5174 -2H-31.4841V2H-25.5174V-2ZM-37.4509 -2H-43.4176V2H-37.4509V-2ZM-49.3843 -2H-55.3511V2H-49.3843V-2ZM-61.3178 -2H-67.2845V2H-61.3178V-2ZM-73.2513 -2H-79.218V2H-73.2513V-2ZM-85.1848 -2H-91.1515V2H-85.1848V-2ZM-97.1182 -2H-103.085V2H-97.1182V-2ZM-109.052 -2H-115.018V2H-109.052V-2ZM-120.985 -2H-126.952V2H-120.985V-2ZM-132.919 -2H-138.885V2H-132.919V-2ZM-144.852 -2H-150.819V2H-144.852V-2ZM-156.786 -2H-162.752V2H-156.786V-2ZM-168.719 -2H-174.686V2H-168.719V-2ZM-180.653 -2H-186.619V2H-180.653V-2ZM-192.586 -2H-198.553V2H-192.586V-2ZM-204.519 -2H-210.486V2H-204.519V-2ZM-216.453 -2H-222.42V2H-216.453V-2ZM-228.386 -2H-234.353V2H-228.386V-2ZM-240.32 -2H-246.287V2H-240.32V-2ZM-252.253 -2H-258.22V2H-252.253V-2ZM-264.187 -2H-270.154V2H-264.187V-2ZM-276.12 -2H-282.087V2H-276.12V-2ZM-288.054 -2H-294.021V2H-288.054V-2ZM-299.987 -2H-305.954V2H-299.987V-2ZM-311.921 -2H-317.887V2H-311.921V-2ZM-323.854 -2H-329.821V2H-323.854V-2ZM-335.788 -2H-341.754V2H-335.788V-2ZM-347.721 -2H-353.688V2H-347.721V-2ZM-359.655 -2H-365.621V2H-359.655V-2ZM-371.588 -2H-377.555V2H-371.588V-2ZM-383.522 -2H-389.488V2H-383.522V-2ZM-395.455 -2H-401.422V2H-395.455V-2ZM-407.388 -2H-413.355V2H-407.388V-2ZM-419.322 -2H-425.289V2H-419.322V-2ZM-431.255 -2H-437.222V2H-431.255V-2ZM-443.189 -2H-449.156V2H-443.189V-2ZM-455.122 -2H-461.089V2H-455.122V-2ZM-467.056 -2H-473.023V2H-467.056V-2ZM-478.989 -2H-484.956V2H-478.989V-2ZM-490.923 -2H-496.89V2H-490.923V-2ZM-502.856 -2H-508.823V2H-502.856V-2ZM-514.79 -2H-520.756V2H-514.79V-2ZM-526.723 -2H-532.69V2H-526.723V-2ZM-538.657 -2H-544.623V2H-538.657V-2ZM-550.59 -2H-556.557V2H-550.59V-2ZM-562.524 -2H-568.49V2H-562.524V-2ZM-574.457 -2H-580.424V2H-574.457V-2ZM-586.391 -2H-592.357V2H-586.391V-2ZM-598.324 -2H-604.291V2H-598.324V-2ZM-610.257 -2H-616.224V2H-610.257V-2ZM-622.191 -2H-628.158V2H-622.191V-2ZM-634.124 -2H-640.091V2H-634.124V-2ZM-646.058 -2H-652.025V2H-646.058V-2ZM-657.991 -2H-663.958V2H-657.991V-2ZM-669.925 -2H-675.892V2H-669.925V-2ZM-681.858 -2H-687.825V2H-681.858V-2ZM-693.792 -2H-699.759V2H-693.792V-2ZM-705.725 -2H-708.709V2H-705.725V-2Z" fill="#FF7F50" mask="url(#path-2-inside-1_3_31)"/>
<path d="M532.686 354.93H454.848V411.088H532.686V354.93Z" fill="#353C8E"/>
<path d="M509.396 425.241V395.656H356.008V425.241H509.396Z" fill="#FF92A4"/>
<path d="M550 410.452L539.853 406.748V414.148L550 410.452Z" fill="#FF5053"/>
<path d="M539.853 406.749L509.395 395.66V425.245L539.853 414.149V406.749Z" fill="#FFE9CE"/>
<path d="M509.396 414.151V406.751H356.008V414.151H509.396Z" fill="#F97D97"/>
<path d="M405.315 392.749H321.379V431.977H405.315V392.749Z" fill="#353C8E"/>
<path d="M364.552 436.824H353.38L395.958 226.699H405.315L364.552 436.824Z" fill="#142544"/>
<path d="M436.721 436.824H447.893L405.315 226.699H395.958L436.721 436.824Z" fill="#142544"/>
<path d="M494.407 234.883H315.658V410.606H494.407V234.883Z" fill="#F4F5FE"/>
<path d="M330.225 234.882H327.356V400.337H330.225V234.882Z" fill="#7C87D8"/>
<path d="M482.702 234.882H479.833V400.337H482.702V234.882Z" fill="#7C87D8"/>
<path d="M487.993 241.603H322.328V403.881H487.993V241.603Z" fill="#F6E5E8"/>
<path d="M487.993 241.603H322.057V248.378H487.993V241.603Z" fill="#4E51BF"/>
<path d="M478.305 380.799C462.098 380.799 443.775 361.904 442.668 343.581L446.869 325.289C466.923 298.693 478.305 380.799 478.305 380.799Z" fill="#FF92A4"/>
<path d="M458.695 265.736H454.855H451.016C451.016 265.736 451.498 272.301 439.657 277.096V285.738C439.657 285.738 445.34 296.299 445.34 307.501C446.033 308.193 446.974 308.766 447.99 309.24C452.318 311.25 457.392 311.25 461.728 309.24C462.752 308.766 463.693 308.193 464.378 307.501C464.378 296.299 470.062 285.738 470.062 285.738V277.096C458.213 272.293 458.695 265.736 458.695 265.736Z" fill="#243172"/>
<path d="M462.91 304.03H446.628C446.628 304.03 435.396 314.042 437.933 343.582C448.811 347.541 460.727 347.541 471.605 343.582C474.142 314.042 462.91 304.03 462.91 304.03Z" fill="#243172"/>
<path d="M444.475 300.205C444.475 300.205 432.483 321.878 439.649 340.291C446.823 358.712 478.305 380.798 478.305 380.798C478.305 380.798 477.996 324.671 465.696 307.673C453.636 300.438 444.475 300.205 444.475 300.205Z" fill="#F97D97"/>
<path d="M464.755 274.355C464.755 274.355 459.576 281.635 449.097 295.411C452.62 303.18 465.696 297.346 465.696 297.346L468.067 290.119L470.047 277.096L464.755 274.355Z" fill="#F97D97"/>
<path d="M448.698 271.104L439.649 277.097C439.649 277.097 433.589 312.327 465.703 307.682V297.347C465.703 297.347 451.521 294.358 448.698 271.104Z" fill="#FF92A4"/>
<path d="M353.162 265.736H331.745C331.858 288.945 350.527 307.749 373.667 308.103V286.611C362.865 285.256 354.328 276.599 353.162 265.736Z" stroke="#C56F60" stroke-width="0.5013" stroke-miterlimit="10"/>
<path d="M331.745 324.372C331.745 379.83 368.978 383.014 368.978 383.014V324.372H331.745Z" stroke="#C56F60" stroke-width="0.5013" stroke-miterlimit="10"/>
<path d="M384.011 324.372C384.011 386.816 422.847 390.399 422.847 390.399V324.372H384.011Z" stroke="#C56F60" stroke-width="0.4825" stroke-miterlimit="10"/>
<path d="M389.649 308.103L404.976 265.736H422.854V308.103H389.649Z" stroke="#C56F60" stroke-width="0.5013" stroke-miterlimit="10"/>
<path d="M422.757 310.745H389.74" stroke="#C56F60" stroke-width="0.2506" stroke-miterlimit="10"/>
<path d="M422.847 310.137H422.659V311.364H422.847V310.137Z" fill="#C56F60"/>
<path d="M389.838 310.137H389.65V311.364H389.838V310.137Z" fill="#C56F60"/>
<path d="M373.577 310.745H331.843" stroke="#C56F60" stroke-width="0.2506" stroke-miterlimit="10"/>
<path d="M373.675 310.137H373.486V311.364H373.675V310.137Z" fill="#C56F60"/>
<path d="M331.932 310.137H331.744V311.364H331.932V310.137Z" fill="#C56F60"/>
<path d="M425.489 307.853V265.825" stroke="#C56F60" stroke-width="0.2506" stroke-miterlimit="10"/>
<path d="M426.106 307.764H424.879V307.952H426.106V307.764Z" fill="#C56F60"/>
<path d="M426.106 265.736H424.879V265.925H426.106V265.736Z" fill="#C56F60"/>
<path d="M376.4 307.855V286.935" stroke="#C56F60" stroke-width="0.2506" stroke-miterlimit="10"/>
<path d="M377.01 307.768H375.783V307.956H377.01V307.768Z" fill="#C56F60"/>
<path d="M377.01 286.846H375.783V287.034H377.01V286.846Z" fill="#C56F60"/>
<path d="M371.71 324.468V382.914" stroke="#C56F60" stroke-width="0.2506" stroke-miterlimit="10"/>
<path d="M372.32 324.37H371.093V324.558H372.32V324.37Z" fill="#C56F60"/>
<path d="M372.32 382.817H371.093V383.006H372.32V382.817Z" fill="#C56F60"/>
<path d="M331.843 321.862H368.887" stroke="#C56F60" stroke-width="0.2506" stroke-miterlimit="10"/>
<path d="M331.932 321.253H331.744V322.48H331.932V321.253Z" fill="#C56F60"/>
<path d="M368.985 321.253H368.797V322.48H368.985V321.253Z" fill="#C56F60"/>
<path d="M425.489 390.299V324.468" stroke="#C56F60" stroke-width="0.2506" stroke-miterlimit="10"/>
<path d="M426.107 390.209H424.879V390.397H426.107V390.209Z" fill="#C56F60"/>
<path d="M426.107 324.37H424.879V324.558H426.107V324.37Z" fill="#C56F60"/>
<path d="M384.109 321.862H422.757" stroke="#C56F60" stroke-width="0.2506" stroke-miterlimit="10"/>
<path d="M384.2 321.253H384.011V322.48H384.2V321.253Z" fill="#C56F60"/>
<path d="M422.847 321.253H422.659V322.48H422.847V321.253Z" fill="#C56F60"/>
<path d="M422.719 262.762H405.24" stroke="#C56F60" stroke-width="0.2506" stroke-miterlimit="10"/>
<path d="M422.809 262.144H422.621V263.371H422.809V262.144Z" fill="#C56F60"/>
<path d="M405.337 262.144H405.149V263.371H405.337V262.144Z" fill="#C56F60"/>
<path d="M110.102 273.868H98.133C90.0029 273.868 83.416 267.281 83.416 259.151V237.004C83.416 228.874 90.0029 222.287 98.133 222.287H110.102C111.841 222.287 113.249 223.695 113.249 225.434V270.736C113.249 272.46 111.841 273.868 110.102 273.868Z" fill="#656DCE"/>
<path d="M331.624 322.227C334.959 322.227 337.669 319.525 337.669 316.183V310.138H325.587V316.183C325.579 319.525 328.282 322.227 331.624 322.227Z" fill="#656DCE"/>
<path d="M331.624 344.766C332.339 344.766 332.919 344.187 332.919 343.471V321.46H330.329V343.471C330.329 344.187 330.909 344.766 331.624 344.766Z" fill="#656DCE"/>
<path d="M397.659 351.874H213.927C209.952 351.874 206.722 348.652 206.722 344.67V309.334C206.722 295.769 217.721 284.771 231.286 284.771H266.622C273.013 284.771 278.184 289.95 278.184 296.334C278.184 307.302 287.075 316.185 298.035 316.185H360.185C371.154 316.185 380.036 307.294 380.036 296.334V264.912V222.448C380.036 211.48 371.146 202.597 360.185 202.597H298.035H186.871H109.621C105.473 202.597 102.108 205.962 102.108 210.109V264.92V416.84C102.108 427.808 110.998 436.691 121.959 436.691H184.809H186.871H397.667C408.063 436.691 416.494 428.259 416.494 417.863V370.709C416.494 360.305 408.063 351.874 397.659 351.874Z" fill="#7C87D8"/>
<mask id="mask0_3_31" style="mask-type:luminance" maskUnits="userSpaceOnUse" x="102" y="202" width="315" height="235">
<path d="M397.659 351.875H213.926C209.951 351.875 206.722 348.653 206.722 344.671V309.335C206.722 295.77 217.72 284.772 231.285 284.772H266.621C273.012 284.772 278.184 289.951 278.184 296.335C278.184 307.303 287.074 316.186 298.035 316.186H360.185C371.153 316.186 380.036 307.295 380.036 296.335V264.913V222.449C380.036 211.481 371.146 202.598 360.185 202.598H298.035H186.871H109.62C105.472 202.598 102.107 205.963 102.107 210.11V264.921V416.841C102.107 427.809 110.998 436.692 121.958 436.692H184.808H186.871H397.666C408.062 436.692 416.493 428.26 416.493 417.864V370.71C416.493 360.306 408.062 351.875 397.659 351.875Z" fill="white"/>
</mask>
<g mask="url(#mask0_3_31)">
<path d="M418.767 374.104H191.252C184.334 374.104 178.726 368.495 178.726 361.577V297.297C178.726 290.379 184.334 284.771 191.252 284.771H240.628C247.546 284.771 253.154 290.379 253.154 297.297V319.73C253.154 325.444 257.023 330.435 262.556 331.857L327.642 348.644C328.666 348.908 329.712 349.043 330.774 349.043H418.767C425.361 349.043 430.827 354.155 431.271 360.727C431.752 367.968 426.016 374.104 418.767 374.104Z" fill="#656DCE"/>
</g>
<path d="M280.179 236.78H204.735C194.866 236.78 186.864 228.778 186.864 218.909V202.596H298.043V218.909C298.043 228.778 290.048 236.78 280.179 236.78Z" fill="#656DCE"/>
<path d="M306.549 292.394H316.268C317.284 292.394 318.112 291.566 318.112 290.55V286.613C318.112 285.597 317.284 284.769 316.268 284.769H306.549C305.533 284.769 304.705 285.597 304.705 286.613V290.55C304.705 291.566 305.533 292.394 306.549 292.394Z" fill="#656DCE"/>
<path d="M288.881 292.394H298.6C299.616 292.394 300.444 291.566 300.444 290.55V286.613C300.444 285.597 299.616 284.769 298.6 284.769H288.881C287.865 284.769 287.037 285.597 287.037 286.613V290.55C287.037 291.566 287.865 292.394 288.881 292.394Z" fill="#656DCE"/>
<path d="M151.957 202.597H153.982V438.55H151.957" fill="#656DCE"/>
<path d="M146.213 202.597H148.238V438.55H146.213" fill="#656DCE"/>
<path d="M159.92 421.2C172.058 415.795 177.516 401.573 172.111 389.435C166.705 377.297 152.484 371.839 140.346 377.244C128.207 382.649 122.749 396.871 128.155 409.009C133.56 421.147 147.782 426.605 159.92 421.2Z" fill="#353C8E"/>
<path d="M137.337 399.217C137.337 406.286 143.074 412.022 150.142 412.022C157.211 412.022 162.947 406.286 162.947 399.217C162.947 392.148 157.211 386.412 150.142 386.412C143.074 386.412 137.337 392.148 137.337 399.217Z" fill="#142544"/>
<path d="M150.143 222.861C136.216 222.861 124.924 234.153 124.924 248.08C124.924 262.006 136.216 273.298 150.143 273.298C164.069 273.298 175.361 262.006 175.361 248.08C175.369 234.153 164.077 222.861 150.143 222.861Z" fill="#656DCE"/>
<path d="M136.412 202.594H150.685H164.965L157.693 193.922H150.685H143.677L136.412 202.594Z" fill="#353C8E"/>
<path d="M164.965 157.833H150.685H136.412L143.677 166.505H150.685H157.693L164.965 157.833Z" fill="#353C8E"/>
<path d="M142.459 165.046V195.376H158.915V165.046H142.459Z" fill="#353C8E"/>
<path d="M160.72 165.595V194.84C160.72 195.586 160.117 196.188 159.372 196.188H142.005C141.26 196.188 140.658 195.586 140.658 194.84V165.595C140.658 164.849 141.26 164.247 142.005 164.247H159.372C160.117 164.247 160.72 164.849 160.72 165.595Z" fill="#F3A6B4"/>
<path d="M140.658 164.248L160.72 169.706L140.658 174.915L160.72 179.116L140.658 187.065L160.72 191.123L140.658 196.181" stroke="#FF5053" stroke-width="0.749" stroke-miterlimit="10" stroke-linecap="round" stroke-linejoin="round"/>
<path d="M160.72 195.489L140.658 192.779L160.72 185.492L140.658 181.969L160.72 173.989L140.658 167.101L160.72 164.248" stroke="#FF5053" stroke-width="0.749" stroke-miterlimit="10" stroke-linecap="round" stroke-linejoin="round"/>
<path d="M338.121 386.409H175.835V441.272H338.121V386.409Z" fill="#353C8E"/>
<path opacity="0.5" d="M190.01 386.409H175.835V441.272H190.01V386.409Z" fill="#293277"/>
<path opacity="0.5" d="M214.716 386.409H200.541V441.272H214.716V386.409Z" fill="#293277"/>
<path opacity="0.5" d="M239.423 386.409H225.248V441.272H239.423V386.409Z" fill="#293277"/>
<path opacity="0.5" d="M264.129 386.409H249.954V441.272H264.129V386.409Z" fill="#293277"/>
<path opacity="0.5" d="M288.828 386.409H274.653V441.272H288.828V386.409Z" fill="#293277"/>
<path opacity="0.5" d="M313.535 386.409H299.36V441.272H313.535V386.409Z" fill="#293277"/>
<path opacity="0.5" d="M338.241 386.409H324.066V441.272H338.241V386.409Z" fill="#293277"/>
<path d="M280.804 192.983C280.804 192.983 284.078 193.766 286.337 193.751C287.187 193.743 291.975 193.028 291.636 191.794C291.478 191.207 287.421 191.613 287.421 191.613C287.421 191.613 289.935 189.121 292.811 186.855C295.694 184.597 294.625 184.627 291.651 184.206C288.67 183.784 283.567 185.892 279.554 189.573" fill="#F7A079"/>
<path d="M282.942 286.433C282.942 286.433 282.339 403.182 331.15 411.666C316.147 369.457 315.53 291.747 315.53 291.747L282.942 286.433Z" fill="#FF92A4"/>
<path d="M308.205 175.818H301.678H295.152C295.152 175.818 295.965 186.967 275.843 195.127V209.822C275.843 209.822 285.501 227.776 285.501 246.814C286.675 247.988 288.271 248.967 290.01 249.772C297.372 253.19 305.999 253.19 313.354 249.772C315.093 248.967 316.689 247.988 317.863 246.814C317.863 227.776 327.521 209.822 327.521 209.822V195.135C307.392 186.975 308.205 175.818 308.205 175.818Z" fill="white"/>
<path d="M301.656 358.701C288.768 358.701 281.383 360.576 281.383 363.835H282.482C282.482 362.337 286.517 359.8 301.656 359.8C316.794 359.8 320.829 362.337 320.829 363.835H321.928C321.936 360.576 314.544 358.701 301.656 358.701Z" fill="white"/>
<path d="M315.62 240.536H287.737C287.737 240.536 268.496 257.685 272.847 308.279C291.471 315.054 311.886 315.054 330.51 308.279C334.861 257.692 315.62 240.536 315.62 240.536Z" fill="white"/>
<path d="M302.898 290.604H300.451V437.594H302.898V290.604Z" fill="#142544"/>
<path d="M315.793 434.318C309.778 424.201 301.678 423.207 301.678 423.207C301.678 423.207 293.578 424.201 287.556 434.318C281.541 444.436 275.06 445.429 275.06 445.429V446.814C275.06 446.814 284.921 446.897 289.355 439.859C290.537 437.984 291.975 436.215 293.714 434.687C298.276 430.675 301.678 430.547 301.678 430.547C301.678 430.547 305.081 430.682 309.643 434.687C311.382 436.215 312.82 437.977 314.001 439.859C318.435 446.897 328.297 446.814 328.297 446.814V445.429C328.297 445.429 321.815 444.436 315.793 434.318Z" fill="#142544"/>
<path d="M297.463 407.451C297.463 409.777 299.352 411.667 301.678 411.667C304.004 411.667 305.894 409.777 305.894 407.451C305.894 405.125 304.004 403.235 301.678 403.235C299.352 403.235 297.463 405.125 297.463 407.451Z" fill="#142544"/>
<path d="M297.463 438.383C297.463 440.709 299.352 442.598 301.678 442.598C304.004 442.598 305.894 440.709 305.894 438.383C305.894 436.056 304.004 434.167 301.678 434.167C299.352 434.167 297.463 436.056 297.463 438.383Z" fill="#142544"/>
<path d="M301.678 424.177C305.133 424.177 307.934 421.377 307.934 417.922C307.934 414.467 305.133 411.666 301.678 411.666C298.223 411.666 295.423 414.467 295.423 417.922C295.423 421.377 298.223 424.177 301.678 424.177Z" fill="#142544"/>
<path d="M274.522 307.227L273.427 307.382L281.426 364.16L282.521 364.005L274.522 307.227Z" fill="white"/>
<path d="M288.386 305.957L287.282 306.04L291.926 367.873L293.03 367.791L288.386 305.957Z" fill="white"/>
<path d="M328.799 307.245L320.846 364.028L321.942 364.182L329.895 307.398L328.799 307.245Z" fill="white"/>
<path d="M314.957 305.974L310.356 367.808L311.46 367.89L316.06 306.056L314.957 305.974Z" fill="white"/>
<path d="M301.656 368.976C314.544 368.976 321.928 367.101 321.928 363.842H320.829C320.829 365.34 316.794 367.877 301.656 367.877C286.517 367.877 282.482 365.34 282.482 363.842H281.383C281.383 367.101 288.776 368.976 301.656 368.976Z" fill="white"/>
<path d="M282.942 243.532C282.942 243.532 272.644 258.242 272.644 282.783C272.644 307.323 309.621 342.448 314.506 373.441C319.392 404.433 331.15 411.675 331.15 411.675C331.15 411.675 325.143 377.475 329.381 340.544C333.612 303.612 334.252 281.533 327.522 263.91C299.729 267.087 282.942 243.532 282.942 243.532Z" fill="#F97D97"/>
<path d="M318.3 239.52C296.04 227.4 291.079 185.094 291.079 185.094L275.835 195.128C275.835 195.128 275.421 230.472 286.464 251.452C290.371 258.867 298.84 262.969 306.94 260.824C312.217 259.431 316.824 255.675 318.834 249.886C319.979 246.604 320.069 243.081 318.3 239.52Z" fill="#FF92A4"/>
<path d="M289.235 256.038C286.653 253.426 291.35 259.064 289.235 256.038V256.038Z" fill="#FF92A4"/>
<path d="M112.639 366.565H87.8194H63L75.6393 381.644H87.8194H99.9994L112.639 366.565Z" fill="#FF92A4"/>
<path d="M63 444.38H87.8194H112.639L99.9994 429.302H87.8194H75.6393L63 444.38Z" fill="#FF92A4"/>
<path d="M102.126 431.836L102.126 379.11H73.5203L73.5203 431.836H102.126Z" fill="#353C8E"/>
<path d="M70.385 430.893V380.057C70.385 378.762 71.4313 377.716 72.7261 377.716H102.92C104.215 377.716 105.262 378.762 105.262 380.057V430.893C105.262 432.187 104.215 433.234 102.92 433.234H72.7261C71.4313 433.234 70.385 432.18 70.385 430.893Z" fill="#FF5053"/>
<path d="M70.385 382.625L105.254 390.605L70.385 398.215L105.254 404.358L70.385 415.981L105.254 421.913L70.385 429.305" stroke="#FF92A4" stroke-width="0.7355" stroke-miterlimit="10" stroke-linecap="round" stroke-linejoin="round"/>
<path d="M105.254 428.297L70.385 424.329L105.254 413.685L70.385 408.528L105.254 396.868L70.385 386.803L105.254 382.625" stroke="#FF92A4" stroke-width="0.7355" stroke-miterlimit="10" stroke-linecap="round" stroke-linejoin="round"/>
<path d="M273.735 335.185H186.781V387.91H273.735V335.185Z" fill="#243172"/>
<path d="M186.781 347.651H273.434" stroke="#353C8E" stroke-width="1.4711" stroke-miterlimit="10"/>
<path d="M231.217 387.91V347.651" stroke="#353C8E" stroke-width="1.4711" stroke-miterlimit="10"/>
<path d="M236.863 376.603H164.611V424.261H236.863V376.603Z" fill="#142544"/>
<path d="M164.611 382.97H236.863" stroke="#353C8E" stroke-width="1.4711" stroke-miterlimit="10"/>
<path d="M164.611 416.817H236.863" stroke="#353C8E" stroke-width="1.4711" stroke-miterlimit="10"/>
<path d="M164.611 399.895H236.863" stroke="#353C8E" stroke-width="1.4711" stroke-miterlimit="10"/>
<path d="M255.923 423.107H135.952V446.903H255.923V423.107Z" fill="#4957BA"/>
<path d="M256.443 423.107H135.418V431.975H256.443V423.107Z" fill="#243172"/>
<path d="M239.25 182.991C239.25 182.991 232.761 183.481 232.761 193.229C232.761 202.978 240.214 208.827 232.761 224.432C243.104 230.04 251.746 231.237 251.746 231.237C251.746 231.237 252.243 217.612 254.404 208.104C256.564 198.589 259.447 196.157 239.25 182.991Z" fill="#243172"/>
<path d="M247.907 325.592C242.81 315.158 238.768 303.227 242.577 279.905C224.54 245.051 233.393 223.047 233.393 223.047C233.393 223.047 248.87 210.543 251.272 227.361C253.673 244.178 251.754 263.043 251.754 268.651C251.754 274.259 251.754 324.621 251.754 324.621C251.754 324.621 254.577 328.633 256.714 330.771C258.852 332.909 263.919 332.525 263 335.19C259.033 335.19 246.198 334.648 246.198 334.648C246.198 334.648 244.053 329.439 247.907 325.592Z" fill="#F7A079"/>
<path d="M234.944 185.53L239.031 171.942L247.169 176.948L244.339 187.962L234.944 185.53Z" fill="#F7A079"/>
<path d="M259.748 210.619C259.748 210.619 243.751 200.502 239.565 197.852C238.865 197.408 238.323 196.881 237.902 196.301C234.409 191.528 240.401 185.265 245.369 188.48C246.092 188.946 246.845 189.571 247.62 190.369C252.175 195.089 261.976 201.556 261.976 201.556L280.494 188.984L282.941 190.437C282.941 190.452 270.46 208.21 259.748 210.619Z" fill="#F7A079"/>
<path d="M247.169 188.909L259.906 198.364L253.537 207.112L244.338 198.01L247.169 188.909Z" fill="#243172"/>
<path d="M249.329 206.961L257.392 196.181L262.518 200.682L254.795 211.236L249.329 206.961Z" fill="#353C8E"/>
<path d="M247.319 234.505L232.753 224.433C232.753 224.433 231.18 227.03 229.599 231.848C227.1 239.458 227.07 247.649 229.079 255.402C230.45 260.687 232.023 265.648 232.821 280.545C223.562 293.433 219.835 311.914 218.653 319.382C213.941 321 213.196 326.119 213.196 326.119C213.196 326.119 224.247 332.638 227.664 334.648C229.81 332.819 225.782 330.831 225.029 327.903C224.382 325.411 223.419 321.655 223.14 320.594C228.876 311.131 242.825 287.765 243.285 283.338C243.864 277.752 247.319 234.505 247.319 234.505Z" fill="#F6B28F"/>
<path d="M248.931 190.354C248.931 190.354 241.96 197.332 232.753 195.864C234.944 217.439 221.176 237.297 222.245 254.965C223.027 267.838 223.314 267.815 223.314 267.815C223.314 267.815 238.49 273.86 255.917 269.223C251.031 218.568 265.846 197.648 248.931 190.354Z" fill="#F4BACD"/>
<mask id="mask1_3_31" style="mask-type:luminance" maskUnits="userSpaceOnUse" x="222" y="190" width="36" height="81">
<path d="M248.931 190.354C248.931 190.354 241.96 197.332 232.753 195.864C234.944 217.439 221.176 237.297 222.245 254.965C223.027 267.838 223.313 267.815 223.313 267.815C223.313 267.815 238.49 273.86 255.917 269.223C251.031 218.568 265.846 197.648 248.931 190.354Z" fill="white"/>
</mask>
<g mask="url(#mask1_3_31)">
<path d="M219.918 259.376C219.918 259.376 237.292 267.672 257.851 260.46" stroke="#FF92A4" stroke-width="0.7355" stroke-miterlimit="10"/>
</g>
<mask id="mask2_3_31" style="mask-type:luminance" maskUnits="userSpaceOnUse" x="222" y="190" width="36" height="81">
<path d="M248.931 190.354C248.931 190.354 241.96 197.332 232.753 195.864C234.944 217.439 221.176 237.297 222.245 254.965C223.027 267.838 223.313 267.815 223.313 267.815C223.313 267.815 238.49 273.86 255.917 269.223C251.031 218.568 265.846 197.648 248.931 190.354Z" fill="white"/>
</mask>
<g mask="url(#mask2_3_31)">
<path d="M219.918 262.65C219.918 262.65 237.292 270.946 257.851 263.742" stroke="#FF92A4" stroke-width="0.7355" stroke-miterlimit="10"/>
</g>
<path d="M255.555 213.94C255.555 213.94 242.133 200.593 238.625 197.1C238.038 196.521 237.624 195.881 237.338 195.226C234.966 189.806 242.171 184.995 246.326 189.211C246.928 189.828 247.53 190.596 248.118 191.545C251.543 197.145 259.711 205.584 259.711 205.584C259.711 205.584 271.213 211.787 281.993 219.804C279.735 224.434 279.735 224.434 279.735 224.434C279.735 224.434 263.181 219.036 255.555 213.94Z" fill="#F6B28F"/>
<path d="M247.319 187.119C247.319 187.119 247.319 187.119 247.319 184.973C243.217 180.87 233.897 179.794 233.897 179.794L232.753 182.986C223.795 191.944 233.769 208.407 225.782 216.387C217.795 224.366 217.472 233.701 217.472 233.701C217.472 233.701 227.469 242.268 239.784 239.467C246.213 224.178 247.319 208.355 247.319 208.355L252.28 213.007L259.906 203.725L247.319 187.119Z" fill="#243172"/>
<path d="M242.321 313.262L252.401 312.05V318.569C252.401 323.191 254.358 327.648 257.911 330.614C258.182 330.839 258.431 331.028 258.657 331.178C260.667 332.511 263.843 332.654 263.843 335.183H245.468C245.468 335.183 244.828 333.391 244.986 330.26C245.159 326.955 244.768 323.65 244.007 320.428C243.112 316.627 242.321 313.262 242.321 313.262Z" fill="#142544"/>
<path d="M220.987 305.32L230.262 309.453L226.912 315.046C224.533 319.013 223.931 323.846 225.451 328.213C225.564 328.544 225.685 328.837 225.797 329.078C226.836 331.254 229.486 333.008 228.184 335.183L212.42 325.743C212.42 325.743 212.789 323.876 214.536 321.272C216.38 318.524 217.743 315.49 218.751 312.336C219.941 308.618 220.987 305.32 220.987 305.32Z" fill="#142544"/>
<path d="M234.929 166.944C234.824 164.746 235.29 162.532 236.472 160.673C237.729 158.701 239.935 156.751 243.774 156.751C251.551 156.751 251.867 162.419 252.16 167.576C253.681 170.407 252.635 174.073 250.557 177.596C249.97 178.589 248.833 179.116 247.689 178.943C243.842 178.348 237.406 177.347 234.929 166.944Z" fill="#F6B28F"/>
<path d="M237.94 175.788C237.94 175.788 227.506 172.943 231.534 159.513C227.8 159.513 228.432 155.245 230.178 154.665C228.793 150.156 235.124 145.067 240.16 150.111C244.331 149.915 244.278 153.792 244.278 153.792C244.278 153.792 253.688 152.317 254.29 161.448C248.396 163.842 240.552 160.447 240.552 160.447C240.552 160.447 242.893 170.203 237.94 175.788Z" fill="#142544"/>
<path d="M241.358 172.22C241.396 170.594 240.62 169.066 239.386 168.012C238.339 167.116 237.022 166.439 236.156 167.628C234.545 169.864 237.857 174.531 240.048 174.252C241.042 174.124 241.335 173.199 241.358 172.22Z" fill="#F6B28F"/>
<path d="M246.273 167.997C246.273 168.441 246.002 168.765 245.671 168.765C245.34 168.765 245.069 168.441 245.069 167.997C245.069 167.553 245.34 167.191 245.671 167.191C246.01 167.199 246.273 167.553 246.273 167.997Z" fill="#262425"/>
<path d="M251.038 167.997C251.038 168.441 250.767 168.765 250.436 168.765C250.105 168.765 249.834 168.441 249.834 167.997C249.834 167.553 250.105 167.191 250.436 167.191C250.767 167.191 251.038 167.553 251.038 167.997Z" fill="#262425"/>
<path d="M244.474 166.166C244.617 166.49 245.016 166.61 245.302 166.4C245.513 166.249 245.761 166.099 246.032 166.001C246.266 165.918 246.439 165.715 246.439 165.466V165.338C246.439 164.984 246.115 164.713 245.769 164.796C245.4 164.879 244.941 165.082 244.557 165.587C244.429 165.76 244.391 165.978 244.474 166.166Z" fill="#142544"/>
<path d="M251.49 166.243C251.347 166.567 250.948 166.688 250.662 166.477C250.451 166.326 250.203 166.176 249.932 166.078C249.698 165.995 249.525 165.792 249.525 165.543V165.415C249.525 165.062 249.849 164.791 250.195 164.873C250.564 164.956 251.023 165.159 251.407 165.664C251.543 165.837 251.573 166.055 251.49 166.243Z" fill="#142544"/>
<path d="M248.396 167.469C248.396 167.469 248.795 168.967 249.796 170.623C250.797 172.279 249.164 171.895 249.164 171.895" stroke="#262425" stroke-width="0.3478" stroke-miterlimit="10" stroke-linecap="round" stroke-linejoin="round"/>
<path d="M245.332 172.552C245.332 172.552 246.439 172.642 247.568 172.642C248.75 172.642 249.36 173.094 249.36 173.094C249.36 173.094 249.894 172.424 250.632 173.094C250.278 175.382 247.982 175.601 245.332 172.552Z" fill="#FF5053"/>
<path d="M248.547 209.92L257.294 199.697L262.119 204.515L253.726 214.55L248.547 209.92Z" fill="#353C8E"/>
<path d="M232.753 178.98L232.129 183.67C232.129 183.67 242.314 183.399 248.547 188.737C248.547 185.424 248.983 184.145 248.983 184.145C248.983 184.145 244.527 178.98 232.753 178.98Z" fill="#353C8E"/>
<path d="M239.679 217.605C235.87 223.169 232.129 224.433 232.129 224.433L233.19 226.383C238.685 224.433 241.313 219.239 241.313 219.239L239.679 217.605Z" fill="#353C8E"/>
<path d="M247.764 208.73L240.522 202.15L246.763 213.292L247.764 208.73Z" fill="#1E2C60"/>
<path d="M245.43 172.552C245.43 172.552 248.976 174.125 250.534 173.192" stroke="#262425" stroke-width="0.3478" stroke-miterlimit="10" stroke-linecap="round" stroke-linejoin="round"/>
<path d="M237.12 168.802C237.12 168.802 238.527 168.29 239.145 171.068C238.565 171.971 239.145 172.551 239.145 172.551" stroke="#262425" stroke-width="0.3478" stroke-miterlimit="10" stroke-linecap="round" stroke-linejoin="round"/>
<path d="M293.006 223.153C289.468 221.663 286.231 219.841 286.231 219.841C286.231 219.841 290.439 219.126 290.439 218.486C290.439 217.146 285.396 217.741 284.537 217.974C282.249 218.584 279.148 220.285 279.148 220.285L278.839 224.079C283.92 226.699 289.664 227.414 292.562 226.157C295.46 224.9 296.544 224.636 293.006 223.153Z" fill="#F6B28F"/>
<path d="M473.961 446.907H488.769H503.576L496.033 437.911H488.769H481.497L473.961 446.907Z" fill="#353C8E"/>
<path d="M503.576 400.481H488.769H473.961L481.497 409.477H488.769H496.033L503.576 400.481Z" fill="#353C8E"/>
<path d="M480.236 407.959V439.418H497.302V407.959H480.236Z" fill="#353C8E"/>
<path d="M499.172 408.529V438.859C499.172 439.627 498.547 440.252 497.78 440.252H479.765C478.998 440.252 478.373 439.627 478.373 438.859V408.529C478.373 407.762 478.998 407.137 479.765 407.137H497.78C498.547 407.137 499.172 407.762 499.172 408.529Z" fill="#142544"/>
<path d="M478.365 407.993L499.172 413.368L478.365 418.495L499.172 422.62L478.365 430.449L499.172 434.439L478.365 439.422" stroke="#353C8E" stroke-width="0.7355" stroke-miterlimit="10" stroke-linecap="round" stroke-linejoin="round"/>
<path d="M499.172 438.737L478.365 436.072L499.172 428.906L478.365 425.435L499.172 417.584L478.365 410.809L499.172 407.993" stroke="#353C8E" stroke-width="0.7355" stroke-miterlimit="10" stroke-linecap="round" stroke-linejoin="round"/>
<path d="M114.016 409.883C107.286 409.883 101.829 415.341 101.829 422.07V445.083H126.204V422.07C126.204 415.341 120.746 409.883 114.016 409.883Z" fill="#C6CEFB"/>
<path d="M101.467 446.904H126.573C127.574 446.904 128.395 446.091 128.395 445.082C128.395 444.081 127.582 443.261 126.573 443.261H101.467C100.466 443.261 99.6457 444.074 99.6457 445.082C99.6457 446.084 100.459 446.904 101.467 446.904Z" fill="#E2E5FF"/>
<path d="M114.017 411.283V442.298" stroke="#E2E5FF" stroke-width="0.8659" stroke-miterlimit="10" stroke-dasharray="0.87 0.87"/>
<path d="M104.117 442.298V421.476C104.117 415.845 108.551 411.283 114.016 411.283C119.482 411.283 123.916 415.845 123.916 421.476V442.298" stroke="#E2E5FF" stroke-width="0.8659" stroke-miterlimit="10" stroke-dasharray="0.87 0.87"/>
<path d="M108.927 442.298V416.636C108.927 413.677 111.253 411.283 114.129 411.283C116.997 411.283 119.331 413.677 119.331 416.636V442.298" stroke="#E2E5FF" stroke-width="0.8659" stroke-miterlimit="10" stroke-dasharray="0.87 0.87"/>
</svg>
