<svg width="350" height="249" viewBox="0 0 350 249" fill="none" xmlns="http://www.w3.org/2000/svg">
<rect width="350" height="249" fill="#FFAD80"/>
<path d="M241.298 199.811C248.358 199.811 259.475 187.857 251.712 171.713C242.163 151.857 231.526 157.132 243.991 121.425C250.624 102.42 227.279 85.4802 208.181 96.5825C197.395 102.852 178.646 107.717 172.497 95.4988C159.167 69.0103 112.288 67.1824 100.864 94.5825C88.6319 123.927 118.753 134.75 108.539 149.983C102.702 158.69 95.3342 162.192 95.9017 174.662C96.8273 194.992 119.479 199.676 135.976 199.676L241.298 199.811Z" fill="#F5F8FF"/>
<path d="M103.524 199.383C102.217 199.318 101.287 198.076 101.455 196.778C101.827 193.922 102.152 187.662 98.5756 184.276C94.7849 180.69 94.9244 178.322 95.9802 177.183C97.6174 175.411 105.115 179.332 105.976 191.406C106.45 198.043 104.962 199.457 103.524 199.383Z" fill="#E1ECFA"/>
<path d="M102.455 195.365C102.427 195.616 102.39 195.872 102.352 196.133C102.348 196.165 102.32 196.184 102.287 196.179C102.255 196.174 102.236 196.147 102.241 196.114C103.045 190.881 101.757 186.574 100.538 183.891C99.2174 180.979 97.6872 179.286 97.6685 179.267C97.6453 179.244 97.6499 179.207 97.6732 179.184C97.6965 179.16 97.7337 179.165 97.7569 179.188C97.7709 179.207 99.3151 180.914 100.645 183.839C101.808 186.407 103.036 190.449 102.455 195.365Z" fill="#E1ECFA"/>
<path d="M104.359 199.769C106.192 199.928 107.726 198.379 107.74 196.537C107.768 192.49 108.513 183.704 114.145 179.672C120.113 175.397 120.373 172.081 119.122 170.285C117.182 167.504 105.987 171.532 102.471 188.188C100.54 197.346 102.345 199.597 104.359 199.769Z" fill="#E1ECFA"/>
<path d="M106.618 194.374C106.609 194.733 106.609 195.095 106.618 195.463C106.618 195.509 106.656 195.542 106.702 195.542C106.749 195.542 106.776 195.505 106.781 195.458C106.665 188.012 109.279 182.263 111.493 178.751C113.893 174.946 116.349 172.881 116.372 172.858C116.404 172.83 116.409 172.779 116.381 172.742C116.353 172.709 116.302 172.705 116.265 172.732C116.242 172.751 113.763 174.839 111.349 178.663C109.237 182.026 106.758 187.416 106.618 194.374Z" fill="#E1ECFA"/>
<path d="M173.772 199.234C174.339 198.257 173.883 196.997 172.86 196.504C170.618 195.425 165.925 192.709 165.162 188.518C164.353 184.081 162.576 183.062 161.246 183.29C159.19 183.639 158.493 190.922 166.832 197.243C171.423 200.723 173.148 200.309 173.772 199.234Z" fill="#E1ECFA"/>
<path d="M171.362 196.558C171.558 196.656 171.762 196.754 171.967 196.847C171.99 196.856 172.023 196.847 172.032 196.824C172.042 196.8 172.032 196.772 172.009 196.758C167.837 194.87 165.325 191.907 163.953 189.754C162.469 187.424 161.962 185.512 161.958 185.493C161.953 185.465 161.925 185.451 161.897 185.456C161.869 185.461 161.855 185.489 161.86 185.517C161.865 185.535 162.376 187.461 163.869 189.805C165.181 191.861 167.53 194.656 171.362 196.558Z" fill="#E1ECFA"/>
<path d="M174.985 199.713C176.185 199.169 176.604 197.666 175.967 196.513C174.572 193.973 171.967 188.229 174.074 183.745C176.306 178.992 175.311 176.829 173.902 176.145C171.72 175.089 166.134 181.513 169.762 193.141C171.753 199.531 173.669 200.308 174.985 199.713Z" fill="#E1ECFA"/>
<path d="M174.51 195.55C174.631 195.778 174.757 196.001 174.887 196.229C174.901 196.257 174.938 196.266 174.966 196.252C174.994 196.233 174.999 196.201 174.989 196.173C172.315 191.564 171.938 187.061 172.092 184.094C172.259 180.88 173.073 178.731 173.078 178.708C173.092 178.68 173.073 178.643 173.045 178.633C173.017 178.624 172.98 178.638 172.971 178.666C172.962 178.689 172.143 180.852 171.975 184.085C171.831 186.922 172.166 191.159 174.51 195.55Z" fill="#E1ECFA"/>
<path d="M238.768 198.835C238.005 197.523 238.619 195.835 239.986 195.179C242.991 193.737 249.275 190.095 250.298 184.486C251.382 178.542 253.763 177.179 255.54 177.481C258.293 177.951 259.228 187.7 248.056 196.17C241.917 200.83 239.605 200.277 238.768 198.835Z" fill="#E1ECFA"/>
<path d="M241.99 195.257C241.725 195.387 241.455 195.518 241.181 195.639C241.148 195.653 241.106 195.639 241.093 195.606C241.079 195.574 241.093 195.536 241.125 195.518C246.711 192.992 250.074 189.02 251.911 186.136C253.902 183.011 254.576 180.457 254.586 180.434C254.595 180.397 254.632 180.378 254.669 180.387C254.707 180.397 254.725 180.434 254.716 180.471C254.711 180.499 254.028 183.071 252.027 186.215C250.269 188.964 247.125 192.708 241.99 195.257Z" fill="#E1ECFA"/>
<path d="M237.14 199.476C235.531 198.75 234.973 196.737 235.824 195.192C237.694 191.792 241.182 184.099 238.363 178.09C235.373 171.727 236.708 168.825 238.596 167.913C241.521 166.494 248.996 175.104 244.14 190.671C241.47 199.234 238.908 200.276 237.14 199.476Z" fill="#E1ECFA"/>
<path d="M237.778 193.903C237.615 194.206 237.448 194.508 237.271 194.815C237.248 194.852 237.201 194.866 237.164 194.843C237.127 194.819 237.117 194.778 237.136 194.736C240.717 188.564 241.224 182.531 241.015 178.559C240.787 174.257 239.703 171.377 239.689 171.35C239.676 171.308 239.694 171.266 239.736 171.247C239.778 171.233 239.82 171.252 239.838 171.294C239.848 171.322 240.945 174.224 241.173 178.554C241.369 182.35 240.917 188.024 237.778 193.903Z" fill="#E1ECFA"/>
<path d="M238.437 199.006C239.149 198.253 239.004 197.034 238.195 196.387C236.423 194.96 232.814 191.559 233.004 187.671C233.209 183.55 231.837 182.271 230.609 182.197C228.707 182.08 226.562 188.42 232.674 195.787C236.037 199.839 237.66 199.834 238.437 199.006Z" fill="#E1ECFA"/>
<path d="M236.852 196.123C237.005 196.253 237.168 196.379 237.331 196.504C237.35 196.518 237.382 196.514 237.396 196.495C237.41 196.476 237.405 196.448 237.387 196.43C234.066 193.876 232.447 190.718 231.675 188.514C230.838 186.127 230.787 184.323 230.787 184.304C230.787 184.281 230.764 184.258 230.74 184.258C230.717 184.258 230.694 184.281 230.694 184.304C230.694 184.323 230.745 186.141 231.587 188.541C232.326 190.648 233.838 193.63 236.852 196.123Z" fill="#E1ECFA"/>
<path d="M232.093 82.5249C231.419 82.5249 230.777 82.6552 230.182 82.8784C230.186 82.7621 230.191 82.6412 230.191 82.5249C230.191 77.897 226.442 74.1481 221.814 74.1481C217.414 74.1481 213.81 77.5388 213.465 81.8505C212.465 80.8877 211.107 80.2924 209.61 80.2924C207.405 80.2924 205.507 81.5761 204.605 83.4319C203.493 81.0365 201.075 79.3714 198.261 79.3714C194.396 79.3714 191.265 82.5063 191.265 86.3668C191.265 90.2319 194.4 93.3622 198.261 93.3622H232.093C235.089 93.3622 237.512 90.9343 237.512 87.9436C237.512 84.9528 235.084 82.5249 232.093 82.5249Z" fill="#E1ECFA"/>
<path d="M155.772 57.3768C156.447 57.3768 157.089 57.507 157.684 57.7303C157.679 57.614 157.675 57.4977 157.675 57.3768C157.675 52.7489 161.424 49 166.052 49C170.452 49 174.056 52.3907 174.4 56.7024C175.4 55.7396 176.759 55.1442 178.256 55.1442C180.461 55.1442 182.359 56.4279 183.261 58.2838C184.373 55.8884 186.791 54.2233 189.605 54.2233C193.47 54.2233 196.601 57.3582 196.601 61.2187C196.601 65.0838 193.466 68.2141 189.605 68.2141H155.772C152.777 68.2141 150.354 65.7861 150.354 62.7954C150.349 59.8047 152.777 57.3768 155.772 57.3768Z" fill="#E1ECFA"/>
<path d="M186.375 155.584C208.397 150.279 221.949 128.127 216.644 106.105C211.339 84.0829 189.186 70.5313 167.164 75.8363C145.142 81.1412 131.591 103.294 136.896 125.316C142.201 147.338 164.354 160.889 186.375 155.584Z" fill="#BAD4EF"/>
<path d="M187.611 151.73C207.504 145.741 218.775 124.758 212.785 104.865C206.796 84.9715 185.813 73.7005 165.92 79.6903C146.027 85.6801 134.756 106.663 140.745 126.556C146.735 146.449 167.718 157.72 187.611 151.73Z" stroke="white" stroke-width="1.5" stroke-miterlimit="10" stroke-linecap="round"/>
<path d="M178.055 153.946C186.257 153.946 192.906 136.971 192.906 116.03C192.906 95.0891 186.257 78.1133 178.055 78.1133C169.853 78.1133 163.204 95.0891 163.204 116.03C163.204 136.971 169.853 153.946 178.055 153.946Z" stroke="white" stroke-width="1.5" stroke-miterlimit="10" stroke-linecap="round"/>
<path d="M214.386 115.712H139.149" stroke="white" stroke-width="1.5" stroke-miterlimit="10" stroke-linecap="round"/>
<path d="M177.149 134.215C188.214 134.215 198.163 136.643 205.046 140.508C198.153 148.364 188.042 153.332 176.772 153.332C165.637 153.332 155.637 148.49 148.748 140.806C155.646 136.769 165.804 134.215 177.149 134.215Z" stroke="white" stroke-width="1.5" stroke-miterlimit="10" stroke-linecap="round"/>
<path d="M205.618 91.5782C198.721 95.634 188.53 98.2061 177.148 98.2061C165.493 98.2061 155.074 95.5131 148.176 91.2805C155.074 83.2107 165.325 78.0897 176.772 78.0897C188.358 78.0944 198.721 83.3363 205.618 91.5782Z" stroke="white" stroke-width="1.5" stroke-miterlimit="10" stroke-linecap="round"/>
<path d="M253.526 121.322L238.512 123.359L223.498 125.396C221.866 125.619 221.084 127.522 222.094 128.824L228.061 136.536L204.898 155.555C203.48 156.717 201.442 156.722 200.019 155.564L190.917 148.15C189.628 147.099 187.805 146.996 186.405 147.894L153.517 168.978C152.442 169.666 151.103 169.778 149.931 169.28L141.823 165.829C140.647 165.331 139.303 165.443 138.228 166.136L105.014 187.527C102.409 189.201 101.66 192.676 103.335 195.276C104.312 196.797 105.902 197.685 107.572 197.829C108.767 197.932 110 197.657 111.088 196.955L139.307 178.783C140.382 178.09 141.726 177.978 142.903 178.476L150.996 181.922C152.168 182.42 153.512 182.308 154.582 181.62L185.624 161.722C187.024 160.824 188.847 160.927 190.135 161.978L200.052 170.057C201.47 171.215 203.512 171.21 204.931 170.048L234.931 145.41L240.643 152.787C241.652 154.089 243.689 153.81 244.317 152.289L250.057 138.271L255.796 124.252C256.419 122.726 255.159 121.099 253.526 121.322Z" fill="#FEE900"/>
<path d="M106.962 142.164C113.926 142.164 119.571 136.519 119.571 129.555C119.571 122.591 113.926 116.946 106.962 116.946C99.9979 116.946 94.3525 122.591 94.3525 129.555C94.3525 136.519 99.9979 142.164 106.962 142.164Z" fill="#F0C66C"/>
<path d="M106.962 143.518C114.673 143.518 120.925 137.267 120.925 129.555C120.925 121.844 114.673 115.592 106.962 115.592C99.2504 115.592 92.999 121.844 92.999 129.555C92.999 137.267 99.2504 143.518 106.962 143.518Z" stroke="#F0C66C" stroke-width="0.5" stroke-miterlimit="10"/>
<path d="M105.139 121.899C109.436 120.322 112.687 124.508 112.222 127.838C112.018 131.122 108.18 133.15 108.529 134.387C107.734 134.387 106.139 134.387 105.348 134.387C105.348 134.387 105.576 133.778 104.743 133.043C101.608 130.578 99.5943 124.387 105.139 121.899Z" fill="white"/>
<path d="M108.525 134.387C108.506 135.894 108.892 137.708 106.701 137.541C104.985 137.485 105.371 135.545 105.339 134.387H108.525Z" fill="#E69724"/>
<path d="M107.571 134.388C107.571 134.388 107.515 129.379 107.953 127.988C108.395 126.597 109.278 125.528 109.929 126.723C111.185 130.518 104.45 131.472 103.925 128.114C103.232 124.876 106.874 124.597 106.264 134.388" stroke="#F0C66C" stroke-miterlimit="10" stroke-linecap="round"/>
<path d="M125.474 96.3697C132.438 96.3697 138.083 90.7243 138.083 83.7603C138.083 76.7964 132.438 71.1509 125.474 71.1509C118.51 71.1509 112.865 76.7964 112.865 83.7603C112.865 90.7243 118.51 96.3697 125.474 96.3697Z" fill="#F0C66C"/>
<path d="M125.474 97.7219C133.185 97.7219 139.437 91.4706 139.437 83.7591C139.437 76.0476 133.185 69.7962 125.474 69.7962C117.762 69.7962 111.511 76.0476 111.511 83.7591C111.511 91.4706 117.762 97.7219 125.474 97.7219Z" stroke="#F0C66C" stroke-width="0.5" stroke-miterlimit="10"/>
<path d="M128.248 90.1061C131.906 88.574 133.63 84.3662 132.098 80.7078C130.565 77.0494 126.358 75.3257 122.699 76.8578C119.041 78.39 117.317 82.5978 118.849 86.2562C120.381 89.9146 124.589 91.6383 128.248 90.1061Z" stroke="white" stroke-miterlimit="10"/>
<path d="M123.795 86.8722C123.442 87.1978 122.875 87.1048 122.651 86.6769L121.233 83.9885C121.047 83.6396 121.181 83.2024 121.53 83.0164C121.884 82.8303 122.316 82.9652 122.502 83.3141L123.493 85.1931L128.595 80.4675C128.884 80.1978 129.34 80.2164 129.609 80.5047C129.879 80.7978 129.861 81.2489 129.572 81.5187L123.795 86.8722Z" fill="white"/>
<path d="M132.702 90.7555C133.136 88.9232 132.002 87.086 130.17 86.652C128.338 86.218 126.5 87.3515 126.066 89.1838C125.632 91.0161 126.766 92.8532 128.598 93.2873C130.43 93.7213 132.268 92.5878 132.702 90.7555Z" fill="white"/>
<path d="M132.283 89.9684C132.283 91.5731 130.985 92.8708 129.38 92.8708C127.776 92.8708 126.478 91.5731 126.478 89.9684C126.478 88.3638 127.776 87.0661 129.38 87.0661C130.985 87.0661 132.283 88.3638 132.283 89.9684Z" fill="#F0C66C"/>
<path d="M130.268 90.4287C130.263 90.8567 129.919 91.0427 129.495 91.0846V91.4474H129.254V91.0939C128.965 91.0892 128.714 91.038 128.495 90.9404V90.4753C128.588 90.5264 129.086 90.6892 129.254 90.6799V90.1311C128.314 89.959 128.226 88.8055 129.254 88.7636V88.4892H129.495V88.7543C129.765 88.7683 130.007 88.8194 130.226 88.9171L130.058 89.3311C129.872 89.2566 129.686 89.2101 129.491 89.1915V89.7125C129.919 89.8939 130.244 89.9822 130.268 90.4287ZM129.021 89.3822C129.026 89.5171 129.123 89.5497 129.249 89.6148V89.2008C129.1 89.2194 129.021 89.2799 129.021 89.3822ZM129.733 90.4566C129.723 90.3264 129.616 90.2892 129.491 90.2241V90.666C129.654 90.638 129.733 90.5683 129.733 90.4566Z" fill="white"/>
<path d="M247.071 104.465C248.69 97.6921 244.511 90.8894 237.738 89.271C230.965 87.6525 224.162 91.8313 222.543 98.6044C220.925 105.378 225.104 112.18 231.877 113.799C238.65 115.417 245.453 111.238 247.071 104.465Z" fill="#F0C66C"/>
<path d="M234.814 115.498C242.525 115.498 248.777 109.246 248.777 101.535C248.777 93.8233 242.525 87.572 234.814 87.572C227.102 87.572 220.851 93.8233 220.851 101.535C220.851 109.246 227.102 115.498 234.814 115.498Z" stroke="#F0C66C" stroke-width="0.5" stroke-miterlimit="10"/>
<path d="M229.782 103.09C229.782 103.09 229.949 105.453 229.963 106.457C229.968 106.932 230.038 107.29 230.107 107.536C230.173 107.774 230.41 107.918 230.652 107.881L231.991 107.653C232.266 107.606 232.442 107.336 232.377 107.067C232.131 106.057 231.624 103.811 231.745 103.001L229.782 103.09Z" fill="#E69724"/>
<path d="M228.539 100.16L228.818 102.788C228.837 102.983 229.009 103.132 229.209 103.123L232.725 102.988L232.512 99.2809L229.005 99.5926C228.716 99.6251 228.507 99.8763 228.539 100.16Z" fill="#E69724"/>
<path d="M232.507 99.2852L238.67 95.3131C239.139 95.0107 239.772 95.2479 239.921 95.7875C240.418 97.5921 241.26 101.425 240.721 105.253C240.67 105.615 240.288 105.839 239.944 105.708L232.721 102.992L232.507 99.2852Z" fill="white"/>
<path d="M228.559 100.341C228.135 100.374 227.824 100.751 227.866 101.174L227.949 101.955C227.996 102.379 228.377 102.681 228.801 102.625L228.559 100.341Z" fill="white"/>
<path d="M240.573 98.8242C240.573 98.8242 241.773 99.2196 241.768 100.229C241.759 101.238 240.894 101.913 240.894 101.913C240.894 101.913 240.661 99.4196 240.573 98.8242Z" fill="#E69724"/>
<path d="M240.717 105.253C241.256 101.425 240.414 97.5921 239.917 95.7875C239.768 95.2479 239.14 95.0107 238.665 95.3131L238.489 95.4293C238.716 95.9317 239.149 97.0712 239.386 98.8712C239.698 101.197 239.949 103.783 239.619 105.588L239.94 105.708C240.289 105.843 240.665 105.62 240.717 105.253Z" fill="#E69724"/>
<path d="M148.293 160.583L146.256 160.011C146.376 159.234 146.423 157.983 145.8 156.801C145.186 155.639 144.083 154.825 142.53 154.388C139.865 153.639 138.176 154.718 137.232 155.75C136.781 156.243 136.465 156.769 136.246 157.201L134.135 156.611C133.507 156.434 132.851 156.801 132.674 157.429L130.241 166.099C130.065 166.727 130.432 167.383 131.06 167.56L145.218 171.532C145.846 171.709 146.502 171.341 146.679 170.713L149.111 162.043C149.288 161.415 148.921 160.76 148.293 160.583ZM142.097 155.927C143.209 156.239 143.976 156.783 144.381 157.541C144.758 158.248 144.767 159.034 144.702 159.578L137.8 157.643C138.381 156.615 139.646 155.239 142.097 155.927Z" fill="#A0C8EC"/>
<path d="M145.679 144.345L143.516 152.601C143.516 152.601 144.349 153.317 144.698 154.192C145.047 155.062 144.935 155.778 144.73 155.555C144.605 155.42 144.419 155.285 144.158 155.104C143.8 154.862 143.637 154.583 143.372 154.597C142.921 154.62 142.433 154.82 142.796 155.759C143.149 156.671 144.405 156.936 144.084 157.173C143.275 157.769 142.703 156.95 142.703 156.95C142.703 156.95 142.465 157.317 142.144 157.313C141.823 157.308 141.698 156.741 141.698 156.741C141.698 156.741 141.456 157.057 141.089 157.006C140.721 156.955 140.642 156.434 140.642 156.434C140.642 156.434 140.065 156.945 139.693 156.327C139.316 155.704 138.582 154.131 140.837 152.127C140.837 152.127 142.949 141.61 143.907 141.048C144.87 140.485 145.679 144.345 145.679 144.345Z" fill="#E1B39D"/>
<path d="M140.953 151.118L143.642 152.192C143.763 152.239 143.902 152.174 143.935 152.048L144.009 151.774C144.037 151.667 143.981 151.555 143.879 151.513L141.2 150.411C141.079 150.36 140.939 150.43 140.907 150.555L140.823 150.858C140.795 150.96 140.851 151.076 140.953 151.118Z" fill="white"/>
<path d="M140.837 150.74L144.004 151.879C144.149 151.93 144.307 151.856 144.358 151.712L145.93 143.712L149.818 139.084C149.87 138.94 149.409 137.316 149.265 137.265L148.232 133.479C148.088 133.428 142.265 142.042 142.265 142.042L140.67 150.386C140.618 150.53 140.693 150.689 140.837 150.74Z" fill="#264154"/>
<path d="M173.917 147.726C173.917 147.726 175.921 148.81 176 148.796C176.084 148.782 177.549 148.34 177.856 148.717C178.163 149.094 179.419 150.485 180.219 151.289C181.014 152.089 181.512 153.113 181.019 153.489C180.531 153.866 180.396 153.522 180.396 153.522C180.396 153.522 180.712 154.21 180.2 154.392C179.689 154.578 179.452 154.308 179.452 154.308C179.452 154.308 179.587 154.731 179.284 154.903C178.982 155.075 178.596 154.922 178.48 154.75C178.48 154.75 178.038 155.401 177.47 155.024C176.907 154.647 174.233 152.531 174.177 151.606L173.047 150.866L173.917 147.726Z" fill="#E1B39D"/>
<path d="M174.521 147.992L173.219 150.996C173.163 151.126 173.009 151.178 172.884 151.112L171.056 150.136C170.944 150.075 170.898 149.94 170.949 149.829L172.316 146.685C172.377 146.55 172.54 146.499 172.665 146.578L174.428 147.694C174.53 147.759 174.572 147.885 174.521 147.992Z" fill="white"/>
<path d="M160.502 192.824L160.409 195.838L156.521 195.819L156.535 192.805L160.502 192.824Z" fill="#F3D6C1"/>
<path d="M156.52 195.821L160.324 195.84C160.38 195.84 160.436 195.844 160.492 195.858C161.036 195.988 164.124 196.77 166.85 198.272C167.529 198.644 167.25 199.681 166.478 199.677L157.254 199.63C156.841 199.63 156.506 199.291 156.506 198.877L156.52 195.821Z" fill="#2F526E"/>
<path d="M158.377 118.781C158.377 118.781 158.563 119.907 159.954 122.219C161.372 124.582 161.247 128.251 159.396 129.102C157.954 129.768 156.87 129.521 156.87 129.521L156.196 134.809L151.498 133.796L151.782 128.623L150.279 121.256L158.377 118.781Z" fill="#E1B39D"/>
<path d="M152.901 192.597L152.818 195.838L148.929 195.82L148.943 192.806L152.901 192.597Z" fill="#F3D6C1"/>
<path d="M148.931 195.821L152.735 195.84C152.791 195.84 152.847 195.844 152.903 195.858C153.447 195.988 156.535 196.77 159.261 198.272C159.94 198.644 159.661 199.681 158.889 199.677L149.665 199.63C149.252 199.63 148.917 199.291 148.917 198.877L148.931 195.821Z" fill="#315780"/>
<path d="M160.763 156.206L161.247 192.825C161.251 193.229 160.93 193.564 160.521 193.573L156.409 193.652C156.014 193.662 155.684 193.355 155.661 192.964L154.814 179.876L153.474 193.136C153.437 193.508 153.126 193.792 152.754 193.801L149.158 193.866C148.758 193.876 148.423 193.559 148.409 193.155L147.065 156.206C147.065 156.01 160.763 156.206 160.763 156.206Z" fill="#F0C66C"/>
<path d="M160.502 192.824L156.381 192.876" stroke="#E69724" stroke-width="0.5" stroke-miterlimit="10" stroke-linecap="round"/>
<path d="M152.856 192.941L148.874 193.002" stroke="#E69724" stroke-width="0.5" stroke-miterlimit="10" stroke-linecap="round"/>
<path d="M156.944 191.917L155.958 168.057" stroke="#E69724" stroke-width="0.5" stroke-miterlimit="10" stroke-linecap="round"/>
<path d="M158.251 156.675C158.251 156.675 158.307 161.499 156.739 162.196C155.176 162.894 157.144 158.578 156.479 156.647L158.251 156.675Z" stroke="#E69724" stroke-width="0.5" stroke-miterlimit="10" stroke-linecap="round"/>
<path d="M156.739 162.196L156.436 163.126L154.813 179.875" stroke="#E69724" stroke-width="0.5" stroke-miterlimit="10" stroke-linecap="round"/>
<path d="M148.767 155.902L149.707 191.917" stroke="#E69724" stroke-width="0.5" stroke-miterlimit="10" stroke-linecap="round"/>
<path d="M147.261 136.346C147.479 134.295 148.242 131.969 150.805 131.55C152.628 131.253 155.261 131.323 157.024 131.843C158.703 132.336 160.158 133.388 161.14 134.834C162.749 137.202 165.21 140.825 165.219 140.834L174.126 147.016C174.298 147.146 174.354 147.383 174.265 147.578L172.8 150.774C172.679 151.044 172.34 151.132 172.103 150.955C170.112 149.495 162.158 144.49 162.145 144.476L160.693 143.095L160.996 156.732H146.8C146.81 156.723 146.777 140.904 147.261 136.346Z" fill="#315782"/>
<path d="M151.726 128.131L152.991 126.522C153.14 126.336 153.084 126.061 152.879 125.94C152.377 125.647 151.591 125.043 151.624 124.173C151.665 122.894 153.052 122.392 154.093 123.443C154.093 123.443 154.326 124.14 154.624 121.438C154.921 118.731 157.224 120.703 158.293 119.573C159.363 118.443 160.07 117.801 159.842 116.75C159.614 115.699 158.931 114.196 157.572 115.108C156.214 116.019 156.117 114.243 154.633 115.006C152.786 115.959 150.749 114.001 150.54 116.285C150.331 118.568 147.665 117.015 148.4 118.861C149.131 120.708 146.228 120.708 146.917 122.01C147.605 123.313 146.703 124.945 147.935 125.578C149.168 126.21 150.131 125.578 150.261 127.294C150.335 128.299 151.726 128.131 151.726 128.131Z" fill="#2F5482"/>
<path d="M157.428 134.07C157.428 134.07 154.517 135.419 157.661 139.415C160.652 143.219 160.698 143.084 160.698 143.084" stroke="#264154" stroke-width="0.5" stroke-miterlimit="10" stroke-linecap="round"/>
<path d="M151.483 148.247C151.483 148.247 151.762 153.517 156.121 154.14" stroke="#264154" stroke-width="0.5" stroke-miterlimit="10" stroke-linecap="round"/>
<path d="M149.153 145.247C149.153 145.247 148.669 152.899 151.25 154.638" stroke="#264154" stroke-width="0.5" stroke-miterlimit="10" stroke-linecap="round"/>
<path d="M194.195 193.563L194.293 196.861L197.805 196.279L197.791 193.544L194.195 193.563Z" fill="#E1B39D"/>
<path d="M197.804 196.279C194.176 196.223 192.985 196.219 188.432 198.507C187.818 198.847 188.069 199.786 188.771 199.782L197.139 199.74C198.353 199.809 197.804 196.279 197.804 196.279Z" fill="#2F526E"/>
<path d="M210.521 193.544L210.609 196.856L214.13 197.121L214.111 193.735L210.521 193.544Z" fill="#E1B39D"/>
<path d="M212.125 196.265C211.665 196.265 210.209 196.363 209.455 197.112C208.479 198.079 208.609 199.758 209.009 199.758L215.214 199.777C215.511 199.8 215.414 198.33 214.721 197.395C214.093 196.558 213.576 196.256 212.125 196.265Z" fill="#315780"/>
<path d="M212.497 163.836L214.506 163.329C214.409 162.566 214.395 161.343 215.037 160.204C215.669 159.083 216.767 158.315 218.302 157.929C220.93 157.269 222.553 158.366 223.446 159.404C223.874 159.897 224.171 160.418 224.371 160.846L226.451 160.325C227.069 160.166 227.702 160.543 227.855 161.166L230.004 169.711C230.162 170.329 229.785 170.962 229.162 171.115L215.204 174.622C214.585 174.78 213.953 174.404 213.799 173.78L211.65 165.236C211.502 164.622 211.878 163.99 212.497 163.836ZM218.678 159.446C217.581 159.72 216.813 160.232 216.399 160.962C216.009 161.646 215.985 162.413 216.032 162.948L222.837 161.236C222.297 160.218 221.097 158.836 218.678 159.446Z" fill="#EBB259"/>
<path d="M211.074 152.609C211.446 155.158 213.064 166.772 212.888 175.865C212.888 175.893 212.888 175.921 212.892 175.949L215.009 194.07C215.055 194.451 214.758 194.781 214.371 194.781H210.251C209.953 194.781 209.697 194.577 209.627 194.288C208.911 191.209 205.097 174.735 204.813 172.549C204.497 170.135 204.185 166.883 204.185 166.883L201.567 177.558C201.562 177.572 201.562 177.586 201.557 177.6L198.65 194.479C198.595 194.791 198.325 195.014 198.009 195.009L193.688 194.939C193.32 194.935 193.032 194.619 193.06 194.256L194.427 175.084C194.427 175.065 194.432 175.051 194.432 175.032L197.906 151.832C197.957 151.502 198.25 151.269 198.581 151.288L210.483 152.055C210.785 152.088 211.027 152.311 211.074 152.609Z" fill="#315782"/>
<path d="M204.186 166.889L202.558 153.949" stroke="#264154" stroke-width="0.5" stroke-miterlimit="10" stroke-linecap="round"/>
<path d="M203.135 165.864L199.623 177.376L197.241 193.543" stroke="#264154" stroke-width="0.5" stroke-miterlimit="10" stroke-linecap="round"/>
<path d="M210.293 157.697L211.456 175.781L213.846 193.544" stroke="#264154" stroke-width="0.5" stroke-miterlimit="10" stroke-linecap="round"/>
<path d="M200.785 154.893C200.785 154.893 201.409 159.27 203.134 159.209" stroke="#264154" stroke-width="0.5" stroke-miterlimit="10" stroke-linecap="round"/>
<path d="M207.065 153.949C207.065 153.949 207.721 156.782 209.758 159.214" stroke="#264154" stroke-width="0.5" stroke-miterlimit="10" stroke-linecap="round"/>
<path d="M215.084 148.312L217.688 156.228C217.688 156.228 216.553 156.837 216.186 157.679C215.823 158.521 215.912 159.223 216.116 159.014C216.242 158.884 216.428 158.758 216.688 158.591C217.042 158.367 217.214 158.098 217.47 158.116C217.912 158.154 218.381 158.358 218 159.27C217.628 160.154 216.395 160.377 216.702 160.619C217.479 161.223 218.06 160.437 218.06 160.437C218.06 160.437 218.284 160.805 218.6 160.805C218.916 160.809 219.051 160.256 219.051 160.256C219.051 160.256 219.279 160.572 219.637 160.53C219.995 160.488 220.088 159.981 220.088 159.981C220.088 159.981 220.637 160.498 221.019 159.902C221.4 159.302 222.163 157.786 220.014 155.763C220.014 155.763 218.228 145.419 217.307 144.842C216.381 144.265 215.084 148.312 215.084 148.312Z" fill="#F3D6C1"/>
<path d="M181.181 152.878C181.181 152.878 181.167 152.534 180.423 151.739C179.679 150.943 178.879 149.818 178.288 149.906C178.288 149.906 177.939 151.441 177.381 151.571C176.823 151.706 176.841 150.836 176.772 150.153C176.702 149.469 177.567 148.594 178.162 148.487C178.823 148.371 179.534 149.078 180.409 149.162L183.223 148.246L184.041 151.585L182.395 152.101C182.386 152.106 181.911 152.422 181.181 152.878Z" fill="#F3D6C1"/>
<path d="M182.404 148.609L183.371 151.642C183.413 151.776 183.567 151.846 183.702 151.79L183.985 151.665C184.097 151.614 184.153 151.488 184.116 151.372L183.181 148.33C183.139 148.19 182.985 148.121 182.855 148.181L182.539 148.321C182.423 148.362 182.367 148.488 182.404 148.609Z" fill="#F9ECDC"/>
<path d="M177.264 150.265L176.766 150.153C176.804 150.526 176.818 150.953 176.911 151.242C177.329 151.446 177.399 150.753 177.408 150.442C177.413 150.363 177.353 150.288 177.264 150.265Z" fill="white"/>
<path d="M175.929 152.823C175.929 152.823 176.706 152.344 177.036 152.516C177.366 152.688 177.39 152.911 177.301 153.037C177.301 153.037 177.753 152.874 177.999 153.237C178.246 153.595 177.515 154.107 177.515 154.107C177.515 154.107 178.055 154.181 177.543 154.762C177.036 155.344 176.399 155.162 176.455 154.735C176.455 154.735 175.925 154.809 175.729 154.525C175.534 154.242 175.697 154.014 175.697 154.014C175.697 154.014 175.176 154.088 175.064 153.772C174.957 153.455 175.12 153.293 175.12 153.293C175.12 153.293 174.394 153.237 174.515 152.758C174.632 152.279 175.678 151.972 175.846 152.162C176.018 152.348 176.101 152.428 175.929 152.823Z" fill="#F3D6C1"/>
<path d="M175.259 152.805L175.148 152.632C175.106 152.563 175.129 152.479 175.199 152.437L175.445 152.302C175.566 152.237 175.72 152.274 175.794 152.386C175.868 152.498 175.827 152.646 175.71 152.711L175.459 152.851C175.385 152.893 175.296 152.87 175.259 152.805Z" fill="white"/>
<path d="M176.521 153.149L176.409 152.977C176.367 152.907 176.39 152.823 176.46 152.782L176.707 152.647C176.828 152.582 176.981 152.619 177.056 152.73C177.13 152.842 177.088 152.991 176.972 153.056L176.721 153.196C176.651 153.233 176.563 153.214 176.521 153.149Z" fill="white"/>
<path d="M177.274 153.725L177.162 153.553C177.121 153.483 177.144 153.399 177.214 153.357L177.46 153.222C177.581 153.157 177.734 153.194 177.809 153.306C177.883 153.418 177.841 153.567 177.725 153.632L177.474 153.771C177.4 153.808 177.311 153.785 177.274 153.725Z" fill="white"/>
<path d="M177.348 154.623L177.231 154.488C177.213 154.47 177.217 154.437 177.241 154.423L177.431 154.279C177.492 154.232 177.576 154.246 177.627 154.302C177.673 154.358 177.664 154.442 177.608 154.484L177.413 154.632C177.39 154.642 177.362 154.637 177.348 154.623Z" fill="white"/>
<path d="M217.199 155.865L220.297 155.121C220.436 155.089 220.515 154.94 220.469 154.805L220.362 154.512C220.32 154.396 220.199 154.33 220.083 154.358L216.98 155.075C216.841 155.107 216.757 155.256 216.808 155.391L216.924 155.717C216.957 155.828 217.078 155.898 217.199 155.865Z" fill="#F9ECDC"/>
<path d="M210.916 152.655C209.921 153.064 203.688 155.395 197.967 152.195C197.897 152.157 197.851 152.083 197.846 152.004C197.8 150.846 197.609 141.464 197.511 139.064L193.339 145.041C193.325 145.055 184.293 151.785 184.293 151.785C184.167 151.878 183.981 151.822 183.93 151.669L182.702 147.929C182.674 147.836 182.702 147.739 182.776 147.678L190.028 141.729C190.046 141.715 195.558 131.827 197.009 131.222C198.916 130.427 200.93 129.376 202.856 129.604C206.911 130.083 203.153 128.162 212.107 130.613C215.651 131.58 219.86 149.901 220.535 154.306C220.553 154.422 220.479 154.534 220.363 154.562L216.874 155.502C216.753 155.534 216.628 155.464 216.59 155.348L211.488 139.371L211.056 152.441C211.056 152.539 211 152.618 210.916 152.655Z" fill="#F0C66C"/>
<path d="M200.329 117.335C200.329 117.335 200.171 118.456 198.855 120.786C197.511 123.167 197.725 126.8 199.585 127.6C201.032 128.223 202.101 127.953 202.101 127.953L202.673 131.846L207.487 130.223L207.129 126.925L208.432 119.581L200.329 117.335Z" fill="#F3D6C1"/>
<path d="M199.125 115.014C199.102 114.647 199.465 114.367 199.809 114.493C200.525 114.749 201.921 115.023 204.479 114.809C209.367 114.395 211.66 118.716 211.479 121.758C211.321 124.368 208.46 125.702 207.525 126.754C207.325 126.982 206.967 126.968 206.763 126.74C206.284 126.205 205.623 125.409 205.614 125.102C205.6 124.628 206.981 124.623 207.121 123.214C207.26 121.805 205.386 121.53 204.791 122.591C204.195 123.651 204.632 119.898 203.632 119.484C202.721 119.112 199.307 118.154 199.125 115.014Z" fill="#2F5482"/>
<path d="M207.474 129.887C207.474 129.887 207.846 132.938 204.767 133.213C201.688 133.487 202.507 130.143 202.507 130.143L207.474 129.887Z" fill="#F3D6C1"/>
<path d="M206.172 133.725L204.679 135.827C204.535 136.027 204.242 136.032 204.093 135.837L202.232 133.404C202.232 133.404 204.669 132.846 206.172 133.725Z" fill="#F9ECDC"/>
<path d="M204.349 135.166L206.409 146.873C206.432 147.013 206.418 147.162 206.363 147.287L204.786 151.008C204.6 151.446 204.093 151.446 203.907 151.013L202.321 147.348C202.265 147.218 202.246 147.073 202.274 146.929L204.349 135.166Z" fill="#F9ECDC"/>
<path d="M207.395 129.4C207.395 129.4 205.86 132.954 203.813 133.168L206.739 134.912C206.739 134.912 209.99 130.67 207.395 129.4Z" fill="#E69724"/>
<path d="M202.344 129.553C202.344 129.553 202.558 132.609 204.279 133.283L201.902 134.911C201.902 134.911 199.813 130.167 202.344 129.553Z" fill="#E69724"/>
<path d="M260.042 199.811H89.9576" stroke="#315782" stroke-miterlimit="10" stroke-linecap="round"/>
</svg>
