<svg width="715" height="594" viewBox="0 0 715 594" fill="none" xmlns="http://www.w3.org/2000/svg">
<mask id="path-1-inside-1_3_31" fill="white">
<path fill-rule="evenodd" clip-rule="evenodd" d="M330.503 0H-707.709V594H330.504C330.953 594 331.402 593.995 331.849 593.985C333.122 593.995 334.397 594 335.673 594C545.008 594 714.708 461.029 714.708 297C714.708 132.971 545.008 0 335.673 0C334.397 0 333.122 0.00493986 331.849 0.0147969C331.402 0.00494945 330.953 0 330.503 0Z"/>
</mask>
<path d="M-707.709 0V-1H-708.709V0H-707.709ZM-707.709 594H-708.709V595H-707.709V594ZM331.849 593.985L331.857 592.985L331.842 592.985L331.827 592.985L331.849 593.985ZM331.849 0.0147969L331.827 1.01455L331.842 1.01488L331.857 1.01477L331.849 0.0147969ZM-708.709 0V2.97H-706.709V0H-708.709ZM-708.709 8.91V14.85H-706.709V8.91H-708.709ZM-708.709 20.79V26.73H-706.709V20.79H-708.709ZM-708.709 32.67V38.61H-706.709V32.67H-708.709ZM-708.709 44.55V50.49H-706.709V44.55H-708.709ZM-708.709 56.43V62.37H-706.709V56.43H-708.709ZM-708.709 68.31V74.25H-706.709V68.31H-708.709ZM-708.709 80.19V86.13H-706.709V80.19H-708.709ZM-708.709 92.07V98.01H-706.709V92.07H-708.709ZM-708.709 103.95V109.89H-706.709V103.95H-708.709ZM-708.709 115.83V121.77H-706.709V115.83H-708.709ZM-708.709 127.71V133.65H-706.709V127.71H-708.709ZM-708.709 139.59V145.53H-706.709V139.59H-708.709ZM-708.709 151.47V157.41H-706.709V151.47H-708.709ZM-708.709 163.35V169.29H-706.709V163.35H-708.709ZM-708.709 175.23V181.17H-706.709V175.23H-708.709ZM-708.709 187.11V193.05H-706.709V187.11H-708.709ZM-708.709 198.99V204.93H-706.709V198.99H-708.709ZM-708.709 210.87V216.81H-706.709V210.87H-708.709ZM-708.709 222.75V228.69H-706.709V222.75H-708.709ZM-708.709 234.63V240.57H-706.709V234.63H-708.709ZM-708.709 246.51V252.45H-706.709V246.51H-708.709ZM-708.709 258.39V264.33H-706.709V258.39H-708.709ZM-708.709 270.27V276.21H-706.709V270.27H-708.709ZM-708.709 282.15V288.09H-706.709V282.15H-708.709ZM-708.709 294.03V299.97H-706.709V294.03H-708.709ZM-708.709 305.91V311.85H-706.709V305.91H-708.709ZM-708.709 317.79V323.73H-706.709V317.79H-708.709ZM-708.709 329.67V335.61H-706.709V329.67H-708.709ZM-708.709 341.55V347.49H-706.709V341.55H-708.709ZM-708.709 353.43V359.37H-706.709V353.43H-708.709ZM-708.709 365.31V371.25H-706.709V365.31H-708.709ZM-708.709 377.19V383.13H-706.709V377.19H-708.709ZM-708.709 389.07V395.01H-706.709V389.07H-708.709ZM-708.709 400.95V406.89H-706.709V400.95H-708.709ZM-708.709 412.83V418.77H-706.709V412.83H-708.709ZM-708.709 424.71V430.65H-706.709V424.71H-708.709ZM-708.709 436.59V442.53H-706.709V436.59H-708.709ZM-708.709 448.47V454.41H-706.709V448.47H-708.709ZM-708.709 460.35V466.29H-706.709V460.35H-708.709ZM-708.709 472.23V478.17H-706.709V472.23H-708.709ZM-708.709 484.11V490.05H-706.709V484.11H-708.709ZM-708.709 495.99V501.93H-706.709V495.99H-708.709ZM-708.709 507.87V513.81H-706.709V507.87H-708.709ZM-708.709 519.75V525.69H-706.709V519.75H-708.709ZM-708.709 531.63V537.57H-706.709V531.63H-708.709ZM-708.709 543.51V549.45H-706.709V543.51H-708.709ZM-708.709 555.39V561.33H-706.709V555.39H-708.709ZM-708.709 567.27V573.21H-706.709V567.27H-708.709ZM-708.709 579.15V585.09H-706.709V579.15H-708.709ZM-708.709 591.03V594H-706.709V591.03H-708.709ZM-707.709 595H-704.726V593H-707.709V595ZM-698.759 595H-692.792V593H-698.759V595ZM-686.825 595H-680.859V593H-686.825V595ZM-674.892 595H-668.925V593H-674.892V595ZM-662.958 595H-656.992V593H-662.958V595ZM-651.025 595H-645.058V593H-651.025V595ZM-639.091 595H-633.125V593H-639.091V595ZM-627.158 595H-621.191V593H-627.158V595ZM-615.225 595H-609.258V593H-615.225V595ZM-603.291 595H-597.324V593H-603.291V595ZM-591.358 595H-585.391V593H-591.358V595ZM-579.424 595H-573.457V593H-579.424V595ZM-567.491 595H-561.524V593H-567.491V595ZM-555.557 595H-549.59V593H-555.557V595ZM-543.624 595H-537.657V593H-543.624V595ZM-531.69 595H-525.723V593H-531.69V595ZM-519.757 595H-513.79V593H-519.757V595ZM-507.823 595H-501.857V593H-507.823V595ZM-495.89 595H-489.923V593H-495.89V595ZM-483.956 595H-477.99V593H-483.956V595ZM-472.023 595H-466.056V593H-472.023V595ZM-460.089 595H-454.123V593H-460.089V595ZM-448.156 595H-442.189V593H-448.156V595ZM-436.222 595H-430.256V593H-436.222V595ZM-424.289 595H-418.322V593H-424.289V595ZM-412.355 595H-406.389V593H-412.355V595ZM-400.422 595H-394.455V593H-400.422V595ZM-388.489 595H-382.522V593H-388.489V595ZM-376.555 595H-370.588V593H-376.555V595ZM-364.622 595H-358.655V593H-364.622V595ZM-352.688 595H-346.721V593H-352.688V595ZM-340.755 595H-334.788V593H-340.755V595ZM-328.821 595H-322.854V593H-328.821V595ZM-316.888 595H-310.921V593H-316.888V595ZM-304.954 595H-298.988V593H-304.954V595ZM-293.021 595H-287.054V593H-293.021V595ZM-281.087 595H-275.121V593H-281.087V595ZM-269.154 595H-263.187V593H-269.154V595ZM-257.22 595H-251.254V593H-257.22V595ZM-245.287 595H-239.32V593H-245.287V595ZM-233.353 595H-227.387V593H-233.353V595ZM-221.42 595H-215.453V593H-221.42V595ZM-209.486 595H-203.52V593H-209.486V595ZM-197.553 595H-191.586V593H-197.553V595ZM-185.62 595H-179.653V593H-185.62V595ZM-173.686 595H-167.719V593H-173.686V595ZM-161.753 595H-155.786V593H-161.753V595ZM-149.819 595H-143.852V593H-149.819V595ZM-137.886 595H-131.919V593H-137.886V595ZM-125.952 595H-119.985V593H-125.952V595ZM-114.019 595H-108.052V593H-114.019V595ZM-102.085 595H-96.1185V593H-102.085V595ZM-90.1517 595H-84.185V593H-90.1517V595ZM-78.2183 595H-72.2515V593H-78.2183V595ZM-66.2848 595H-60.3181V593H-66.2848V595ZM-54.3513 595H-48.3846V593H-54.3513V595ZM-42.4178 595H-36.4511V593H-42.4178V595ZM-30.4844 595H-24.5176V593H-30.4844V595ZM-18.5509 595H-12.5842V593H-18.5509V595ZM-6.61743 595H-0.650696V593H-6.61743V595ZM5.31604 595H11.2828V593H5.31604V595ZM17.2495 595H23.2162V593H17.2495V595ZM29.183 595H35.1497V593H29.183V595ZM41.1165 595H47.0832V593H41.1165V595ZM53.0499 595H59.0167V593H53.0499V595ZM64.9834 595H70.9501V593H64.9834V595ZM76.9169 595H82.8836V593H76.9169V595ZM88.8503 595H94.8171V593H88.8503V595ZM100.784 595H106.751V593H100.784V595ZM112.717 595H118.684V593H112.717V595ZM124.651 595H130.617V593H124.651V595ZM136.584 595H142.551V593H136.584V595ZM148.518 595H154.484V593H148.518V595ZM160.451 595H166.418V593H160.451V595ZM172.385 595H178.351V593H172.385V595ZM184.318 595H190.285V593H184.318V595ZM196.252 595H202.218V593H196.252V595ZM208.185 595H214.152V593H208.185V595ZM220.119 595H226.085V593H220.119V595ZM232.052 595H238.019V593H232.052V595ZM243.985 595H249.952V593H243.985V595ZM255.919 595H261.886V593H255.919V595ZM267.852 595H273.819V593H267.852V595ZM279.786 595H285.753V593H279.786V595ZM291.719 595H297.686V593H291.719V595ZM303.653 595H309.62V593H303.653V595ZM315.586 595H321.553V593H315.586V595ZM327.52 595H330.504V593H327.52V595ZM330.504 595C330.618 595 330.732 595 330.845 594.999L330.835 592.999C330.724 593 330.614 593 330.504 593V595ZM331.529 594.992C331.643 594.99 331.757 594.987 331.871 594.985L331.827 592.985C331.717 592.988 331.607 592.99 331.496 592.992L331.529 594.992ZM331.842 594.985C332.161 594.988 332.48 594.99 332.799 594.992L332.811 592.992C332.493 592.99 332.175 592.988 331.857 592.985L331.842 594.985ZM334.715 594.999C335.034 595 335.353 595 335.673 595V593C335.355 593 335.037 593 334.719 592.999L334.715 594.999ZM335.673 595C336.69 595 337.707 594.997 338.722 594.991L338.71 592.991C337.698 592.997 336.686 593 335.673 593V595ZM344.804 594.916C346.827 594.878 348.847 594.828 350.862 594.766L350.8 592.767C348.793 592.829 346.782 592.879 344.767 592.916L344.804 594.916ZM356.916 594.542C358.947 594.455 360.973 594.354 362.995 594.242L362.884 592.245C360.87 592.357 358.852 592.457 356.829 592.544L356.916 594.542ZM369.048 593.867C371.064 593.729 373.075 593.579 375.081 593.417L374.92 591.424C372.922 591.585 370.919 591.734 368.912 591.871L369.048 593.867ZM381.149 592.889C383.166 592.7 385.179 592.499 387.187 592.286L386.976 590.297C384.976 590.509 382.972 590.71 380.963 590.897L381.149 592.889ZM393.196 591.609C395.215 591.368 397.23 591.116 399.239 590.85L398.977 588.868C396.976 589.132 394.97 589.383 392.959 589.623L393.196 591.609ZM405.253 590.017C407.252 589.727 409.246 589.425 411.234 589.11L410.922 587.135C408.942 587.448 406.956 587.749 404.966 588.038L405.253 590.017ZM417.238 588.121C419.237 587.778 421.23 587.423 423.218 587.056L422.854 585.089C420.875 585.455 418.891 585.808 416.9 586.15L417.238 588.121ZM429.161 585.917C431.153 585.522 433.139 585.115 435.119 584.695L434.704 582.738C432.733 583.156 430.756 583.562 428.772 583.955L429.161 585.917ZM441.054 583.396C443.025 582.951 444.991 582.493 446.949 582.024L446.483 580.079C444.533 580.546 442.576 581.002 440.613 581.445L441.054 583.396ZM452.852 580.567C454.818 580.068 456.778 579.556 458.731 579.032L458.213 577.101C456.269 577.622 454.318 578.131 452.359 578.629L452.852 580.567ZM464.568 577.425C466.521 576.873 468.468 576.309 470.406 575.732L469.836 573.815C467.906 574.389 465.969 574.951 464.024 575.501L464.568 577.425ZM476.219 573.961C478.149 573.358 480.071 572.743 481.985 572.117L481.363 570.216C479.457 570.84 477.544 571.452 475.623 572.051L476.219 573.961ZM487.751 570.185C489.671 569.527 491.582 568.857 493.485 568.175L492.81 566.292C490.916 566.971 489.013 567.638 487.103 568.293L487.751 570.185ZM499.168 566.094C501.071 565.382 502.966 564.657 504.851 563.921L504.124 562.058C502.247 562.791 500.362 563.512 498.467 564.221L499.168 566.094ZM510.494 561.672C512.366 560.91 514.228 560.137 516.082 559.351L515.302 557.51C513.457 558.291 511.603 559.061 509.74 559.819L510.494 561.672ZM521.671 556.936C523.526 556.117 525.373 555.287 527.209 554.446L526.376 552.628C524.548 553.465 522.711 554.291 520.864 555.106L521.671 556.936ZM532.689 551.885C534.527 551.01 536.354 550.123 538.171 549.224L537.284 547.431C535.476 548.326 533.658 549.208 531.829 550.079L532.689 551.885ZM543.591 546.492C545.391 545.568 547.18 544.633 548.958 543.686L548.018 541.92C546.248 542.863 544.468 543.794 542.678 544.713L543.591 546.492ZM554.311 540.782C556.085 539.802 557.847 538.811 559.598 537.808L558.604 536.073C556.862 537.07 555.109 538.056 553.344 539.031L554.311 540.782ZM564.838 534.753C566.586 533.715 568.322 532.666 570.046 531.606L568.999 529.902C567.283 530.957 565.556 532.001 563.817 533.033L564.838 534.753ZM575.183 528.39C576.895 527.299 578.594 526.197 580.281 525.083L579.179 523.414C577.501 524.522 575.811 525.618 574.108 526.703L575.183 528.39ZM585.328 521.693C586.998 520.551 588.654 519.398 590.298 518.234L589.142 516.602C587.508 517.76 585.86 518.906 584.199 520.042L585.328 521.693ZM595.237 514.675C596.873 513.475 598.496 512.264 600.104 511.041L598.895 509.449C597.295 510.664 595.681 511.869 594.054 513.062L595.237 514.675ZM604.896 507.336C606.495 506.078 608.08 504.808 609.651 503.527L608.387 501.977C606.825 503.251 605.249 504.513 603.659 505.765L604.896 507.336ZM614.319 499.652C615.868 498.343 617.402 497.023 618.921 495.692L617.604 494.188C616.093 495.511 614.568 496.823 613.028 498.125L614.319 499.652ZM623.462 491.642C624.96 490.282 626.443 488.91 627.91 487.528L626.538 486.072C625.08 487.446 623.606 488.809 622.117 490.162L623.462 491.642ZM632.301 483.313C633.752 481.895 635.187 480.465 636.606 479.025L635.181 477.622C633.771 479.053 632.345 480.473 630.903 481.883L632.301 483.313ZM640.819 474.667C642.219 473.191 643.602 471.704 644.968 470.207L643.49 468.859C642.133 470.347 640.759 471.824 639.368 473.291L640.819 474.667ZM649.013 465.685C650.352 464.159 651.673 462.623 652.976 461.076L651.447 459.788C650.152 461.324 648.84 462.85 647.51 464.366L649.013 465.685ZM656.848 456.386C658.12 454.813 659.375 453.23 660.61 451.637L659.03 450.411C657.802 451.993 656.557 453.566 655.293 455.129L656.848 456.386ZM664.295 446.783C665.504 445.155 666.694 443.517 667.865 441.87L666.234 440.712C665.072 442.347 663.89 443.974 662.689 445.59L664.295 446.783ZM671.331 436.881C672.472 435.2 673.594 433.51 674.695 431.811L673.016 430.724C671.923 432.411 670.81 434.089 669.677 435.757L671.331 436.881ZM677.937 426.685C679.005 424.955 680.052 423.216 681.078 421.468L679.353 420.456C678.335 422.191 677.295 423.917 676.235 425.634L677.937 426.685ZM684.095 416.194C685.082 414.422 686.047 412.641 686.991 410.852L685.223 409.919C684.286 411.695 683.327 413.462 682.348 415.22L684.095 416.194ZM689.768 405.439C690.672 403.625 691.553 401.804 692.413 399.973L690.602 399.123C689.75 400.939 688.875 402.747 687.978 404.547L689.768 405.439ZM694.934 394.434C695.752 392.579 696.547 390.715 697.32 388.843L695.471 388.08C694.705 389.937 693.916 391.786 693.104 393.627L694.934 394.434ZM699.571 383.197C700.299 381.304 701.004 379.402 701.685 377.494L699.801 376.821C699.126 378.715 698.426 380.601 697.704 382.479L699.571 383.197ZM703.657 371.744C704.292 369.819 704.902 367.885 705.488 365.945L703.573 365.367C702.992 367.291 702.387 369.209 701.758 371.118L703.657 371.744ZM707.173 360.101C707.71 358.148 708.223 356.187 708.711 354.219L706.77 353.738C706.286 355.689 705.777 357.634 705.245 359.571L707.173 360.101ZM710.099 348.299C710.537 346.32 710.951 344.333 711.339 342.34L709.375 341.958C708.991 343.934 708.581 345.904 708.147 347.867L710.099 348.299ZM712.423 336.364C712.759 334.366 713.07 332.361 713.356 330.35L711.375 330.069C711.092 332.063 710.784 334.051 710.451 336.032L712.423 336.364ZM714.133 324.321C714.366 322.311 714.573 320.296 714.755 318.275L712.763 318.096C712.583 320.099 712.377 322.098 712.146 324.091L714.133 324.321ZM715.223 312.197C715.352 310.183 715.455 308.164 715.533 306.14L713.535 306.064C713.458 308.071 713.355 310.072 713.227 312.069L715.223 312.197ZM715.689 300.054C715.702 299.037 715.708 298.019 715.708 297H713.708C713.708 298.011 713.702 299.02 713.689 300.028L715.689 300.054ZM715.708 297C715.708 295.981 715.702 294.963 715.689 293.946L713.689 293.971C713.702 294.98 713.708 295.989 713.708 297H715.708ZM715.533 287.859C715.455 285.835 715.352 283.816 715.223 281.803L713.227 281.931C713.355 283.927 713.458 285.929 713.535 287.936L715.533 287.859ZM714.755 275.725C714.573 273.704 714.366 271.688 714.133 269.679L712.146 269.909C712.377 271.902 712.583 273.9 712.763 275.904L714.755 275.725ZM713.355 263.649C713.07 261.639 712.759 259.634 712.423 257.636L710.45 257.968C710.784 259.949 711.092 261.937 711.375 263.93L713.355 263.649ZM711.339 251.66C710.951 249.667 710.537 247.68 710.099 245.7L708.147 246.132C708.581 248.095 708.991 250.065 709.375 252.042L711.339 251.66ZM708.711 239.78C708.223 237.813 707.71 235.852 707.173 233.898L705.245 234.428C705.777 236.366 706.286 238.31 706.77 240.262L708.711 239.78ZM705.488 228.055C704.902 226.114 704.291 224.181 703.657 222.256L701.758 222.881C702.387 224.791 702.992 226.708 703.573 228.633L705.488 228.055ZM701.685 216.506C701.004 214.597 700.299 212.696 699.571 210.803L697.704 211.521C698.426 213.399 699.125 215.285 699.801 217.178L701.685 216.506ZM697.32 205.156C696.547 203.285 695.752 201.421 694.934 199.565L693.104 200.372C693.916 202.213 694.705 204.062 695.471 205.919L697.32 205.156ZM692.412 194.026C691.553 192.196 690.671 190.374 689.768 188.561L687.978 189.453C688.875 191.252 689.749 193.06 690.602 194.877L692.412 194.026ZM686.991 183.148C686.047 181.358 685.082 179.578 684.095 177.806L682.348 178.779C683.327 180.538 684.285 182.305 685.222 184.081L686.991 183.148ZM681.078 172.532C680.052 170.784 679.005 169.045 677.937 167.315L676.235 168.366C677.295 170.083 678.335 171.809 679.353 173.544L681.078 172.532ZM674.695 162.189C673.594 160.489 672.472 158.799 671.331 157.119L669.677 158.242C670.81 159.911 671.923 161.589 673.016 163.276L674.695 162.189ZM667.864 152.13C666.694 150.482 665.504 148.845 664.294 147.217L662.689 148.409C663.89 150.026 665.072 151.652 666.234 153.288L667.864 152.13ZM660.61 142.363C659.374 140.77 658.12 139.187 656.848 137.613L655.293 138.871C656.557 140.434 657.802 142.007 659.03 143.589L660.61 142.363ZM652.976 132.923C651.673 131.377 650.352 129.841 649.013 128.314L647.51 129.633C648.839 131.149 650.152 132.676 651.446 134.212L652.976 132.923ZM644.968 123.793C643.602 122.296 642.219 120.809 640.819 119.333L639.368 120.709C640.759 122.176 642.133 123.653 643.49 125.141L644.968 123.793ZM636.606 114.974C635.187 113.534 633.752 112.105 632.301 110.686L630.903 112.116C632.345 113.526 633.771 114.947 635.181 116.378L636.606 114.974ZM627.91 106.472C626.443 105.09 624.96 103.718 623.462 102.357L622.117 103.838C623.606 105.191 625.08 106.554 626.538 107.928L627.91 106.472ZM618.921 98.3074C617.402 96.9766 615.868 95.6566 614.318 94.3476L613.028 95.8752C614.568 97.1766 616.093 98.4889 617.603 99.8118L618.921 98.3074ZM609.651 90.4726C608.08 89.1918 606.495 87.9221 604.896 86.6635L603.659 88.2352C605.249 89.4866 606.825 90.7491 608.387 92.0225L609.651 90.4726ZM600.104 82.9584C598.495 81.7362 596.873 80.525 595.237 79.325L594.054 80.9377C595.681 82.131 597.294 83.3355 598.894 84.5509L600.104 82.9584ZM590.298 75.7655C588.654 74.6016 586.997 73.4488 585.328 72.3072L584.199 73.9582C585.86 75.0936 587.507 76.2402 589.142 77.3978L590.298 75.7655ZM580.281 68.9166C578.594 67.8031 576.895 66.701 575.183 65.6103L574.108 67.297C575.811 68.3819 577.501 69.4782 579.179 70.5857L580.281 68.9166ZM570.046 62.3943C568.322 61.3337 566.585 60.2845 564.837 59.247L563.817 60.9668C565.556 61.999 567.283 63.0428 568.998 64.0978L570.046 62.3943ZM559.597 56.1918C557.847 55.189 556.084 54.1978 554.311 53.2181L553.344 54.9688C555.108 55.9435 556.861 56.9297 558.603 57.9273L559.597 56.1918ZM548.958 50.3142C547.179 49.367 545.39 48.4314 543.591 47.5075L542.677 49.2867C544.468 50.2061 546.248 51.137 548.017 52.0794L548.958 50.3142ZM538.171 44.776C536.354 43.8772 534.526 42.9901 532.689 42.1149L531.829 43.9206C533.657 44.7915 535.476 45.6743 537.284 46.5687L538.171 44.776ZM527.209 39.5542C525.372 38.7125 523.526 37.8824 521.67 37.0642L520.864 38.8943C522.71 39.7085 524.548 40.5346 526.375 41.3723L527.209 39.5542ZM516.082 34.6486C514.228 33.8633 512.365 33.0898 510.493 32.3281L509.74 34.1806C511.603 34.9387 513.457 35.7086 515.301 36.4902L516.082 34.6486ZM504.851 30.0787C502.965 29.3426 501.071 28.6184 499.168 27.9062L498.467 29.7794C500.361 30.4882 502.247 31.209 504.123 31.9417L504.851 30.0787ZM493.484 25.8246C491.582 25.1427 489.67 24.4727 487.751 23.8148L487.102 25.7067C489.013 26.3616 490.916 27.0286 492.81 27.7074L493.484 25.8246ZM481.985 21.8831C480.071 21.2566 478.149 20.6419 476.219 20.0393L475.623 21.9484C477.544 22.5483 479.457 23.1602 481.362 23.7839L481.985 21.8831ZM470.406 18.2678C468.467 17.6913 466.521 17.1269 464.567 16.5747L464.023 18.4993C465.968 19.0491 467.906 19.611 469.836 20.1848L470.406 18.2678ZM458.731 14.9674C456.778 14.4438 454.818 13.9322 452.851 13.4329L452.359 15.3714C454.317 15.8685 456.269 16.3778 458.213 16.8992L458.731 14.9674ZM446.949 11.9762C444.99 11.5067 443.025 11.0493 441.053 10.6041L440.613 12.5549C442.576 12.9983 444.532 13.4537 446.482 13.9211L446.949 11.9762ZM435.118 9.30497C433.139 8.88533 431.153 8.47792 429.161 8.08285L428.772 10.0446C430.755 10.438 432.733 10.8437 434.703 11.2615L435.118 9.30497ZM423.217 6.9442C421.23 6.57685 419.237 6.22174 417.237 5.87896L416.899 7.85019C418.89 8.19151 420.875 8.54511 422.854 8.91089L423.217 6.9442ZM411.234 4.88952C409.245 4.57505 407.251 4.27275 405.252 3.98272L404.965 5.962C406.956 6.25081 408.941 6.55183 410.921 6.86496L411.234 4.88952ZM399.238 3.14955C397.229 2.88433 395.215 2.63146 393.195 2.39106L392.959 4.37704C394.97 4.61644 396.976 4.86824 398.976 5.13235L399.238 3.14955ZM387.187 1.71426C385.179 1.50093 383.166 1.29989 381.148 1.11124L380.962 3.10255C382.971 3.29042 384.976 3.49062 386.975 3.70307L387.187 1.71426ZM375.081 0.582587C373.074 0.420524 371.063 0.2707 369.048 0.13321L368.912 2.12857C370.919 2.2655 372.922 2.4147 374.92 2.57609L375.081 0.582587ZM362.995 -0.241789C360.973 -0.354417 358.946 -0.454641 356.915 -0.542365L356.829 1.45577C358.851 1.54314 360.87 1.64295 362.883 1.75512L362.995 -0.241789ZM350.862 -0.766368C348.846 -0.828478 346.827 -0.878281 344.803 -0.915686L344.766 1.08397C346.781 1.12123 348.793 1.17083 350.8 1.23268L350.862 -0.766368ZM338.722 -0.99061C337.706 -0.996866 336.69 -1 335.673 -1V1C336.686 1 337.698 1.00312 338.709 1.00935L338.722 -0.99061ZM335.673 -1C335.353 -1 335.034 -0.999691 334.715 -0.999074L334.719 1.00092C335.037 1.00031 335.354 1 335.673 1V-1ZM332.799 -0.991661C332.48 -0.989807 332.161 -0.987645 331.842 -0.985173L331.857 1.01477C332.175 1.01231 332.493 1.01015 332.811 1.0083L332.799 -0.991661ZM331.871 -0.984961C331.757 -0.987468 331.643 -0.989663 331.529 -0.991544L331.496 1.00818C331.607 1.01 331.717 1.01213 331.827 1.01455L331.871 -0.984961ZM330.845 -0.999061C330.731 -0.999687 330.617 -1 330.503 -1V1C330.614 1 330.724 1.0003 330.834 1.00091L330.845 -0.999061ZM330.503 -1H327.52V1H330.503V-1ZM321.553 -1H315.587V1H321.553V-1ZM309.62 -1H303.653V1H309.62V-1ZM297.686 -1H291.72V1H297.686V-1ZM285.753 -1H279.786V1H285.753V-1ZM273.819 -1H267.853V1H273.819V-1ZM261.886 -1H255.919V1H261.886V-1ZM249.952 -1H243.986V1H249.952V-1ZM238.019 -1H232.052V1H238.019V-1ZM226.086 -1H220.119V1H226.086V-1ZM214.152 -1H208.185V1H214.152V-1ZM202.219 -1H196.252V1H202.219V-1ZM190.285 -1H184.318V1H190.285V-1ZM178.352 -1H172.385V1H178.352V-1ZM166.418 -1H160.451V1H166.418V-1ZM154.485 -1H148.518V1H154.485V-1ZM142.551 -1H136.584V1H142.551V-1ZM130.618 -1H124.651V1H130.618V-1ZM118.684 -1H112.718V1H118.684V-1ZM106.751 -1H100.784V1H106.751V-1ZM94.8173 -1H88.8506V1H94.8173V-1ZM82.8839 -1H76.9171V1H82.8839V-1ZM70.9504 -1H64.9836V1H70.9504V-1ZM59.0169 -1H53.0502V1H59.0169V-1ZM47.0834 -1H41.1167V1H47.0834V-1ZM35.15 -1H29.1832V1H35.15V-1ZM23.2165 -1H17.2498V1H23.2165V-1ZM11.283 -1H5.31628V1H11.283V-1ZM-0.650452 -1H-6.61719V1H-0.650452V-1ZM-12.5839 -1H-18.5507V1H-12.5839V-1ZM-24.5174 -1H-30.4841V1H-24.5174V-1ZM-36.4509 -1H-42.4176V1H-36.4509V-1ZM-48.3843 -1H-54.3511V1H-48.3843V-1ZM-60.3178 -1H-66.2845V1H-60.3178V-1ZM-72.2513 -1H-78.218V1H-72.2513V-1ZM-84.1848 -1H-90.1515V1H-84.1848V-1ZM-96.1182 -1H-102.085V1H-96.1182V-1ZM-108.052 -1H-114.018V1H-108.052V-1ZM-119.985 -1H-125.952V1H-119.985V-1ZM-131.919 -1H-137.885V1H-131.919V-1ZM-143.852 -1H-149.819V1H-143.852V-1ZM-155.786 -1H-161.752V1H-155.786V-1ZM-167.719 -1H-173.686V1H-167.719V-1ZM-179.653 -1H-185.619V1H-179.653V-1ZM-191.586 -1H-197.553V1H-191.586V-1ZM-203.519 -1H-209.486V1H-203.519V-1ZM-215.453 -1H-221.42V1H-215.453V-1ZM-227.386 -1H-233.353V1H-227.386V-1ZM-239.32 -1H-245.287V1H-239.32V-1ZM-251.253 -1H-257.22V1H-251.253V-1ZM-263.187 -1H-269.154V1H-263.187V-1ZM-275.12 -1H-281.087V1H-275.12V-1ZM-287.054 -1H-293.021V1H-287.054V-1ZM-298.987 -1H-304.954V1H-298.987V-1ZM-310.921 -1H-316.887V1H-310.921V-1ZM-322.854 -1H-328.821V1H-322.854V-1ZM-334.788 -1H-340.754V1H-334.788V-1ZM-346.721 -1H-352.688V1H-346.721V-1ZM-358.655 -1H-364.621V1H-358.655V-1ZM-370.588 -1H-376.555V1H-370.588V-1ZM-382.522 -1H-388.488V1H-382.522V-1ZM-394.455 -1H-400.422V1H-394.455V-1ZM-406.388 -1H-412.355V1H-406.388V-1ZM-418.322 -1H-424.289V1H-418.322V-1ZM-430.255 -1H-436.222V1H-430.255V-1ZM-442.189 -1H-448.156V1H-442.189V-1ZM-454.122 -1H-460.089V1H-454.122V-1ZM-466.056 -1H-472.023V1H-466.056V-1ZM-477.989 -1H-483.956V1H-477.989V-1ZM-489.923 -1H-495.89V1H-489.923V-1ZM-501.856 -1H-507.823V1H-501.856V-1ZM-513.79 -1H-519.756V1H-513.79V-1ZM-525.723 -1H-531.69V1H-525.723V-1ZM-537.657 -1H-543.623V1H-537.657V-1ZM-549.59 -1H-555.557V1H-549.59V-1ZM-561.524 -1H-567.49V1H-561.524V-1ZM-573.457 -1H-579.424V1H-573.457V-1ZM-585.391 -1H-591.357V1H-585.391V-1ZM-597.324 -1H-603.291V1H-597.324V-1ZM-609.257 -1H-615.224V1H-609.257V-1ZM-621.191 -1H-627.158V1H-621.191V-1ZM-633.124 -1H-639.091V1H-633.124V-1ZM-645.058 -1H-651.025V1H-645.058V-1ZM-656.991 -1H-662.958V1H-656.991V-1ZM-668.925 -1H-674.892V1H-668.925V-1ZM-680.858 -1H-686.825V1H-680.858V-1ZM-692.792 -1H-698.759V1H-692.792V-1ZM-704.725 -1H-707.709V1H-704.725V-1ZM-707.709 0V-2H-709.709V0H-707.709ZM-707.709 594H-709.709V596H-707.709V594ZM331.849 593.985L331.865 591.985L331.835 591.985L331.805 591.986L331.849 593.985ZM331.849 0.0147969L331.805 2.01431L331.835 2.01497L331.865 2.01474L331.849 0.0147969ZM-709.709 0V2.97H-705.709V0H-709.709ZM-709.709 8.91V14.85H-705.709V8.91H-709.709ZM-709.709 20.79V26.73H-705.709V20.79H-709.709ZM-709.709 32.67V38.61H-705.709V32.67H-709.709ZM-709.709 44.55V50.49H-705.709V44.55H-709.709ZM-709.709 56.43V62.37H-705.709V56.43H-709.709ZM-709.709 68.31V74.25H-705.709V68.31H-709.709ZM-709.709 80.19V86.13H-705.709V80.19H-709.709ZM-709.709 92.07V98.01H-705.709V92.07H-709.709ZM-709.709 103.95V109.89H-705.709V103.95H-709.709ZM-709.709 115.83V121.77H-705.709V115.83H-709.709ZM-709.709 127.71V133.65H-705.709V127.71H-709.709ZM-709.709 139.59V145.53H-705.709V139.59H-709.709ZM-709.709 151.47V157.41H-705.709V151.47H-709.709ZM-709.709 163.35V169.29H-705.709V163.35H-709.709ZM-709.709 175.23V181.17H-705.709V175.23H-709.709ZM-709.709 187.11V193.05H-705.709V187.11H-709.709ZM-709.709 198.99V204.93H-705.709V198.99H-709.709ZM-709.709 210.87V216.81H-705.709V210.87H-709.709ZM-709.709 222.75V228.69H-705.709V222.75H-709.709ZM-709.709 234.63V240.57H-705.709V234.63H-709.709ZM-709.709 246.51V252.45H-705.709V246.51H-709.709ZM-709.709 258.39V264.33H-705.709V258.39H-709.709ZM-709.709 270.27V276.21H-705.709V270.27H-709.709ZM-709.709 282.15V288.09H-705.709V282.15H-709.709ZM-709.709 294.03V299.97H-705.709V294.03H-709.709ZM-709.709 305.91V311.85H-705.709V305.91H-709.709ZM-709.709 317.79V323.73H-705.709V317.79H-709.709ZM-709.709 329.67V335.61H-705.709V329.67H-709.709ZM-709.709 341.55V347.49H-705.709V341.55H-709.709ZM-709.709 353.43V359.37H-705.709V353.43H-709.709ZM-709.709 365.31V371.25H-705.709V365.31H-709.709ZM-709.709 377.19V383.13H-705.709V377.19H-709.709ZM-709.709 389.07V395.01H-705.709V389.07H-709.709ZM-709.709 400.95V406.89H-705.709V400.95H-709.709ZM-709.709 412.83V418.77H-705.709V412.83H-709.709ZM-709.709 424.71V430.65H-705.709V424.71H-709.709ZM-709.709 436.59V442.53H-705.709V436.59H-709.709ZM-709.709 448.47V454.41H-705.709V448.47H-709.709ZM-709.709 460.35V466.29H-705.709V460.35H-709.709ZM-709.709 472.23V478.17H-705.709V472.23H-709.709ZM-709.709 484.11V490.05H-705.709V484.11H-709.709ZM-709.709 495.99V501.93H-705.709V495.99H-709.709ZM-709.709 507.87V513.81H-705.709V507.87H-709.709ZM-709.709 519.75V525.69H-705.709V519.75H-709.709ZM-709.709 531.63V537.57H-705.709V531.63H-709.709ZM-709.709 543.51V549.45H-705.709V543.51H-709.709ZM-709.709 555.39V561.33H-705.709V555.39H-709.709ZM-709.709 567.27V573.21H-705.709V567.27H-709.709ZM-709.709 579.15V585.09H-705.709V579.15H-709.709ZM-709.709 591.03V594H-705.709V591.03H-709.709ZM-707.709 596H-704.726V592H-707.709V596ZM-698.759 596H-692.792V592H-698.759V596ZM-686.825 596H-680.859V592H-686.825V596ZM-674.892 596H-668.925V592H-674.892V596ZM-662.958 596H-656.992V592H-662.958V596ZM-651.025 596H-645.058V592H-651.025V596ZM-639.091 596H-633.125V592H-639.091V596ZM-627.158 596H-621.191V592H-627.158V596ZM-615.225 596H-609.258V592H-615.225V596ZM-603.291 596H-597.324V592H-603.291V596ZM-591.358 596H-585.391V592H-591.358V596ZM-579.424 596H-573.457V592H-579.424V596ZM-567.491 596H-561.524V592H-567.491V596ZM-555.557 596H-549.59V592H-555.557V596ZM-543.624 596H-537.657V592H-543.624V596ZM-531.69 596H-525.723V592H-531.69V596ZM-519.757 596H-513.79V592H-519.757V596ZM-507.823 596H-501.857V592H-507.823V596ZM-495.89 596H-489.923V592H-495.89V596ZM-483.956 596H-477.99V592H-483.956V596ZM-472.023 596H-466.056V592H-472.023V596ZM-460.089 596H-454.123V592H-460.089V596ZM-448.156 596H-442.189V592H-448.156V596ZM-436.222 596H-430.256V592H-436.222V596ZM-424.289 596H-418.322V592H-424.289V596ZM-412.355 596H-406.389V592H-412.355V596ZM-400.422 596H-394.455V592H-400.422V596ZM-388.489 596H-382.522V592H-388.489V596ZM-376.555 596H-370.588V592H-376.555V596ZM-364.622 596H-358.655V592H-364.622V596ZM-352.688 596H-346.721V592H-352.688V596ZM-340.755 596H-334.788V592H-340.755V596ZM-328.821 596H-322.854V592H-328.821V596ZM-316.888 596H-310.921V592H-316.888V596ZM-304.954 596H-298.988V592H-304.954V596ZM-293.021 596H-287.054V592H-293.021V596ZM-281.087 596H-275.121V592H-281.087V596ZM-269.154 596H-263.187V592H-269.154V596ZM-257.22 596H-251.254V592H-257.22V596ZM-245.287 596H-239.32V592H-245.287V596ZM-233.353 596H-227.387V592H-233.353V596ZM-221.42 596H-215.453V592H-221.42V596ZM-209.486 596H-203.52V592H-209.486V596ZM-197.553 596H-191.586V592H-197.553V596ZM-185.62 596H-179.653V592H-185.62V596ZM-173.686 596H-167.719V592H-173.686V596ZM-161.753 596H-155.786V592H-161.753V596ZM-149.819 596H-143.852V592H-149.819V596ZM-137.886 596H-131.919V592H-137.886V596ZM-125.952 596H-119.985V592H-125.952V596ZM-114.019 596H-108.052V592H-114.019V596ZM-102.085 596H-96.1185V592H-102.085V596ZM-90.1517 596H-84.185V592H-90.1517V596ZM-78.2183 596H-72.2515V592H-78.2183V596ZM-66.2848 596H-60.3181V592H-66.2848V596ZM-54.3513 596H-48.3846V592H-54.3513V596ZM-42.4178 596H-36.4511V592H-42.4178V596ZM-30.4844 596H-24.5176V592H-30.4844V596ZM-18.5509 596H-12.5842V592H-18.5509V596ZM-6.61743 596H-0.650696V592H-6.61743V596ZM5.31604 596H11.2828V592H5.31604V596ZM17.2495 596H23.2162V592H17.2495V596ZM29.183 596H35.1497V592H29.183V596ZM41.1165 596H47.0832V592H41.1165V596ZM53.0499 596H59.0167V592H53.0499V596ZM64.9834 596H70.9501V592H64.9834V596ZM76.9169 596H82.8836V592H76.9169V596ZM88.8503 596H94.8171V592H88.8503V596ZM100.784 596H106.751V592H100.784V596ZM112.717 596H118.684V592H112.717V596ZM124.651 596H130.617V592H124.651V596ZM136.584 596H142.551V592H136.584V596ZM148.518 596H154.484V592H148.518V596ZM160.451 596H166.418V592H160.451V596ZM172.385 596H178.351V592H172.385V596ZM184.318 596H190.285V592H184.318V596ZM196.252 596H202.218V592H196.252V596ZM208.185 596H214.152V592H208.185V596ZM220.119 596H226.085V592H220.119V596ZM232.052 596H238.019V592H232.052V596ZM243.985 596H249.952V592H243.985V596ZM255.919 596H261.886V592H255.919V596ZM267.852 596H273.819V592H267.852V596ZM279.786 596H285.753V592H279.786V596ZM291.719 596H297.686V592H291.719V596ZM303.653 596H309.62V592H303.653V596ZM315.586 596H321.553V592H315.586V596ZM327.52 596H330.504V592H327.52V596ZM330.504 596C330.619 596 330.735 596 330.851 595.999L330.829 591.999C330.721 592 330.612 592 330.504 592V596ZM331.546 595.991C331.662 595.99 331.778 595.987 331.893 595.985L331.805 591.986C331.697 591.988 331.589 591.99 331.48 591.992L331.546 595.991ZM331.834 595.985C332.154 595.988 332.474 595.99 332.794 595.992L332.817 591.992C332.499 591.99 332.182 591.988 331.865 591.985L331.834 595.985ZM334.713 595.999C335.033 596 335.353 596 335.673 596V592C335.355 592 335.038 592 334.721 591.999L334.713 595.999ZM335.673 596C336.692 596 337.711 595.997 338.728 595.991L338.704 591.991C337.694 591.997 336.684 592 335.673 592V596ZM344.822 595.916C346.85 595.878 348.873 595.828 350.893 595.766L350.77 591.768C348.766 591.83 346.759 591.879 344.748 591.916L344.822 595.916ZM356.959 595.541C358.994 595.453 361.025 595.353 363.051 595.24L362.828 591.246C360.819 591.358 358.805 591.458 356.786 591.545L356.959 595.541ZM369.116 594.864C371.136 594.727 373.151 594.577 375.162 594.414L374.839 590.427C372.846 590.588 370.847 590.737 368.844 590.874L369.116 594.864ZM381.242 593.884C383.264 593.695 385.281 593.494 387.293 593.28L386.87 589.302C384.875 589.514 382.875 589.714 380.869 589.902L381.242 593.884ZM393.314 592.602C395.338 592.361 397.356 592.108 399.369 591.842L398.846 587.876C396.85 588.14 394.848 588.391 392.841 588.63L393.314 592.602ZM405.396 591.007C407.4 590.716 409.398 590.413 411.39 590.098L410.765 586.147C408.79 586.46 406.809 586.76 404.822 587.048L405.396 591.007ZM417.407 589.107C419.41 588.763 421.408 588.407 423.399 588.039L422.672 584.106C420.698 584.471 418.717 584.824 416.731 585.164L417.407 589.107ZM429.356 586.898C431.352 586.502 433.342 586.094 435.326 585.673L434.496 581.76C432.53 582.177 430.557 582.582 428.578 582.974L429.356 586.898ZM441.274 584.371C443.25 583.925 445.219 583.467 447.182 582.996L446.25 579.106C444.304 579.573 442.352 580.027 440.393 580.47L441.274 584.371ZM453.098 581.536C455.069 581.036 457.033 580.523 458.99 579.998L457.954 576.135C456.014 576.655 454.067 577.163 452.113 577.659L453.098 581.536ZM464.839 578.387C466.798 577.834 468.748 577.268 470.692 576.691L469.551 572.857C467.626 573.429 465.692 573.99 463.752 574.538L464.839 578.387ZM476.517 574.915C478.451 574.311 480.378 573.695 482.296 573.067L481.052 569.266C479.151 569.888 477.242 570.498 475.325 571.097L476.517 574.915ZM488.075 571.131C489.999 570.472 491.915 569.8 493.822 569.117L492.473 565.351C490.583 566.028 488.685 566.694 486.778 567.347L488.075 571.131ZM499.519 567.03C501.426 566.316 503.325 565.591 505.215 564.853L503.76 561.127C501.888 561.858 500.007 562.577 498.117 563.284L499.519 567.03ZM510.871 562.598C512.747 561.835 514.614 561.059 516.472 560.272L514.912 556.589C513.071 557.369 511.222 558.137 509.363 558.893L510.871 562.598ZM522.074 557.851C523.934 557.031 525.785 556.198 527.626 555.355L525.959 551.718C524.136 552.554 522.303 553.378 520.46 554.191L522.074 557.851ZM533.119 552.788C534.961 551.91 536.793 551.021 538.615 550.12L536.841 546.535C535.037 547.427 533.223 548.308 531.399 549.176L533.119 552.788ZM544.048 547.382C545.852 546.456 547.645 545.518 549.428 544.568L547.548 541.038C545.783 541.978 544.007 542.906 542.221 543.824L544.048 547.382ZM554.795 541.657C556.573 540.675 558.339 539.681 560.095 538.676L558.107 535.205C556.369 536.2 554.62 537.184 552.861 538.156L554.795 541.657ZM565.348 535.613C567.101 534.573 568.841 533.521 570.57 532.457L568.475 529.05C566.764 530.103 565.041 531.143 563.306 532.173L565.348 535.613ZM575.721 529.233C577.437 528.139 579.141 527.034 580.832 525.918L578.628 522.579C576.955 523.684 575.269 524.777 573.571 525.859L575.721 529.233ZM585.893 522.518C587.567 521.373 589.228 520.218 590.876 519.05L588.565 515.786C586.934 516.94 585.291 518.084 583.635 519.216L585.893 522.518ZM595.829 515.481C597.469 514.278 599.096 513.063 600.709 511.838L598.29 508.653C596.694 509.865 595.085 511.066 593.463 512.256L595.829 515.481ZM605.515 508.122C607.118 506.86 608.708 505.587 610.283 504.302L607.755 501.202C606.198 502.472 604.626 503.731 603.041 504.979L605.515 508.122ZM614.964 500.416C616.518 499.103 618.057 497.779 619.58 496.445L616.945 493.436C615.439 494.755 613.918 496.063 612.382 497.361L614.964 500.416ZM624.134 492.383C625.637 491.018 627.124 489.642 628.596 488.256L625.853 485.344C624.399 486.714 622.93 488.073 621.445 489.422L624.134 492.383ZM633 484.028C634.456 482.605 635.895 481.172 637.318 479.727L634.469 476.92C633.063 478.346 631.642 479.763 630.204 481.168L633 484.028ZM641.545 475.355C642.949 473.874 644.336 472.383 645.707 470.881L642.752 468.185C641.399 469.668 640.029 471.14 638.642 472.602L641.545 475.355ZM649.765 466.345C651.108 464.814 652.433 463.272 653.741 461.721L650.682 459.143C649.392 460.674 648.084 462.196 646.758 463.707L649.765 466.345ZM657.625 457.015C658.902 455.437 660.161 453.848 661.4 452.249L658.24 449.798C657.016 451.375 655.775 452.942 654.515 454.5L657.625 457.015ZM665.097 447.379C666.311 445.746 667.505 444.103 668.68 442.449L665.419 440.132C664.261 441.762 663.083 443.383 661.886 444.994L665.097 447.379ZM672.159 437.443C673.304 435.756 674.429 434.06 675.534 432.355L672.177 430.18C671.088 431.861 669.979 433.533 668.849 435.195L672.159 437.443ZM678.788 427.21C679.86 425.474 680.911 423.729 681.941 421.974L678.491 419.949C677.476 421.678 676.441 423.398 675.385 425.109L678.788 427.21ZM684.969 416.68C685.959 414.902 686.928 413.115 687.876 411.319L684.338 409.452C683.405 411.221 682.45 412.982 681.474 414.734L684.969 416.68ZM690.663 405.885C691.57 404.065 692.455 402.236 693.318 400.398L689.697 398.698C688.848 400.507 687.976 402.308 687.083 404.1L690.663 405.885ZM695.849 394.838C696.67 392.975 697.469 391.104 698.244 389.225L694.547 387.699C693.783 389.548 692.997 391.39 692.189 393.224L695.849 394.838ZM700.504 383.556C701.235 381.655 701.943 379.746 702.627 377.83L698.859 376.485C698.187 378.371 697.49 380.249 696.771 382.12L700.504 383.556ZM704.607 372.057C705.244 370.123 705.857 368.182 706.445 366.234L702.616 365.078C702.037 366.994 701.434 368.904 700.808 370.806L704.607 372.057ZM708.137 360.366C708.677 358.405 709.192 356.436 709.682 354.46L705.799 353.497C705.317 355.44 704.811 357.377 704.281 359.306L708.137 360.366ZM711.076 348.516C711.516 346.527 711.931 344.532 712.32 342.531L708.394 341.767C708.011 343.735 707.603 345.696 707.17 347.651L711.076 348.516ZM713.409 336.53C713.747 334.523 714.059 332.51 714.346 330.491L710.385 329.929C710.104 331.914 709.796 333.893 709.464 335.866L713.409 336.53ZM715.126 324.436C715.36 322.418 715.568 320.394 715.751 318.364L711.767 318.006C711.588 320.001 711.383 321.991 711.153 323.975L715.126 324.436ZM716.221 312.261C716.35 310.239 716.454 308.211 716.532 306.179L712.535 306.025C712.459 308.024 712.356 310.017 712.229 312.005L716.221 312.261ZM716.689 300.067C716.702 299.046 716.708 298.023 716.708 297H712.708C712.708 298.006 712.702 299.012 712.689 300.015L716.689 300.067ZM716.708 297C716.708 295.976 716.702 294.954 716.689 293.933L712.689 293.984C712.702 294.988 712.708 295.993 712.708 297H716.708ZM716.532 287.821C716.454 285.788 716.35 283.761 716.221 281.739L712.229 281.995C712.356 283.983 712.459 285.976 712.535 287.974L716.532 287.821ZM715.751 275.635C715.568 273.606 715.36 271.582 715.126 269.564L711.153 270.024C711.383 272.008 711.588 273.998 711.767 275.994L715.751 275.635ZM714.346 263.509C714.059 261.49 713.747 259.477 713.409 257.47L709.464 258.133C709.796 260.107 710.103 262.086 710.385 264.071L714.346 263.509ZM712.32 251.469C711.931 249.467 711.516 247.472 711.076 245.484L707.17 246.348C707.603 248.303 708.011 250.265 708.394 252.233L712.32 251.469ZM709.681 239.54C709.191 237.564 708.677 235.595 708.137 233.633L704.28 234.693C704.811 236.623 705.317 238.559 705.799 240.503L709.681 239.54ZM706.445 227.766C705.857 225.817 705.244 223.876 704.607 221.943L700.808 223.194C701.434 225.096 702.037 227.005 702.616 228.922L706.445 227.766ZM702.627 216.17C701.943 214.253 701.235 212.345 700.504 210.444L696.771 211.88C697.49 213.75 698.186 215.629 698.859 217.514L702.627 216.17ZM698.244 204.775C697.469 202.896 696.67 201.025 695.849 199.162L692.189 200.776C692.997 202.609 693.783 204.451 694.547 206.301L698.244 204.775ZM693.318 193.601C692.455 191.764 691.57 189.935 690.663 188.115L687.083 189.899C687.976 191.692 688.848 193.492 689.697 195.302L693.318 193.601ZM687.876 182.681C686.928 180.885 685.959 179.098 684.968 177.319L681.474 179.266C682.45 181.018 683.405 182.778 684.338 184.548L687.876 182.681ZM681.94 172.025C680.911 170.271 679.86 168.526 678.788 166.79L675.384 168.891C676.44 170.602 677.476 172.321 678.491 174.05L681.94 172.025ZM675.534 161.645C674.429 159.939 673.303 158.243 672.158 156.557L668.849 158.804C669.978 160.467 671.088 162.139 672.177 163.82L675.534 161.645ZM668.679 151.55C667.505 149.897 666.31 148.254 665.097 146.62L661.886 149.006C663.083 150.617 664.26 152.237 665.419 153.867L668.679 151.55ZM661.4 141.75C660.16 140.152 658.902 138.563 657.625 136.984L654.515 139.5C655.775 141.057 657.016 142.625 658.239 144.202L661.4 141.75ZM653.741 132.279C652.433 130.727 651.108 129.186 649.765 127.655L646.758 130.293C648.083 131.804 649.391 133.325 650.682 134.857L653.741 132.279ZM645.706 123.119C644.336 121.617 642.949 120.125 641.544 118.645L638.642 121.397C640.029 122.859 641.399 124.332 642.751 125.815L645.706 123.119ZM637.318 114.273C635.895 112.828 634.456 111.394 633 109.971L630.204 112.831C631.642 114.237 633.063 115.653 634.469 117.08L637.318 114.273ZM628.595 105.744C627.124 104.358 625.637 102.982 624.134 101.617L621.445 104.578C622.929 105.927 624.399 107.286 625.853 108.656L628.595 105.744ZM619.58 97.5552C618.056 96.2205 616.518 94.8966 614.964 93.5838L612.382 96.639C613.918 97.9366 615.439 99.245 616.944 100.564L619.58 97.5552ZM610.282 89.6976C608.707 88.4132 607.118 87.1398 605.514 85.8777L603.04 89.021C604.626 90.2689 606.198 91.5278 607.755 92.7975L610.282 89.6976ZM600.709 82.1622C599.096 80.9365 597.469 79.7219 595.828 78.5186L593.463 81.744C595.085 82.9341 596.694 84.1352 598.289 85.3472L600.709 82.1622ZM590.876 74.9494C589.228 73.7823 587.566 72.6264 585.892 71.4817L583.635 74.7837C585.291 75.916 586.934 77.0595 588.564 78.2139L590.876 74.9494ZM580.832 68.082C579.14 66.9656 577.436 65.8605 575.72 64.767L573.571 68.1403C575.269 69.2224 576.955 70.3158 578.628 71.4203L580.832 68.082ZM570.57 61.5425C568.841 60.4792 567.1 59.4273 565.348 58.387L563.306 61.8268C565.041 62.8563 566.763 63.8973 568.474 64.9496L570.57 61.5425ZM560.094 55.324C558.339 54.3187 556.572 53.3249 554.795 52.3428L552.86 55.8441C554.62 56.8163 556.369 57.8 558.106 58.7951L560.094 55.324ZM549.428 49.4315C547.645 48.4821 545.852 47.5441 544.047 46.6179L542.221 50.1763C544.007 51.0934 545.782 52.022 547.547 52.962L549.428 49.4315ZM538.614 43.8796C536.793 42.9786 534.961 42.0894 533.119 41.2121L531.399 44.8235C533.223 45.6923 535.037 46.5728 536.841 47.465L538.614 43.8796ZM527.625 38.6452C525.785 37.8014 523.934 36.9693 522.074 36.1492L520.46 39.8093C522.303 40.6216 524.135 41.4457 525.958 42.2814L527.625 38.6452ZM516.472 33.7278C514.614 32.9407 512.747 32.1653 510.87 31.4018L509.363 35.1068C511.221 35.8632 513.071 36.6312 514.911 37.4109L516.472 33.7278ZM505.214 29.1471C503.325 28.4093 501.426 27.6834 499.518 26.9697L498.116 30.7159C500.006 31.4231 501.887 32.1423 503.76 32.8732L505.214 29.1471ZM493.822 24.8833C491.915 24.1997 489.999 23.5282 488.075 22.8688L486.778 26.6527C488.684 27.3061 490.583 27.9715 492.472 28.6488L493.822 24.8833ZM482.296 20.9328C480.377 20.3048 478.451 19.6887 476.517 19.0848L475.324 22.903C477.241 23.5015 479.15 24.112 481.051 24.7343L482.296 20.9328ZM470.691 17.3093C468.748 16.7315 466.797 16.1658 464.839 15.6124L463.751 19.4616C465.692 20.0101 467.625 20.5708 469.551 21.1434L470.691 17.3093ZM458.99 14.0016C457.033 13.4767 455.068 12.964 453.097 12.4636L452.113 16.3406C454.067 16.8367 456.014 17.3448 457.954 17.865L458.99 14.0016ZM447.182 11.0038C445.219 10.5333 443.25 10.0748 441.273 9.62863L440.392 13.5304C442.351 13.9727 444.304 14.4272 446.249 14.8936L447.182 11.0038ZM435.326 8.32671C433.342 7.90616 431.352 7.49788 429.355 7.10195L428.577 11.0255C430.556 11.4181 432.529 11.8228 434.496 12.2397L435.326 8.32671ZM423.399 5.96086C421.407 5.59273 419.41 5.23685 417.406 4.89334L416.73 8.83581C418.717 9.17639 420.697 9.52924 422.672 9.89423L423.399 5.96086ZM411.39 3.90179C409.397 3.58666 407.399 3.28372 405.396 2.99308L404.822 6.95165C406.808 7.23984 408.789 7.54022 410.765 7.85268L411.39 3.90179ZM399.369 2.15816C397.356 1.89238 395.337 1.63898 393.314 1.39807L392.841 5.37003C394.848 5.60892 396.849 5.8602 398.845 6.12375L399.369 2.15816ZM387.292 0.71986C385.28 0.506078 383.263 0.304619 381.241 0.115581L380.869 4.09821C382.874 4.28568 384.875 4.48547 386.87 4.69747L387.292 0.71986ZM375.161 -0.414167C373.151 -0.576564 371.135 -0.726698 369.116 -0.864472L368.844 3.12625C370.847 3.26289 372.845 3.41179 374.839 3.57285L375.161 -0.414167ZM363.05 -1.24024C361.024 -1.3531 358.993 -1.45353 356.958 -1.54143L356.786 2.45484C358.804 2.54203 360.818 2.64163 362.828 2.75357L363.05 -1.24024ZM350.892 -1.76589C348.873 -1.82813 346.849 -1.87803 344.822 -1.91552L344.748 2.0838C346.759 2.12098 348.766 2.17048 350.769 2.23221L350.892 -1.76589ZM338.728 -1.99059C337.71 -1.99686 336.692 -2 335.673 -2V2C336.684 2 337.694 2.00311 338.703 2.00933L338.728 -1.99059ZM335.673 -2C335.353 -2 335.033 -1.99969 334.713 -1.99907L334.721 2.00092C335.038 2.00031 335.355 2 335.673 2V-2ZM332.793 -1.99164C332.474 -1.98979 332.154 -1.98762 331.834 -1.98514L331.865 2.01474C332.182 2.01228 332.499 2.01013 332.817 2.00829L332.793 -1.99164ZM331.893 -1.98472C331.777 -1.98727 331.662 -1.9895 331.546 -1.99141L331.48 2.00805C331.588 2.00984 331.697 2.01193 331.805 2.01431L331.893 -1.98472ZM330.851 -1.99905C330.735 -1.99968 330.619 -2 330.503 -2V2C330.612 2 330.72 2.0003 330.829 2.00089L330.851 -1.99905ZM330.503 -2H327.52V2H330.503V-2ZM321.553 -2H315.587V2H321.553V-2ZM309.62 -2H303.653V2H309.62V-2ZM297.686 -2H291.72V2H297.686V-2ZM285.753 -2H279.786V2H285.753V-2ZM273.819 -2H267.853V2H273.819V-2ZM261.886 -2H255.919V2H261.886V-2ZM249.952 -2H243.986V2H249.952V-2ZM238.019 -2H232.052V2H238.019V-2ZM226.086 -2H220.119V2H226.086V-2ZM214.152 -2H208.185V2H214.152V-2ZM202.219 -2H196.252V2H202.219V-2ZM190.285 -2H184.318V2H190.285V-2ZM178.352 -2H172.385V2H178.352V-2ZM166.418 -2H160.451V2H166.418V-2ZM154.485 -2H148.518V2H154.485V-2ZM142.551 -2H136.584V2H142.551V-2ZM130.618 -2H124.651V2H130.618V-2ZM118.684 -2H112.718V2H118.684V-2ZM106.751 -2H100.784V2H106.751V-2ZM94.8173 -2H88.8506V2H94.8173V-2ZM82.8839 -2H76.9171V2H82.8839V-2ZM70.9504 -2H64.9836V2H70.9504V-2ZM59.0169 -2H53.0502V2H59.0169V-2ZM47.0834 -2H41.1167V2H47.0834V-2ZM35.15 -2H29.1832V2H35.15V-2ZM23.2165 -2H17.2498V2H23.2165V-2ZM11.283 -2H5.31628V2H11.283V-2ZM-0.650452 -2H-6.61719V2H-0.650452V-2ZM-12.5839 -2H-18.5507V2H-12.5839V-2ZM-24.5174 -2H-30.4841V2H-24.5174V-2ZM-36.4509 -2H-42.4176V2H-36.4509V-2ZM-48.3843 -2H-54.3511V2H-48.3843V-2ZM-60.3178 -2H-66.2845V2H-60.3178V-2ZM-72.2513 -2H-78.218V2H-72.2513V-2ZM-84.1848 -2H-90.1515V2H-84.1848V-2ZM-96.1182 -2H-102.085V2H-96.1182V-2ZM-108.052 -2H-114.018V2H-108.052V-2ZM-119.985 -2H-125.952V2H-119.985V-2ZM-131.919 -2H-137.885V2H-131.919V-2ZM-143.852 -2H-149.819V2H-143.852V-2ZM-155.786 -2H-161.752V2H-155.786V-2ZM-167.719 -2H-173.686V2H-167.719V-2ZM-179.653 -2H-185.619V2H-179.653V-2ZM-191.586 -2H-197.553V2H-191.586V-2ZM-203.519 -2H-209.486V2H-203.519V-2ZM-215.453 -2H-221.42V2H-215.453V-2ZM-227.386 -2H-233.353V2H-227.386V-2ZM-239.32 -2H-245.287V2H-239.32V-2ZM-251.253 -2H-257.22V2H-251.253V-2ZM-263.187 -2H-269.154V2H-263.187V-2ZM-275.12 -2H-281.087V2H-275.12V-2ZM-287.054 -2H-293.021V2H-287.054V-2ZM-298.987 -2H-304.954V2H-298.987V-2ZM-310.921 -2H-316.887V2H-310.921V-2ZM-322.854 -2H-328.821V2H-322.854V-2ZM-334.788 -2H-340.754V2H-334.788V-2ZM-346.721 -2H-352.688V2H-346.721V-2ZM-358.655 -2H-364.621V2H-358.655V-2ZM-370.588 -2H-376.555V2H-370.588V-2ZM-382.522 -2H-388.488V2H-382.522V-2ZM-394.455 -2H-400.422V2H-394.455V-2ZM-406.388 -2H-412.355V2H-406.388V-2ZM-418.322 -2H-424.289V2H-418.322V-2ZM-430.255 -2H-436.222V2H-430.255V-2ZM-442.189 -2H-448.156V2H-442.189V-2ZM-454.122 -2H-460.089V2H-454.122V-2ZM-466.056 -2H-472.023V2H-466.056V-2ZM-477.989 -2H-483.956V2H-477.989V-2ZM-489.923 -2H-495.89V2H-489.923V-2ZM-501.856 -2H-507.823V2H-501.856V-2ZM-513.79 -2H-519.756V2H-513.79V-2ZM-525.723 -2H-531.69V2H-525.723V-2ZM-537.657 -2H-543.623V2H-537.657V-2ZM-549.59 -2H-555.557V2H-549.59V-2ZM-561.524 -2H-567.49V2H-561.524V-2ZM-573.457 -2H-579.424V2H-573.457V-2ZM-585.391 -2H-591.357V2H-585.391V-2ZM-597.324 -2H-603.291V2H-597.324V-2ZM-609.257 -2H-615.224V2H-609.257V-2ZM-621.191 -2H-627.158V2H-621.191V-2ZM-633.124 -2H-639.091V2H-633.124V-2ZM-645.058 -2H-651.025V2H-645.058V-2ZM-656.991 -2H-662.958V2H-656.991V-2ZM-668.925 -2H-674.892V2H-668.925V-2ZM-680.858 -2H-686.825V2H-680.858V-2ZM-692.792 -2H-698.759V2H-692.792V-2ZM-704.725 -2H-707.709V2H-704.725V-2Z" fill="#C20000" mask="url(#path-1-inside-1_3_31)"/>
<path fill-rule="evenodd" clip-rule="evenodd" d="M327.352 17H-648V577H327.352C328.181 577 329.007 576.983 329.828 576.95C332.1 576.983 334.377 577 336.66 577C534.013 577 694 451.64 694 297C694 142.36 534.013 17 336.66 17C334.377 17 332.1 17.0168 329.828 17.0502C329.007 17.0168 328.181 17 327.352 17Z" fill="#FFAD80"/>
<path d="M460.816 459.538C477.835 459.538 504.632 430.723 485.919 391.806C462.901 343.942 437.259 356.657 467.307 270.582C483.296 224.77 427.023 183.936 380.986 210.699C354.986 225.813 309.79 237.54 294.968 208.087C262.834 144.234 149.829 139.828 122.292 205.878C92.8043 276.614 165.413 302.704 140.792 339.424C126.721 360.413 108.961 368.855 110.329 398.915C112.56 447.922 167.162 459.213 206.931 459.213L460.816 459.538Z" fill="#F5F8FF"/>
<path d="M128.705 458.508C125.554 458.351 123.312 455.358 123.715 452.23C124.612 445.345 125.397 430.254 116.775 422.092C107.637 413.447 107.974 407.74 110.519 404.994C114.465 400.722 132.539 410.174 134.613 439.28C135.757 455.279 132.169 458.688 128.705 458.508Z" fill="#E1ECFA"/>
<path d="M126.126 448.822C126.059 449.427 125.969 450.044 125.879 450.672C125.868 450.75 125.801 450.795 125.722 450.784C125.644 450.773 125.599 450.705 125.61 450.627C127.55 438.013 124.444 427.631 121.506 421.162C118.322 414.143 114.634 410.062 114.589 410.017C114.533 409.961 114.544 409.871 114.6 409.815C114.656 409.759 114.746 409.77 114.802 409.826C114.835 409.871 118.558 413.986 121.764 421.038C124.567 427.227 127.527 436.971 126.126 448.822Z" fill="#E1ECFA"/>
<path d="M130.713 459.439C135.131 459.82 138.831 456.086 138.864 451.646C138.932 441.892 140.725 420.712 154.303 410.992C168.688 400.688 169.316 392.694 166.3 388.366C161.625 381.661 134.637 391.371 126.161 431.521C121.508 453.597 125.858 459.024 130.713 459.439Z" fill="#E1ECFA"/>
<path d="M136.161 446.433C136.139 447.297 136.139 448.171 136.161 449.057C136.161 449.169 136.251 449.247 136.363 449.247C136.475 449.247 136.543 449.158 136.554 449.046C136.273 431.095 142.575 417.237 147.912 408.772C153.697 399.601 159.617 394.623 159.673 394.567C159.751 394.499 159.763 394.376 159.695 394.286C159.628 394.208 159.505 394.197 159.415 394.264C159.359 394.309 153.383 399.343 147.564 408.559C142.474 416.665 136.498 429.66 136.161 446.433Z" fill="#E1ECFA"/>
<path d="M298.039 458.147C299.407 455.793 298.308 452.754 295.842 451.566C290.438 448.964 279.125 442.417 277.286 432.315C275.335 421.618 271.052 419.163 267.845 419.712C262.89 420.553 261.208 438.111 281.311 453.348C292.377 461.735 296.537 460.737 298.039 458.147Z" fill="#E1ECFA"/>
<path d="M292.232 451.7C292.703 451.935 293.196 452.171 293.689 452.395C293.745 452.417 293.824 452.395 293.846 452.339C293.869 452.283 293.846 452.215 293.79 452.182C283.733 447.63 277.679 440.488 274.371 435.297C270.795 429.679 269.572 425.071 269.561 425.026C269.55 424.959 269.483 424.925 269.415 424.937C269.348 424.948 269.315 425.015 269.326 425.082C269.337 425.127 270.57 429.769 274.169 435.42C277.331 440.376 282.993 447.114 292.232 451.7Z" fill="#E1ECFA"/>
<path d="M300.964 459.302C303.856 457.991 304.866 454.369 303.33 451.588C299.966 445.467 293.687 431.62 298.766 420.812C304.148 409.353 301.749 404.139 298.351 402.491C293.093 399.946 279.627 415.43 288.373 443.46C293.171 458.865 297.791 460.737 300.964 459.302Z" fill="#E1ECFA"/>
<path d="M299.818 449.268C300.11 449.818 300.413 450.356 300.726 450.905C300.76 450.973 300.85 450.995 300.917 450.961C300.984 450.916 300.996 450.838 300.973 450.771C294.526 439.66 293.618 428.806 293.988 421.653C294.392 413.906 296.354 408.726 296.365 408.67C296.399 408.602 296.354 408.513 296.287 408.49C296.219 408.468 296.13 408.502 296.107 408.569C296.085 408.625 294.111 413.838 293.708 421.631C293.36 428.47 294.167 438.684 299.818 449.268Z" fill="#E1ECFA"/>
<path d="M454.716 457.185C452.877 454.023 454.357 449.953 457.654 448.372C464.897 444.897 480.044 436.118 482.511 422.596C485.123 408.267 490.864 404.982 495.147 405.711C501.784 406.843 504.038 430.343 477.106 450.76C462.307 461.995 456.734 460.661 454.716 457.185Z" fill="#E1ECFA"/>
<path d="M462.485 448.561C461.846 448.875 461.195 449.189 460.534 449.481C460.455 449.514 460.354 449.481 460.321 449.402C460.287 449.324 460.321 449.234 460.399 449.189C473.865 443.101 481.971 433.526 486.4 426.575C491.199 419.04 492.824 412.885 492.847 412.829C492.869 412.739 492.959 412.694 493.049 412.717C493.138 412.739 493.183 412.829 493.161 412.918C493.15 412.986 491.501 419.186 486.68 426.765C482.442 433.392 474.863 442.417 462.485 448.561Z" fill="#E1ECFA"/>
<path d="M450.791 458.731C446.912 456.982 445.567 452.127 447.618 448.405C452.126 440.209 460.535 421.664 453.74 407.179C446.531 391.841 449.749 384.844 454.301 382.647C461.353 379.227 479.371 399.98 467.665 437.507C461.23 458.148 455.052 460.66 450.791 458.731Z" fill="#E1ECFA"/>
<path d="M452.328 445.298C451.936 446.027 451.532 446.756 451.106 447.496C451.05 447.586 450.938 447.619 450.848 447.563C450.758 447.507 450.736 447.406 450.781 447.305C459.414 432.427 460.636 417.885 460.132 408.31C459.582 397.939 456.97 390.999 456.936 390.932C456.902 390.831 456.947 390.73 457.048 390.685C457.149 390.651 457.25 390.696 457.295 390.797C457.317 390.864 459.963 397.861 460.513 408.299C460.984 417.448 459.896 431.127 452.328 445.298Z" fill="#E1ECFA"/>
<path d="M453.92 457.6C455.636 455.784 455.288 452.846 453.337 451.288C449.065 447.846 440.365 439.65 440.825 430.277C441.318 420.343 438.01 417.259 435.05 417.08C430.465 416.8 425.296 432.082 440.029 449.841C448.135 459.607 452.048 459.596 453.92 457.6Z" fill="#E1ECFA"/>
<path d="M450.099 450.648C450.469 450.962 450.861 451.264 451.254 451.567C451.298 451.601 451.377 451.589 451.411 451.545C451.444 451.5 451.433 451.433 451.388 451.388C443.383 445.232 439.481 437.619 437.62 432.305C435.602 426.553 435.478 422.203 435.478 422.158C435.478 422.102 435.422 422.046 435.366 422.046C435.31 422.046 435.254 422.102 435.254 422.158C435.254 422.203 435.377 426.587 437.407 432.372C439.189 437.451 442.833 444.638 450.099 450.648Z" fill="#E1ECFA"/>
<path d="M438.627 176.815C437.001 176.815 435.454 177.129 434.019 177.667C434.03 177.387 434.041 177.095 434.041 176.815C434.041 165.659 425.004 156.622 413.848 156.622C403.242 156.622 394.553 164.796 393.723 175.189C391.312 172.868 388.038 171.433 384.428 171.433C379.114 171.433 374.539 174.528 372.364 179.001C369.684 173.227 363.854 169.213 357.071 169.213C347.754 169.213 340.208 176.77 340.208 186.076C340.208 195.393 347.765 202.939 357.071 202.939H438.627C445.847 202.939 451.689 197.086 451.689 189.877C451.689 182.668 445.836 176.815 438.627 176.815Z" fill="#E1ECFA"/>
<path d="M254.649 116.193C256.274 116.193 257.822 116.507 259.257 117.045C259.246 116.765 259.234 116.484 259.234 116.193C259.234 105.037 268.271 96 279.427 96C290.034 96 298.723 104.174 299.553 114.567C301.963 112.246 305.237 110.811 308.847 110.811C314.162 110.811 318.736 113.906 320.911 118.379C323.591 112.605 329.421 108.591 336.205 108.591C345.522 108.591 353.067 116.148 353.067 125.454C353.067 134.771 345.511 142.317 336.205 142.317H254.649C247.428 142.317 241.587 136.464 241.587 129.255C241.575 122.045 247.428 116.193 254.649 116.193Z" fill="#E1ECFA"/>
<path d="M328.422 352.929C381.507 340.141 414.174 286.74 401.386 233.655C388.598 180.57 335.197 147.903 282.112 160.691C229.027 173.479 196.36 226.88 209.148 279.965C221.936 333.049 275.337 365.717 328.422 352.929Z" fill="#BAD4EF"/>
<path d="M331.399 343.636C379.353 329.198 406.523 278.618 392.084 230.664C377.645 182.71 327.066 155.54 279.112 169.979C231.157 184.418 203.988 234.998 218.427 282.952C232.866 330.906 283.445 358.075 331.399 343.636Z" stroke="white" stroke-width="1.5" stroke-miterlimit="10" stroke-linecap="round"/>
<path d="M308.365 348.979C328.136 348.979 344.164 308.058 344.164 257.579C344.164 207.1 328.136 166.179 308.365 166.179C288.593 166.179 272.565 207.1 272.565 257.579C272.565 308.058 288.593 348.979 308.365 348.979Z" stroke="white" stroke-width="1.5" stroke-miterlimit="10" stroke-linecap="round"/>
<path d="M395.942 256.815H214.577" stroke="white" stroke-width="1.5" stroke-miterlimit="10" stroke-linecap="round"/>
<path d="M306.18 301.417C332.854 301.417 356.836 307.27 373.43 316.587C356.814 335.524 332.439 347.498 305.272 347.498C278.431 347.498 254.325 335.827 237.72 317.304C254.347 307.572 278.834 301.417 306.18 301.417Z" stroke="white" stroke-width="1.5" stroke-miterlimit="10" stroke-linecap="round"/>
<path d="M374.808 198.638C358.181 208.415 333.615 214.615 306.179 214.615C278.082 214.615 252.967 208.123 236.34 197.92C252.967 178.467 277.679 166.123 305.271 166.123C333.2 166.134 358.181 178.77 374.808 198.638Z" stroke="white" stroke-width="1.5" stroke-miterlimit="10" stroke-linecap="round"/>
<path d="M490.291 270.337L454.099 275.248L417.907 280.159C413.971 280.697 412.088 285.282 414.521 288.422L428.906 307.011L373.07 352.857C369.65 355.66 364.739 355.671 361.309 352.88L339.367 335.008C336.261 332.474 331.866 332.227 328.491 334.391L249.211 385.215C246.621 386.874 243.392 387.143 240.567 385.944L221.024 377.624C218.188 376.425 214.947 376.694 212.357 378.364L132.292 429.928C126.014 433.965 124.209 442.34 128.245 448.607C130.599 452.274 134.434 454.415 138.459 454.763C141.341 455.01 144.312 454.348 146.935 452.655L214.958 408.85C217.548 407.179 220.789 406.91 223.625 408.11L243.134 416.418C245.96 417.618 249.2 417.348 251.779 415.689L326.607 367.724C329.982 365.56 334.377 365.807 337.483 368.341L361.387 387.816C364.807 390.608 369.729 390.597 373.148 387.794L445.466 328.404L459.234 346.186C461.667 349.325 466.578 348.653 468.092 344.986L481.927 311.193L495.763 277.4C497.265 273.723 494.227 269.799 490.291 270.337Z" fill="#FEE900"/>
<path d="M136.99 320.578C153.777 320.578 167.386 306.969 167.386 290.182C167.386 273.395 153.777 259.786 136.99 259.786C120.203 259.786 106.594 273.395 106.594 290.182C106.594 306.969 120.203 320.578 136.99 320.578Z" fill="#F0C66C"/>
<path d="M136.99 323.839C155.579 323.839 170.649 308.77 170.649 290.181C170.649 271.592 155.579 256.522 136.99 256.522C118.401 256.522 103.332 271.592 103.332 290.181C103.332 308.77 118.401 323.839 136.99 323.839Z" stroke="#F0C66C" stroke-width="0.5" stroke-miterlimit="10"/>
<path d="M132.595 271.725C142.955 267.924 150.792 278.015 149.671 286.043C149.177 293.958 139.927 298.847 140.768 301.829C138.851 301.829 135.005 301.829 133.099 301.829C133.099 301.829 133.649 300.36 131.642 298.589C124.085 292.647 119.23 277.723 132.595 271.725Z" fill="white"/>
<path d="M140.758 301.829C140.713 305.462 141.644 309.834 136.363 309.431C132.226 309.296 133.156 304.621 133.078 301.829H140.758Z" fill="#E69724"/>
<path d="M138.459 301.831C138.459 301.831 138.324 289.755 139.378 286.403C140.443 283.051 142.574 280.472 144.143 283.353C147.171 292.502 130.936 294.801 129.669 286.706C127.998 278.902 136.777 278.229 135.308 301.831" stroke="#F0C66C" stroke-miterlimit="10" stroke-linecap="round"/>
<path d="M181.614 210.185C198.401 210.185 212.009 196.576 212.009 179.789C212.009 163.002 198.401 149.394 181.614 149.394C164.827 149.394 151.218 163.002 151.218 179.789C151.218 196.576 164.827 210.185 181.614 210.185Z" fill="#F0C66C"/>
<path d="M181.614 213.447C200.203 213.447 215.272 198.377 215.272 179.788C215.272 161.199 200.203 146.13 181.614 146.13C163.025 146.13 147.955 161.199 147.955 179.788C147.955 198.377 163.025 213.447 181.614 213.447Z" stroke="#F0C66C" stroke-width="0.5" stroke-miterlimit="10"/>
<path d="M188.302 195.086C197.121 191.393 201.276 181.25 197.583 172.431C193.89 163.612 183.746 159.457 174.928 163.151C166.109 166.844 161.954 176.987 165.647 185.806C169.34 194.625 179.483 198.78 188.302 195.086Z" stroke="white" stroke-miterlimit="10"/>
<path d="M177.569 187.29C176.716 188.075 175.349 187.851 174.81 186.82L171.391 180.339C170.942 179.498 171.267 178.444 172.108 177.996C172.96 177.547 174.003 177.872 174.452 178.713L176.84 183.243L189.139 171.852C189.834 171.201 190.933 171.246 191.584 171.941C192.234 172.648 192.189 173.735 191.494 174.385L177.569 187.29Z" fill="white"/>
<path d="M199.037 196.652C200.083 192.235 197.351 187.806 192.934 186.76C188.517 185.714 184.088 188.446 183.042 192.863C181.996 197.28 184.728 201.708 189.145 202.755C193.562 203.801 197.991 201.069 199.037 196.652Z" fill="white"/>
<path d="M198.028 194.756C198.028 198.624 194.9 201.752 191.032 201.752C187.164 201.752 184.036 198.624 184.036 194.756C184.036 190.888 187.164 187.76 191.032 187.76C194.9 187.76 198.028 190.888 198.028 194.756Z" fill="#F0C66C"/>
<path d="M193.172 195.866C193.161 196.897 192.331 197.346 191.311 197.447V198.321H190.728V197.469C190.032 197.458 189.427 197.335 188.9 197.099V195.978C189.124 196.101 190.324 196.494 190.728 196.471V195.148C188.463 194.733 188.25 191.953 190.728 191.852V191.19H191.311V191.83C191.961 191.863 192.544 191.986 193.071 192.222L192.667 193.22C192.219 193.04 191.77 192.928 191.299 192.883V194.139C192.331 194.576 193.116 194.789 193.172 195.866ZM190.167 193.343C190.178 193.668 190.414 193.747 190.716 193.904V192.906C190.358 192.951 190.167 193.096 190.167 193.343ZM191.882 195.933C191.86 195.619 191.602 195.529 191.299 195.372V196.438C191.692 196.37 191.882 196.202 191.882 195.933Z" fill="white"/>
<path d="M474.734 229.701C478.635 213.374 468.562 196.975 452.235 193.074C435.908 189.173 419.509 199.246 415.608 215.573C411.707 231.9 421.78 248.298 438.107 252.2C454.434 256.101 470.832 246.028 474.734 229.701Z" fill="#F0C66C"/>
<path d="M445.185 256.297C463.774 256.297 478.843 241.228 478.843 222.639C478.843 204.05 463.774 188.98 445.185 188.98C426.596 188.98 411.527 204.05 411.527 222.639C411.527 241.228 426.596 256.297 445.185 256.297Z" stroke="#F0C66C" stroke-width="0.5" stroke-miterlimit="10"/>
<path d="M433.056 226.386C433.056 226.386 433.459 232.082 433.493 234.503C433.504 235.647 433.672 236.51 433.841 237.105C433.998 237.676 434.569 238.024 435.152 237.934L438.381 237.385C439.043 237.273 439.469 236.622 439.312 235.972C438.718 233.539 437.496 228.124 437.787 226.173L433.056 226.386Z" fill="#E69724"/>
<path d="M430.061 219.322L430.734 225.657C430.778 226.128 431.193 226.487 431.675 226.464L440.152 226.139L439.636 217.203L431.182 217.954C430.487 218.033 429.982 218.638 430.061 219.322Z" fill="#E69724"/>
<path d="M439.625 217.214L454.481 207.639C455.613 206.91 457.138 207.482 457.497 208.782C458.696 213.132 460.726 222.371 459.425 231.599C459.302 232.473 458.382 233.011 457.553 232.697L440.14 226.15L439.625 217.214Z" fill="white"/>
<path d="M430.106 219.76C429.085 219.838 428.334 220.746 428.435 221.767L428.637 223.65C428.749 224.671 429.669 225.399 430.689 225.265L430.106 219.76Z" fill="white"/>
<path d="M459.067 216.103C459.067 216.103 461.959 217.056 461.948 219.489C461.926 221.922 459.84 223.547 459.84 223.547C459.84 223.547 459.28 217.538 459.067 216.103Z" fill="#E69724"/>
<path d="M459.413 231.599C460.714 222.371 458.684 213.132 457.485 208.782C457.126 207.482 455.612 206.91 454.469 207.639L454.043 207.919C454.592 209.13 455.635 211.877 456.207 216.216C456.958 221.822 457.563 228.056 456.767 232.406L457.541 232.697C458.382 233.022 459.29 232.484 459.413 231.599Z" fill="#E69724"/>
<path d="M236.621 364.979L231.71 363.6C232.002 361.728 232.114 358.712 230.612 355.864C229.132 353.061 226.474 351.099 222.73 350.045C216.305 348.24 212.235 350.841 209.959 353.33C208.872 354.518 208.109 355.785 207.582 356.828L202.492 355.404C200.978 354.978 199.398 355.864 198.971 357.377L193.108 378.276C192.682 379.79 193.567 381.371 195.081 381.797L229.21 391.372C230.724 391.798 232.305 390.912 232.731 389.399L238.595 368.5C239.021 366.986 238.135 365.405 236.621 364.979ZM221.687 353.756C224.367 354.507 226.217 355.819 227.192 357.646C228.1 359.351 228.123 361.245 227.966 362.557L211.327 357.893C212.729 355.415 215.778 352.096 221.687 353.756Z" fill="#A0C8EC"/>
<path d="M230.32 325.837L225.106 345.739C225.106 345.739 227.113 347.465 227.954 349.573C228.795 351.67 228.526 353.396 228.033 352.858C227.73 352.533 227.281 352.208 226.654 351.771C225.79 351.188 225.398 350.515 224.759 350.549C223.671 350.605 222.494 351.087 223.368 353.352C224.221 355.549 227.248 356.188 226.474 356.76C224.523 358.195 223.144 356.222 223.144 356.222C223.144 356.222 222.572 357.108 221.799 357.096C221.025 357.085 220.722 355.717 220.722 355.717C220.722 355.717 220.139 356.48 219.254 356.356C218.368 356.233 218.177 354.977 218.177 354.977C218.177 354.977 216.787 356.211 215.89 354.719C214.982 353.217 213.21 349.427 218.648 344.595C218.648 344.595 223.738 319.245 226.048 317.888C228.369 316.531 230.32 325.837 230.32 325.837Z" fill="#E1B39D"/>
<path d="M218.928 342.163L225.409 344.753C225.7 344.865 226.037 344.708 226.115 344.405L226.295 343.744C226.362 343.486 226.227 343.217 225.981 343.116L219.523 340.459C219.231 340.335 218.895 340.504 218.816 340.806L218.614 341.535C218.547 341.782 218.682 342.062 218.928 342.163Z" fill="white"/>
<path d="M218.648 341.254L226.284 344.001C226.631 344.124 227.012 343.945 227.136 343.597L230.925 324.312L240.299 313.156C240.422 312.809 239.312 308.896 238.964 308.773L236.475 299.646C236.128 299.523 222.09 320.287 222.09 320.287L218.245 340.402C218.121 340.749 218.301 341.13 218.648 341.254Z" fill="#264154"/>
<path d="M298.389 333.987C298.389 333.987 303.221 336.6 303.412 336.566C303.613 336.532 307.145 335.467 307.885 336.375C308.625 337.284 311.652 340.636 313.581 342.576C315.498 344.504 316.698 346.971 315.509 347.879C314.332 348.787 314.007 347.957 314.007 347.957C314.007 347.957 314.769 349.617 313.536 350.054C312.303 350.503 311.731 349.852 311.731 349.852C311.731 349.852 312.056 350.873 311.327 351.287C310.598 351.702 309.668 351.332 309.388 350.917C309.388 350.917 308.322 352.487 306.955 351.579C305.598 350.671 299.151 345.569 299.016 343.338L296.292 341.555L298.389 333.987Z" fill="#E1B39D"/>
<path d="M299.845 334.628L296.706 341.871C296.572 342.184 296.202 342.308 295.899 342.151L291.493 339.796C291.223 339.651 291.111 339.325 291.235 339.056L294.531 331.477C294.677 331.152 295.069 331.029 295.372 331.219L299.621 333.91C299.868 334.067 299.969 334.37 299.845 334.628Z" fill="white"/>
<path d="M266.053 442.699L265.829 449.965L256.456 449.92L256.49 442.654L266.053 442.699Z" fill="#F3D6C1"/>
<path d="M256.454 449.922L265.625 449.967C265.76 449.967 265.894 449.978 266.029 450.012C267.341 450.325 274.785 452.209 281.356 455.831C282.993 456.728 282.32 459.228 280.459 459.217L258.225 459.104C257.227 459.104 256.42 458.286 256.42 457.288L256.454 449.922Z" fill="#2F526E"/>
<path d="M260.929 264.217C260.929 264.217 261.377 266.93 264.73 272.502C268.149 278.198 267.847 287.044 263.384 289.096C259.909 290.7 257.296 290.105 257.296 290.105L255.67 302.853L244.346 300.409L245.03 287.941L241.409 270.182L260.929 264.217Z" fill="#E1B39D"/>
<path d="M247.731 442.151L247.53 449.966L238.156 449.921L238.19 442.656L247.731 442.151Z" fill="#F3D6C1"/>
<path d="M238.159 449.922L247.33 449.967C247.465 449.967 247.599 449.978 247.734 450.012C249.046 450.325 256.49 452.209 263.061 455.831C264.698 456.728 264.025 459.228 262.164 459.217L239.93 459.104C238.932 459.104 238.125 458.286 238.125 457.288L238.159 449.922Z" fill="#315780"/>
<path d="M266.681 354.429L267.847 442.701C267.858 443.676 267.085 444.484 266.098 444.506L256.186 444.697C255.233 444.719 254.437 443.979 254.381 443.037L252.341 411.487L249.112 443.452C249.022 444.349 248.271 445.033 247.374 445.056L238.707 445.212C237.743 445.235 236.935 444.472 236.902 443.497L233.662 354.429C233.662 353.958 266.681 354.429 266.681 354.429Z" fill="#F0C66C"/>
<path d="M266.052 442.701L256.118 442.824" stroke="#E69724" stroke-width="0.5" stroke-miterlimit="10" stroke-linecap="round"/>
<path d="M247.621 442.98L238.023 443.126" stroke="#E69724" stroke-width="0.5" stroke-miterlimit="10" stroke-linecap="round"/>
<path d="M257.475 440.514L255.098 382.996" stroke="#E69724" stroke-width="0.5" stroke-miterlimit="10" stroke-linecap="round"/>
<path d="M260.625 355.559C260.625 355.559 260.76 367.186 256.981 368.868C253.214 370.55 257.957 360.145 256.353 355.492L260.625 355.559Z" stroke="#E69724" stroke-width="0.5" stroke-miterlimit="10" stroke-linecap="round"/>
<path d="M256.982 368.868L256.254 371.111L252.341 411.485" stroke="#E69724" stroke-width="0.5" stroke-miterlimit="10" stroke-linecap="round"/>
<path d="M237.765 353.698L240.03 440.513" stroke="#E69724" stroke-width="0.5" stroke-miterlimit="10" stroke-linecap="round"/>
<path d="M234.132 306.553C234.659 301.609 236.498 296.003 242.676 294.994C247.071 294.276 253.417 294.444 257.666 295.7C261.714 296.889 265.223 299.422 267.589 302.909C271.468 308.616 277.399 317.35 277.422 317.373L298.893 332.274C299.308 332.588 299.442 333.159 299.229 333.63L295.697 341.333C295.406 341.983 294.587 342.196 294.016 341.77C289.217 338.25 270.044 326.186 270.011 326.152L266.513 322.822L267.241 355.695H233.022C233.045 355.673 232.966 317.541 234.132 306.553Z" fill="#315782"/>
<path d="M244.897 286.753L247.947 282.873C248.305 282.425 248.171 281.763 247.677 281.472C246.467 280.765 244.572 279.308 244.65 277.211C244.751 274.128 248.092 272.917 250.604 275.451C250.604 275.451 251.164 277.133 251.882 270.619C252.6 264.093 258.149 268.847 260.728 266.123C263.307 263.398 265.011 261.851 264.462 259.317C263.912 256.783 262.264 253.162 258.99 255.359C255.716 257.557 255.481 253.274 251.904 255.112C247.453 257.411 242.542 252.691 242.038 258.196C241.533 263.701 235.109 259.956 236.88 264.407C238.641 268.858 231.644 268.858 233.304 271.998C234.963 275.137 232.788 279.072 235.759 280.597C238.73 282.122 241.051 280.597 241.365 284.734C241.545 287.156 244.897 286.753 244.897 286.753Z" fill="#2F5482"/>
<path d="M258.642 301.07C258.642 301.07 251.623 304.322 259.202 313.953C266.412 323.124 266.524 322.799 266.524 322.799" stroke="#264154" stroke-width="0.5" stroke-miterlimit="10" stroke-linecap="round"/>
<path d="M244.313 335.244C244.313 335.244 244.985 347.947 255.491 349.45" stroke="#264154" stroke-width="0.5" stroke-miterlimit="10" stroke-linecap="round"/>
<path d="M238.695 328.013C238.695 328.013 237.529 346.456 243.752 350.65" stroke="#264154" stroke-width="0.5" stroke-miterlimit="10" stroke-linecap="round"/>
<path d="M347.271 444.481L347.507 452.431L355.972 451.029L355.938 444.437L347.271 444.481Z" fill="#E1B39D"/>
<path d="M355.972 451.03C347.227 450.895 344.356 450.884 333.38 456.4C331.9 457.219 332.505 459.483 334.198 459.472L354.369 459.371C357.295 459.539 355.972 451.03 355.972 451.03Z" fill="#2F526E"/>
<path d="M386.625 444.437L386.838 452.419L395.326 453.059L395.281 444.896L386.625 444.437Z" fill="#E1B39D"/>
<path d="M390.494 450.996C389.384 450.996 385.875 451.231 384.059 453.036C381.704 455.368 382.018 459.416 382.982 459.416L397.939 459.461C398.656 459.517 398.421 455.974 396.75 453.72C395.237 451.702 393.992 450.973 390.494 450.996Z" fill="#315780"/>
<path d="M391.39 372.824L396.234 371.602C395.998 369.763 395.965 366.814 397.512 364.067C399.037 361.365 401.683 359.515 405.383 358.584C411.718 356.992 415.631 359.638 417.783 362.139C418.815 363.327 419.532 364.583 420.014 365.614L425.026 364.359C426.517 363.977 428.042 364.886 428.412 366.388L433.592 386.984C433.973 388.476 433.065 390 431.563 390.37L397.916 398.824C396.424 399.206 394.9 398.297 394.53 396.795L389.35 376.199C388.991 374.719 389.899 373.194 391.39 372.824ZM406.291 362.24C403.645 362.901 401.795 364.134 400.797 365.895C399.855 367.543 399.799 369.393 399.911 370.682L416.314 366.556C415.014 364.101 412.121 360.771 406.291 362.24Z" fill="#EBB259"/>
<path d="M387.959 345.759C388.856 351.903 392.758 379.9 392.332 401.819C392.332 401.886 392.332 401.953 392.343 402.021L397.444 445.703C397.557 446.622 396.839 447.418 395.908 447.418H385.975C385.257 447.418 384.64 446.925 384.472 446.23C382.746 438.807 373.552 399.094 372.868 393.825C372.105 388.006 371.354 380.169 371.354 380.169L365.042 405.9C365.031 405.934 365.031 405.967 365.019 406.001L358.012 446.689C357.877 447.441 357.227 447.979 356.465 447.968L346.049 447.799C345.163 447.788 344.468 447.026 344.535 446.151L347.831 399.935C347.831 399.89 347.843 399.857 347.843 399.812L356.218 343.887C356.341 343.091 357.048 342.53 357.844 342.575L386.535 344.425C387.264 344.503 387.847 345.041 387.959 345.759Z" fill="#315782"/>
<path d="M371.354 380.181L367.43 348.989" stroke="#264154" stroke-width="0.5" stroke-miterlimit="10" stroke-linecap="round"/>
<path d="M368.82 377.712L360.355 405.462L354.614 444.434" stroke="#264154" stroke-width="0.5" stroke-miterlimit="10" stroke-linecap="round"/>
<path d="M386.076 358.026L388.879 401.619L394.642 444.437" stroke="#264154" stroke-width="0.5" stroke-miterlimit="10" stroke-linecap="round"/>
<path d="M363.158 351.264C363.158 351.264 364.661 361.814 368.82 361.668" stroke="#264154" stroke-width="0.5" stroke-miterlimit="10" stroke-linecap="round"/>
<path d="M378.295 348.989C378.295 348.989 379.876 355.817 384.787 361.681" stroke="#264154" stroke-width="0.5" stroke-miterlimit="10" stroke-linecap="round"/>
<path d="M397.625 335.4L403.904 354.483C403.904 354.483 401.168 355.952 400.282 357.981C399.408 360.011 399.621 361.704 400.114 361.199C400.417 360.885 400.865 360.582 401.493 360.179C402.345 359.641 402.76 358.99 403.377 359.035C404.442 359.125 405.574 359.618 404.655 361.816C403.758 363.946 400.787 364.484 401.527 365.067C403.399 366.525 404.801 364.63 404.801 364.63C404.801 364.63 405.339 365.516 406.101 365.516C406.863 365.527 407.189 364.193 407.189 364.193C407.189 364.193 407.738 364.955 408.601 364.854C409.465 364.753 409.689 363.531 409.689 363.531C409.689 363.531 411.012 364.776 411.931 363.34C412.851 361.894 414.689 358.239 409.51 353.362C409.51 353.362 405.204 328.426 402.984 327.036C400.753 325.646 397.625 335.4 397.625 335.4Z" fill="#F3D6C1"/>
<path d="M315.9 346.409C315.9 346.409 315.866 345.58 314.072 343.662C312.279 341.745 310.35 339.032 308.926 339.245C308.926 339.245 308.085 342.945 306.74 343.259C305.394 343.584 305.439 341.487 305.271 339.839C305.103 338.191 307.188 336.083 308.623 335.825C310.216 335.545 311.931 337.249 314.039 337.451L320.822 335.242L322.795 343.292L318.826 344.537C318.804 344.548 317.66 345.311 315.9 346.409Z" fill="#F3D6C1"/>
<path d="M318.848 336.118L321.18 343.429C321.281 343.754 321.651 343.922 321.976 343.787L322.66 343.485C322.929 343.361 323.064 343.059 322.974 342.778L320.721 335.446C320.62 335.109 320.25 334.941 319.936 335.087L319.173 335.423C318.893 335.524 318.758 335.827 318.848 336.118Z" fill="#F9ECDC"/>
<path d="M306.46 340.11L305.26 339.841C305.35 340.738 305.383 341.769 305.607 342.464C306.616 342.958 306.785 341.287 306.807 340.536C306.818 340.345 306.673 340.166 306.46 340.11Z" fill="white"/>
<path d="M303.242 346.275C303.242 346.275 305.114 345.12 305.91 345.535C306.706 345.95 306.762 346.488 306.549 346.791C306.549 346.791 307.637 346.399 308.231 347.273C308.825 348.136 307.065 349.37 307.065 349.37C307.065 349.37 308.365 349.549 307.132 350.951C305.91 352.352 304.374 351.915 304.508 350.883C304.508 350.883 303.23 351.063 302.759 350.379C302.289 349.695 302.681 349.146 302.681 349.146C302.681 349.146 301.425 349.325 301.156 348.562C300.898 347.8 301.291 347.408 301.291 347.408C301.291 347.408 299.542 347.273 299.833 346.118C300.113 344.963 302.636 344.223 303.04 344.683C303.455 345.132 303.656 345.322 303.242 346.275Z" fill="#F3D6C1"/>
<path d="M301.626 346.231L301.357 345.816C301.256 345.647 301.312 345.446 301.48 345.345L302.075 345.02C302.366 344.863 302.736 344.952 302.916 345.221C303.095 345.491 302.994 345.849 302.714 346.006L302.108 346.343C301.929 346.444 301.716 346.387 301.626 346.231Z" fill="white"/>
<path d="M304.666 347.061L304.397 346.646C304.296 346.478 304.352 346.276 304.52 346.175L305.114 345.85C305.406 345.693 305.776 345.782 305.955 346.052C306.135 346.321 306.034 346.679 305.754 346.836L305.148 347.173C304.98 347.262 304.767 347.218 304.666 347.061Z" fill="white"/>
<path d="M306.481 348.45L306.212 348.035C306.111 347.867 306.167 347.665 306.335 347.564L306.93 347.239C307.221 347.082 307.591 347.172 307.771 347.441C307.95 347.71 307.849 348.069 307.569 348.226L306.963 348.562C306.784 348.652 306.571 348.596 306.481 348.45Z" fill="white"/>
<path d="M306.66 350.613L306.38 350.288C306.335 350.243 306.346 350.165 306.402 350.131L306.862 349.783C307.008 349.671 307.209 349.705 307.333 349.839C307.445 349.974 307.422 350.176 307.288 350.277L306.817 350.635C306.761 350.658 306.694 350.647 306.66 350.613Z" fill="white"/>
<path d="M402.724 353.608L410.191 351.814C410.527 351.736 410.718 351.377 410.606 351.052L410.348 350.345C410.247 350.065 409.956 349.908 409.675 349.975L402.197 351.702C401.861 351.781 401.659 352.139 401.782 352.465L402.062 353.249C402.141 353.518 402.432 353.687 402.724 353.608Z" fill="#F9ECDC"/>
<path d="M387.577 345.872C385.177 346.858 370.153 352.476 356.362 344.762C356.194 344.672 356.082 344.493 356.071 344.302C355.959 341.51 355.499 318.896 355.264 313.11L345.207 327.518C345.173 327.551 323.399 343.775 323.399 343.775C323.097 343.999 322.648 343.865 322.525 343.495L319.565 334.48C319.497 334.256 319.565 334.021 319.744 333.875L337.224 319.535C337.268 319.501 350.555 295.664 354.053 294.207C358.65 292.29 363.505 289.756 368.146 290.305C377.923 291.46 368.864 286.829 390.447 292.738C398.99 295.07 409.137 339.234 410.763 349.852C410.808 350.132 410.628 350.401 410.348 350.469L401.939 352.733C401.648 352.812 401.345 352.644 401.255 352.363L388.956 313.85L387.913 345.356C387.913 345.591 387.778 345.782 387.577 345.872Z" fill="#F0C66C"/>
<path d="M362.059 260.729C362.059 260.729 361.678 263.431 358.505 269.048C355.264 274.788 355.78 283.545 360.265 285.473C363.752 286.976 366.331 286.325 366.331 286.325L367.71 295.71L379.314 291.797L378.451 283.848L381.59 266.144L362.059 260.729Z" fill="#F3D6C1"/>
<path d="M359.156 255.133C359.1 254.247 359.975 253.575 360.804 253.877C362.531 254.494 365.895 255.155 372.061 254.64C383.845 253.642 389.373 264.058 388.935 271.39C388.554 277.68 381.659 280.898 379.405 283.432C378.923 283.982 378.06 283.948 377.566 283.398C376.412 282.109 374.819 280.192 374.797 279.452C374.763 278.308 378.093 278.297 378.43 274.9C378.766 271.503 374.248 270.841 372.813 273.397C371.377 275.954 372.431 266.906 370.021 265.908C367.823 265.011 359.594 262.701 359.156 255.133Z" fill="#2F5482"/>
<path d="M379.282 290.988C379.282 290.988 380.179 298.343 372.757 299.005C365.334 299.666 367.308 291.605 367.308 291.605L379.282 290.988Z" fill="#F3D6C1"/>
<path d="M376.143 300.238L372.543 305.305C372.196 305.788 371.49 305.799 371.131 305.328L366.646 299.464C366.646 299.464 372.521 298.119 376.143 300.238Z" fill="#F9ECDC"/>
<path d="M371.746 303.714L376.713 331.934C376.769 332.271 376.736 332.63 376.601 332.932L372.8 341.902C372.352 342.956 371.13 342.956 370.681 341.913L366.858 333.078C366.723 332.764 366.678 332.417 366.746 332.069L371.746 303.714Z" fill="#F9ECDC"/>
<path d="M379.09 289.812C379.09 289.812 375.39 298.377 370.457 298.893L377.509 303.098C377.509 303.098 385.346 292.872 379.09 289.812Z" fill="#E69724"/>
<path d="M366.914 290.181C366.914 290.181 367.43 297.547 371.579 299.173L365.849 303.097C365.849 303.097 360.815 291.661 366.914 290.181Z" fill="#E69724"/>
<path d="M506 459.538H96" stroke="#315782" stroke-miterlimit="10" stroke-linecap="round"/>
</svg>
