<svg width="718" height="594" viewBox="0 0 718 594" fill="none" xmlns="http://www.w3.org/2000/svg">
<mask id="path-1-inside-1_3_31" fill="white">
<path fill-rule="evenodd" clip-rule="evenodd" d="M384.496 594L1422.71 594L1422.71 0L384.496 -9.07634e-05C384.046 -9.08027e-05 383.598 0.00485301 383.15 0.0146796C381.877 0.00485286 380.603 -9.11038e-05 379.327 -9.12153e-05C169.991 -0.000109516 0.291056 132.971 0.291042 297C0.291027 461.028 169.991 594 379.327 594C380.603 594 381.877 593.995 383.15 593.985C383.598 593.995 384.046 594 384.496 594Z"/>
</mask>
<path d="M1422.71 594L1422.71 595L1423.71 595L1423.71 594L1422.71 594ZM384.496 594L384.496 595L384.496 594ZM1422.71 0L1423.71 8.74228e-08L1423.71 -1L1422.71 -1L1422.71 0ZM383.15 0.0146796L383.143 1.01468L383.157 1.01474L383.172 1.01444L383.15 0.0146796ZM383.15 593.985L383.172 592.985L383.157 592.985L383.143 592.985L383.15 593.985ZM1423.71 594L1423.71 591.03L1421.71 591.03L1421.71 594L1423.71 594ZM1423.71 585.09L1423.71 579.15L1421.71 579.15L1421.71 585.09L1423.71 585.09ZM1423.71 573.21L1423.71 567.27L1421.71 567.27L1421.71 573.21L1423.71 573.21ZM1423.71 561.33L1423.71 555.39L1421.71 555.39L1421.71 561.33L1423.71 561.33ZM1423.71 549.45L1423.71 543.51L1421.71 543.51L1421.71 549.45L1423.71 549.45ZM1423.71 537.57L1423.71 531.63L1421.71 531.63L1421.71 537.57L1423.71 537.57ZM1423.71 525.69L1423.71 519.75L1421.71 519.75L1421.71 525.69L1423.71 525.69ZM1423.71 513.81L1423.71 507.87L1421.71 507.87L1421.71 513.81L1423.71 513.81ZM1423.71 501.93L1423.71 495.99L1421.71 495.99L1421.71 501.93L1423.71 501.93ZM1423.71 490.05L1423.71 484.11L1421.71 484.11L1421.71 490.05L1423.71 490.05ZM1423.71 478.17L1423.71 472.23L1421.71 472.23L1421.71 478.17L1423.71 478.17ZM1423.71 466.29L1423.71 460.35L1421.71 460.35L1421.71 466.29L1423.71 466.29ZM1423.71 454.41L1423.71 448.47L1421.71 448.47L1421.71 454.41L1423.71 454.41ZM1423.71 442.53L1423.71 436.59L1421.71 436.59L1421.71 442.53L1423.71 442.53ZM1423.71 430.65L1423.71 424.71L1421.71 424.71L1421.71 430.65L1423.71 430.65ZM1423.71 418.77L1423.71 412.83L1421.71 412.83L1421.71 418.77L1423.71 418.77ZM1423.71 406.89L1423.71 400.95L1421.71 400.95L1421.71 406.89L1423.71 406.89ZM1423.71 395.01L1423.71 389.07L1421.71 389.07L1421.71 395.01L1423.71 395.01ZM1423.71 383.13L1423.71 377.19L1421.71 377.19L1421.71 383.13L1423.71 383.13ZM1423.71 371.25L1423.71 365.31L1421.71 365.31L1421.71 371.25L1423.71 371.25ZM1423.71 359.37L1423.71 353.43L1421.71 353.43L1421.71 359.37L1423.71 359.37ZM1423.71 347.49L1423.71 341.55L1421.71 341.55L1421.71 347.49L1423.71 347.49ZM1423.71 335.61L1423.71 329.67L1421.71 329.67L1421.71 335.61L1423.71 335.61ZM1423.71 323.73L1423.71 317.79L1421.71 317.79L1421.71 323.73L1423.71 323.73ZM1423.71 311.85L1423.71 305.91L1421.71 305.91L1421.71 311.85L1423.71 311.85ZM1423.71 299.97L1423.71 294.03L1421.71 294.03L1421.71 299.97L1423.71 299.97ZM1423.71 288.09L1423.71 282.15L1421.71 282.15L1421.71 288.09L1423.71 288.09ZM1423.71 276.21L1423.71 270.27L1421.71 270.27L1421.71 276.21L1423.71 276.21ZM1423.71 264.33L1423.71 258.39L1421.71 258.39L1421.71 264.33L1423.71 264.33ZM1423.71 252.45L1423.71 246.51L1421.71 246.51L1421.71 252.45L1423.71 252.45ZM1423.71 240.57L1423.71 234.63L1421.71 234.63L1421.71 240.57L1423.71 240.57ZM1423.71 228.69L1423.71 222.75L1421.71 222.75L1421.71 228.69L1423.71 228.69ZM1423.71 216.81L1423.71 210.87L1421.71 210.87L1421.71 216.81L1423.71 216.81ZM1423.71 204.93L1423.71 198.99L1421.71 198.99L1421.71 204.93L1423.71 204.93ZM1423.71 193.05L1423.71 187.11L1421.71 187.11L1421.71 193.05L1423.71 193.05ZM1423.71 181.17L1423.71 175.23L1421.71 175.23L1421.71 181.17L1423.71 181.17ZM1423.71 169.29L1423.71 163.35L1421.71 163.35L1421.71 169.29L1423.71 169.29ZM1423.71 157.41L1423.71 151.47L1421.71 151.47L1421.71 157.41L1423.71 157.41ZM1423.71 145.53L1423.71 139.59L1421.71 139.59L1421.71 145.53L1423.71 145.53ZM1423.71 133.65L1423.71 127.71L1421.71 127.71L1421.71 133.65L1423.71 133.65ZM1423.71 121.77L1423.71 115.83L1421.71 115.83L1421.71 121.77L1423.71 121.77ZM1423.71 109.89L1423.71 103.95L1421.71 103.95L1421.71 109.89L1423.71 109.89ZM1423.71 98.0098L1423.71 92.0699L1421.71 92.0699L1421.71 98.0098L1423.71 98.0098ZM1423.71 86.1298L1423.71 80.1898L1421.71 80.1898L1421.71 86.1298L1423.71 86.1298ZM1423.71 74.2498L1423.71 68.3098L1421.71 68.3098L1421.71 74.2498L1423.71 74.2498ZM1423.71 62.3698L1423.71 56.4298L1421.71 56.4298L1421.71 62.3698L1423.71 62.3698ZM1423.71 50.4898L1423.71 44.5498L1421.71 44.5498L1421.71 50.4898L1423.71 50.4898ZM1423.71 38.6098L1423.71 32.6698L1421.71 32.6698L1421.71 38.6098L1423.71 38.6098ZM1423.71 26.7298L1423.71 20.7898L1421.71 20.7898L1421.71 26.7298L1423.71 26.7298ZM1423.71 14.8498L1423.71 8.90979L1421.71 8.90979L1421.71 14.8498L1423.71 14.8498ZM1423.71 2.96979L1423.71 8.74228e-08L1421.71 -8.74228e-08L1421.71 2.96979L1423.71 2.96979ZM1422.71 -1L1419.73 -1L1419.73 1L1422.71 1L1422.71 -1ZM1413.76 -1L1407.79 -1L1407.79 0.999999L1413.76 0.999999L1413.76 -1ZM1401.82 -1L1395.86 -1L1395.86 0.999998L1401.82 0.999998L1401.82 -1ZM1389.89 -1L1383.92 -1L1383.92 0.999997L1389.89 0.999997L1389.89 -1ZM1377.96 -1L1371.99 -1L1371.99 0.999996L1377.96 0.999996L1377.96 -1ZM1366.02 -1L1360.06 -1.00001L1360.06 0.999995L1366.02 0.999995L1366.02 -1ZM1354.09 -1.00001L1348.12 -1.00001L1348.12 0.999993L1354.09 0.999994L1354.09 -1.00001ZM1342.16 -1.00001L1336.19 -1.00001L1336.19 0.999992L1342.16 0.999993L1342.16 -1.00001ZM1330.22 -1.00001L1324.26 -1.00001L1324.26 0.999991L1330.22 0.999992L1330.22 -1.00001ZM1318.29 -1.00001L1312.32 -1.00001L1312.32 0.99999L1318.29 0.999991L1318.29 -1.00001ZM1306.36 -1.00001L1300.39 -1.00001L1300.39 0.999989L1306.36 0.99999L1306.36 -1.00001ZM1294.42 -1.00001L1288.46 -1.00001L1288.46 0.999988L1294.42 0.999989L1294.42 -1.00001ZM1282.49 -1.00001L1276.52 -1.00001L1276.52 0.999987L1282.49 0.999988L1282.49 -1.00001ZM1270.56 -1.00001L1264.59 -1.00001L1264.59 0.999986L1270.56 0.999987L1270.56 -1.00001ZM1258.62 -1.00001L1252.66 -1.00001L1252.66 0.999985L1258.62 0.999986L1258.62 -1.00001ZM1246.69 -1.00002L1240.72 -1.00002L1240.72 0.999984L1246.69 0.999985L1246.69 -1.00002ZM1234.76 -1.00002L1228.79 -1.00002L1228.79 0.999983L1234.76 0.999984L1234.76 -1.00002ZM1222.82 -1.00002L1216.86 -1.00002L1216.86 0.999982L1222.82 0.999983L1222.82 -1.00002ZM1210.89 -1.00002L1204.92 -1.00002L1204.92 0.999981L1210.89 0.999981L1210.89 -1.00002ZM1198.96 -1.00002L1192.99 -1.00002L1192.99 0.99998L1198.96 0.99998L1198.96 -1.00002ZM1187.02 -1.00002L1181.06 -1.00002L1181.06 0.999979L1187.02 0.999979L1187.02 -1.00002ZM1175.09 -1.00002L1169.12 -1.00002L1169.12 0.999978L1175.09 0.999978L1175.09 -1.00002ZM1163.16 -1.00002L1157.19 -1.00002L1157.19 0.999977L1163.16 0.999977L1163.16 -1.00002ZM1151.22 -1.00002L1145.26 -1.00002L1145.26 0.999976L1151.22 0.999976L1151.22 -1.00002ZM1139.29 -1.00002L1133.32 -1.00003L1133.32 0.999975L1139.29 0.999975L1139.29 -1.00002ZM1127.36 -1.00003L1121.39 -1.00003L1121.39 0.999974L1127.36 0.999974L1127.36 -1.00003ZM1115.42 -1.00003L1109.45 -1.00003L1109.45 0.999973L1115.42 0.999973L1115.42 -1.00003ZM1103.49 -1.00003L1097.52 -1.00003L1097.52 0.999972L1103.49 0.999972L1103.49 -1.00003ZM1091.55 -1.00003L1085.59 -1.00003L1085.59 0.999971L1091.55 0.999971L1091.55 -1.00003ZM1079.62 -1.00003L1073.65 -1.00003L1073.65 0.999969L1079.62 0.99997L1079.62 -1.00003ZM1067.69 -1.00003L1061.72 -1.00003L1061.72 0.999968L1067.69 0.999969L1067.69 -1.00003ZM1055.75 -1.00003L1049.79 -1.00003L1049.79 0.999967L1055.75 0.999968L1055.75 -1.00003ZM1043.82 -1.00003L1037.85 -1.00003L1037.85 0.999966L1043.82 0.999967L1043.82 -1.00003ZM1031.89 -1.00003L1025.92 -1.00003L1025.92 0.999965L1031.89 0.999966L1031.89 -1.00003ZM1019.95 -1.00004L1013.99 -1.00004L1013.99 0.999964L1019.95 0.999965L1019.95 -1.00004ZM1008.02 -1.00004L1002.05 -1.00004L1002.05 0.999963L1008.02 0.999964L1008.02 -1.00004ZM996.087 -1.00004L990.12 -1.00004L990.12 0.999962L996.087 0.999963L996.087 -1.00004ZM984.153 -1.00004L978.187 -1.00004L978.187 0.999961L984.153 0.999962L984.153 -1.00004ZM972.22 -1.00004L966.253 -1.00004L966.253 0.99996L972.22 0.999961L972.22 -1.00004ZM960.286 -1.00004L954.32 -1.00004L954.32 0.999959L960.286 0.99996L960.286 -1.00004ZM948.353 -1.00004L942.386 -1.00004L942.386 0.999958L948.353 0.999959L948.353 -1.00004ZM936.42 -1.00004L930.453 -1.00004L930.453 0.999957L936.42 0.999957L936.42 -1.00004ZM924.486 -1.00004L918.519 -1.00004L918.519 0.999956L924.486 0.999956L924.486 -1.00004ZM912.553 -1.00004L906.586 -1.00005L906.586 0.999955L912.553 0.999955L912.553 -1.00004ZM900.619 -1.00005L894.652 -1.00005L894.652 0.999954L900.619 0.999954L900.619 -1.00005ZM888.686 -1.00005L882.719 -1.00005L882.719 0.999953L888.686 0.999953L888.686 -1.00005ZM876.752 -1.00005L870.785 -1.00005L870.785 0.999952L876.752 0.999952L876.752 -1.00005ZM864.819 -1.00005L858.852 -1.00005L858.852 0.999951L864.819 0.999951L864.819 -1.00005ZM852.885 -1.00005L846.918 -1.00005L846.918 0.99995L852.885 0.99995L852.885 -1.00005ZM840.952 -1.00005L834.985 -1.00005L834.985 0.999949L840.952 0.999949L840.952 -1.00005ZM829.018 -1.00005L823.052 -1.00005L823.052 0.999948L829.018 0.999948L829.018 -1.00005ZM817.085 -1.00005L811.118 -1.00005L811.118 0.999947L817.085 0.999947L817.085 -1.00005ZM805.151 -1.00005L799.185 -1.00005L799.185 0.999945L805.151 0.999946L805.151 -1.00005ZM793.218 -1.00006L787.251 -1.00006L787.251 0.999944L793.218 0.999945L793.218 -1.00006ZM781.284 -1.00006L775.318 -1.00006L775.318 0.999943L781.284 0.999944L781.284 -1.00006ZM769.351 -1.00006L763.384 -1.00006L763.384 0.999942L769.351 0.999943L769.351 -1.00006ZM757.417 -1.00006L751.451 -1.00006L751.451 0.999941L757.417 0.999942L757.417 -1.00006ZM745.484 -1.00006L739.517 -1.00006L739.517 0.99994L745.484 0.999941L745.484 -1.00006ZM733.55 -1.00006L727.584 -1.00006L727.584 0.999939L733.55 0.99994L733.55 -1.00006ZM721.617 -1.00006L715.65 -1.00006L715.65 0.999938L721.617 0.999939L721.617 -1.00006ZM709.684 -1.00006L703.717 -1.00006L703.717 0.999937L709.684 0.999938L709.684 -1.00006ZM697.75 -1.00006L691.783 -1.00006L691.783 0.999936L697.75 0.999937L697.75 -1.00006ZM685.817 -1.00006L679.85 -1.00006L679.85 0.999935L685.817 0.999936L685.817 -1.00006ZM673.883 -1.00007L667.916 -1.00007L667.916 0.999934L673.883 0.999935L673.883 -1.00007ZM661.95 -1.00007L655.983 -1.00007L655.983 0.999933L661.95 0.999933L661.95 -1.00007ZM650.016 -1.00007L644.049 -1.00007L644.049 0.999932L650.016 0.999932L650.016 -1.00007ZM638.083 -1.00007L632.116 -1.00007L632.116 0.999931L638.083 0.999931L638.083 -1.00007ZM626.149 -1.00007L620.182 -1.00007L620.182 0.99993L626.149 0.99993L626.149 -1.00007ZM614.216 -1.00007L608.249 -1.00007L608.249 0.999929L614.216 0.999929L614.216 -1.00007ZM602.282 -1.00007L596.316 -1.00007L596.316 0.999928L602.282 0.999928L602.282 -1.00007ZM590.349 -1.00007L584.382 -1.00007L584.382 0.999927L590.349 0.999927L590.349 -1.00007ZM578.415 -1.00007L572.449 -1.00007L572.449 0.999926L578.415 0.999926L578.415 -1.00007ZM566.482 -1.00007L560.515 -1.00008L560.515 0.999925L566.482 0.999925L566.482 -1.00007ZM554.548 -1.00008L548.582 -1.00008L548.582 0.999924L554.548 0.999924L554.548 -1.00008ZM542.615 -1.00008L536.648 -1.00008L536.648 0.999923L542.615 0.999923L542.615 -1.00008ZM530.681 -1.00008L524.715 -1.00008L524.715 0.999921L530.681 0.999922L530.681 -1.00008ZM518.748 -1.00008L512.781 -1.00008L512.781 0.99992L518.748 0.999921L518.748 -1.00008ZM506.815 -1.00008L500.848 -1.00008L500.848 0.999919L506.815 0.99992L506.815 -1.00008ZM494.881 -1.00008L488.914 -1.00008L488.914 0.999918L494.881 0.999919L494.881 -1.00008ZM482.948 -1.00008L476.981 -1.00008L476.981 0.999917L482.948 0.999918L482.948 -1.00008ZM471.014 -1.00008L465.047 -1.00008L465.047 0.999916L471.014 0.999917L471.014 -1.00008ZM459.081 -1.00008L453.114 -1.00008L453.114 0.999915L459.081 0.999916L459.081 -1.00008ZM447.147 -1.00009L441.18 -1.00009L441.18 0.999914L447.147 0.999915L447.147 -1.00009ZM435.214 -1.00009L429.247 -1.00009L429.247 0.999913L435.214 0.999914L435.214 -1.00009ZM423.28 -1.00009L417.313 -1.00009L417.313 0.999912L423.28 0.999913L423.28 -1.00009ZM411.347 -1.00009L405.38 -1.00009L405.38 0.999911L411.347 0.999912L411.347 -1.00009ZM399.413 -1.00009L393.446 -1.00009L393.446 0.99991L399.413 0.999911L399.413 -1.00009ZM387.48 -1.00009L384.496 -1.00009L384.496 0.999909L387.48 0.999909L387.48 -1.00009ZM384.496 -1.00009C384.382 -1.00009 384.268 -0.999786 384.154 -0.999175L384.165 1.00082C384.275 1.00021 384.386 0.999909 384.496 0.999909L384.496 -1.00009ZM383.47 -0.991668C383.356 -0.989776 383.242 -0.987579 383.128 -0.985076L383.172 1.01444C383.282 1.01199 383.393 1.00992 383.503 1.00809L383.47 -0.991668ZM383.158 -0.98532C382.839 -0.987762 382.52 -0.989898 382.2 -0.99179L382.189 1.00821C382.507 1.01004 382.825 1.01218 383.143 1.01468L383.158 -0.98532ZM380.285 -0.999176C379.966 -0.999786 379.646 -1.00009 379.327 -1.00009L379.327 0.999909C379.645 0.999909 379.963 1.00021 380.281 1.00082L380.285 -0.999176ZM379.327 -1.00009C378.31 -1.00009 377.293 -0.996979 376.278 -0.990692L376.29 1.00925C377.301 1.00302 378.314 0.999909 379.327 0.999909L379.327 -1.00009ZM370.196 -0.915741C368.172 -0.878388 366.153 -0.828584 364.138 -0.76645L364.199 1.23263C366.206 1.17075 368.218 1.12112 370.233 1.08389L370.196 -0.915741ZM358.084 -0.542451C356.053 -0.454683 354.027 -0.354464 352.004 -0.241854L352.116 1.75503C354.129 1.64285 356.148 1.54306 358.17 1.45572L358.084 -0.542451ZM345.951 0.133146C343.936 0.270658 341.925 0.420438 339.919 0.582547L340.08 2.57602C342.078 2.41464 344.08 2.26541 346.087 2.12851L345.951 0.133146ZM333.851 1.11117C331.833 1.29983 329.82 1.50088 327.812 1.7142L328.024 3.70303C330.023 3.49057 332.028 3.29037 334.037 3.1025L333.851 1.11117ZM321.804 2.39102C319.784 2.63143 317.77 2.8843 315.761 3.1495L316.023 5.13229C318.023 4.86819 320.029 4.61642 322.04 4.37698L321.804 2.39102ZM309.747 3.98269C307.748 4.27273 305.754 4.57504 303.766 4.88949L304.078 6.86495C306.058 6.55178 308.043 6.25076 310.034 5.962L309.747 3.98269ZM297.762 5.87893C295.763 6.2217 293.769 6.57681 291.782 6.94418L292.146 8.91085C294.124 8.54507 296.109 8.19149 298.1 7.85018L297.762 5.87893ZM285.838 8.08285C283.846 8.47793 281.86 8.88534 279.881 9.30495L280.296 11.2615C282.267 10.8437 284.244 10.438 286.227 10.0446L285.838 8.08285ZM273.946 10.604C271.974 11.0493 270.009 11.5067 268.05 11.9762L268.517 13.9212C270.467 13.4537 272.423 12.9983 274.387 12.555L273.946 10.604ZM262.148 13.4329C260.181 13.9322 258.221 14.4437 256.268 14.9674L256.787 16.8992C258.731 16.3778 260.682 15.8685 262.64 15.3714L262.148 13.4329ZM250.432 16.5747C248.478 17.1269 246.532 17.6913 244.593 18.2678L245.163 20.1848C247.093 19.611 249.031 19.0491 250.976 18.4993L250.432 16.5747ZM238.78 20.0393C236.851 20.6419 234.929 21.2566 233.015 21.8831L233.637 23.7839C235.542 23.1602 237.455 22.5483 239.377 21.9484L238.78 20.0393ZM227.249 23.8148C225.329 24.4727 223.418 25.1427 221.515 25.8247L222.189 27.7074C224.084 27.0286 225.986 26.3617 227.897 25.7067L227.249 23.8148ZM215.831 27.9063C213.928 28.6184 212.034 29.3426 210.148 30.0787L210.876 31.9417C212.752 31.2091 214.638 30.4882 216.532 29.7794L215.831 27.9063ZM204.506 32.3281C202.634 33.0898 200.771 33.8634 198.918 34.6486L199.698 36.4902C201.543 35.7086 203.397 34.9387 205.26 34.1806L204.506 32.3281ZM193.329 37.0643C191.473 37.8825 189.627 38.7125 187.791 39.5543L188.624 41.3724C190.451 40.5346 192.289 39.7086 194.136 38.8943L193.329 37.0643ZM182.311 42.115C180.473 42.9902 178.645 43.8772 176.828 44.776L177.715 46.5687C179.523 45.6743 181.342 44.7916 183.17 43.9207L182.311 42.115ZM171.408 47.5076C169.609 48.4315 167.82 49.3671 166.042 50.3142L166.982 52.0795C168.751 51.1371 170.531 50.2061 172.322 49.2868L171.408 47.5076ZM160.688 53.2182C158.915 54.1978 157.153 55.1891 155.402 56.1918L156.396 57.9274C158.138 56.9298 159.891 55.9436 161.655 54.9688L160.688 53.2182ZM150.162 59.247C148.414 60.2846 146.678 61.3338 144.953 62.3944L146.001 64.0979C147.716 63.0429 149.444 61.9991 151.183 60.9669L150.162 59.247ZM139.816 65.6104C138.105 66.7011 136.405 67.8032 134.719 68.9166L135.82 70.5858C137.498 69.4783 139.189 68.382 140.891 67.2971L139.816 65.6104ZM129.671 72.3073C128.002 73.4489 126.345 74.6017 124.701 75.7656L125.857 77.3978C127.492 76.2402 129.14 75.0937 130.8 73.9583L129.671 72.3073ZM119.762 79.3251C118.126 80.525 116.504 81.7363 114.895 82.9585L116.105 84.551C117.705 83.3356 119.318 82.1311 120.945 80.9378L119.762 79.3251ZM110.104 86.6636C108.504 87.9222 106.919 89.1919 105.349 90.4726L106.613 92.0226C108.174 90.7492 109.75 89.4867 111.34 88.2353L110.104 86.6636ZM100.681 94.3477C99.1318 95.6567 97.5975 96.9767 96.0782 98.3075L97.396 99.8119C98.9063 98.489 100.432 97.1767 101.972 95.8753L100.681 94.3477ZM91.5376 102.357C90.0395 103.718 88.5568 105.09 87.0896 106.472L88.4611 107.928C89.9194 106.554 91.3932 105.191 92.8824 103.838L91.5376 102.357ZM82.6982 110.686C81.2471 112.105 79.8122 113.535 78.3937 114.974L79.8184 116.378C81.2281 114.947 82.6542 113.527 84.0964 112.117L82.6982 110.686ZM74.1805 119.333C72.7804 120.809 71.3975 122.296 70.0317 123.793L71.5092 125.141C72.8663 123.653 74.2404 122.176 75.6316 120.709L74.1805 119.333ZM65.9862 128.315C64.6476 129.841 63.3266 131.377 62.0235 132.924L63.5529 134.212C64.8475 132.676 66.1598 131.15 67.4898 129.633L65.9862 128.315ZM58.1517 137.613C56.8792 139.187 55.625 140.77 54.3894 142.363L55.9698 143.589C57.1971 142.007 58.4428 140.434 59.7067 138.871L58.1517 137.613ZM50.705 147.217C49.4959 148.845 48.3058 150.482 47.135 152.13L48.7653 153.288C49.9279 151.652 51.1097 150.026 52.3106 148.41L50.705 147.217ZM43.6683 157.119C42.5271 158.799 41.4059 160.489 40.3048 162.189L41.9833 163.276C43.0765 161.589 44.1897 159.911 45.3228 158.243L43.6683 157.119ZM37.0622 167.315C35.9945 169.045 34.9475 170.784 33.9214 172.532L35.6463 173.544C36.6648 171.809 37.7041 170.083 38.7641 168.366L37.0622 167.315ZM30.9047 177.806C29.9178 179.578 28.9522 181.358 28.0081 183.148L29.777 184.081C30.714 182.305 31.6723 180.538 32.6519 178.78L30.9047 177.806ZM25.2316 188.561C24.3279 190.374 23.4463 192.196 22.5869 194.027L24.3973 194.877C25.25 193.061 26.1249 191.253 27.0216 189.453L25.2316 188.561ZM20.0656 199.566C19.2475 201.421 18.4521 203.285 17.6796 205.157L19.5284 205.92C20.2947 204.063 21.0839 202.213 21.8957 200.373L20.0656 199.566ZM15.4289 210.803C14.7007 212.696 13.9959 214.597 13.3146 216.506L15.1983 217.178C15.8739 215.285 16.5732 213.399 17.2956 211.521L15.4289 210.803ZM11.3421 222.256C10.7079 224.181 10.0977 226.115 9.51163 228.055L11.4263 228.633C12.0075 226.709 12.6128 224.791 13.2417 222.881L11.3421 222.256ZM7.82633 233.898C7.28922 235.852 6.77664 237.813 6.28861 239.781L8.22989 240.262C8.71378 238.311 9.22208 236.366 9.75479 234.429L7.82633 233.898ZM4.90005 245.7C4.46207 247.68 4.04886 249.667 3.66104 251.66L5.62418 252.042C6.00882 250.066 6.41849 248.096 6.85281 246.132L4.90005 245.7ZM2.57669 257.636C2.24051 259.634 1.92947 261.639 1.64395 263.65L3.62417 263.931C3.90726 261.937 4.21561 259.949 4.54898 257.968L2.57669 257.636ZM0.866606 269.679C0.633695 271.689 0.426298 273.704 0.244413 275.725L2.23648 275.904C2.41665 273.9 2.62234 271.902 2.8533 269.909L0.866606 269.679ZM-0.223361 281.803C-0.35239 283.817 -0.455906 285.836 -0.533665 287.859L1.46487 287.936C1.54202 285.929 1.64456 283.928 1.77249 281.931L-0.223361 281.803ZM-0.689427 293.946C-0.702489 294.963 -0.708958 295.981 -0.708958 297L1.29104 297C1.29104 295.989 1.29751 294.98 1.31045 293.972L-0.689427 293.946ZM-0.708958 297C-0.708958 298.019 -0.702489 299.037 -0.689427 300.054L1.31045 300.029C1.29751 299.02 1.29104 298.011 1.29104 297L-0.708958 297ZM-0.533544 306.141C-0.455786 308.165 -0.352392 310.183 -0.223364 312.197L1.77249 312.069C1.64468 310.073 1.54202 308.071 1.46487 306.064L-0.533544 306.141ZM0.244531 318.275C0.426293 320.296 0.633813 322.311 0.866723 324.321L2.85342 324.091C2.62246 322.098 2.41677 320.1 2.23647 318.096L0.244531 318.275ZM1.64407 330.351C1.92959 332.361 2.2405 334.366 2.5768 336.364L4.54909 336.032C4.21572 334.051 3.90725 332.063 3.62417 330.069L1.64407 330.351ZM3.66103 342.34C4.04897 344.333 4.46206 346.32 4.90017 348.3L6.85293 347.868C6.4186 345.904 6.00893 343.935 5.62417 341.958L3.66103 342.34ZM6.28872 354.219C6.77663 356.187 7.28933 358.148 7.82644 360.102L9.7549 359.572C9.22219 357.634 8.71389 355.689 8.22988 353.738L6.28872 354.219ZM9.51174 365.945C10.0978 367.886 10.7081 369.819 11.3423 371.744L13.2418 371.119C12.6129 369.209 12.0076 367.292 11.4264 365.367L9.51174 365.945ZM13.3147 377.494C13.996 379.403 14.7008 381.304 15.429 383.197L17.2957 382.479C16.5733 380.601 15.8742 378.715 15.1984 376.822L13.3147 377.494ZM17.6798 388.843C18.4522 390.715 19.2477 392.579 20.0658 394.434L21.8958 393.627C21.084 391.787 20.2949 389.938 19.5286 388.081L17.6798 388.843ZM22.5871 399.973C23.4464 401.804 24.3281 403.626 25.2317 405.439L27.0217 404.547C26.125 402.747 25.2501 400.94 24.3974 399.123L22.5871 399.973ZM28.0083 410.852C28.9523 412.642 29.918 414.422 30.9048 416.194L32.652 415.22C31.6725 413.462 30.7141 411.695 29.7772 409.919L28.0083 410.852ZM33.9216 421.468C34.9476 423.216 35.9946 424.955 37.0624 426.685L38.7642 425.634C37.7044 423.917 36.6649 422.191 35.6465 420.456L33.9216 421.468ZM40.3049 431.811C41.406 433.511 42.5274 435.201 43.6685 436.881L45.323 435.757C44.19 434.089 43.0767 432.411 41.9834 430.724L40.3049 431.811ZM47.1353 441.87C48.3059 443.518 49.496 445.155 50.7052 446.783L52.3107 445.59C51.1099 443.974 49.928 442.348 48.7654 440.712L47.1353 441.87ZM54.3895 451.637C55.6253 453.23 56.8794 454.813 58.1519 456.387L59.7069 455.129C58.443 453.566 57.1973 451.993 55.97 450.411L54.3895 451.637ZM62.0237 461.076C63.3268 462.623 64.6478 464.159 65.9865 465.685L67.49 464.367C66.16 462.85 64.8477 461.324 63.5531 459.788L62.0237 461.076ZM70.0319 470.207C71.3977 471.704 72.7807 473.191 74.1807 474.667L75.6318 473.291C74.2406 471.824 72.8665 470.347 71.5094 468.859L70.0319 470.207ZM78.3939 479.026C79.8124 480.465 81.2473 481.895 82.6984 483.314L84.0966 481.883C82.6544 480.473 81.2283 479.053 79.8186 477.622L78.3939 479.026ZM87.0899 487.528C88.557 488.91 90.0397 490.282 91.5379 491.643L92.8826 490.162C91.3933 488.809 89.9196 487.446 88.4613 486.072L87.0899 487.528ZM96.0784 495.693C97.5977 497.023 99.132 498.343 100.681 499.652L101.972 498.125C100.432 496.823 98.9065 495.511 97.3962 494.188L96.0784 495.693ZM105.349 503.527C106.92 504.808 108.505 506.078 110.104 507.336L111.341 505.765C109.75 504.513 108.174 503.251 106.613 501.977L105.349 503.527ZM114.895 511.041C116.504 512.264 118.127 513.475 119.763 514.675L120.945 513.062C119.318 511.869 117.705 510.664 116.105 509.449L114.895 511.041ZM124.702 518.234C126.345 519.398 128.002 520.551 129.672 521.693L130.801 520.042C129.14 518.906 127.492 517.76 125.857 516.602L124.702 518.234ZM134.719 525.083C136.406 526.197 138.105 527.299 139.817 528.39L140.891 526.703C139.189 525.618 137.498 524.522 135.821 523.414L134.719 525.083ZM144.953 531.606C146.678 532.666 148.414 533.715 150.162 534.753L151.183 533.033C149.444 532.001 147.717 530.957 146.001 529.902L144.953 531.606ZM155.402 537.808C157.153 538.811 158.915 539.802 160.689 540.782L161.656 539.031C159.891 538.056 158.138 537.07 156.396 536.073L155.402 537.808ZM166.042 543.686C167.82 544.633 169.609 545.568 171.409 546.492L172.322 544.713C170.531 543.794 168.751 542.863 166.982 541.92L166.042 543.686ZM176.829 549.224C178.646 550.123 180.473 551.01 182.311 551.885L183.171 550.079C181.342 549.208 179.524 548.326 177.715 547.431L176.829 549.224ZM187.791 554.446C189.627 555.287 191.473 556.117 193.329 556.936L194.136 555.106C192.289 554.291 190.452 553.465 188.624 552.628L187.791 554.446ZM198.918 559.351C200.771 560.137 202.634 560.91 204.506 561.672L205.26 559.819C203.397 559.061 201.543 558.291 199.698 557.51L198.918 559.351ZM210.149 563.921C212.034 564.657 213.929 565.382 215.832 566.094L216.533 564.221C214.638 563.512 212.753 562.791 210.876 562.058L210.149 563.921ZM221.515 568.175C223.418 568.857 225.329 569.527 227.249 570.185L227.897 568.293C225.987 567.638 224.084 566.971 222.19 566.293L221.515 568.175ZM233.015 572.117C234.929 572.743 236.851 573.358 238.781 573.961L239.377 572.051C237.456 571.452 235.542 570.84 233.637 570.216L233.015 572.117ZM244.593 575.732C246.532 576.309 248.479 576.873 250.432 577.425L250.976 575.501C249.031 574.951 247.094 574.389 245.163 573.815L244.593 575.732ZM256.269 579.032C258.222 579.556 260.181 580.068 262.148 580.567L262.64 578.629C260.682 578.131 258.731 577.622 256.787 577.101L256.269 579.032ZM268.051 582.024C270.009 582.493 271.974 582.951 273.946 583.396L274.387 581.445C272.424 581.002 270.467 580.546 268.517 580.079L268.051 582.024ZM279.881 584.695C281.861 585.115 283.847 585.522 285.839 585.917L286.228 583.955C284.244 583.562 282.267 583.156 280.296 582.738L279.881 584.695ZM291.782 587.056C293.77 587.423 295.763 587.778 297.762 588.121L298.1 586.15C296.109 585.808 294.125 585.455 292.146 585.089L291.782 587.056ZM303.766 589.11C305.754 589.425 307.748 589.727 309.747 590.017L310.034 588.038C308.044 587.749 306.058 587.448 304.078 587.135L303.766 589.11ZM315.761 590.85C317.77 591.116 319.785 591.368 321.804 591.609L322.041 589.623C320.029 589.383 318.024 589.132 316.023 588.868L315.761 590.85ZM327.813 592.286C329.821 592.499 331.833 592.7 333.851 592.889L334.037 590.897C332.028 590.709 330.024 590.509 328.024 590.297L327.813 592.286ZM339.919 593.417C341.925 593.579 343.936 593.729 345.952 593.867L346.088 591.871C344.081 591.734 342.078 591.585 340.08 591.424L339.919 593.417ZM352.005 594.242C354.027 594.354 356.053 594.455 358.084 594.542L358.171 592.544C356.148 592.457 354.13 592.357 352.116 592.245L352.005 594.242ZM364.138 594.766C366.153 594.828 368.173 594.878 370.196 594.916L370.233 592.916C368.218 592.879 366.207 592.829 364.199 592.767L364.138 594.766ZM376.278 594.991C377.293 594.997 378.31 595 379.327 595L379.327 593C378.314 593 377.302 592.997 376.29 592.991L376.278 594.991ZM379.327 595C379.646 595 379.965 595 380.285 594.999L380.281 592.999C379.963 593 379.645 593 379.327 593L379.327 595ZM382.2 594.992C382.52 594.99 382.839 594.988 383.158 594.985L383.143 592.985C382.825 592.988 382.507 592.99 382.189 592.992L382.2 594.992ZM383.128 594.985C383.242 594.987 383.356 594.99 383.47 594.991L383.503 592.992C383.393 592.99 383.282 592.988 383.172 592.985L383.128 594.985ZM384.154 594.999C384.268 595 384.382 595 384.496 595L384.496 593C384.386 593 384.275 593 384.165 592.999L384.154 594.999ZM384.496 595L387.479 595L387.479 593L384.496 593L384.496 595ZM393.446 595L399.413 595L399.413 593L393.446 593L393.446 595ZM405.38 595L411.346 595L411.346 593L405.38 593L405.38 595ZM417.313 595L423.28 595L423.28 593L417.313 593L417.313 595ZM429.247 595L435.213 595L435.213 593L429.247 593L429.247 595ZM441.18 595L447.147 595L447.147 593L441.18 593L441.18 595ZM453.114 595L459.08 595L459.08 593L453.114 593L453.114 595ZM465.047 595L471.014 595L471.014 593L465.047 593L465.047 595ZM476.981 595L482.947 595L482.947 593L476.981 593L476.981 595ZM488.914 595L494.881 595L494.881 593L488.914 593L488.914 595ZM500.847 595L506.814 595L506.814 593L500.847 593L500.847 595ZM512.781 595L518.748 595L518.748 593L512.781 593L512.781 595ZM524.714 595L530.681 595L530.681 593L524.714 593L524.714 595ZM536.648 595L542.615 595L542.615 593L536.648 593L536.648 595ZM548.581 595L554.548 595L554.548 593L548.581 593L548.581 595ZM560.515 595L566.482 595L566.482 593L560.515 593L560.515 595ZM572.448 595L578.415 595L578.415 593L572.448 593L572.448 595ZM584.382 595L590.349 595L590.349 593L584.382 593L584.382 595ZM596.315 595L602.282 595L602.282 593L596.315 593L596.315 595ZM608.249 595L614.215 595L614.215 593L608.249 593L608.249 595ZM620.182 595L626.149 595L626.149 593L620.182 593L620.182 595ZM632.116 595L638.082 595L638.082 593L632.116 593L632.116 595ZM644.049 595L650.016 595L650.016 593L644.049 593L644.049 595ZM655.983 595L661.949 595L661.949 593L655.983 593L655.983 595ZM667.916 595L673.883 595L673.883 593L667.916 593L667.916 595ZM679.85 595L685.816 595L685.816 593L679.85 593L679.85 595ZM691.783 595L697.75 595L697.75 593L691.783 593L691.783 595ZM703.716 595L709.683 595L709.683 593L703.716 593L703.716 595ZM715.65 595L721.617 595L721.617 593L715.65 593L715.65 595ZM727.583 595L733.55 595L733.55 593L727.583 593L727.583 595ZM739.517 595L745.484 595L745.484 593L739.517 593L739.517 595ZM751.45 595L757.417 595L757.417 593L751.45 593L751.45 595ZM763.384 595L769.351 595L769.351 593L763.384 593L763.384 595ZM775.317 595L781.284 595L781.284 593L775.317 593L775.317 595ZM787.251 595L793.218 595L793.218 593L787.251 593L787.251 595ZM799.184 595L805.151 595L805.151 593L799.184 593L799.184 595ZM811.118 595L817.084 595L817.084 593L811.118 593L811.118 595ZM823.051 595L829.018 595L829.018 593L823.051 593L823.051 595ZM834.985 595L840.951 595L840.951 593L834.985 593L834.985 595ZM846.918 595L852.885 595L852.885 593L846.918 593L846.918 595ZM858.852 595L864.818 595L864.818 593L858.852 593L858.852 595ZM870.785 595L876.752 595L876.752 593L870.785 593L870.785 595ZM882.719 595L888.685 595L888.685 593L882.719 593L882.719 595ZM894.652 595L900.619 595L900.619 593L894.652 593L894.652 595ZM906.586 595L912.552 595L912.552 593L906.586 593L906.586 595ZM918.519 595L924.486 595L924.486 593L918.519 593L918.519 595ZM930.452 595L936.419 595L936.419 593L930.452 593L930.452 595ZM942.386 595L948.353 595L948.353 593L942.386 593L942.386 595ZM954.319 595L960.286 595L960.286 593L954.319 593L954.319 595ZM966.253 595L972.22 595L972.22 593L966.253 593L966.253 595ZM978.186 595L984.153 595L984.153 593L978.186 593L978.186 595ZM990.12 595L996.087 595L996.087 593L990.12 593L990.12 595ZM1002.05 595L1008.02 595L1008.02 593L1002.05 593L1002.05 595ZM1013.99 595L1019.95 595L1019.95 593L1013.99 593L1013.99 595ZM1025.92 595L1031.89 595L1031.89 593L1025.92 593L1025.92 595ZM1037.85 595L1043.82 595L1043.82 593L1037.85 593L1037.85 595ZM1049.79 595L1055.75 595L1055.75 593L1049.79 593L1049.79 595ZM1061.72 595L1067.69 595L1067.69 593L1061.72 593L1061.72 595ZM1073.65 595L1079.62 595L1079.62 593L1073.65 593L1073.65 595ZM1085.59 595L1091.55 595L1091.55 593L1085.59 593L1085.59 595ZM1097.52 595L1103.49 595L1103.49 593L1097.52 593L1097.52 595ZM1109.45 595L1115.42 595L1115.42 593L1109.45 593L1109.45 595ZM1121.39 595L1127.35 595L1127.35 593L1121.39 593L1121.39 595ZM1133.32 595L1139.29 595L1139.29 593L1133.32 593L1133.32 595ZM1145.25 595L1151.22 595L1151.22 593L1145.25 593L1145.25 595ZM1157.19 595L1163.16 595L1163.16 593L1157.19 593L1157.19 595ZM1169.12 595L1175.09 595L1175.09 593L1169.12 593L1169.12 595ZM1181.06 595L1187.02 595L1187.02 593L1181.06 593L1181.06 595ZM1192.99 595L1198.96 595L1198.96 593L1192.99 593L1192.99 595ZM1204.92 595L1210.89 595L1210.89 593L1204.92 593L1204.92 595ZM1216.86 595L1222.82 595L1222.82 593L1216.86 593L1216.86 595ZM1228.79 595L1234.76 595L1234.76 593L1228.79 593L1228.79 595ZM1240.72 595L1246.69 595L1246.69 593L1240.72 593L1240.72 595ZM1252.66 595L1258.62 595L1258.62 593L1252.66 593L1252.66 595ZM1264.59 595L1270.56 595L1270.56 593L1264.59 593L1264.59 595ZM1276.52 595L1282.49 595L1282.49 593L1276.52 593L1276.52 595ZM1288.46 595L1294.42 595L1294.42 593L1288.46 593L1288.46 595ZM1300.39 595L1306.36 595L1306.36 593L1300.39 593L1300.39 595ZM1312.32 595L1318.29 595L1318.29 593L1312.32 593L1312.32 595ZM1324.26 595L1330.22 595L1330.22 593L1324.26 593L1324.26 595ZM1336.19 595L1342.16 595L1342.16 593L1336.19 593L1336.19 595ZM1348.12 595L1354.09 595L1354.09 593L1348.12 593L1348.12 595ZM1360.06 595L1366.02 595L1366.02 593L1360.06 593L1360.06 595ZM1371.99 595L1377.96 595L1377.96 593L1371.99 593L1371.99 595ZM1383.92 595L1389.89 595L1389.89 593L1383.92 593L1383.92 595ZM1395.86 595L1401.82 595L1401.82 593L1395.86 593L1395.86 595ZM1407.79 595L1413.76 595L1413.76 593L1407.79 593L1407.79 595ZM1419.72 595L1422.71 595L1422.71 593L1419.72 593L1419.72 595ZM1422.71 594L1422.71 596L1424.71 596L1424.71 594L1422.71 594ZM384.496 594L384.496 596L384.496 594ZM1422.71 0L1424.71 1.74846e-07L1424.71 -2L1422.71 -2L1422.71 0ZM383.15 0.0146796L383.135 2.01462L383.164 2.01486L383.194 2.01419L383.15 0.0146796ZM383.15 593.985L383.194 591.986L383.165 591.985L383.135 591.985L383.15 593.985ZM1424.71 594L1424.71 591.03L1420.71 591.03L1420.71 594L1424.71 594ZM1424.71 585.09L1424.71 579.15L1420.71 579.15L1420.71 585.09L1424.71 585.09ZM1424.71 573.21L1424.71 567.27L1420.71 567.27L1420.71 573.21L1424.71 573.21ZM1424.71 561.33L1424.71 555.39L1420.71 555.39L1420.71 561.33L1424.71 561.33ZM1424.71 549.45L1424.71 543.51L1420.71 543.51L1420.71 549.45L1424.71 549.45ZM1424.71 537.57L1424.71 531.63L1420.71 531.63L1420.71 537.57L1424.71 537.57ZM1424.71 525.69L1424.71 519.75L1420.71 519.75L1420.71 525.69L1424.71 525.69ZM1424.71 513.81L1424.71 507.87L1420.71 507.87L1420.71 513.81L1424.71 513.81ZM1424.71 501.93L1424.71 495.99L1420.71 495.99L1420.71 501.93L1424.71 501.93ZM1424.71 490.05L1424.71 484.11L1420.71 484.11L1420.71 490.05L1424.71 490.05ZM1424.71 478.17L1424.71 472.23L1420.71 472.23L1420.71 478.17L1424.71 478.17ZM1424.71 466.29L1424.71 460.35L1420.71 460.35L1420.71 466.29L1424.71 466.29ZM1424.71 454.41L1424.71 448.47L1420.71 448.47L1420.71 454.41L1424.71 454.41ZM1424.71 442.53L1424.71 436.59L1420.71 436.59L1420.71 442.53L1424.71 442.53ZM1424.71 430.65L1424.71 424.71L1420.71 424.71L1420.71 430.65L1424.71 430.65ZM1424.71 418.77L1424.71 412.83L1420.71 412.83L1420.71 418.77L1424.71 418.77ZM1424.71 406.89L1424.71 400.95L1420.71 400.95L1420.71 406.89L1424.71 406.89ZM1424.71 395.01L1424.71 389.07L1420.71 389.07L1420.71 395.01L1424.71 395.01ZM1424.71 383.13L1424.71 377.19L1420.71 377.19L1420.71 383.13L1424.71 383.13ZM1424.71 371.25L1424.71 365.31L1420.71 365.31L1420.71 371.25L1424.71 371.25ZM1424.71 359.37L1424.71 353.43L1420.71 353.43L1420.71 359.37L1424.71 359.37ZM1424.71 347.49L1424.71 341.55L1420.71 341.55L1420.71 347.49L1424.71 347.49ZM1424.71 335.61L1424.71 329.67L1420.71 329.67L1420.71 335.61L1424.71 335.61ZM1424.71 323.73L1424.71 317.79L1420.71 317.79L1420.71 323.73L1424.71 323.73ZM1424.71 311.85L1424.71 305.91L1420.71 305.91L1420.71 311.85L1424.71 311.85ZM1424.71 299.97L1424.71 294.03L1420.71 294.03L1420.71 299.97L1424.71 299.97ZM1424.71 288.09L1424.71 282.15L1420.71 282.15L1420.71 288.09L1424.71 288.09ZM1424.71 276.21L1424.71 270.27L1420.71 270.27L1420.71 276.21L1424.71 276.21ZM1424.71 264.33L1424.71 258.39L1420.71 258.39L1420.71 264.33L1424.71 264.33ZM1424.71 252.45L1424.71 246.51L1420.71 246.51L1420.71 252.45L1424.71 252.45ZM1424.71 240.57L1424.71 234.63L1420.71 234.63L1420.71 240.57L1424.71 240.57ZM1424.71 228.69L1424.71 222.75L1420.71 222.75L1420.71 228.69L1424.71 228.69ZM1424.71 216.81L1424.71 210.87L1420.71 210.87L1420.71 216.81L1424.71 216.81ZM1424.71 204.93L1424.71 198.99L1420.71 198.99L1420.71 204.93L1424.71 204.93ZM1424.71 193.05L1424.71 187.11L1420.71 187.11L1420.71 193.05L1424.71 193.05ZM1424.71 181.17L1424.71 175.23L1420.71 175.23L1420.71 181.17L1424.71 181.17ZM1424.71 169.29L1424.71 163.35L1420.71 163.35L1420.71 169.29L1424.71 169.29ZM1424.71 157.41L1424.71 151.47L1420.71 151.47L1420.71 157.41L1424.71 157.41ZM1424.71 145.53L1424.71 139.59L1420.71 139.59L1420.71 145.53L1424.71 145.53ZM1424.71 133.65L1424.71 127.71L1420.71 127.71L1420.71 133.65L1424.71 133.65ZM1424.71 121.77L1424.71 115.83L1420.71 115.83L1420.71 121.77L1424.71 121.77ZM1424.71 109.89L1424.71 103.95L1420.71 103.95L1420.71 109.89L1424.71 109.89ZM1424.71 98.0098L1424.71 92.0699L1420.71 92.0699L1420.71 98.0098L1424.71 98.0098ZM1424.71 86.1298L1424.71 80.1898L1420.71 80.1898L1420.71 86.1298L1424.71 86.1298ZM1424.71 74.2498L1424.71 68.3098L1420.71 68.3098L1420.71 74.2498L1424.71 74.2498ZM1424.71 62.3698L1424.71 56.4298L1420.71 56.4298L1420.71 62.3698L1424.71 62.3698ZM1424.71 50.4898L1424.71 44.5498L1420.71 44.5498L1420.71 50.4898L1424.71 50.4898ZM1424.71 38.6098L1424.71 32.6698L1420.71 32.6698L1420.71 38.6098L1424.71 38.6098ZM1424.71 26.7298L1424.71 20.7898L1420.71 20.7898L1420.71 26.7298L1424.71 26.7298ZM1424.71 14.8498L1424.71 8.90979L1420.71 8.90979L1420.71 14.8498L1424.71 14.8498ZM1424.71 2.96979L1424.71 1.74846e-07L1420.71 -1.74846e-07L1420.71 2.96979L1424.71 2.96979ZM1422.71 -2L1419.73 -2L1419.73 2L1422.71 2L1422.71 -2ZM1413.76 -2L1407.79 -2L1407.79 2L1413.76 2L1413.76 -2ZM1401.82 -2L1395.86 -2L1395.86 2L1401.82 2L1401.82 -2ZM1389.89 -2L1383.92 -2L1383.92 2L1389.89 2L1389.89 -2ZM1377.96 -2L1371.99 -2L1371.99 2L1377.96 2L1377.96 -2ZM1366.02 -2L1360.06 -2.00001L1360.06 1.99999L1366.02 2L1366.02 -2ZM1354.09 -2.00001L1348.12 -2.00001L1348.12 1.99999L1354.09 1.99999L1354.09 -2.00001ZM1342.16 -2.00001L1336.19 -2.00001L1336.19 1.99999L1342.16 1.99999L1342.16 -2.00001ZM1330.22 -2.00001L1324.26 -2.00001L1324.26 1.99999L1330.22 1.99999L1330.22 -2.00001ZM1318.29 -2.00001L1312.32 -2.00001L1312.32 1.99999L1318.29 1.99999L1318.29 -2.00001ZM1306.36 -2.00001L1300.39 -2.00001L1300.39 1.99999L1306.36 1.99999L1306.36 -2.00001ZM1294.42 -2.00001L1288.46 -2.00001L1288.46 1.99999L1294.42 1.99999L1294.42 -2.00001ZM1282.49 -2.00001L1276.52 -2.00001L1276.52 1.99999L1282.49 1.99999L1282.49 -2.00001ZM1270.56 -2.00001L1264.59 -2.00001L1264.59 1.99999L1270.56 1.99999L1270.56 -2.00001ZM1258.62 -2.00001L1252.66 -2.00001L1252.66 1.99999L1258.62 1.99999L1258.62 -2.00001ZM1246.69 -2.00002L1240.72 -2.00002L1240.72 1.99998L1246.69 1.99998L1246.69 -2.00002ZM1234.76 -2.00002L1228.79 -2.00002L1228.79 1.99998L1234.76 1.99998L1234.76 -2.00002ZM1222.82 -2.00002L1216.86 -2.00002L1216.86 1.99998L1222.82 1.99998L1222.82 -2.00002ZM1210.89 -2.00002L1204.92 -2.00002L1204.92 1.99998L1210.89 1.99998L1210.89 -2.00002ZM1198.96 -2.00002L1192.99 -2.00002L1192.99 1.99998L1198.96 1.99998L1198.96 -2.00002ZM1187.02 -2.00002L1181.06 -2.00002L1181.06 1.99998L1187.02 1.99998L1187.02 -2.00002ZM1175.09 -2.00002L1169.12 -2.00002L1169.12 1.99998L1175.09 1.99998L1175.09 -2.00002ZM1163.16 -2.00002L1157.19 -2.00002L1157.19 1.99998L1163.16 1.99998L1163.16 -2.00002ZM1151.22 -2.00002L1145.26 -2.00002L1145.26 1.99998L1151.22 1.99998L1151.22 -2.00002ZM1139.29 -2.00002L1133.32 -2.00003L1133.32 1.99997L1139.29 1.99998L1139.29 -2.00002ZM1127.36 -2.00003L1121.39 -2.00003L1121.39 1.99997L1127.36 1.99997L1127.36 -2.00003ZM1115.42 -2.00003L1109.45 -2.00003L1109.45 1.99997L1115.42 1.99997L1115.42 -2.00003ZM1103.49 -2.00003L1097.52 -2.00003L1097.52 1.99997L1103.49 1.99997L1103.49 -2.00003ZM1091.55 -2.00003L1085.59 -2.00003L1085.59 1.99997L1091.55 1.99997L1091.55 -2.00003ZM1079.62 -2.00003L1073.65 -2.00003L1073.65 1.99997L1079.62 1.99997L1079.62 -2.00003ZM1067.69 -2.00003L1061.72 -2.00003L1061.72 1.99997L1067.69 1.99997L1067.69 -2.00003ZM1055.75 -2.00003L1049.79 -2.00003L1049.79 1.99997L1055.75 1.99997L1055.75 -2.00003ZM1043.82 -2.00003L1037.85 -2.00003L1037.85 1.99997L1043.82 1.99997L1043.82 -2.00003ZM1031.89 -2.00003L1025.92 -2.00003L1025.92 1.99997L1031.89 1.99997L1031.89 -2.00003ZM1019.95 -2.00004L1013.99 -2.00004L1013.99 1.99996L1019.95 1.99996L1019.95 -2.00004ZM1008.02 -2.00004L1002.05 -2.00004L1002.05 1.99996L1008.02 1.99996L1008.02 -2.00004ZM996.087 -2.00004L990.12 -2.00004L990.12 1.99996L996.087 1.99996L996.087 -2.00004ZM984.153 -2.00004L978.187 -2.00004L978.187 1.99996L984.153 1.99996L984.153 -2.00004ZM972.22 -2.00004L966.253 -2.00004L966.253 1.99996L972.22 1.99996L972.22 -2.00004ZM960.286 -2.00004L954.32 -2.00004L954.32 1.99996L960.286 1.99996L960.286 -2.00004ZM948.353 -2.00004L942.386 -2.00004L942.386 1.99996L948.353 1.99996L948.353 -2.00004ZM936.42 -2.00004L930.453 -2.00004L930.453 1.99996L936.42 1.99996L936.42 -2.00004ZM924.486 -2.00004L918.519 -2.00004L918.519 1.99996L924.486 1.99996L924.486 -2.00004ZM912.553 -2.00004L906.586 -2.00005L906.586 1.99995L912.553 1.99996L912.553 -2.00004ZM900.619 -2.00005L894.652 -2.00005L894.652 1.99995L900.619 1.99995L900.619 -2.00005ZM888.686 -2.00005L882.719 -2.00005L882.719 1.99995L888.686 1.99995L888.686 -2.00005ZM876.752 -2.00005L870.785 -2.00005L870.785 1.99995L876.752 1.99995L876.752 -2.00005ZM864.819 -2.00005L858.852 -2.00005L858.852 1.99995L864.819 1.99995L864.819 -2.00005ZM852.885 -2.00005L846.918 -2.00005L846.918 1.99995L852.885 1.99995L852.885 -2.00005ZM840.952 -2.00005L834.985 -2.00005L834.985 1.99995L840.952 1.99995L840.952 -2.00005ZM829.018 -2.00005L823.052 -2.00005L823.052 1.99995L829.018 1.99995L829.018 -2.00005ZM817.085 -2.00005L811.118 -2.00005L811.118 1.99995L817.085 1.99995L817.085 -2.00005ZM805.151 -2.00005L799.185 -2.00005L799.185 1.99995L805.151 1.99995L805.151 -2.00005ZM793.218 -2.00006L787.251 -2.00006L787.251 1.99994L793.218 1.99994L793.218 -2.00006ZM781.284 -2.00006L775.318 -2.00006L775.318 1.99994L781.284 1.99994L781.284 -2.00006ZM769.351 -2.00006L763.384 -2.00006L763.384 1.99994L769.351 1.99994L769.351 -2.00006ZM757.417 -2.00006L751.451 -2.00006L751.451 1.99994L757.417 1.99994L757.417 -2.00006ZM745.484 -2.00006L739.517 -2.00006L739.517 1.99994L745.484 1.99994L745.484 -2.00006ZM733.55 -2.00006L727.584 -2.00006L727.584 1.99994L733.55 1.99994L733.55 -2.00006ZM721.617 -2.00006L715.65 -2.00006L715.65 1.99994L721.617 1.99994L721.617 -2.00006ZM709.684 -2.00006L703.717 -2.00006L703.717 1.99994L709.684 1.99994L709.684 -2.00006ZM697.75 -2.00006L691.783 -2.00006L691.783 1.99994L697.75 1.99994L697.75 -2.00006ZM685.817 -2.00006L679.85 -2.00006L679.85 1.99994L685.817 1.99994L685.817 -2.00006ZM673.883 -2.00007L667.916 -2.00007L667.916 1.99993L673.883 1.99993L673.883 -2.00007ZM661.95 -2.00007L655.983 -2.00007L655.983 1.99993L661.95 1.99993L661.95 -2.00007ZM650.016 -2.00007L644.049 -2.00007L644.049 1.99993L650.016 1.99993L650.016 -2.00007ZM638.083 -2.00007L632.116 -2.00007L632.116 1.99993L638.083 1.99993L638.083 -2.00007ZM626.149 -2.00007L620.182 -2.00007L620.182 1.99993L626.149 1.99993L626.149 -2.00007ZM614.216 -2.00007L608.249 -2.00007L608.249 1.99993L614.216 1.99993L614.216 -2.00007ZM602.282 -2.00007L596.316 -2.00007L596.316 1.99993L602.282 1.99993L602.282 -2.00007ZM590.349 -2.00007L584.382 -2.00007L584.382 1.99993L590.349 1.99993L590.349 -2.00007ZM578.415 -2.00007L572.449 -2.00007L572.449 1.99993L578.415 1.99993L578.415 -2.00007ZM566.482 -2.00007L560.515 -2.00008L560.515 1.99992L566.482 1.99993L566.482 -2.00007ZM554.548 -2.00008L548.582 -2.00008L548.582 1.99992L554.548 1.99992L554.548 -2.00008ZM542.615 -2.00008L536.648 -2.00008L536.648 1.99992L542.615 1.99992L542.615 -2.00008ZM530.681 -2.00008L524.715 -2.00008L524.715 1.99992L530.681 1.99992L530.681 -2.00008ZM518.748 -2.00008L512.781 -2.00008L512.781 1.99992L518.748 1.99992L518.748 -2.00008ZM506.815 -2.00008L500.848 -2.00008L500.848 1.99992L506.815 1.99992L506.815 -2.00008ZM494.881 -2.00008L488.914 -2.00008L488.914 1.99992L494.881 1.99992L494.881 -2.00008ZM482.948 -2.00008L476.981 -2.00008L476.981 1.99992L482.948 1.99992L482.948 -2.00008ZM471.014 -2.00008L465.047 -2.00008L465.047 1.99992L471.014 1.99992L471.014 -2.00008ZM459.081 -2.00008L453.114 -2.00008L453.114 1.99992L459.081 1.99992L459.081 -2.00008ZM447.147 -2.00009L441.18 -2.00009L441.18 1.99991L447.147 1.99991L447.147 -2.00009ZM435.214 -2.00009L429.247 -2.00009L429.247 1.99991L435.214 1.99991L435.214 -2.00009ZM423.28 -2.00009L417.313 -2.00009L417.313 1.99991L423.28 1.99991L423.28 -2.00009ZM411.347 -2.00009L405.38 -2.00009L405.38 1.99991L411.347 1.99991L411.347 -2.00009ZM399.413 -2.00009L393.446 -2.00009L393.446 1.99991L399.413 1.99991L399.413 -2.00009ZM387.48 -2.00009L384.496 -2.00009L384.496 1.99991L387.48 1.99991L387.48 -2.00009ZM384.496 -2.00009C384.38 -2.00009 384.264 -1.99979 384.149 -1.99911L384.17 2.00082C384.279 2.00021 384.388 1.99991 384.496 1.99991L384.496 -2.00009ZM383.454 -1.99148C383.338 -1.98959 383.222 -1.9874 383.106 -1.98483L383.194 2.01419C383.303 2.01181 383.411 2.00974 383.52 2.00797L383.454 -1.99148ZM383.166 -1.98526C382.846 -1.9877 382.526 -1.9899 382.206 -1.99173L382.183 2.00821C382.5 2.01004 382.818 2.01218 383.135 2.01462L383.166 -1.98526ZM380.287 -1.99918C379.967 -1.99979 379.647 -2.00009 379.327 -2.00009L379.327 1.99991C379.644 1.99991 379.962 2.00021 380.279 2.00082L380.287 -1.99918ZM379.327 -2.00009C378.307 -2.00009 377.289 -1.99698 376.271 -1.99069L376.296 2.00925C377.305 2.00302 378.316 1.99991 379.327 1.99991L379.327 -2.00009ZM370.177 -1.91562C368.15 -1.87814 366.126 -1.82822 364.107 -1.76596L364.23 2.23215C366.233 2.17038 368.24 2.12088 370.251 2.08371L370.177 -1.91562ZM358.041 -1.54154C356.006 -1.45358 353.975 -1.35318 351.949 -1.24033L352.171 2.75351C354.181 2.64157 356.195 2.54196 358.213 2.45474L358.041 -1.54154ZM345.883 -0.864535C343.864 -0.726779 341.848 -0.576633 339.838 -0.414218L340.16 3.57278C342.154 3.41171 344.152 3.26285 346.155 3.12619L345.883 -0.864535ZM333.758 0.115505C331.736 0.304592 329.719 0.506008 327.707 0.719814L328.129 4.69741C330.125 4.48544 332.125 4.28561 334.13 4.09817L333.758 0.115505ZM321.685 1.39804C319.662 1.63894 317.643 1.89236 315.63 2.15811L316.154 6.12368C318.15 5.86013 320.152 5.60885 322.158 5.36996L321.685 1.39804ZM309.603 2.99307C307.6 3.28372 305.602 3.58663 303.609 3.90176L304.234 7.85262C306.21 7.54019 308.191 7.23983 310.178 6.95162L309.603 2.99307ZM297.593 4.89333C295.589 5.23684 293.592 5.59274 291.6 5.96084L292.327 9.89419C294.302 9.5292 296.282 9.17635 298.269 8.83578L297.593 4.89333ZM285.644 7.10195C283.647 7.49789 281.657 7.90615 279.674 8.32668L280.503 12.2397C282.47 11.8228 284.443 11.4181 286.422 11.0255L285.644 7.10195ZM273.726 9.62862C271.75 10.0749 269.78 10.5333 267.817 11.0038L268.75 14.8936C270.695 14.4271 272.648 13.9727 274.607 13.5304L273.726 9.62862ZM261.902 12.4636C259.931 12.9641 257.966 13.4767 256.009 14.0015L257.046 17.8651C258.985 17.3449 260.932 16.8367 262.886 16.3407L261.902 12.4636ZM250.16 15.6124C248.202 16.1659 246.251 16.7315 244.308 17.3093L245.448 21.1434C247.374 20.5708 249.307 20.0102 251.248 19.4616L250.16 15.6124ZM238.482 19.0848C236.548 19.6887 234.622 20.3048 232.703 20.9328L233.948 24.7343C235.849 24.112 237.758 23.5015 239.675 22.903L238.482 19.0848ZM226.924 22.8688C225 23.5282 223.085 24.1998 221.177 24.8833L222.527 28.6488C224.417 27.9715 226.315 27.3062 228.221 26.6527L226.924 22.8688ZM215.481 26.9697C213.573 27.6835 211.675 28.4093 209.785 29.1472L211.24 32.8732C213.112 32.1423 214.993 31.4232 216.883 30.716L215.481 26.9697ZM204.129 31.4019C202.253 32.1654 200.385 32.9408 198.528 33.7279L200.088 37.411C201.928 36.6312 203.778 35.8632 205.637 35.1069L204.129 31.4019ZM192.926 36.1492C191.065 36.9694 189.215 37.8014 187.374 38.6453L189.041 42.2814C190.864 41.4457 192.697 40.6217 194.539 39.8093L192.926 36.1492ZM181.881 41.2122C180.039 42.0895 178.207 42.9787 176.385 43.8797L178.158 47.465C179.962 46.5729 181.776 45.6923 183.601 44.8235L181.881 41.2122ZM170.952 46.6179C169.148 47.5442 167.354 48.4821 165.572 49.4316L167.452 52.962C169.217 52.022 170.992 51.0935 172.779 50.1763L170.952 46.6179ZM160.205 52.3429C158.427 53.325 156.66 54.3188 154.905 55.324L156.893 58.7951C158.63 57.8001 160.379 56.8164 162.139 55.8441L160.205 52.3429ZM149.652 58.3871C147.899 59.4274 146.158 60.4793 144.429 61.5426L146.525 64.9497C148.236 63.8973 149.959 62.8564 151.693 61.8269L149.652 58.3871ZM139.279 64.767C137.563 65.8606 135.859 66.9656 134.168 68.082L136.371 71.4204C138.044 70.3159 139.73 69.2225 141.429 68.1404L139.279 64.767ZM129.107 71.4818C127.433 72.6265 125.772 73.7824 124.123 74.9495L126.435 78.2139C128.065 77.0595 129.709 75.9161 131.365 74.7838L129.107 71.4818ZM119.171 78.5187C117.53 79.722 115.903 80.9366 114.29 82.1623L116.71 85.3473C118.305 84.1353 119.914 82.9342 121.537 81.7441L119.171 78.5187ZM109.485 85.8778C107.881 87.1399 106.292 88.4133 104.717 89.6977L107.245 92.7976C108.802 91.5279 110.373 90.269 111.959 89.0212L109.485 85.8778ZM100.035 93.5839C98.4817 94.8967 96.943 96.2206 95.4194 97.5553L98.055 100.564C99.5607 99.2451 101.082 97.9367 102.617 96.6391L100.035 93.5839ZM90.8653 101.617C89.3627 102.982 87.8755 104.358 86.4039 105.744L89.1468 108.656C90.6006 107.286 92.07 105.927 93.5547 104.578L90.8653 101.617ZM81.9991 109.971C80.5435 111.395 79.1042 112.828 77.6813 114.273L80.5308 117.08C81.9361 115.653 83.3577 114.237 84.7955 112.832L81.9991 109.971ZM73.4549 118.645C72.0505 120.126 70.6631 121.617 69.293 123.119L72.248 125.815C73.6006 124.332 74.9704 122.86 76.3572 121.397L73.4549 118.645ZM65.2345 127.655C63.8915 129.186 62.5662 130.728 61.2588 132.279L64.3177 134.857C65.608 133.325 66.9159 131.804 68.2415 130.293L65.2345 127.655ZM57.3741 136.985C56.0975 138.563 54.839 140.152 53.5992 141.751L56.7599 144.202C57.9831 142.625 59.2246 141.057 60.4843 139.5L57.3741 136.985ZM49.9023 146.621C48.689 148.254 47.4948 149.897 46.32 151.55L49.5804 153.868C50.7389 152.238 51.9167 150.617 53.1133 149.006L49.9023 146.621ZM42.841 156.557C41.6958 158.244 40.5706 159.94 39.4656 161.645L42.8225 163.82C43.9118 162.139 45.021 160.467 46.1501 158.804L42.841 156.557ZM36.2112 166.79C35.1397 168.526 34.0889 170.271 33.059 172.026L36.5087 174.05C37.5235 172.322 38.559 170.602 39.615 168.891L36.2112 166.79ZM30.031 177.32C29.0404 179.098 28.0713 180.885 27.1237 182.681L30.6615 184.548C31.5949 182.779 32.5496 181.018 33.5254 179.266L30.031 177.32ZM24.3366 188.115C23.4295 189.935 22.5445 191.764 21.6817 193.602L25.3024 195.302C26.1519 193.493 27.0234 191.692 27.9167 189.899L24.3366 188.115ZM19.1507 199.162C18.3293 201.025 17.5308 202.896 16.7553 204.775L20.4528 206.301C21.2161 204.451 22.0021 202.61 22.8106 200.776L19.1507 199.162ZM14.4955 210.444C13.7644 212.345 13.0568 214.254 12.3728 216.17L16.14 217.515C16.813 215.629 17.5094 213.751 18.2288 211.88L14.4955 210.444ZM10.3924 221.943C9.75553 223.876 9.14285 225.817 8.55435 227.766L12.3836 228.922C12.9624 227.006 13.5652 225.096 14.1916 223.194L10.3924 221.943ZM6.86209 233.633C6.32279 235.595 5.80801 237.564 5.31802 239.54L9.20047 240.503C9.68228 238.56 10.1886 236.623 10.719 234.694L6.86209 233.633ZM3.92361 245.484C3.48379 247.473 3.069 249.467 2.67935 251.469L6.60574 252.233C6.9888 250.265 7.39664 248.303 7.82925 246.348L3.92361 245.484ZM1.59061 257.47C1.25296 259.477 0.940581 261.49 0.65396 263.509L4.61416 264.071C4.89603 262.086 5.20315 260.107 5.53519 258.134L1.59061 257.47ZM-0.126681 269.564C-0.360568 271.582 -0.568942 273.606 -0.751559 275.636L3.23245 275.994C3.41189 273.999 3.61673 272.009 3.84671 270.024L-0.126681 269.564ZM-1.22141 281.739C-1.35093 283.761 -1.45481 285.789 -1.53293 287.821L2.46414 287.975C2.54092 285.976 2.64309 283.983 2.77041 281.995L-1.22141 281.739ZM-1.6893 293.933C-1.70237 294.954 -1.70896 295.976 -1.70896 297L2.29104 297C2.29104 295.994 2.29751 294.988 2.31033 293.984L-1.6893 293.933ZM-1.70896 297C-1.70896 298.023 -1.70237 299.046 -1.68931 300.067L2.31033 300.016C2.29751 299.012 2.29104 298.006 2.29104 297L-1.70896 297ZM-1.53281 306.179C-1.45481 308.212 -1.35081 310.239 -1.22129 312.261L2.77053 312.005C2.64309 310.017 2.54092 308.024 2.46414 306.026L-1.53281 306.179ZM-0.751441 318.365C-0.568946 320.394 -0.360572 322.418 -0.126685 324.436L3.8467 323.976C3.61672 321.992 3.41189 320.002 3.23245 318.006L-0.751441 318.365ZM0.653954 330.491C0.940697 332.51 1.25295 334.523 1.59072 336.53L5.53518 335.866C5.20327 333.893 4.89614 331.914 4.61428 329.929L0.653954 330.491ZM2.67947 342.531C3.06899 344.533 3.48391 346.528 3.92373 348.516L7.82925 347.652C7.39675 345.697 6.98879 343.735 6.60573 341.767L2.67947 342.531ZM5.31814 354.46C5.80813 356.436 6.3229 358.405 6.8622 360.367L10.7191 359.306C10.1887 357.377 9.68239 355.441 9.20058 353.497L5.31814 354.46ZM8.55446 366.234C9.14296 368.183 9.75563 370.124 10.3925 372.057L14.1917 370.806C13.5653 368.904 12.9625 366.994 12.3837 365.078L8.55446 366.234ZM12.3729 377.83C13.0569 379.747 13.7645 381.655 14.4956 383.556L18.229 382.12C17.5095 380.249 16.8131 378.371 16.1403 376.486L12.3729 377.83ZM16.7554 389.225C17.5309 391.104 18.3295 392.975 19.1508 394.838L22.8107 393.224C22.0022 391.39 21.2162 389.549 20.4529 387.699L16.7554 389.225ZM21.6819 400.398C22.5446 402.236 23.4296 404.065 24.3367 405.885L27.9168 404.101C27.0235 402.308 26.152 400.507 25.3026 398.698L21.6819 400.398ZM27.1238 411.319C28.0714 413.115 29.0407 414.902 30.0313 416.68L33.5257 414.734C32.5497 412.982 31.595 411.221 30.6616 409.452L27.1238 411.319ZM33.0592 421.974C34.089 423.729 35.1399 425.474 36.2114 427.21L39.6151 425.109C38.5591 423.398 37.5236 421.678 36.5089 419.95L33.0592 421.974ZM39.4657 432.355C40.5708 434.06 41.6961 435.756 42.8412 437.443L46.1503 435.196C45.0213 433.533 43.9119 431.861 42.8226 430.18L39.4657 432.355ZM46.3201 442.45C47.4949 444.103 48.6891 445.746 49.9025 447.379L53.1135 444.994C51.9168 443.383 50.739 441.762 49.5806 440.132L46.3201 442.45ZM53.5994 452.249C54.8392 453.848 56.0975 455.437 57.3743 457.015L60.4845 454.5C59.2247 452.943 57.9833 451.375 56.7601 449.798L53.5994 452.249ZM61.2589 461.721C62.5664 463.272 63.8917 464.814 65.2346 466.345L68.2417 463.707C66.9161 462.196 65.608 460.675 64.3178 459.143L61.2589 461.721ZM69.2932 470.881C70.6633 472.383 72.0507 473.874 73.4551 475.355L76.3574 472.603C74.9706 471.14 73.6008 469.668 72.2482 468.185L69.2932 470.881ZM77.6815 479.727C79.1044 481.172 80.5437 482.606 81.9993 484.029L84.7957 481.168C83.3579 479.763 81.9363 478.347 80.531 476.92L77.6815 479.727ZM86.4041 488.256C87.8757 489.642 89.3629 491.018 90.8655 492.383L93.5549 489.422C92.0702 488.073 90.6008 486.714 89.147 485.344L86.4041 488.256ZM95.4196 496.445C96.9432 497.779 98.4819 499.103 100.036 500.416L102.617 497.361C101.082 496.063 99.5609 494.755 98.0552 493.436L95.4196 496.445ZM104.717 504.302C106.292 505.587 107.882 506.86 109.485 508.122L111.959 504.979C110.373 503.731 108.802 502.472 107.245 501.202L104.717 504.302ZM114.29 511.838C115.904 513.063 117.531 514.278 119.171 515.481L121.537 512.256C119.914 511.066 118.306 509.865 116.71 508.653L114.29 511.838ZM124.124 519.05C125.772 520.218 127.433 521.374 129.107 522.518L131.365 519.216C129.709 518.084 128.066 516.94 126.435 515.786L124.124 519.05ZM134.168 525.918C135.859 527.034 137.563 528.139 139.279 529.233L141.429 525.86C139.731 524.777 138.045 523.684 136.371 522.58L134.168 525.918ZM144.43 532.457C146.158 533.521 147.899 534.573 149.652 535.613L151.693 532.173C149.959 531.144 148.236 530.103 146.525 529.05L144.43 532.457ZM154.905 538.676C156.661 539.681 158.427 540.675 160.205 541.657L162.139 538.156C160.379 537.184 158.63 536.2 156.893 535.205L154.905 538.676ZM165.572 544.568C167.354 545.518 169.148 546.456 170.952 547.382L172.779 543.824C170.993 542.907 169.217 541.978 167.452 541.038L165.572 544.568ZM176.385 550.12C178.207 551.021 180.039 551.91 181.881 552.788L183.601 549.176C181.776 548.308 179.963 547.427 178.159 546.535L176.385 550.12ZM187.374 555.355C189.215 556.199 191.066 557.031 192.926 557.851L194.539 554.191C192.697 553.378 190.864 552.554 189.041 551.719L187.374 555.355ZM198.528 560.272C200.386 561.059 202.253 561.835 204.129 562.598L205.637 558.893C203.778 558.137 201.929 557.369 200.088 556.589L198.528 560.272ZM209.785 564.853C211.675 565.591 213.574 566.316 215.481 567.03L216.883 563.284C214.993 562.577 213.112 561.858 211.24 561.127L209.785 564.853ZM221.178 569.117C223.085 569.8 225.001 570.472 226.925 571.131L228.222 567.347C226.315 566.694 224.417 566.028 222.527 565.351L221.178 569.117ZM232.704 573.067C234.622 573.695 236.549 574.311 238.483 574.915L239.675 571.097C237.758 570.498 235.849 569.888 233.948 569.266L232.704 573.067ZM244.308 576.691C246.252 577.268 248.202 577.834 250.16 578.387L251.248 574.538C249.307 573.99 247.374 573.429 245.448 572.857L244.308 576.691ZM256.01 579.998C257.967 580.523 259.931 581.036 261.902 581.536L262.886 577.659C260.933 577.163 258.986 576.655 257.046 576.135L256.01 579.998ZM267.818 582.996C269.781 583.467 271.75 583.925 273.726 584.371L274.607 580.47C272.648 580.027 270.696 579.573 268.75 579.106L267.818 582.996ZM279.674 585.673C281.658 586.094 283.648 586.502 285.644 586.898L286.422 582.974C284.443 582.582 282.47 582.177 280.504 581.76L279.674 585.673ZM291.601 588.039C293.592 588.407 295.59 588.763 297.593 589.107L298.269 585.164C296.283 584.824 294.302 584.471 292.328 584.106L291.601 588.039ZM303.61 590.098C305.602 590.413 307.6 590.716 309.604 591.007L310.178 587.048C308.191 586.76 306.21 586.46 304.235 586.147L303.61 590.098ZM315.63 591.842C317.644 592.108 319.662 592.361 321.686 592.602L322.159 588.63C320.152 588.391 318.15 588.14 316.154 587.876L315.63 591.842ZM327.707 593.28C329.719 593.494 331.736 593.695 333.758 593.884L334.13 589.902C332.125 589.714 330.125 589.514 328.13 589.302L327.707 593.28ZM339.838 594.414C341.849 594.576 343.864 594.727 345.884 594.864L346.156 590.874C344.153 590.737 342.154 590.588 340.16 590.427L339.838 594.414ZM351.949 595.24C353.975 595.353 356.006 595.453 358.041 595.541L358.214 591.545C356.195 591.458 354.181 591.358 352.172 591.246L351.949 595.24ZM364.107 595.766C366.127 595.828 368.15 595.878 370.178 595.915L370.252 591.916C368.241 591.879 366.233 591.829 364.23 591.768L364.107 595.766ZM376.272 595.991C377.289 595.997 378.308 596 379.327 596L379.327 592C378.316 592 377.306 591.997 376.296 591.991L376.272 595.991ZM379.327 596C379.647 596 379.967 596 380.287 595.999L380.279 591.999C379.962 592 379.644 592 379.327 592L379.327 596ZM382.206 595.992C382.526 595.99 382.846 595.988 383.166 595.985L383.135 591.985C382.818 591.988 382.5 591.99 382.183 591.992L382.206 595.992ZM383.106 595.985C383.222 595.987 383.338 595.989 383.454 595.991L383.52 591.992C383.411 591.99 383.303 591.988 383.194 591.986L383.106 595.985ZM384.149 595.999C384.264 596 384.38 596 384.496 596L384.496 592C384.388 592 384.279 592 384.171 591.999L384.149 595.999ZM384.496 596L387.479 596L387.479 592L384.496 592L384.496 596ZM393.446 596L399.413 596L399.413 592L393.446 592L393.446 596ZM405.38 596L411.346 596L411.346 592L405.38 592L405.38 596ZM417.313 596L423.28 596L423.28 592L417.313 592L417.313 596ZM429.247 596L435.213 596L435.213 592L429.247 592L429.247 596ZM441.18 596L447.147 596L447.147 592L441.18 592L441.18 596ZM453.114 596L459.08 596L459.08 592L453.114 592L453.114 596ZM465.047 596L471.014 596L471.014 592L465.047 592L465.047 596ZM476.981 596L482.947 596L482.947 592L476.981 592L476.981 596ZM488.914 596L494.881 596L494.881 592L488.914 592L488.914 596ZM500.847 596L506.814 596L506.814 592L500.847 592L500.847 596ZM512.781 596L518.748 596L518.748 592L512.781 592L512.781 596ZM524.714 596L530.681 596L530.681 592L524.714 592L524.714 596ZM536.648 596L542.615 596L542.615 592L536.648 592L536.648 596ZM548.581 596L554.548 596L554.548 592L548.581 592L548.581 596ZM560.515 596L566.482 596L566.482 592L560.515 592L560.515 596ZM572.448 596L578.415 596L578.415 592L572.448 592L572.448 596ZM584.382 596L590.349 596L590.349 592L584.382 592L584.382 596ZM596.315 596L602.282 596L602.282 592L596.315 592L596.315 596ZM608.249 596L614.215 596L614.215 592L608.249 592L608.249 596ZM620.182 596L626.149 596L626.149 592L620.182 592L620.182 596ZM632.116 596L638.082 596L638.082 592L632.116 592L632.116 596ZM644.049 596L650.016 596L650.016 592L644.049 592L644.049 596ZM655.983 596L661.949 596L661.949 592L655.983 592L655.983 596ZM667.916 596L673.883 596L673.883 592L667.916 592L667.916 596ZM679.85 596L685.816 596L685.816 592L679.85 592L679.85 596ZM691.783 596L697.75 596L697.75 592L691.783 592L691.783 596ZM703.716 596L709.683 596L709.683 592L703.716 592L703.716 596ZM715.65 596L721.617 596L721.617 592L715.65 592L715.65 596ZM727.583 596L733.55 596L733.55 592L727.583 592L727.583 596ZM739.517 596L745.484 596L745.484 592L739.517 592L739.517 596ZM751.45 596L757.417 596L757.417 592L751.45 592L751.45 596ZM763.384 596L769.351 596L769.351 592L763.384 592L763.384 596ZM775.317 596L781.284 596L781.284 592L775.317 592L775.317 596ZM787.251 596L793.218 596L793.218 592L787.251 592L787.251 596ZM799.184 596L805.151 596L805.151 592L799.184 592L799.184 596ZM811.118 596L817.084 596L817.084 592L811.118 592L811.118 596ZM823.051 596L829.018 596L829.018 592L823.051 592L823.051 596ZM834.985 596L840.951 596L840.951 592L834.985 592L834.985 596ZM846.918 596L852.885 596L852.885 592L846.918 592L846.918 596ZM858.852 596L864.818 596L864.818 592L858.852 592L858.852 596ZM870.785 596L876.752 596L876.752 592L870.785 592L870.785 596ZM882.719 596L888.685 596L888.685 592L882.719 592L882.719 596ZM894.652 596L900.619 596L900.619 592L894.652 592L894.652 596ZM906.586 596L912.552 596L912.552 592L906.586 592L906.586 596ZM918.519 596L924.486 596L924.486 592L918.519 592L918.519 596ZM930.452 596L936.419 596L936.419 592L930.452 592L930.452 596ZM942.386 596L948.353 596L948.353 592L942.386 592L942.386 596ZM954.319 596L960.286 596L960.286 592L954.319 592L954.319 596ZM966.253 596L972.22 596L972.22 592L966.253 592L966.253 596ZM978.186 596L984.153 596L984.153 592L978.186 592L978.186 596ZM990.12 596L996.087 596L996.087 592L990.12 592L990.12 596ZM1002.05 596L1008.02 596L1008.02 592L1002.05 592L1002.05 596ZM1013.99 596L1019.95 596L1019.95 592L1013.99 592L1013.99 596ZM1025.92 596L1031.89 596L1031.89 592L1025.92 592L1025.92 596ZM1037.85 596L1043.82 596L1043.82 592L1037.85 592L1037.85 596ZM1049.79 596L1055.75 596L1055.75 592L1049.79 592L1049.79 596ZM1061.72 596L1067.69 596L1067.69 592L1061.72 592L1061.72 596ZM1073.65 596L1079.62 596L1079.62 592L1073.65 592L1073.65 596ZM1085.59 596L1091.55 596L1091.55 592L1085.59 592L1085.59 596ZM1097.52 596L1103.49 596L1103.49 592L1097.52 592L1097.52 596ZM1109.45 596L1115.42 596L1115.42 592L1109.45 592L1109.45 596ZM1121.39 596L1127.35 596L1127.35 592L1121.39 592L1121.39 596ZM1133.32 596L1139.29 596L1139.29 592L1133.32 592L1133.32 596ZM1145.25 596L1151.22 596L1151.22 592L1145.25 592L1145.25 596ZM1157.19 596L1163.16 596L1163.16 592L1157.19 592L1157.19 596ZM1169.12 596L1175.09 596L1175.09 592L1169.12 592L1169.12 596ZM1181.06 596L1187.02 596L1187.02 592L1181.06 592L1181.06 596ZM1192.99 596L1198.96 596L1198.96 592L1192.99 592L1192.99 596ZM1204.92 596L1210.89 596L1210.89 592L1204.92 592L1204.92 596ZM1216.86 596L1222.82 596L1222.82 592L1216.86 592L1216.86 596ZM1228.79 596L1234.76 596L1234.76 592L1228.79 592L1228.79 596ZM1240.72 596L1246.69 596L1246.69 592L1240.72 592L1240.72 596ZM1252.66 596L1258.62 596L1258.62 592L1252.66 592L1252.66 596ZM1264.59 596L1270.56 596L1270.56 592L1264.59 592L1264.59 596ZM1276.52 596L1282.49 596L1282.49 592L1276.52 592L1276.52 596ZM1288.46 596L1294.42 596L1294.42 592L1288.46 592L1288.46 596ZM1300.39 596L1306.36 596L1306.36 592L1300.39 592L1300.39 596ZM1312.32 596L1318.29 596L1318.29 592L1312.32 592L1312.32 596ZM1324.26 596L1330.22 596L1330.22 592L1324.26 592L1324.26 596ZM1336.19 596L1342.16 596L1342.16 592L1336.19 592L1336.19 596ZM1348.12 596L1354.09 596L1354.09 592L1348.12 592L1348.12 596ZM1360.06 596L1366.02 596L1366.02 592L1360.06 592L1360.06 596ZM1371.99 596L1377.96 596L1377.96 592L1371.99 592L1371.99 596ZM1383.92 596L1389.89 596L1389.89 592L1383.92 592L1383.92 596ZM1395.86 596L1401.82 596L1401.82 592L1395.86 592L1395.86 596ZM1407.79 596L1413.76 596L1413.76 592L1407.79 592L1407.79 596ZM1419.72 596L1422.71 596L1422.71 592L1419.72 592L1419.72 596Z" fill="#421EB7" mask="url(#path-1-inside-1_3_31)"/>
<path fill-rule="evenodd" clip-rule="evenodd" d="M366.283 576.844C174.511 571.862 21 448.478 21 297C21 145.522 174.511 22.1384 366.283 17.1564C367.725 17.0527 369.18 17 370.648 17H378.34H1346V577H378.34H370.648C369.18 577 367.725 576.947 366.283 576.844Z" fill="#80D9FF"/>
<path d="M620.796 408.36H226.211V408.558H620.796V408.36Z" fill="#EBEBEB"/>
<path d="M293.749 421.06H267.612V421.257H293.749V421.06Z" fill="#EBEBEB"/>
<path d="M368.128 423.204H361.27V423.401H368.128V423.204Z" fill="#EBEBEB"/>
<path d="M314.598 413.734H294.537V413.932H314.598V413.734Z" fill="#EBEBEB"/>
<path d="M581.259 415.061H559.241V415.258H581.259V415.061Z" fill="#EBEBEB"/>
<path d="M552.218 415.061H535.148V415.258H552.218V415.061Z" fill="#EBEBEB"/>
<path d="M485.58 418.392H444.977V418.589H485.58V418.392Z" fill="#EBEBEB"/>
<path d="M413.253 373.164H260.872C258.386 373.164 256.366 371.144 256.366 368.658V154.453C256.366 151.968 258.386 149.947 260.872 149.947H413.261C415.747 149.947 417.767 151.968 417.767 154.453V368.658C417.759 371.144 415.739 373.164 413.253 373.164ZM260.872 150.145C258.497 150.145 256.563 152.078 256.563 154.453V368.658C256.563 371.033 258.497 372.967 260.872 372.967H413.261C415.637 372.967 417.57 371.033 417.57 368.658V154.453C417.57 152.078 415.637 150.145 413.261 150.145H260.872Z" fill="#EBEBEB"/>
<path d="M583.95 373.164H431.561C429.075 373.164 427.055 371.144 427.055 368.658V154.453C427.055 151.968 429.075 149.947 431.561 149.947H583.95C586.436 149.947 588.456 151.968 588.456 154.453V368.658C588.456 371.144 586.436 373.164 583.95 373.164ZM431.561 150.145C429.186 150.145 427.252 152.078 427.252 154.453V368.658C427.252 371.033 429.186 372.967 431.561 372.967H583.95C586.325 372.967 588.259 371.033 588.259 368.658V154.453C588.259 152.078 586.325 150.145 583.95 150.145H431.561Z" fill="#EBEBEB"/>
<path d="M468.857 280.746H279.629C274.602 280.746 270.491 276.635 270.491 271.608V172.804C270.491 167.777 274.602 163.665 279.629 163.665H468.865C473.892 163.665 478.003 167.777 478.003 172.804V271.616C477.995 276.635 473.884 280.746 468.857 280.746Z" fill="#F0F0F0"/>
<path d="M279.629 278.465C275.849 278.465 272.779 275.395 272.779 271.615V172.803C272.779 169.023 275.849 165.953 279.629 165.953H468.865C472.645 165.953 475.715 169.023 475.715 172.803V271.615C475.715 275.395 472.645 278.465 468.865 278.465H279.629Z" fill="#FAFAFA"/>
<path d="M287.323 176.932C288.866 176.932 290.117 175.681 290.117 174.138C290.117 172.595 288.866 171.345 287.323 171.345C285.78 171.345 284.529 172.595 284.529 174.138C284.529 175.681 285.78 176.932 287.323 176.932Z" fill="#EBEBEB"/>
<path d="M298.12 176.932C299.663 176.932 300.914 175.681 300.914 174.138C300.914 172.595 299.663 171.345 298.12 171.345C296.577 171.345 295.326 172.595 295.326 174.138C295.326 175.681 296.577 176.932 298.12 176.932Z" fill="#EBEBEB"/>
<path d="M308.908 176.932C310.451 176.932 311.702 175.681 311.702 174.138C311.702 172.595 310.451 171.345 308.908 171.345C307.365 171.345 306.114 172.595 306.114 174.138C306.114 175.681 307.365 176.932 308.908 176.932Z" fill="#EBEBEB"/>
<path d="M559.983 272.948H451.188C444.283 272.948 438.632 267.297 438.632 260.392V193.502C438.632 186.597 444.283 180.946 451.188 180.946H559.975C566.88 180.946 572.531 186.597 572.531 193.502V260.392C572.531 267.297 566.888 272.948 559.983 272.948Z" fill="white"/>
<path d="M559.983 273.468H451.188C443.975 273.468 438.111 267.605 438.111 260.391V193.501C438.111 186.288 443.975 180.425 451.188 180.425H559.975C567.188 180.425 573.052 186.288 573.052 193.501V260.391C573.06 267.605 567.188 273.468 559.983 273.468ZM451.188 181.474C444.551 181.474 439.161 186.872 439.161 193.501V260.391C439.161 267.028 444.559 272.418 451.188 272.418H559.975C566.612 272.418 572.002 267.021 572.002 260.391V193.501C572.002 186.864 566.604 181.474 559.975 181.474H451.188Z" fill="#E0E0E0"/>
<path d="M491.135 261.475C485.075 258.942 479.795 254.854 475.81 249.63L480.055 246.394C488.642 257.671 504.023 262.264 517.754 256.63C525.954 253.268 532.015 246.899 535.179 239.331L540.104 241.391C532.188 260.331 510.083 269.398 491.135 261.475Z" fill="#E0E0E0"/>
<path d="M540.112 241.392L535.187 239.332C538.352 231.756 538.628 222.973 535.266 214.773C531.904 206.574 525.528 200.521 517.96 197.356L520.027 192.416C529.182 196.243 536.45 203.567 540.214 212.745C543.979 221.931 543.939 232.238 540.112 241.392Z" fill="#EBEBEB"/>
<path d="M475.81 249.63C467.721 239.008 465.906 224.826 471.051 212.507C478.983 193.575 501.087 184.508 520.019 192.423L517.952 197.363C510.376 194.199 501.6 193.914 493.409 197.276C477.025 204 469.189 222.735 475.905 239.118C476.994 241.77 478.399 244.208 480.056 246.394L475.81 249.63Z" fill="#F5F5F5"/>
<path d="M423.503 444.001C508.009 444.001 576.515 440.001 576.515 435.067C576.515 430.133 508.009 426.134 423.503 426.134C338.997 426.134 270.491 430.133 270.491 435.067C270.491 440.001 338.997 444.001 423.503 444.001Z" fill="#F5F5F5"/>
<g opacity="0.3">
<path d="M547.805 389.069H300.416C296.343 389.069 293.037 385.762 293.037 381.69V193.347C293.037 189.274 296.343 185.968 300.416 185.968H547.797C551.869 185.968 555.176 189.274 555.176 193.347V381.69C555.184 385.762 551.877 389.069 547.805 389.069Z" fill="white"/>
<path opacity="0.4" d="M547.805 389.069H300.416C296.343 389.069 293.037 385.762 293.037 381.69V193.347C293.037 189.274 296.343 185.968 300.416 185.968H547.797C551.869 185.968 555.176 189.274 555.176 193.347V381.69C555.184 385.762 551.877 389.069 547.805 389.069Z" fill="#407BFF"/>
</g>
<path opacity="0.1" d="M543.954 287.518H304.267C303.556 287.518 302.972 286.942 302.972 286.224V207.528C302.972 206.817 303.549 206.233 304.267 206.233H543.962C544.672 206.233 545.256 206.809 545.256 207.528V286.224C545.248 286.942 544.672 287.518 543.954 287.518Z" fill="#407BFF"/>
<path d="M542.099 285.632H306.121C305.411 285.632 304.827 285.056 304.827 284.338V205.76C304.827 205.05 305.403 204.466 306.121 204.466H542.099C542.809 204.466 543.393 205.042 543.393 205.76V284.346C543.393 285.056 542.817 285.632 542.099 285.632Z" fill="white"/>
<path opacity="0.1" d="M324.042 208.618H322.464V281.49H324.042V208.618Z" fill="#407BFF"/>
<path opacity="0.1" d="M344.214 208.618H342.635V281.49H344.214V208.618Z" fill="#407BFF"/>
<path opacity="0.1" d="M364.384 208.618H362.806V281.49H364.384V208.618Z" fill="#407BFF"/>
<path opacity="0.1" d="M384.556 208.618H382.977V281.49H384.556V208.618Z" fill="#407BFF"/>
<path opacity="0.1" d="M404.727 208.618H403.149V281.49H404.727V208.618Z" fill="#407BFF"/>
<path opacity="0.1" d="M424.899 208.618H423.321V281.49H424.899V208.618Z" fill="#407BFF"/>
<path opacity="0.1" d="M445.069 208.618H443.491V281.49H445.069V208.618Z" fill="#407BFF"/>
<path opacity="0.1" d="M465.241 208.618H463.662V281.49H465.241V208.618Z" fill="#407BFF"/>
<path opacity="0.1" d="M485.412 208.618H483.834V281.49H485.412V208.618Z" fill="#407BFF"/>
<path opacity="0.1" d="M505.582 208.618H504.004V281.49H505.582V208.618Z" fill="#407BFF"/>
<path opacity="0.1" d="M525.754 208.618H524.176V281.49H525.754V208.618Z" fill="#407BFF"/>
<path d="M451.305 264.356C451.202 264.356 451.1 264.316 451.021 264.245L411.791 228.18L370.565 249.093C370.462 249.149 370.336 249.157 370.226 249.109L355.034 243.222L311.606 259.692C311.393 259.771 311.148 259.668 311.069 259.447C310.99 259.234 311.093 258.99 311.314 258.911L354.892 242.385C354.987 242.354 355.097 242.346 355.192 242.385L370.36 248.257L411.681 227.304C411.839 227.225 412.028 227.249 412.154 227.368L451.431 263.48L499.121 252.045L536.48 219.255C536.654 219.105 536.914 219.121 537.072 219.294C537.222 219.468 537.206 219.728 537.033 219.886L499.594 252.747C499.547 252.795 499.484 252.826 499.413 252.842L451.408 264.356C451.376 264.356 451.345 264.356 451.305 264.356Z" fill="#E0E0E0"/>
<path d="M311.464 269.557C311.377 269.557 311.29 269.533 311.211 269.478C311.03 269.344 310.99 269.075 311.124 268.894L330.341 243.112C330.451 242.962 330.648 242.907 330.822 242.97L376.507 260.063L438.702 232.56C438.828 232.505 438.97 232.513 439.088 232.584L462.25 246.916L478.365 235.938C478.421 235.899 478.492 235.875 478.563 235.867L536.717 230.114C536.945 230.082 537.151 230.256 537.174 230.485C537.198 230.714 537.032 230.919 536.803 230.943L478.744 236.68L462.495 247.752C462.361 247.847 462.179 247.847 462.037 247.76L438.836 233.405L376.689 260.884C376.586 260.931 376.475 260.931 376.373 260.892L330.822 243.854L311.795 269.383C311.716 269.494 311.59 269.557 311.464 269.557Z" fill="#407BFF"/>
<path opacity="0.2" d="M534.949 375.796H470.805C465.115 375.796 460.499 371.179 460.499 365.489V309.521C460.499 303.831 465.115 299.215 470.805 299.215H534.949C540.639 299.215 545.256 303.831 545.256 309.521V365.497C545.248 371.179 540.639 375.796 534.949 375.796Z" fill="#407BFF"/>
<path opacity="0.4" d="M397.162 366.047L386.066 365.258L384.559 389.067H397.162V366.047Z" fill="#407BFF"/>
<path d="M465.195 432.32H401.052C395.362 432.32 390.422 427.704 390.019 422.014L386.081 366.038C385.679 360.348 389.972 355.731 395.662 355.731H459.805C465.495 355.731 470.436 360.348 470.838 366.038L474.776 422.014C475.178 427.712 470.885 432.32 465.195 432.32Z" fill="#407BFF"/>
<path opacity="0.8" d="M459.813 355.739H395.669C389.979 355.739 385.686 360.356 386.088 366.046L389.277 411.344H474.026L470.838 366.046C470.435 360.356 465.503 355.739 459.813 355.739Z" fill="white"/>
<path d="M431.159 404.802C419.455 404.802 409.259 395.276 408.439 383.573C408.036 377.883 409.883 372.533 413.631 368.508C417.372 364.499 422.549 362.289 428.223 362.289C439.927 362.289 450.123 371.814 450.943 383.518C451.346 389.208 449.499 394.558 445.751 398.583C442.018 402.592 436.833 404.802 431.159 404.802ZM428.231 363.126C422.794 363.126 417.83 365.241 414.247 369.076C410.656 372.927 408.888 378.057 409.275 383.518C410.072 394.795 419.89 403.965 431.159 403.965C436.596 403.965 441.56 401.85 445.143 398.015C448.734 394.164 450.501 389.034 450.115 383.581C449.326 372.296 439.5 363.126 428.231 363.126Z" fill="white"/>
<path d="M441.22 383.542L422.272 373.03L423.748 394.054L441.22 383.542Z" fill="#407BFF"/>
<path d="M510.526 429.219H504.236L504.307 414.643H510.597L510.526 429.219Z" fill="#B55B52"/>
<path d="M548.311 429.219H542.014L539.552 414.643H545.841L548.311 429.219Z" fill="#B55B52"/>
<path d="M541.603 428.485H548.674C548.934 428.485 549.147 428.667 549.187 428.911L550.165 434.507C550.268 435.091 549.787 435.635 549.187 435.627C546.725 435.588 545.525 435.438 542.416 435.438C540.506 435.438 535.345 435.635 532.701 435.635C530.12 435.635 529.836 433.023 530.933 432.786C535.834 431.729 538.935 430.261 540.553 428.864C540.853 428.627 541.232 428.485 541.603 428.485Z" fill="#263238"/>
<path d="M504.315 428.485H511.189C511.449 428.485 511.662 428.667 511.702 428.911L512.68 434.507C512.783 435.083 512.317 435.635 511.725 435.627C509.247 435.588 505.672 435.438 502.555 435.438C498.909 435.438 496.913 435.635 492.635 435.635C490.055 435.635 489.463 433.023 490.552 432.786C495.524 431.713 498.396 431.595 502.776 428.975C503.25 428.691 503.77 428.485 504.315 428.485Z" fill="#263238"/>
<path d="M509.918 233.244L501.324 230.734C501.324 230.734 492.186 253.636 489.936 255.996C486.874 259.208 483.789 266.066 478.785 271.811C479.133 272.821 480.79 275.102 481.674 275.472C488.382 270.872 496.692 263.217 498.381 259.5C502.232 251.04 509.918 233.244 509.918 233.244Z" fill="#B55B52"/>
<path d="M512.523 229.322C514.97 234.767 507.725 246.321 507.725 246.321L494.862 240.741C494.862 240.741 497.253 232.131 501.143 225.194C505.137 218.068 509.84 223.348 512.523 229.322Z" fill="#407BFF"/>
<path opacity="0.4" d="M512.523 229.322C514.97 234.767 507.725 246.321 507.725 246.321L494.862 240.741C494.862 240.741 497.253 232.131 501.143 225.194C505.137 218.068 509.84 223.348 512.523 229.322Z" fill="white"/>
<path d="M480.837 270.107L474.334 273.311L479.519 279.522C479.519 279.522 481.042 278.52 482.786 274.251L480.837 270.107Z" fill="#B55B52"/>
<path d="M471.849 280.809L473.198 281.929C474.122 282.695 475.447 282.718 476.394 281.977L479.519 279.53L474.335 273.319L471.415 277.376C470.641 278.457 470.831 279.956 471.849 280.809Z" fill="#B55B52"/>
<path d="M482.628 331.686L421.207 350.184C415.762 351.825 410.008 348.74 408.367 343.286L392.228 289.686C390.587 284.241 393.673 278.488 399.126 276.846L460.547 258.348C465.992 256.706 471.745 259.792 473.387 265.245L489.525 318.846C491.167 324.299 488.081 330.044 482.628 331.686Z" fill="white"/>
<path opacity="0.5" d="M482.628 331.686L421.207 350.184C415.762 351.825 410.008 348.74 408.367 343.286L392.228 289.686C390.587 284.241 393.673 278.488 399.126 276.846L460.547 258.348C465.992 256.706 471.745 259.792 473.387 265.245L489.525 318.846C491.167 324.299 488.081 330.044 482.628 331.686Z" fill="#407BFF"/>
<path d="M440.905 304.286L415.659 316.06C410.719 305.469 412.944 292.858 421.207 284.596C430.725 275.078 445.853 273.753 456.878 281.479L440.905 304.286Z" fill="#64FCD9"/>
<path d="M457.241 283.704C458.023 284.328 458.78 284.998 459.483 285.701C464.407 290.625 467.122 297.223 467.122 304.278C467.122 311.333 464.407 317.93 459.483 322.855C454.558 327.779 447.961 330.494 440.906 330.494C433.85 330.494 427.253 327.779 422.328 322.855C420.529 321.056 419.014 319.019 417.807 316.794L441.576 305.714L441.963 305.533L442.208 305.185L457.241 283.704ZM456.878 281.471L440.906 304.286L415.66 316.052C417.033 318.996 418.911 321.679 421.208 323.975C426.606 329.381 433.756 332.08 440.906 332.08C448.055 332.08 455.197 329.381 460.603 323.975C471.407 313.172 471.407 295.392 460.603 284.588C459.451 283.444 458.204 282.402 456.878 281.471Z" fill="white"/>
<path opacity="0.2" d="M504.308 414.649L504.269 422.162H510.567L510.606 414.649H504.308Z" fill="black"/>
<path opacity="0.2" d="M545.843 414.649H539.553L540.824 422.162H547.121L545.843 414.649Z" fill="black"/>
<path d="M504.528 221.889C504.528 221.889 496.131 243.512 501.498 278.899C511.639 278.899 530.224 278.899 535.156 278.899C535.637 273.73 533.649 245.904 539.796 221.566C539.796 221.566 534.083 220.405 528.598 220.145C524.305 219.94 518.086 219.798 514.29 220.145C509.287 220.603 504.528 221.889 504.528 221.889Z" fill="#407BFF"/>
<path opacity="0.4" d="M504.528 221.889C504.528 221.889 496.131 243.512 501.498 278.899C511.639 278.899 530.224 278.899 535.156 278.899C535.637 273.73 533.649 245.904 539.796 221.566C539.796 221.566 534.083 220.405 528.598 220.145C524.305 219.94 518.086 219.798 514.29 220.145C509.287 220.603 504.528 221.889 504.528 221.889Z" fill="white"/>
<path opacity="0.2" d="M532.197 227.577C531.447 231.586 532.252 241.166 535.535 252.246C535.953 243.723 536.939 233.835 539.204 223.986V223.939C537.01 223.71 532.915 223.82 532.197 227.577Z" fill="black"/>
<path d="M527.368 206.761C526.247 211.362 525.529 217.067 528.599 220.145C528.599 220.145 526.523 224.817 517.969 224.817C510.156 224.817 514.291 220.145 514.291 220.145C519.484 218.922 519.515 212.569 518.797 208.994L527.368 206.761Z" fill="#B55B52"/>
<path d="M517.975 224.816C523.018 225.905 524.02 228.012 524.02 228.012C524.02 228.012 530.294 225.463 530.058 219.923C530.058 219.923 528.582 219.023 527.651 218.289C527.651 218.281 527.098 222.598 517.975 224.816Z" fill="white"/>
<path d="M517.975 224.815C513.895 225.068 512.001 226.954 512.001 226.954C512.001 226.954 510.975 225.62 512.696 220.151C512.696 220.151 514.092 219.575 515.481 219.275C515.474 219.268 514.653 223.624 517.975 224.815Z" fill="white"/>
<path opacity="0.2" d="M518.788 208.994C519.222 211.093 519.388 214.139 518.394 216.554C519.151 216.444 519.94 216.207 520.722 215.852C523.681 214.487 525.212 212.34 526.846 209.152C526.996 208.339 527.169 207.534 527.367 206.761L518.788 208.994Z" fill="black"/>
<path d="M511.631 203.959C512.12 205.553 513.304 206.737 514.527 207.313C516.374 208.181 517.715 206.556 517.549 204.599C517.4 202.831 516.263 200.25 514.243 200.211C512.246 200.163 511.07 202.144 511.631 203.959Z" fill="#B55B52"/>
<path opacity="0.2" d="M511.631 203.959C512.12 205.553 513.304 206.737 514.527 207.313C516.374 208.181 517.715 206.556 517.549 204.599C517.4 202.831 516.263 200.25 514.243 200.211C512.246 200.163 511.07 202.144 511.631 203.959Z" fill="black"/>
<path d="M518.26 191.024C515.719 190.093 511.631 199.421 517.297 199.966C522.964 200.51 522.08 192.429 518.26 191.024Z" fill="#263238"/>
<path d="M531.368 201.15C529.411 207.187 528.558 210.802 524.707 213.28C518.915 217.005 512.222 212.578 512.372 206.162C512.507 200.385 515.695 191.483 522.205 190.339C528.629 189.21 533.325 195.121 531.368 201.15Z" fill="#B55B52"/>
<path d="M517.975 194.338C513.043 190.597 515.86 183.021 519.751 182.532C525.038 181.869 528.069 192.349 534.193 192.839C540.317 193.328 537.673 203.074 529.71 205.789C526.782 206.791 526.325 203.074 529.245 197.921C527.366 198.347 520.824 196.5 517.975 194.338Z" fill="#263238"/>
<path d="M517.921 207.532C519.909 207.69 521.141 206.537 521.196 206.482C521.259 206.427 521.259 206.332 521.204 206.269C521.148 206.206 521.054 206.206 520.991 206.269C520.975 206.285 519.57 207.595 517.4 207.161C517.321 207.145 517.242 207.2 517.226 207.279C517.211 207.358 517.258 207.437 517.337 207.453C517.534 207.492 517.731 207.524 517.921 207.532Z" fill="#263238"/>
<path d="M532.331 208.489C531.116 209.712 529.474 210.272 528.093 210.28C526.017 210.288 525.623 208.291 526.736 206.603C527.738 205.087 530.026 203.256 531.849 204.054C533.641 204.843 533.72 207.092 532.331 208.489Z" fill="#B55B52"/>
<path d="M523.618 278.897C523.618 278.897 522.766 286.805 521.669 297.538C520.414 309.691 518.859 325.466 517.865 337.493C517.865 337.557 517.857 337.604 517.849 337.659C517.66 339.94 517.486 342.078 517.352 344.044C515.947 363.654 512.657 420.711 512.657 420.711H501.995C501.995 420.711 497.978 362.479 498.215 342.52C498.444 323.336 501.498 278.905 501.498 278.905H523.618V278.897Z" fill="#407BFF"/>
<path d="M513.533 416.538C513.58 416.538 513.343 420.925 513.343 420.925H501.056L500.748 416.104L513.533 416.538Z" fill="#263238"/>
<path opacity="0.2" d="M521.67 297.538C520.415 309.691 518.86 325.466 517.866 337.493C517.866 337.556 517.858 337.604 517.85 337.659C515.506 326.263 514.78 312.082 515.688 288.738L521.67 297.538Z" fill="black"/>
<path d="M513.438 278.897C513.438 278.897 518.347 324.369 521.409 342.377C524.763 362.107 537.965 420.695 537.965 420.695H549.487C549.487 420.695 541.714 363.693 540.199 344.161C538.549 322.964 535.156 278.889 535.156 278.889H513.438V278.897Z" fill="#407BFF"/>
<path d="M549.653 416.796C549.7 416.796 550.055 420.923 550.055 420.923H537.381L536.458 416.322L549.653 416.796Z" fill="#263238"/>
<path d="M521.804 200.863C521.677 201.36 521.306 201.708 520.991 201.637C520.667 201.566 520.517 201.108 520.644 200.611C520.77 200.114 521.141 199.766 521.456 199.837C521.78 199.908 521.93 200.366 521.804 200.863Z" fill="#263238"/>
<path d="M516.272 199.659C516.146 200.156 515.775 200.504 515.459 200.433C515.136 200.362 514.986 199.904 515.112 199.407C515.238 198.909 515.609 198.562 515.925 198.633C516.249 198.704 516.398 199.162 516.272 199.659Z" fill="#263238"/>
<path d="M517.967 200.289C517.967 200.289 516.105 202.917 514.518 204.038C515.173 205.048 516.744 204.993 516.744 204.993L517.967 200.289Z" fill="#A02724"/>
<path d="M523.72 200.147C523.634 200.123 523.563 200.06 523.531 199.965C523.121 198.718 522.063 198.473 522.055 198.473C521.905 198.45 521.803 198.276 521.842 198.118C521.882 197.961 522.047 197.858 522.205 197.889C522.261 197.905 523.586 198.213 524.099 199.76C524.147 199.918 524.068 200.083 523.91 200.147C523.847 200.162 523.784 200.17 523.72 200.147Z" fill="#263238"/>
<path d="M535.787 195.42C535.819 195.293 535.905 195.191 536.04 195.151C537.799 194.512 538.107 192.997 538.107 192.981C538.139 192.768 538.375 192.61 538.604 192.665C538.833 192.721 538.983 192.95 538.944 193.178C538.928 193.257 538.541 195.159 536.363 195.948C536.142 196.027 535.897 195.909 535.811 195.688C535.771 195.601 535.763 195.506 535.787 195.42Z" fill="#263238"/>
<path d="M539.418 196.863C539.299 196.903 539.165 196.879 539.055 196.8C537.579 195.656 536.127 196.2 536.119 196.208C535.922 196.295 535.661 196.177 535.59 195.956C535.511 195.735 535.63 195.482 535.843 195.396C535.922 195.364 537.737 194.677 539.56 196.106C539.741 196.248 539.781 196.516 539.639 196.713C539.583 196.784 539.505 196.84 539.418 196.863Z" fill="#263238"/>
<path d="M514.305 197.447C514.266 197.431 514.227 197.416 514.195 197.384C514.077 197.274 514.077 197.084 514.187 196.966C515.339 195.727 516.689 195.924 516.744 195.932C516.902 195.948 517.012 196.106 516.981 196.271C516.949 196.437 516.791 196.548 516.633 196.524C516.586 196.516 515.537 196.382 514.613 197.368C514.526 197.447 514.408 197.471 514.305 197.447Z" fill="#263238"/>
<path d="M543.53 230.158L535.583 234.964C535.583 234.964 545.502 254.394 544.406 257.432C542.914 261.567 540.633 270.643 537.99 275.204C538.242 276.214 539.702 278.534 540.562 278.961C546.884 274.612 553.844 260.628 553.836 256.674C553.82 247.662 543.53 230.158 543.53 230.158Z" fill="#B55B52"/>
<path d="M539.796 221.564C545.707 222.432 551.539 243.061 551.539 243.061L538.699 250.124C538.699 250.124 533.656 240.315 531.289 233.023C528.811 225.392 533.451 220.633 539.796 221.564Z" fill="#407BFF"/>
<path opacity="0.4" d="M539.796 221.564C545.707 222.432 551.539 243.061 551.539 243.061L538.699 250.124C538.699 250.124 533.656 240.315 531.289 233.023C528.811 225.392 533.451 220.633 539.796 221.564Z" fill="white"/>
<path d="M539.473 429.59C538.991 429.59 538.549 429.512 538.273 429.267C538.06 429.077 537.965 428.809 538.005 428.478C538.029 428.233 538.171 428.115 538.281 428.059C538.983 427.704 540.964 428.951 541.185 429.093C541.233 429.125 541.256 429.188 541.248 429.243C541.233 429.298 541.193 429.346 541.13 429.362C540.688 429.464 540.057 429.59 539.473 429.59ZM538.597 428.288C538.518 428.288 538.455 428.296 538.399 428.328C538.36 428.351 538.313 428.391 538.297 428.501C538.273 428.738 538.328 428.92 538.47 429.046C538.802 429.338 539.623 429.377 540.696 429.156C540.017 428.738 539.078 428.288 538.597 428.288Z" fill="#407BFF"/>
<path d="M541.09 429.37C541.066 429.37 541.043 429.362 541.019 429.354C540.388 428.999 539.188 427.618 539.362 426.916C539.393 426.789 539.496 426.568 539.851 426.529C540.088 426.497 540.293 426.568 540.474 426.718C541.177 427.318 541.24 429.133 541.24 429.212C541.24 429.267 541.216 429.323 541.169 429.346C541.153 429.362 541.122 429.37 541.09 429.37ZM539.946 426.813C539.922 426.813 539.898 426.813 539.875 426.821C539.677 426.845 539.662 426.931 539.646 426.971C539.543 427.389 540.301 428.431 540.924 428.92C540.877 428.391 540.727 427.334 540.277 426.947C540.182 426.86 540.072 426.813 539.946 426.813Z" fill="#407BFF"/>
<path d="M501.64 429.59C501.016 429.59 500.44 429.495 500.133 429.203C499.935 429.022 499.848 428.777 499.888 428.477C499.912 428.304 499.998 428.162 500.156 428.083C500.938 427.656 503.408 428.935 503.692 429.085C503.747 429.116 503.779 429.18 503.763 429.235C503.755 429.298 503.7 429.345 503.636 429.361C503.092 429.472 502.334 429.59 501.64 429.59ZM500.567 428.288C500.448 428.288 500.354 428.304 500.282 428.343C500.219 428.375 500.188 428.422 500.18 428.501C500.156 428.706 500.204 428.856 500.338 428.982C500.709 429.33 501.742 429.385 503.139 429.156C502.295 428.738 501.158 428.288 500.567 428.288Z" fill="#407BFF"/>
<path d="M503.605 429.367C503.582 429.367 503.566 429.36 503.542 429.352C502.8 429.012 501.356 427.647 501.506 426.937C501.538 426.771 501.672 426.558 502.082 426.519C502.382 426.479 502.658 426.574 502.895 426.771C503.661 427.426 503.755 429.123 503.755 429.194C503.755 429.249 503.732 429.296 503.684 429.328C503.661 429.352 503.637 429.367 503.605 429.367ZM502.193 426.811C502.161 426.811 502.13 426.811 502.106 426.818C501.838 426.85 501.814 426.953 501.806 426.984C501.719 427.41 502.69 428.484 503.44 428.949C503.384 428.452 503.203 427.442 502.706 427.008C502.548 426.882 502.382 426.811 502.193 426.811Z" fill="#407BFF"/>
<path d="M539.047 274.927L533.081 274.47L535.922 281.091C535.922 281.091 541.162 281.32 542.227 277.311L539.047 274.927Z" fill="#B55B52"/>
<path d="M528.827 279.032L530.137 281.7C530.587 282.615 531.676 283.002 532.599 282.583L535.914 281.084L533.073 274.463L529.545 276.586C528.709 277.099 528.393 278.156 528.827 279.032Z" fill="#B55B52"/>
<path d="M476.473 272.246C474.863 272.909 471.438 273.603 470.199 273.619C469.963 273.619 469.789 273.848 469.836 274.085C469.955 274.606 470.436 275.134 471.004 275.268C471.667 275.426 473.356 275.742 473.751 275.821C473.806 275.829 473.853 275.852 473.901 275.884C474.248 276.144 475.881 277.297 477.491 277.289C479.03 277.281 477.468 273.587 476.947 272.443C476.868 272.254 476.655 272.167 476.473 272.246Z" fill="#B55B52"/>
<path d="M344.767 217.51C345.453 221.677 346.037 229.3 343.062 231.975C343.062 231.975 345.816 237.136 352.903 238.999C359.438 235.684 355.949 232.362 355.949 232.362C351.364 231.123 351.585 227.698 352.485 224.502L344.767 217.51Z" fill="#FFC3BD"/>
<path d="M335.353 242.447C334.864 246.44 334.232 250.33 333.459 254.253C332.709 258.167 331.818 262.065 330.681 265.964C330.105 267.913 329.45 269.886 328.724 271.725C328.022 273.587 327.288 275.418 326.53 277.241C325.023 280.887 323.429 284.494 321.7 288.053L318.362 286.869C319.254 283.034 320.256 279.222 321.29 275.45C322.3 271.662 323.452 267.913 324.281 264.283C325.125 260.582 325.82 256.786 326.475 252.982C327.098 249.178 327.698 245.311 328.258 241.531L335.353 242.447Z" fill="#FFC3BD"/>
<path d="M330.966 233.205C328.188 234.262 325.45 245.492 325.45 245.492L336.482 253.889C336.482 253.889 340.452 242.951 339.007 239.36C337.508 235.628 334.138 231.998 330.966 233.205Z" fill="#407BFF"/>
<path d="M319.049 285.534L314.014 291.161L321.117 291.374C321.117 291.374 323.397 287.507 321.89 285.029L319.049 285.534Z" fill="#FFC3BD"/>
<path opacity="0.2" d="M354.112 366.512L290.591 375.422C284.956 376.211 279.748 372.281 278.959 366.647L271.185 311.215C270.396 305.581 274.326 300.372 279.961 299.583L343.481 290.673C349.116 289.884 354.325 293.814 355.114 299.449L362.887 354.88C363.676 360.515 359.746 365.723 354.112 366.512Z" fill="#407BFF"/>
<path d="M292.713 368.185C289.375 368.185 286.447 365.723 285.974 362.321L279.116 313.448C278.863 311.649 279.329 309.857 280.426 308.405C281.523 306.953 283.117 306.014 284.916 305.762L340.395 297.98C344.112 297.452 347.56 300.056 348.089 303.781L354.947 352.654C355.2 354.453 354.734 356.245 353.637 357.697C352.54 359.149 350.946 360.088 349.147 360.341L293.668 368.122C293.344 368.161 293.029 368.185 292.713 368.185ZM341.35 298.328C341.058 298.328 340.758 298.351 340.458 298.391L284.979 306.172C283.29 306.409 281.791 307.293 280.765 308.658C279.739 310.023 279.305 311.704 279.542 313.393L286.4 362.266C286.889 365.754 290.132 368.193 293.621 367.711L349.099 359.93C350.788 359.693 352.288 358.81 353.314 357.444C354.339 356.079 354.773 354.398 354.537 352.709L347.679 303.836C347.229 300.64 344.483 298.328 341.35 298.328Z" fill="white"/>
<path d="M313.627 297.025L319.578 296.883L321.117 291.374L314.014 291.161L313.627 297.025Z" fill="#FFC3BD"/>
<path d="M368.356 237.799C368.513 242.219 367.74 252.533 363.1 276.555L334.737 275.711C335.558 264.181 335.779 257.063 330.965 233.206C330.965 233.206 336.947 232.094 343.055 231.975C347.837 231.888 351.751 231.849 355.934 232.362C359.217 232.756 362.752 233.443 365.08 233.932C366.935 234.311 368.292 235.905 368.356 237.799Z" fill="#407BFF"/>
<path d="M367.946 239.107C369.271 242.911 370.455 246.691 371.568 250.527C372.696 254.354 373.73 258.213 374.677 262.104L375.024 263.564L375.198 264.298L375.285 264.661C375.293 264.684 375.245 264.574 375.245 264.582C375.19 264.519 375.285 264.74 375.466 264.961C375.648 265.19 375.893 265.466 376.177 265.742C377.345 266.847 378.899 267.944 380.462 268.985C383.634 271.053 387.059 273.018 390.453 274.92L389.111 278.195C385.205 277.027 381.448 275.622 377.723 273.799C375.861 272.868 374.022 271.882 372.16 270.43C371.694 270.059 371.221 269.656 370.739 269.143C370.266 268.63 369.761 268.038 369.319 267.068C369.216 266.847 369.098 266.5 369.035 266.286L368.932 265.931L368.719 265.229L368.293 263.824C367.149 260.076 365.973 256.335 364.789 252.586L361.182 241.388L367.946 239.107Z" fill="#FFC3BD"/>
<path d="M365.278 233.971C370.502 235.084 372.191 246.093 372.191 246.093L363.211 254.292C363.211 254.292 355.871 241.815 357.607 238.367C359.43 234.768 361.032 233.071 365.278 233.971Z" fill="#407BFF"/>
<path d="M388.757 274.242L395.836 276.917L390.082 280.745C390.082 280.745 386.665 278.725 386.918 275.899L388.757 274.242Z" fill="#FFC3BD"/>
<path d="M398.66 280.643L394.288 283.389L390.074 280.745L395.835 276.918L398.66 280.643Z" fill="#FFC3BD"/>
<path d="M360.481 209.939C360.528 210.499 360.86 210.933 361.23 210.902C361.601 210.87 361.862 210.389 361.814 209.829C361.767 209.268 361.436 208.834 361.065 208.866C360.702 208.897 360.441 209.379 360.481 209.939Z" fill="#263238"/>
<path d="M360.907 208.913L362.225 208.416C362.225 208.408 361.617 209.521 360.907 208.913Z" fill="#263238"/>
<path d="M361.064 211.146C361.064 211.146 362.216 213.49 363.36 214.564C362.674 215.313 361.387 215.1 361.387 215.1L361.064 211.146Z" fill="#ED847E"/>
<path d="M358.303 208.64C358.445 208.648 358.579 208.569 358.634 208.435C359.21 207.014 361.128 206.557 361.144 206.549C361.325 206.509 361.436 206.328 361.388 206.154C361.349 205.973 361.167 205.862 360.994 205.909C360.899 205.933 358.721 206.454 358.019 208.19C357.948 208.356 358.034 208.553 358.2 208.624C358.232 208.624 358.271 208.632 358.303 208.64Z" fill="#263238"/>
<path d="M341.312 209.442C342.298 216.308 342.574 219.235 346.347 222.487C352.021 227.38 360.236 224.665 361.317 217.641C362.288 211.32 360.504 201.155 353.528 198.969C346.654 196.815 340.317 202.576 341.312 209.442Z" fill="#FFC3BD"/>
<path d="M352.738 197.077C349.669 193.32 335.227 193.525 339.362 203.201C333.278 204.037 333.349 209.956 333.909 214.407C334.469 218.866 329.245 218.029 328.337 223.459C327.43 228.888 329.742 229.425 325.922 233.726C322.103 238.035 327.611 246.921 334.856 244.624C342.093 242.328 347.861 246.85 356.874 245.05C365.886 243.259 366.754 235.999 364.773 231.919C362.927 228.107 360.37 227.547 360.914 223.916C361.727 218.558 358.2 213.389 355.067 211.74C358.768 208.149 369.974 197.29 352.738 197.077Z" fill="#263238"/>
<path d="M355.359 212.694C355.895 213.775 356.819 214.446 357.671 214.659C358.957 214.983 359.557 213.578 359.163 212.165C358.807 210.895 357.718 209.206 356.44 209.506C355.193 209.814 354.743 211.455 355.359 212.694Z" fill="#FFC3BD"/>
<path d="M305.499 427.397C304.805 427.326 304.182 427.152 303.858 426.797C303.653 426.568 303.582 426.292 303.645 425.968C303.684 425.771 303.795 425.629 303.968 425.558C304.868 425.179 307.496 426.876 307.788 427.073C307.843 427.113 307.875 427.184 307.859 427.255C307.843 427.326 307.788 427.373 307.717 427.381C307.109 427.428 306.265 427.476 305.499 427.397ZM304.41 425.834C304.284 425.818 304.174 425.826 304.095 425.866C304.024 425.897 303.984 425.945 303.968 426.031C303.929 426.252 303.968 426.434 304.103 426.576C304.489 426.994 305.626 427.184 307.188 427.081C306.281 426.529 305.065 425.897 304.41 425.834Z" fill="#407BFF"/>
<path d="M307.685 427.371C307.662 427.371 307.638 427.363 307.622 427.348C306.833 426.89 305.341 425.225 305.555 424.451C305.602 424.27 305.76 424.049 306.217 424.049C306.557 424.049 306.857 424.175 307.101 424.428C307.898 425.248 307.875 427.134 307.867 427.213C307.867 427.269 307.835 427.324 307.78 427.355C307.748 427.363 307.717 427.371 307.685 427.371ZM306.312 424.38C306.281 424.38 306.249 424.372 306.21 424.372C305.91 424.372 305.87 424.491 305.862 424.53C305.736 424.996 306.73 426.29 307.52 426.882C307.496 426.33 307.378 425.185 306.849 424.649C306.699 424.491 306.525 424.404 306.312 424.38Z" fill="#407BFF"/>
<path d="M307.203 428.509H314.187L317.794 412.323H310.81L307.203 428.509Z" fill="#FFC3BD"/>
<path d="M307.227 426.938L315.001 425.857C315.285 425.818 315.498 425.991 315.522 426.268L316.035 432.47C316.09 433.11 315.498 433.812 314.851 433.891C312.144 434.222 310.85 434.238 307.425 434.72C305.318 435.012 301.806 435.651 298.878 435.651C296.013 435.651 296.368 432.754 297.647 432.486C303.36 431.31 304.126 429.377 306.044 427.546C306.391 427.207 306.809 426.994 307.227 426.938Z" fill="#263238"/>
<g opacity="0.2">
<path d="M317.795 412.331L315.94 420.673H308.948L310.803 412.331H317.795Z" fill="black"/>
</g>
<path d="M334.738 275.71C327.075 286.529 322.64 326.256 319.886 347.493C317.021 369.59 308.617 419.055 308.617 419.055H318.063C318.063 419.055 331.1 368.951 336.056 347.382C341.525 323.581 352.897 275.71 352.897 275.71C352.897 275.71 342.33 275.71 334.738 275.71Z" fill="#263238"/>
<path opacity="0.2" d="M342.637 294.096C338.021 308.048 337.823 325.631 338.352 337.484C341.193 325.228 344.729 310.226 347.601 298.073L342.637 294.096Z" fill="black"/>
<path d="M353.669 428.184C354.364 428.184 355.003 428.074 355.366 427.75C355.595 427.545 355.697 427.277 355.666 426.945C355.65 426.748 355.547 426.598 355.382 426.503C354.529 426.038 351.744 427.458 351.428 427.624C351.365 427.656 351.333 427.727 351.341 427.798C351.349 427.869 351.404 427.924 351.475 427.94C352.059 428.05 352.896 428.184 353.669 428.184ZM354.908 426.74C355.034 426.74 355.145 426.756 355.216 426.803C355.287 426.843 355.319 426.898 355.326 426.985C355.35 427.206 355.287 427.379 355.137 427.514C354.711 427.892 353.567 427.963 352.012 427.703C352.975 427.237 354.253 426.74 354.908 426.74Z" fill="#407BFF"/>
<path d="M351.499 427.941C351.523 427.941 351.546 427.933 351.57 427.925C352.406 427.546 354.048 426.039 353.922 425.25C353.89 425.06 353.756 424.832 353.298 424.784C352.959 424.753 352.651 424.847 352.383 425.068C351.507 425.802 351.341 427.68 351.333 427.759C351.325 427.815 351.357 427.878 351.404 427.909C351.436 427.925 351.467 427.941 351.499 427.941ZM353.164 425.108C353.196 425.108 353.227 425.108 353.267 425.116C353.567 425.147 353.59 425.266 353.598 425.305C353.677 425.779 352.556 426.962 351.712 427.483C351.791 426.939 352.028 425.81 352.604 425.329C352.769 425.179 352.951 425.108 353.164 425.108Z" fill="#407BFF"/>
<path d="M344.539 428.509H351.531L351.192 412.323H344.2L344.539 428.509Z" fill="#FFC3BD"/>
<path d="M352.209 427.696H344.357C344.073 427.696 343.836 427.894 343.797 428.17L342.905 434.381C342.81 435.028 343.363 435.635 344.026 435.62C346.764 435.572 348.082 435.414 351.531 435.414C353.654 435.414 359.754 435.635 362.69 435.635C365.554 435.635 365.775 432.739 364.56 432.471C359.083 431.295 355.224 429.669 353.377 428.122C353.046 427.846 352.628 427.696 352.209 427.696Z" fill="#263238"/>
<g opacity="0.2">
<path d="M351.184 412.331L351.366 420.673H344.374L344.2 412.331H351.184Z" fill="black"/>
</g>
<path d="M363.1 276.555C363.1 276.555 360.204 329.145 358.2 350.366C356.116 372.439 352.707 419.056 352.707 419.056H343.261C343.261 419.056 341.193 371.595 342.732 349.861C344.405 326.17 338.202 293.317 342.329 275.932C346.173 275.94 363.1 276.555 363.1 276.555Z" fill="#263238"/>
<path d="M342.439 419.393H353.527L354.08 415.037L341.99 415.897L342.439 419.393Z" fill="#407BFF"/>
<path d="M307.96 419.393H319.04L320.153 414.761L307.81 415.905L307.96 419.393Z" fill="#407BFF"/>
<path d="M334.358 274.028L333.561 276.545C333.458 276.743 333.679 276.948 334.01 276.956L363.202 277.824C363.454 277.832 363.675 277.713 363.691 277.555L364.023 275.022C364.046 274.849 363.825 274.691 363.549 274.683L334.823 273.831C334.618 273.823 334.429 273.909 334.358 274.028Z" fill="#407BFF"/>
<path d="M338.123 277.359L337.358 277.335C337.208 277.327 337.089 277.248 337.105 277.153L337.563 273.863C337.579 273.768 337.713 273.689 337.863 273.697L338.628 273.721C338.778 273.728 338.897 273.807 338.881 273.902L338.423 277.193C338.415 277.288 338.281 277.366 338.123 277.359Z" fill="#263238"/>
<path d="M361.032 278.036L360.267 278.013C360.117 278.005 359.998 277.926 360.014 277.831L360.472 274.54C360.488 274.446 360.622 274.367 360.772 274.375L361.537 274.398C361.687 274.406 361.806 274.485 361.79 274.58L361.332 277.871C361.324 277.965 361.19 278.044 361.032 278.036Z" fill="#263238"/>
<path d="M349.582 277.698L348.816 277.675C348.666 277.667 348.548 277.588 348.564 277.493L349.021 274.202C349.037 274.108 349.171 274.029 349.321 274.037L350.087 274.06C350.237 274.068 350.355 274.147 350.339 274.242L349.881 277.533C349.866 277.627 349.732 277.706 349.582 277.698Z" fill="#263238"/>
</svg>
