<svg width="350" height="248" viewBox="0 0 350 248" fill="none" xmlns="http://www.w3.org/2000/svg">
<rect width="350" height="248" fill="#80D9FF"/>
<path d="M271 178.199H78.9995V178.295H271V178.199Z" fill="#EBEBEB"/>
<path d="M111.863 184.378H99.1451V184.474H111.863V184.378Z" fill="#EBEBEB"/>
<path d="M148.055 185.421H144.718V185.517H148.055V185.421Z" fill="#EBEBEB"/>
<path d="M122.007 180.814H112.245V180.91H122.007V180.814Z" fill="#EBEBEB"/>
<path d="M251.762 181.459H241.048V181.555H251.762V181.459Z" fill="#EBEBEB"/>
<path d="M237.63 181.459H229.324V181.555H237.63V181.459Z" fill="#EBEBEB"/>
<path d="M205.205 183.079H185.448V183.175H205.205V183.079Z" fill="#EBEBEB"/>
<path d="M170.011 161.073H95.8647C94.6551 161.073 93.6721 160.09 93.6721 158.88V54.6509C93.6721 53.4413 94.6551 52.4583 95.8647 52.4583H170.015C171.225 52.4583 172.208 53.4413 172.208 54.6509V158.88C172.204 160.09 171.221 161.073 170.011 161.073ZM95.8647 52.5543C94.7089 52.5543 93.7681 53.4951 93.7681 54.6509V158.88C93.7681 160.036 94.7089 160.977 95.8647 160.977H170.015C171.171 160.977 172.112 160.036 172.112 158.88V54.6509C172.112 53.4951 171.171 52.5543 170.015 52.5543H95.8647Z" fill="#EBEBEB"/>
<path d="M253.07 161.073H178.919C177.71 161.073 176.727 160.09 176.727 158.88V54.6509C176.727 53.4413 177.71 52.4583 178.919 52.4583H253.07C254.28 52.4583 255.263 53.4413 255.263 54.6509V158.88C255.263 160.09 254.28 161.073 253.07 161.073ZM178.919 52.5543C177.764 52.5543 176.823 53.4951 176.823 54.6509V158.88C176.823 160.036 177.764 160.977 178.919 160.977H253.07C254.226 160.977 255.167 160.036 255.167 158.88V54.6509C255.167 53.4951 254.226 52.5543 253.07 52.5543H178.919Z" fill="#EBEBEB"/>
<path d="M197.069 116.104H104.993C102.547 116.104 100.546 114.103 100.546 111.657V63.5804C100.546 61.1343 102.547 59.1337 104.993 59.1337H197.073C199.519 59.1337 201.519 61.1343 201.519 63.5804V111.661C201.515 114.103 199.515 116.104 197.069 116.104Z" fill="#F0F0F0"/>
<path d="M104.994 114.995C103.155 114.995 101.661 113.501 101.661 111.662V63.5809C101.661 61.7416 103.155 60.2478 104.994 60.2478H197.073C198.913 60.2478 200.407 61.7416 200.407 63.5809V111.662C200.407 113.501 198.913 114.995 197.073 114.995H104.994Z" fill="#FAFAFA"/>
<path d="M108.737 65.5891C109.488 65.5891 110.096 64.9805 110.096 64.2297C110.096 63.479 109.488 62.8704 108.737 62.8704C107.986 62.8704 107.378 63.479 107.378 64.2297C107.378 64.9805 107.986 65.5891 108.737 65.5891Z" fill="#EBEBEB"/>
<path d="M113.991 65.5891C114.742 65.5891 115.35 64.9805 115.35 64.2297C115.35 63.479 114.742 62.8704 113.991 62.8704C113.24 62.8704 112.632 63.479 112.632 64.2297C112.632 64.9805 113.24 65.5891 113.991 65.5891Z" fill="#EBEBEB"/>
<path d="M119.241 65.5891C119.991 65.5891 120.6 64.9805 120.6 64.2297C120.6 63.479 119.991 62.8704 119.241 62.8704C118.49 62.8704 117.881 63.479 117.881 64.2297C117.881 64.9805 118.49 65.5891 119.241 65.5891Z" fill="#EBEBEB"/>
<path d="M241.41 112.31H188.472C185.112 112.31 182.363 109.561 182.363 106.201V73.6527C182.363 70.2927 185.112 67.5432 188.472 67.5432H241.407C244.767 67.5432 247.516 70.2927 247.516 73.6527V106.201C247.516 109.561 244.77 112.31 241.41 112.31Z" fill="white"/>
<path d="M241.411 112.563H188.472C184.963 112.563 182.109 109.71 182.109 106.2V73.6524C182.109 70.1427 184.963 67.2896 188.472 67.2896H241.407C244.917 67.2896 247.77 70.1427 247.77 73.6524V106.2C247.774 109.71 244.917 112.563 241.411 112.563ZM188.472 67.8003C185.243 67.8003 182.62 70.4268 182.62 73.6524V106.2C182.62 109.43 185.247 112.053 188.472 112.053H241.407C244.636 112.053 247.259 109.426 247.259 106.2V73.6524C247.259 70.423 244.632 67.8003 241.407 67.8003H188.472Z" fill="#E0E0E0"/>
<path d="M207.911 106.728C204.962 105.496 202.393 103.507 200.453 100.965L202.519 99.3902C206.697 104.878 214.181 107.112 220.863 104.371C224.853 102.735 227.802 99.6359 229.342 95.9534L231.738 96.9556C227.886 106.172 217.131 110.584 207.911 106.728Z" fill="#E0E0E0"/>
<path d="M231.741 96.9555L229.345 95.9532C230.885 92.2668 231.019 87.9929 229.383 84.0031C227.747 80.0134 224.645 77.0681 220.962 75.5282L221.968 73.1244C226.423 74.9868 229.959 78.5503 231.791 83.0163C233.623 87.486 233.603 92.5011 231.741 96.9555Z" fill="#EBEBEB"/>
<path d="M200.453 100.963C196.517 95.7948 195.634 88.8943 198.137 82.9001C201.997 73.6879 212.753 69.2757 221.965 73.1273L220.959 75.5311C217.272 73.9913 213.002 73.853 209.016 75.4889C201.044 78.7606 197.231 87.8767 200.499 95.8486C201.029 97.1388 201.712 98.3254 202.519 99.3891L200.453 100.963Z" fill="#F5F5F5"/>
<path d="M175 195.542C216.12 195.542 249.454 193.596 249.454 191.195C249.454 188.794 216.12 186.848 175 186.848C133.88 186.848 100.546 188.794 100.546 191.195C100.546 193.596 133.88 195.542 175 195.542Z" fill="#F5F5F5"/>
<g opacity="0.3">
<path d="M235.483 168.812H115.106C113.125 168.812 111.516 167.203 111.516 165.222V73.576C111.516 71.5946 113.125 69.9856 115.106 69.9856H235.479C237.46 69.9856 239.069 71.5946 239.069 73.576V165.222C239.073 167.203 237.464 168.812 235.483 168.812Z" fill="white"/>
<path opacity="0.4" d="M235.483 168.812H115.106C113.125 168.812 111.516 167.203 111.516 165.222V73.576C111.516 71.5946 113.125 69.9856 115.106 69.9856H235.479C237.46 69.9856 239.069 71.5946 239.069 73.576V165.222C239.073 167.203 237.464 168.812 235.483 168.812Z" fill="#407BFF"/>
</g>
<path opacity="0.1" d="M233.609 119.399H116.98C116.634 119.399 116.35 119.118 116.35 118.769V80.4764C116.35 80.1308 116.63 79.8467 116.98 79.8467H233.612C233.958 79.8467 234.242 80.127 234.242 80.4764V118.769C234.238 119.118 233.958 119.399 233.609 119.399Z" fill="#407BFF"/>
<path d="M232.706 118.482H117.882C117.536 118.482 117.252 118.201 117.252 117.852V79.6171C117.252 79.2715 117.532 78.9873 117.882 78.9873H232.706C233.051 78.9873 233.335 79.2676 233.335 79.6171V117.856C233.335 118.201 233.055 118.482 232.706 118.482Z" fill="white"/>
<path opacity="0.1" d="M126.602 81.0085H125.834V116.467H126.602V81.0085Z" fill="#407BFF"/>
<path opacity="0.1" d="M136.418 81.0088H135.65V116.467H136.418V81.0088Z" fill="#407BFF"/>
<path opacity="0.1" d="M146.234 81.0088H145.466V116.467H146.234V81.0088Z" fill="#407BFF"/>
<path opacity="0.1" d="M156.047 81.0088H155.279V116.467H156.047V81.0088Z" fill="#407BFF"/>
<path opacity="0.1" d="M165.862 81.0088H165.094V116.467H165.862V81.0088Z" fill="#407BFF"/>
<path opacity="0.1" d="M175.678 81.0088H174.91V116.467H175.678V81.0088Z" fill="#407BFF"/>
<path opacity="0.1" d="M185.494 81.0088H184.726V116.467H185.494V81.0088Z" fill="#407BFF"/>
<path opacity="0.1" d="M195.308 81.0088H194.54V116.467H195.308V81.0088Z" fill="#407BFF"/>
<path opacity="0.1" d="M205.123 81.0088H204.355V116.467H205.123V81.0088Z" fill="#407BFF"/>
<path opacity="0.1" d="M214.938 81.0088H214.17V116.467H214.938V81.0088Z" fill="#407BFF"/>
<path opacity="0.1" d="M224.754 81.0088H223.986V116.467H224.754V81.0088Z" fill="#407BFF"/>
<path d="M188.528 108.128C188.478 108.128 188.428 108.109 188.389 108.075L169.301 90.5259L149.241 100.702C149.191 100.729 149.129 100.733 149.075 100.71L141.683 97.8449L120.552 105.859C120.448 105.897 120.329 105.847 120.291 105.74C120.252 105.636 120.302 105.517 120.41 105.479L141.614 97.4379C141.66 97.4225 141.714 97.4187 141.76 97.4379L149.141 100.295L169.247 90.0996C169.324 90.0612 169.416 90.0727 169.477 90.1303L188.589 107.702L211.794 102.138L229.973 86.1828C230.057 86.1098 230.184 86.1175 230.261 86.202C230.334 86.2865 230.326 86.4132 230.242 86.49L212.025 102.48C212.002 102.503 211.971 102.518 211.936 102.526L188.578 108.128C188.562 108.128 188.547 108.128 188.528 108.128Z" fill="#E0E0E0"/>
<path d="M120.482 110.66C120.439 110.66 120.397 110.648 120.359 110.621C120.27 110.556 120.251 110.425 120.317 110.337L129.667 97.7916C129.721 97.7187 129.817 97.6918 129.901 97.7225L152.131 106.04L182.394 92.6575C182.456 92.6307 182.525 92.6345 182.582 92.6691L193.853 99.6425L201.694 94.3011C201.721 94.2819 201.755 94.2703 201.79 94.2665L230.087 91.4671C230.198 91.4518 230.298 91.5363 230.31 91.6476C230.321 91.759 230.241 91.8588 230.129 91.8703L201.878 94.662L193.972 100.05C193.906 100.096 193.818 100.096 193.749 100.053L182.459 93.0684L152.219 106.439C152.169 106.462 152.116 106.462 152.066 106.443L129.901 98.1526L120.643 110.575C120.605 110.629 120.543 110.66 120.482 110.66Z" fill="#407BFF"/>
<path opacity="0.2" d="M229.228 162.354H198.016C195.247 162.354 193.001 160.108 193.001 157.339V130.106C193.001 127.337 195.247 125.091 198.016 125.091H229.228C231.996 125.091 234.243 127.337 234.243 130.106V157.343C234.239 160.108 231.996 162.354 229.228 162.354Z" fill="#407BFF"/>
<path opacity="0.4" d="M162.183 157.611L156.784 157.227L156.05 168.812H162.183V157.611Z" fill="#407BFF"/>
<path d="M195.287 189.858H164.076C161.307 189.858 158.903 187.612 158.708 184.843L156.791 157.606C156.596 154.837 158.685 152.591 161.453 152.591H192.665C195.433 152.591 197.837 154.837 198.033 157.606L199.949 184.843C200.145 187.616 198.056 189.858 195.287 189.858Z" fill="#407BFF"/>
<path opacity="0.8" d="M192.668 152.594H161.456C158.687 152.594 156.598 154.841 156.794 157.609L158.346 179.651H199.583L198.032 157.609C197.836 154.841 195.436 152.594 192.668 152.594Z" fill="white"/>
<path d="M178.725 176.468C173.03 176.468 168.069 171.833 167.669 166.138C167.474 163.369 168.372 160.766 170.196 158.808C172.016 156.857 174.535 155.782 177.296 155.782C182.991 155.782 187.952 160.417 188.352 166.111C188.547 168.88 187.649 171.483 185.825 173.442C184.009 175.393 181.486 176.468 178.725 176.468ZM177.3 156.189C174.654 156.189 172.239 157.218 170.496 159.084C168.748 160.958 167.888 163.454 168.076 166.111C168.464 171.599 173.241 176.061 178.725 176.061C181.371 176.061 183.786 175.032 185.529 173.165C187.276 171.291 188.137 168.795 187.948 166.142C187.564 160.651 182.784 156.189 177.3 156.189Z" fill="white"/>
<path d="M183.621 166.123L174.401 161.008L175.119 171.238L183.621 166.123Z" fill="#407BFF"/>
<path d="M217.343 188.347H214.282L214.317 181.255H217.377L217.343 188.347Z" fill="#B55B52"/>
<path d="M235.73 188.347H232.666L231.468 181.255H234.528L235.73 188.347Z" fill="#B55B52"/>
<path d="M232.466 187.991H235.907C236.033 187.991 236.137 188.08 236.156 188.199L236.633 190.921C236.682 191.205 236.448 191.47 236.156 191.467C234.958 191.447 234.375 191.374 232.862 191.374C231.932 191.374 229.421 191.47 228.135 191.47C226.879 191.47 226.741 190.199 227.274 190.084C229.659 189.57 231.168 188.855 231.955 188.176C232.101 188.06 232.286 187.991 232.466 187.991Z" fill="#263238"/>
<path d="M214.321 187.991H217.666C217.793 187.991 217.897 188.08 217.916 188.199L218.392 190.921C218.442 191.202 218.215 191.47 217.927 191.467C216.721 191.447 214.982 191.374 213.465 191.374C211.691 191.374 210.72 191.47 208.638 191.47C207.383 191.47 207.095 190.199 207.625 190.084C210.044 189.562 211.441 189.504 213.573 188.229C213.803 188.091 214.057 187.991 214.321 187.991Z" fill="#263238"/>
<path d="M217.048 92.9886L212.866 91.7675C212.866 91.7675 208.419 102.911 207.325 104.059C205.835 105.622 204.333 108.959 201.899 111.755C202.068 112.246 202.874 113.356 203.304 113.536C206.568 111.298 210.612 107.573 211.434 105.764C213.308 101.648 217.048 92.9886 217.048 92.9886Z" fill="#B55B52"/>
<path d="M218.315 91.0805C219.505 93.7301 215.98 99.3519 215.98 99.3519L209.721 96.637C209.721 96.637 210.884 92.4475 212.777 89.0721C214.72 85.6046 217.009 88.1736 218.315 91.0805Z" fill="#407BFF"/>
<path opacity="0.4" d="M218.315 91.0805C219.505 93.7301 215.98 99.3519 215.98 99.3519L209.721 96.637C209.721 96.637 210.884 92.4475 212.777 89.0721C214.72 85.6046 217.009 88.1736 218.315 91.0805Z" fill="white"/>
<path d="M202.897 110.925L199.733 112.484L202.256 115.506C202.256 115.506 202.997 115.019 203.846 112.941L202.897 110.925Z" fill="#B55B52"/>
<path d="M198.524 116.133L199.18 116.678C199.63 117.05 200.275 117.062 200.736 116.701L202.256 115.51L199.733 112.488L198.312 114.462C197.936 114.988 198.028 115.718 198.524 116.133Z" fill="#B55B52"/>
<path d="M203.769 140.89L173.883 149.891C171.233 150.689 168.434 149.188 167.635 146.535L159.782 120.453C158.983 117.804 160.485 115.004 163.138 114.206L193.025 105.205C195.675 104.406 198.474 105.907 199.273 108.561L207.126 134.642C207.924 137.296 206.423 140.091 203.769 140.89Z" fill="white"/>
<path opacity="0.5" d="M203.769 140.89L173.883 149.891C171.233 150.689 168.434 149.188 167.635 146.535L159.782 120.453C158.983 117.804 160.485 115.004 163.138 114.206L193.025 105.205C195.675 104.406 198.474 105.907 199.273 108.561L207.126 134.642C207.924 137.296 206.423 140.091 203.769 140.89Z" fill="#407BFF"/>
<path d="M183.466 127.558L171.182 133.287C168.778 128.134 169.861 121.997 173.881 117.977C178.512 113.346 185.874 112.701 191.238 116.46L183.466 127.558Z" fill="#64FCD9"/>
<path d="M191.416 117.543C191.796 117.846 192.164 118.172 192.506 118.514C194.902 120.91 196.223 124.121 196.223 127.554C196.223 130.987 194.902 134.197 192.506 136.593C190.11 138.989 186.9 140.31 183.467 140.31C180.034 140.31 176.824 138.989 174.427 136.593C173.552 135.717 172.815 134.727 172.227 133.644L183.793 128.252L183.981 128.164L184.1 127.995L191.416 117.543ZM191.239 116.456L183.467 127.557L171.183 133.283C171.851 134.715 172.765 136.021 173.882 137.138C176.509 139.769 179.988 141.082 183.467 141.082C186.946 141.082 190.421 139.769 193.051 137.138C198.308 131.881 198.308 123.23 193.051 117.973C192.491 117.416 191.884 116.909 191.239 116.456Z" fill="white"/>
<path opacity="0.2" d="M214.318 181.258L214.299 184.913H217.363L217.383 181.258H214.318Z" fill="black"/>
<path opacity="0.2" d="M234.528 181.258H231.467L232.086 184.913H235.15L234.528 181.258Z" fill="black"/>
<path d="M214.424 87.4628C214.424 87.4628 210.339 97.9844 212.95 115.203C217.884 115.203 226.928 115.203 229.328 115.203C229.562 112.688 228.594 99.1479 231.585 87.3053C231.585 87.3053 228.805 86.7409 226.136 86.6141C224.048 86.5143 221.022 86.4452 219.175 86.6141C216.74 86.8369 214.424 87.4628 214.424 87.4628Z" fill="#407BFF"/>
<path opacity="0.4" d="M214.424 87.4628C214.424 87.4628 210.339 97.9844 212.95 115.203C217.884 115.203 226.928 115.203 229.328 115.203C229.562 112.688 228.594 99.1479 231.585 87.3053C231.585 87.3053 228.805 86.7409 226.136 86.6141C224.048 86.5143 221.022 86.4452 219.175 86.6141C216.74 86.8369 214.424 87.4628 214.424 87.4628Z" fill="white"/>
<path opacity="0.2" d="M227.887 90.2308C227.523 92.1816 227.914 96.8433 229.512 102.235C229.715 98.0875 230.195 93.276 231.297 88.4836V88.4606C230.23 88.3492 228.237 88.403 227.887 90.2308Z" fill="black"/>
<path d="M225.538 80.1034C224.993 82.3421 224.643 85.1184 226.137 86.616C226.137 86.616 225.127 88.8893 220.965 88.8893C217.163 88.8893 219.175 86.616 219.175 86.616C221.702 86.0208 221.717 82.9296 221.368 81.1901L225.538 80.1034Z" fill="#B55B52"/>
<path d="M220.968 88.8874C223.422 89.4173 223.909 90.4426 223.909 90.4426C223.909 90.4426 226.962 89.2022 226.847 86.5066C226.847 86.5066 226.129 86.0688 225.676 85.7117C225.676 85.7078 225.407 87.8083 220.968 88.8874Z" fill="white"/>
<path d="M220.969 88.8883C218.983 89.0112 218.062 89.929 218.062 89.929C218.062 89.929 217.562 89.28 218.4 86.6189C218.4 86.6189 219.079 86.3386 219.755 86.1926C219.751 86.1888 219.352 88.3085 220.969 88.8883Z" fill="white"/>
<path opacity="0.2" d="M221.363 81.1901C221.575 82.2116 221.655 83.6938 221.171 84.8688C221.54 84.8151 221.924 84.6999 222.304 84.5271C223.744 83.8628 224.489 82.8183 225.284 81.2669C225.357 80.8714 225.441 80.4797 225.537 80.1034L221.363 81.1901Z" fill="black"/>
<path d="M217.881 78.7388C218.119 79.5145 218.695 80.0905 219.29 80.3708C220.189 80.7932 220.842 80.0022 220.761 79.0499C220.688 78.1897 220.135 76.934 219.152 76.9148C218.18 76.8918 217.608 77.8556 217.881 78.7388Z" fill="#B55B52"/>
<path opacity="0.2" d="M217.881 78.7388C218.119 79.5145 218.695 80.0905 219.29 80.3708C220.189 80.7932 220.842 80.0022 220.761 79.0499C220.688 78.1897 220.135 76.934 219.152 76.9148C218.18 76.8918 217.608 77.8556 217.881 78.7388Z" fill="black"/>
<path d="M221.107 72.4445C219.871 71.9914 217.882 76.5303 220.639 76.7952C223.396 77.0602 222.966 73.128 221.107 72.4445Z" fill="#263238"/>
<path d="M227.484 77.372C226.532 80.3096 226.117 82.0683 224.243 83.2741C221.425 85.0866 218.168 82.9324 218.241 79.8104C218.306 76.9995 219.858 72.668 223.026 72.1112C226.152 71.5621 228.436 74.4382 227.484 77.372Z" fill="#B55B52"/>
<path d="M220.968 74.0582C218.568 72.238 219.939 68.5516 221.832 68.3135C224.405 67.9909 225.88 73.0905 228.859 73.3286C231.839 73.5666 230.553 78.309 226.678 79.63C225.254 80.1177 225.031 78.309 226.452 75.8015C225.538 76.0089 222.354 75.1103 220.968 74.0582Z" fill="#263238"/>
<path d="M220.941 80.4783C221.909 80.5551 222.508 79.9944 222.535 79.9675C222.566 79.9407 222.566 79.8946 222.539 79.8639C222.512 79.8331 222.466 79.8331 222.435 79.8639C222.427 79.8715 221.744 80.509 220.688 80.2978C220.649 80.2901 220.611 80.317 220.603 80.3554C220.596 80.3938 220.619 80.4322 220.657 80.4399C220.753 80.4591 220.849 80.4744 220.941 80.4783Z" fill="#263238"/>
<path d="M227.954 80.9435C227.363 81.5387 226.564 81.8113 225.892 81.8152C224.882 81.819 224.69 80.8475 225.232 80.0257C225.719 79.2884 226.833 78.3976 227.72 78.7854C228.592 79.1694 228.63 80.2638 227.954 80.9435Z" fill="#B55B52"/>
<path d="M223.714 115.203C223.714 115.203 223.3 119.05 222.766 124.273C222.155 130.186 221.399 137.862 220.915 143.715C220.915 143.745 220.911 143.768 220.907 143.795C220.815 144.905 220.731 145.946 220.665 146.902C219.982 156.444 218.38 184.207 218.38 184.207H213.193C213.193 184.207 211.238 155.872 211.353 146.161C211.465 136.826 212.951 115.206 212.951 115.206H223.714V115.203Z" fill="#407BFF"/>
<path d="M218.807 182.177C218.83 182.177 218.715 184.312 218.715 184.312H212.736L212.586 181.966L218.807 182.177Z" fill="#263238"/>
<path opacity="0.2" d="M222.766 124.273C222.155 130.186 221.399 137.863 220.915 143.715C220.915 143.746 220.911 143.769 220.907 143.795C219.767 138.25 219.414 131.35 219.855 119.991L222.766 124.273Z" fill="black"/>
<path d="M218.761 115.203C218.761 115.203 221.15 137.329 222.64 146.092C224.272 155.692 230.696 184.201 230.696 184.201H236.302C236.302 184.201 232.52 156.464 231.783 146.96C230.98 136.646 229.329 115.199 229.329 115.199H218.761V115.203Z" fill="#407BFF"/>
<path d="M236.382 182.303C236.405 182.303 236.577 184.312 236.577 184.312H230.41L229.961 182.073L236.382 182.303Z" fill="#263238"/>
<path d="M222.83 77.2335C222.769 77.4755 222.589 77.6444 222.435 77.6099C222.277 77.5753 222.205 77.3526 222.266 77.1107C222.327 76.8687 222.508 76.6998 222.661 76.7343C222.819 76.7689 222.892 76.9916 222.83 77.2335Z" fill="#263238"/>
<path d="M220.139 76.6472C220.078 76.8892 219.898 77.0581 219.744 77.0236C219.587 76.989 219.514 76.7663 219.575 76.5244C219.636 76.2824 219.817 76.1135 219.971 76.148C220.128 76.1826 220.201 76.4053 220.139 76.6472Z" fill="#263238"/>
<path d="M220.964 76.9542C220.964 76.9542 220.058 78.2329 219.286 78.7782C219.605 79.2697 220.369 79.2429 220.369 79.2429L220.964 76.9542Z" fill="#A02724"/>
<path d="M223.764 76.8843C223.722 76.8728 223.687 76.8421 223.672 76.796C223.472 76.1893 222.957 76.0703 222.954 76.0703C222.881 76.0587 222.831 75.9743 222.85 75.8975C222.869 75.8207 222.95 75.7707 223.026 75.7861C223.053 75.7938 223.698 75.9435 223.948 76.6962C223.971 76.773 223.933 76.8536 223.856 76.8843C223.825 76.892 223.794 76.8959 223.764 76.8843Z" fill="#263238"/>
<path d="M229.635 74.5841C229.65 74.5227 229.692 74.4727 229.758 74.4535C230.614 74.1425 230.764 73.4052 230.764 73.3975C230.779 73.2939 230.894 73.2171 231.006 73.2439C231.117 73.2708 231.19 73.3822 231.171 73.4935C231.163 73.5319 230.975 74.4574 229.915 74.8414C229.807 74.8798 229.688 74.8222 229.646 74.7147C229.627 74.6724 229.623 74.6263 229.635 74.5841Z" fill="#263238"/>
<path d="M231.402 75.286C231.344 75.3052 231.279 75.2937 231.225 75.2553C230.507 74.6985 229.801 74.9634 229.797 74.9673C229.701 75.0095 229.574 74.9519 229.539 74.8444C229.501 74.7369 229.559 74.614 229.662 74.5718C229.701 74.5564 230.584 74.2223 231.471 74.9174C231.559 74.9865 231.578 75.117 231.509 75.213C231.482 75.2476 231.444 75.2745 231.402 75.286Z" fill="#263238"/>
<path d="M219.182 75.5714C219.163 75.5637 219.144 75.556 219.128 75.5407C219.071 75.4869 219.071 75.3947 219.124 75.3371C219.685 74.7343 220.342 74.8303 220.369 74.8341C220.445 74.8418 220.499 74.9186 220.484 74.9992C220.468 75.0799 220.392 75.1336 220.315 75.1221C220.292 75.1183 219.781 75.053 219.332 75.533C219.29 75.5714 219.232 75.5829 219.182 75.5714Z" fill="#263238"/>
<path d="M233.402 91.488L229.535 93.8266C229.535 93.8266 234.362 103.281 233.828 104.759C233.103 106.771 231.993 111.187 230.706 113.407C230.829 113.898 231.54 115.027 231.958 115.235C235.034 113.119 238.421 106.314 238.417 104.39C238.409 100.005 233.402 91.488 233.402 91.488Z" fill="#B55B52"/>
<path d="M231.586 87.3054C234.462 87.7278 237.3 97.7656 237.3 97.7656L231.052 101.202C231.052 101.202 228.598 96.4293 227.446 92.8811C226.24 89.1678 228.498 86.8523 231.586 87.3054Z" fill="#407BFF"/>
<path opacity="0.4" d="M231.586 87.3054C234.462 87.7278 237.3 97.7656 237.3 97.7656L231.052 101.202C231.052 101.202 228.598 96.4293 227.446 92.8811C226.24 89.1678 228.498 86.8523 231.586 87.3054Z" fill="white"/>
<path d="M231.429 188.529C231.195 188.529 230.98 188.49 230.845 188.371C230.741 188.279 230.695 188.149 230.715 187.987C230.726 187.868 230.795 187.811 230.849 187.784C231.191 187.611 232.155 188.218 232.262 188.287C232.285 188.302 232.297 188.333 232.293 188.36C232.285 188.387 232.266 188.41 232.235 188.417C232.02 188.467 231.713 188.529 231.429 188.529ZM231.003 187.895C230.964 187.895 230.933 187.899 230.907 187.914C230.887 187.926 230.864 187.945 230.857 187.999C230.845 188.114 230.872 188.202 230.941 188.264C231.102 188.406 231.502 188.425 232.024 188.318C231.694 188.114 231.237 187.895 231.003 187.895Z" fill="#407BFF"/>
<path d="M232.216 188.422C232.204 188.422 232.193 188.418 232.181 188.414C231.874 188.241 231.29 187.569 231.375 187.227C231.39 187.166 231.44 187.058 231.613 187.039C231.728 187.024 231.828 187.058 231.916 187.131C232.258 187.423 232.289 188.306 232.289 188.345C232.289 188.372 232.277 188.399 232.254 188.41C232.247 188.418 232.231 188.422 232.216 188.422ZM231.659 187.177C231.647 187.177 231.636 187.177 231.624 187.181C231.528 187.193 231.521 187.235 231.513 187.254C231.463 187.458 231.832 187.965 232.135 188.203C232.112 187.945 232.039 187.431 231.82 187.243C231.774 187.201 231.72 187.177 231.659 187.177Z" fill="#407BFF"/>
<path d="M213.019 188.529C212.715 188.529 212.435 188.483 212.285 188.34C212.189 188.252 212.147 188.133 212.166 187.987C212.178 187.903 212.22 187.834 212.297 187.795C212.677 187.588 213.879 188.21 214.017 188.283C214.044 188.298 214.059 188.329 214.052 188.356C214.048 188.387 214.021 188.41 213.99 188.417C213.725 188.471 213.357 188.529 213.019 188.529ZM212.496 187.895C212.439 187.895 212.393 187.903 212.358 187.922C212.327 187.937 212.312 187.96 212.308 187.999C212.297 188.099 212.32 188.171 212.385 188.233C212.566 188.402 213.069 188.429 213.748 188.317C213.337 188.114 212.784 187.895 212.496 187.895Z" fill="#407BFF"/>
<path d="M213.977 188.42C213.965 188.42 213.957 188.416 213.946 188.412C213.585 188.247 212.882 187.583 212.955 187.237C212.97 187.157 213.036 187.053 213.235 187.034C213.381 187.015 213.516 187.061 213.631 187.157C214.003 187.475 214.05 188.301 214.05 188.336C214.05 188.362 214.038 188.386 214.015 188.401C214.003 188.412 213.992 188.42 213.977 188.42ZM213.289 187.176C213.274 187.176 213.258 187.176 213.247 187.18C213.116 187.195 213.105 187.245 213.101 187.26C213.059 187.468 213.531 187.99 213.896 188.217C213.869 187.975 213.781 187.483 213.539 187.272C213.462 187.21 213.381 187.176 213.289 187.176Z" fill="#407BFF"/>
<path d="M231.222 113.271L228.319 113.049L229.701 116.27C229.701 116.27 232.251 116.382 232.769 114.431L231.222 113.271Z" fill="#B55B52"/>
<path d="M226.249 115.269L226.886 116.567C227.105 117.012 227.635 117.2 228.084 116.997L229.697 116.267L228.315 113.045L226.598 114.078C226.191 114.328 226.037 114.843 226.249 115.269Z" fill="#B55B52"/>
<path d="M200.774 111.967C199.991 112.289 198.324 112.627 197.721 112.635C197.606 112.635 197.522 112.746 197.545 112.861C197.602 113.115 197.836 113.372 198.113 113.437C198.436 113.514 199.257 113.668 199.449 113.706C199.476 113.71 199.499 113.722 199.522 113.737C199.691 113.864 200.486 114.424 201.269 114.42C202.018 114.417 201.258 112.619 201.004 112.063C200.966 111.971 200.862 111.928 200.774 111.967Z" fill="#B55B52"/>
<path d="M136.687 85.333C137.021 87.3605 137.305 91.07 135.857 92.3717C135.857 92.3717 137.198 94.8831 140.646 95.7894C143.825 94.1765 142.128 92.5599 142.128 92.5599C139.897 91.957 140.005 90.2905 140.442 88.7353L136.687 85.333Z" fill="#FFC3BD"/>
<path d="M132.107 97.4669C131.869 99.41 131.561 101.303 131.185 103.212C130.82 105.116 130.386 107.013 129.833 108.91C129.553 109.859 129.234 110.819 128.881 111.713C128.539 112.62 128.182 113.51 127.814 114.398C127.08 116.172 126.305 117.926 125.464 119.658L123.839 119.082C124.273 117.216 124.761 115.361 125.264 113.526C125.755 111.683 126.316 109.859 126.719 108.092C127.13 106.291 127.468 104.444 127.787 102.593C128.09 100.742 128.382 98.8608 128.655 97.0215L132.107 97.4669Z" fill="#FFC3BD"/>
<path d="M129.972 92.9706C128.62 93.4852 127.288 98.9495 127.288 98.9495L132.656 103.035C132.656 103.035 134.588 97.7131 133.885 95.9658C133.155 94.1495 131.516 92.3831 129.972 92.9706Z" fill="#407BFF"/>
<path d="M124.173 118.434L121.724 121.172L125.18 121.275C125.18 121.275 126.289 119.394 125.556 118.188L124.173 118.434Z" fill="#FFC3BD"/>
<path opacity="0.2" d="M141.234 157.835L110.326 162.171C107.584 162.555 105.05 160.642 104.666 157.901L100.884 130.929C100.5 128.187 102.412 125.652 105.154 125.268L136.062 120.933C138.804 120.549 141.338 122.461 141.722 125.203L145.504 152.175C145.888 154.917 143.976 157.451 141.234 157.835Z" fill="#407BFF"/>
<path d="M111.358 158.65C109.734 158.65 108.309 157.452 108.079 155.797L104.742 132.016C104.619 131.14 104.845 130.268 105.379 129.562C105.913 128.855 106.689 128.398 107.564 128.275L134.559 124.489C136.368 124.232 138.046 125.499 138.303 127.312L141.64 151.093C141.763 151.968 141.537 152.84 141.003 153.547C140.469 154.253 139.694 154.71 138.818 154.833L111.823 158.619C111.665 158.638 111.512 158.65 111.358 158.65ZM135.024 124.658C134.882 124.658 134.736 124.67 134.59 124.689L107.595 128.475C106.773 128.59 106.044 129.02 105.544 129.685C105.045 130.349 104.834 131.167 104.949 131.989L108.286 155.77C108.524 157.467 110.102 158.654 111.8 158.42L138.795 154.633C139.617 154.518 140.346 154.088 140.846 153.424C141.345 152.759 141.556 151.941 141.441 151.12L138.104 127.339C137.885 125.783 136.549 124.658 135.024 124.658Z" fill="white"/>
<path d="M121.534 124.024L124.43 123.955L125.179 121.275L121.723 121.171L121.534 124.024Z" fill="#FFC3BD"/>
<path d="M148.165 95.2051C148.242 97.3555 147.866 102.374 145.608 114.063L131.807 113.652C132.206 108.042 132.314 104.579 129.971 92.9702C129.971 92.9702 132.882 92.4288 135.854 92.3712C138.181 92.3289 140.086 92.3097 142.121 92.5593C143.718 92.7513 145.439 93.0854 146.572 93.3235C147.474 93.5078 148.134 94.2835 148.165 95.2051Z" fill="#407BFF"/>
<path d="M147.965 95.8416C148.611 97.6924 149.187 99.5318 149.728 101.398C150.277 103.26 150.78 105.138 151.241 107.031L151.41 107.742L151.494 108.099L151.537 108.276C151.54 108.287 151.517 108.233 151.517 108.237C151.491 108.206 151.537 108.314 151.625 108.421C151.713 108.533 151.832 108.667 151.971 108.802C152.539 109.339 153.295 109.873 154.056 110.38C155.599 111.386 157.266 112.342 158.917 113.268L158.264 114.861C156.364 114.293 154.536 113.609 152.723 112.722C151.817 112.269 150.922 111.789 150.016 111.083C149.789 110.902 149.559 110.706 149.325 110.457C149.094 110.207 148.849 109.919 148.634 109.447C148.584 109.339 148.526 109.17 148.495 109.067L148.445 108.894L148.342 108.552L148.134 107.868C147.578 106.044 147.005 104.224 146.429 102.4L144.675 96.9513L147.965 95.8416Z" fill="#FFC3BD"/>
<path d="M146.668 93.3421C149.21 93.8836 150.032 99.2404 150.032 99.2404L145.662 103.23C145.662 103.23 142.091 97.1591 142.935 95.481C143.822 93.73 144.602 92.9044 146.668 93.3421Z" fill="#407BFF"/>
<path d="M158.092 112.938L161.536 114.24L158.737 116.103C158.737 116.103 157.074 115.12 157.197 113.745L158.092 112.938Z" fill="#FFC3BD"/>
<path d="M162.91 116.053L160.783 117.389L158.733 116.103L161.536 114.241L162.91 116.053Z" fill="#FFC3BD"/>
<path d="M144.334 81.6489C144.357 81.9215 144.518 82.1327 144.698 82.1174C144.879 82.102 145.006 81.8678 144.982 81.5951C144.959 81.3225 144.798 81.1113 144.618 81.1266C144.441 81.142 144.314 81.3762 144.334 81.6489Z" fill="#263238"/>
<path d="M144.54 81.1495L145.182 80.9076C145.182 80.9038 144.886 81.4452 144.54 81.1495Z" fill="#263238"/>
<path d="M144.617 82.2373C144.617 82.2373 145.177 83.3778 145.734 83.9C145.4 84.2648 144.774 84.1611 144.774 84.1611L144.617 82.2373Z" fill="#ED847E"/>
<path d="M143.274 81.0173C143.344 81.0212 143.409 80.9828 143.436 80.9175C143.716 80.2263 144.649 80.0036 144.657 79.9997C144.745 79.9805 144.799 79.8922 144.776 79.8077C144.757 79.7194 144.668 79.6656 144.584 79.6887C144.538 79.7002 143.478 79.9536 143.136 80.7984C143.102 80.8791 143.144 80.9751 143.224 81.0096C143.24 81.0096 143.259 81.0135 143.274 81.0173Z" fill="#263238"/>
<path d="M135.006 81.4073C135.486 84.7481 135.62 86.1727 137.456 87.7548C140.217 90.1356 144.214 88.8146 144.74 85.397C145.212 82.3212 144.345 77.3752 140.95 76.3116C137.605 75.2632 134.522 78.0665 135.006 81.4073Z" fill="#FFC3BD"/>
<path d="M140.567 75.3904C139.073 73.5626 132.046 73.6624 134.058 78.3703C131.097 78.7773 131.132 81.6573 131.404 83.8231C131.677 85.9927 129.135 85.5857 128.693 88.2276C128.252 90.8695 129.377 91.1306 127.518 93.2234C125.66 95.3201 128.34 99.6439 131.865 98.5265C135.386 97.4091 138.194 99.6094 142.579 98.7339C146.964 97.8622 147.386 94.3294 146.423 92.3441C145.524 90.4894 144.28 90.2167 144.545 88.4503C144.94 85.8429 143.224 83.3277 141.699 82.5252C143.5 80.778 148.953 75.4941 140.567 75.3904Z" fill="#263238"/>
<path d="M141.84 82.9905C142.101 83.5166 142.55 83.843 142.965 83.9467C143.591 84.1041 143.883 83.4206 143.691 82.7332C143.518 82.115 142.988 81.2932 142.366 81.4392C141.759 81.5889 141.541 82.3876 141.84 82.9905Z" fill="#FFC3BD"/>
<path d="M117.58 187.461C117.242 187.426 116.938 187.342 116.781 187.169C116.681 187.058 116.647 186.923 116.677 186.766C116.696 186.67 116.75 186.601 116.835 186.566C117.272 186.382 118.551 187.207 118.693 187.303C118.72 187.323 118.735 187.357 118.728 187.392C118.72 187.426 118.693 187.449 118.659 187.453C118.363 187.476 117.952 187.499 117.58 187.461ZM117.05 186.701C116.988 186.693 116.935 186.697 116.896 186.716C116.862 186.731 116.842 186.754 116.835 186.797C116.815 186.904 116.835 186.992 116.9 187.062C117.088 187.265 117.641 187.357 118.401 187.307C117.96 187.038 117.368 186.731 117.05 186.701Z" fill="#407BFF"/>
<path d="M118.644 187.449C118.633 187.449 118.621 187.445 118.613 187.438C118.229 187.215 117.504 186.405 117.607 186.028C117.63 185.94 117.707 185.833 117.93 185.833C118.095 185.833 118.241 185.894 118.36 186.017C118.748 186.416 118.736 187.334 118.732 187.372C118.732 187.399 118.717 187.426 118.69 187.441C118.675 187.445 118.659 187.449 118.644 187.449ZM117.976 185.994C117.961 185.994 117.945 185.99 117.926 185.99C117.78 185.99 117.761 186.048 117.757 186.067C117.696 186.293 118.179 186.923 118.563 187.211C118.552 186.942 118.494 186.385 118.237 186.124C118.164 186.048 118.08 186.005 117.976 185.994Z" fill="#407BFF"/>
<path d="M118.409 188.002H121.808L123.563 180.126H120.164L118.409 188.002Z" fill="#FFC3BD"/>
<path d="M118.421 187.239L122.203 186.713C122.342 186.694 122.445 186.778 122.457 186.913L122.706 189.931C122.733 190.242 122.445 190.584 122.13 190.622C120.813 190.784 120.184 190.791 118.517 191.025C117.492 191.168 115.783 191.479 114.358 191.479C112.964 191.479 113.137 190.069 113.759 189.939C116.539 189.367 116.912 188.426 117.845 187.535C118.014 187.37 118.217 187.266 118.421 187.239Z" fill="#263238"/>
<g opacity="0.2">
<path d="M123.563 180.131L122.66 184.19H119.258L120.161 180.131H123.563Z" fill="black"/>
</g>
<path d="M131.807 113.653C128.078 118.918 125.92 138.248 124.58 148.582C123.186 159.334 119.096 183.403 119.096 183.403H123.693C123.693 183.403 130.036 159.023 132.448 148.528C135.109 136.946 140.642 113.653 140.642 113.653C140.642 113.653 135.501 113.653 131.807 113.653Z" fill="#263238"/>
<path opacity="0.2" d="M135.651 122.598C133.404 129.387 133.308 137.943 133.565 143.711C134.948 137.747 136.668 130.447 138.066 124.534L135.651 122.598Z" fill="black"/>
<path d="M141.02 187.845C141.358 187.845 141.669 187.792 141.845 187.634C141.957 187.534 142.007 187.404 141.991 187.242C141.984 187.146 141.934 187.074 141.853 187.027C141.438 186.801 140.083 187.492 139.929 187.573C139.898 187.588 139.883 187.623 139.887 187.657C139.891 187.692 139.918 187.719 139.952 187.726C140.236 187.78 140.643 187.845 141.02 187.845ZM141.623 187.143C141.684 187.143 141.738 187.15 141.772 187.173C141.807 187.193 141.822 187.219 141.826 187.262C141.838 187.369 141.807 187.454 141.734 187.519C141.527 187.703 140.97 187.738 140.213 187.611C140.682 187.385 141.304 187.143 141.623 187.143Z" fill="#407BFF"/>
<path d="M139.963 187.726C139.975 187.726 139.986 187.722 139.998 187.718C140.405 187.534 141.203 186.8 141.142 186.416C141.127 186.324 141.061 186.213 140.839 186.19C140.673 186.174 140.524 186.22 140.393 186.328C139.967 186.685 139.886 187.599 139.882 187.637C139.879 187.664 139.894 187.695 139.917 187.71C139.932 187.718 139.948 187.726 139.963 187.726ZM140.773 186.347C140.789 186.347 140.804 186.347 140.823 186.351C140.969 186.366 140.981 186.424 140.984 186.443C141.023 186.673 140.478 187.249 140.067 187.503C140.105 187.238 140.22 186.689 140.501 186.454C140.581 186.382 140.67 186.347 140.773 186.347Z" fill="#407BFF"/>
<path d="M136.577 188.002H139.979L139.814 180.126H136.412L136.577 188.002Z" fill="#FFC3BD"/>
<path d="M140.309 187.608H136.489C136.35 187.608 136.235 187.704 136.216 187.838L135.782 190.86C135.736 191.175 136.005 191.471 136.327 191.463C137.66 191.44 138.301 191.363 139.979 191.363C141.012 191.363 143.98 191.471 145.409 191.471C146.803 191.471 146.91 190.062 146.319 189.931C143.654 189.359 141.776 188.568 140.878 187.815C140.716 187.681 140.513 187.608 140.309 187.608Z" fill="#263238"/>
<g opacity="0.2">
<path d="M139.81 180.131L139.899 184.19H136.496L136.412 180.131H139.81Z" fill="black"/>
</g>
<path d="M145.608 114.063C145.608 114.063 144.198 139.653 143.223 149.979C142.209 160.719 140.55 183.402 140.55 183.402H135.954C135.954 183.402 134.948 160.308 135.697 149.733C136.511 138.205 133.492 122.219 135.501 113.76C137.371 113.763 145.608 114.063 145.608 114.063Z" fill="#263238"/>
<path d="M135.554 183.567H140.95L141.218 181.447L135.335 181.865L135.554 183.567Z" fill="#407BFF"/>
<path d="M118.778 183.567H124.169L124.71 181.312L118.705 181.869L118.778 183.567Z" fill="#407BFF"/>
<path d="M131.622 112.835L131.234 114.06C131.184 114.156 131.292 114.256 131.453 114.259L145.657 114.682C145.78 114.686 145.888 114.628 145.895 114.551L146.057 113.319C146.068 113.234 145.961 113.157 145.826 113.153L131.849 112.739C131.749 112.735 131.657 112.777 131.622 112.835Z" fill="#407BFF"/>
<path d="M133.455 114.455L133.082 114.443C133.009 114.44 132.952 114.401 132.959 114.355L133.182 112.754C133.19 112.708 133.255 112.669 133.328 112.673L133.7 112.685C133.773 112.688 133.831 112.727 133.823 112.773L133.6 114.374C133.597 114.42 133.531 114.459 133.455 114.455Z" fill="#263238"/>
<path d="M144.602 114.785L144.229 114.773C144.156 114.769 144.099 114.731 144.106 114.685L144.329 113.084C144.337 113.038 144.402 112.999 144.475 113.003L144.847 113.015C144.92 113.018 144.978 113.057 144.97 113.103L144.747 114.704C144.744 114.75 144.678 114.789 144.602 114.785Z" fill="#263238"/>
<path d="M139.03 114.62L138.657 114.609C138.584 114.605 138.527 114.566 138.534 114.52L138.757 112.919C138.765 112.873 138.83 112.834 138.903 112.838L139.276 112.85C139.349 112.854 139.406 112.892 139.398 112.938L139.176 114.539C139.168 114.585 139.103 114.624 139.03 114.62Z" fill="#263238"/>
</svg>
