<svg width="510" height="354" viewBox="0 0 510 354" fill="none" xmlns="http://www.w3.org/2000/svg">
<path fill-rule="evenodd" clip-rule="evenodd" d="M492.733 223.695C484.878 242.296 471.254 245.532 456.828 260.374C442.403 275.215 399.078 266.722 384.173 275.36C343.761 298.778 342.489 325.269 274.268 328.701C249.737 329.935 228.221 327.137 206.287 324.287C183.294 321.3 156.039 330.43 124.93 311.298C49.0405 264.626 1.83017 187.891 0.0610977 147.551C-1.33009 115.828 21.3448 93.9636 36.6146 79.4317C69.0726 48.5424 110.858 57.034 150.003 46.1085C205.235 30.6928 240.643 -1.88999 280.209 0.085985C336.066 -1.37935 370.913 43.9472 414.879 46.1085C446.14 47.6453 550.868 86.0148 492.733 223.695Z" fill="#64FCD9"/>
<path fill-rule="evenodd" clip-rule="evenodd" d="M171.887 320.374C173.049 323.091 173.142 327.21 170.287 328C166.519 326.151 163.834 322.272 163.438 318.104C147.987 318.776 132.535 319.448 117.084 320.119C111.341 320.369 104.253 321.59 102.543 327.061C101.876 322.75 96.1645 321.759 91.7889 321.817C78.7135 321.992 65.6381 322.167 52.5628 322.342C52.3634 316.392 52.164 310.442 51.9647 304.492C51.926 303.339 51.899 302.13 52.4177 301.099C53.8104 298.331 57.8101 298.625 60.8337 299.336C59.8618 289.649 58.8899 279.961 57.918 270.273C53.4096 271.302 54.8599 259.778 50.322 260.668C47.575 261.206 44.9851 258.692 44.3988 255.963C43.8126 253.233 44.6677 250.424 45.5139 247.764C48.0642 246.987 51.7192 247.756 54.3038 246.987C56.8884 246.219 58.4635 244.734 58.3732 242.047C56.4983 186.243 52.4504 130.512 46.2417 75.0206C42.2779 76.7204 37.5578 73.6527 35.9632 69.6557C34.3685 65.6588 35.0516 61.1569 35.8859 56.9366C36.1787 55.4555 36.5383 53.8818 37.6293 52.8349C39.0202 51.5004 41.1579 51.4168 43.0883 51.4124C103.664 51.275 164.24 51.1376 224.816 51.0002C226.137 50.9972 227.591 51.0432 228.567 51.9298C229.459 52.7403 229.695 54.0264 229.88 55.2153C230.6 59.8389 231.307 64.6594 229.891 69.1203C228.475 73.5813 224.243 77.5283 219.581 76.9826C222.131 132.057 224.681 187.131 227.231 242.205C231.386 241.3 236.247 242.833 238.32 246.536C240.392 250.24 238.502 255.836 234.351 256.763C236.999 258.958 235.721 263.63 232.807 265.46C229.892 267.29 226.185 267.103 222.755 266.79C219.325 266.478 215.665 266.145 212.623 267.756C213.341 274.393 213.252 281.115 212.358 287.73C215.307 285.977 219.3 286.16 222.076 288.177C224.003 289.577 225.754 286.17 225.735 283.793C225.693 278.257 225.651 272.72 225.608 267.184C228.616 274.061 229.453 281.864 227.972 289.219C231.68 289.507 235.389 289.796 239.097 290.084C240.212 290.171 241.419 290.296 242.237 291.057C243.051 291.814 243.262 293.001 243.404 294.101C244.317 301.207 244.18 308.447 243.001 315.513C218.973 313.853 196.174 314.383 172.29 317.481C171.691 317.481 170.724 317.657 171.887 320.374Z" fill="white"/>
<ellipse cx="143.399" cy="196.974" rx="0.399769" ry="1.59908" transform="rotate(21 143.399 196.974)" fill="#FFB61D"/>
<path fill-rule="evenodd" clip-rule="evenodd" d="M330.274 205.027C330.274 205.027 326.91 128.602 328.861 90.4247C329.074 86.2567 329.307 81.9851 328.073 77.9982C326.839 74.0114 323.796 70.3033 319.695 69.531C318.887 62.3793 318.995 55.1244 320.016 48C379.125 48.3074 438.234 48.6148 497.343 48.9221C497.557 53.4199 497.77 57.9176 497.984 62.4154C498.186 66.6739 496.5 72.7033 492.322 71.8553C490.625 71.5107 489.81 73.8528 489.721 75.5825C488.988 89.7912 488.254 104 487.521 118.209C485.342 160.437 483.162 202.727 484.624 244.986C488.402 245.174 492.18 245.363 495.957 245.551C496.96 247.924 497.983 250.447 497.609 252.995C497.236 255.543 494.871 257.984 492.352 257.445C494.547 262.562 488.692 268.977 483.397 267.258C483.822 273.376 484.247 279.494 484.671 285.613C484.752 286.767 484.871 288.017 485.655 288.868C488.098 291.524 493.333 287.424 495.913 289.948C496.263 295.965 496.612 301.983 496.961 308C497.057 309.641 497.067 311.511 495.874 312.642C495.074 313.401 493.92 313.626 492.833 313.81C471.629 317.395 449.894 317.818 428.567 315.062C429.713 320.545 430.598 327.025 426.721 331.068C423.861 334.05 424.164 338.329 425.453 336.309C425.203 338.93 422.765 341.156 420.132 341.168C417.873 341.406 418.322 337.631 419.864 335.962C423.249 332.298 427.627 329.019 428.705 324.148C429.782 319.277 417.99 321.761 418.324 324.743C416.19 322.336 416.468 318.191 418.905 316.091C412.553 317.54 405.963 317.938 399.483 317.262C407.667 316.022 415.851 314.781 424.035 313.541C421.706 307.092 395.147 324.164 394.558 337C393.285 329.614 394.223 321.86 397.223 314.991C396.501 313.845 395.566 312.835 394.48 312.026C401.942 309.104 386.957 325.123 384.523 319.037C376.322 319.971 368.12 320.905 359.919 321.839C360.215 323.341 360.99 324.745 362.103 325.796C357.239 326.501 352.355 321.866 352.804 316.972C350.412 321.288 354.103 326.432 357.902 329.58C361.701 332.727 366.308 336.263 366.147 341.194C362.37 342.518 357.729 339.826 357.004 335.89C358.376 338.447 356.813 332.85 355.155 333.374C352.08 334.346 349.831 342.947 351.311 340.088C351.149 343.933 347.428 347.256 343.589 346.984C340.869 341.641 345.363 334.173 351.358 334.075C353.829 334.035 355.294 330.938 354.643 328.554C353.992 326.17 351.998 324.432 350.104 322.845C348.829 324.511 347.182 325.89 345.319 326.852C345.259 324.041 345.812 321.218 346.927 318.637C344.408 321.5 342.987 325.307 343.014 329.12C341.728 325.977 341.843 322.29 343.322 319.232C335.866 320.502 328.296 321.098 320.733 321.009C319.488 312.371 318.242 303.733 316.996 295.094C321.673 293.83 326.518 293.189 331.363 293.194C328.935 278.664 331.363 278.26 328.347 271.717C327.937 270.828 326.482 272.527 325.491 270.525C324.5 268.523 324.058 263.308 324.058 263.308C324.058 263.308 320.014 262.718 319.695 261.629C318.444 257.357 317.038 253.541 320.08 251.243C323.324 248.793 328.402 250.892 331.801 248.662C331.086 245.841 332.061 235.982 329.735 229.852C327.904 225.029 324.091 227.186 320.031 223.697C317.397 221.433 314.524 219.128 313.373 215.85C312.223 212.573 313.792 208.084 317.232 207.606C320.596 207.138 323.139 210.466 324.859 213.394C324.085 210.81 326.153 207.779 328.842 207.556C332.169 218.048 330.274 205.027 330.274 205.027Z" fill="white"/>
<ellipse cx="388.5" cy="183" rx="0.5" ry="2" fill="#FFB61D"/>
<path fill-rule="evenodd" clip-rule="evenodd" d="M100.671 97.1702C101.044 97.4424 101.11 97.945 100.817 98.2926L89.5357 111.693C89.2431 112.041 88.703 112.102 88.3294 111.83C87.9558 111.558 87.8902 111.055 88.1829 110.707L99.4643 97.3065C99.7569 96.9589 100.297 96.8979 100.671 97.1702Z" fill="#E7EAEE"/>
<path fill-rule="evenodd" clip-rule="evenodd" d="M113.731 101.19C114.053 101.475 114.091 101.978 113.817 102.312L100.35 118.72C100.075 119.055 99.5915 119.095 99.2693 118.81C98.9471 118.525 98.9086 118.022 99.1831 117.688L112.65 101.28C112.925 100.945 113.409 100.905 113.731 101.19Z" fill="#E7EAEE"/>
<path fill-rule="evenodd" clip-rule="evenodd" d="M136.67 102.172C137.042 102.45 137.11 102.967 136.822 103.326L124.524 118.681C124.236 119.04 123.702 119.106 123.33 118.828C122.958 118.55 122.89 118.033 123.178 117.674L135.476 102.319C135.764 101.96 136.298 101.894 136.67 102.172Z" fill="#E7EAEE"/>
<path fill-rule="evenodd" clip-rule="evenodd" d="M167.669 101.145C168.026 101.392 168.107 101.87 167.849 102.213L158.447 114.683C158.188 115.025 157.689 115.102 157.331 114.855C156.974 114.608 156.893 114.13 157.151 113.787L166.553 101.317C166.812 100.975 167.311 100.898 167.669 101.145Z" fill="#E7EAEE"/>
<path fill-rule="evenodd" clip-rule="evenodd" d="M380.775 98.2371C381.073 98.5551 381.075 99.0728 380.78 99.3934L370.3 110.758C370.004 111.079 369.523 111.081 369.225 110.763C368.927 110.445 368.925 109.927 369.22 109.607L379.7 98.2419C379.996 97.9213 380.477 97.9191 380.775 98.2371Z" fill="#E7EAEE"/>
<path fill-rule="evenodd" clip-rule="evenodd" d="M396.778 102.237C397.082 102.544 397.073 103.033 396.756 103.328L382.347 116.784C382.031 117.08 381.527 117.071 381.222 116.763C380.918 116.456 380.927 115.967 381.244 115.672L395.653 102.216C395.969 101.92 396.473 101.929 396.778 102.237Z" fill="#E7EAEE"/>
<path fill-rule="evenodd" clip-rule="evenodd" d="M430.781 109.23C431.082 109.528 431.071 109.999 430.756 110.284L421.335 118.793C421.02 119.078 420.52 119.067 420.219 118.77C419.918 118.472 419.929 118.001 420.244 117.716L429.665 109.207C429.98 108.922 430.48 108.933 430.781 109.23Z" fill="#E7EAEE"/>
<path fill-rule="evenodd" clip-rule="evenodd" d="M449.777 109.26C450.09 109.589 450.071 110.105 449.734 110.411L439.403 119.782C439.065 120.088 438.537 120.07 438.223 119.74C437.91 119.411 437.929 118.895 438.266 118.589L448.597 109.218C448.935 108.912 449.463 108.93 449.777 109.26Z" fill="#E7EAEE"/>
<path fill-rule="evenodd" clip-rule="evenodd" d="M274.991 167.753C274.669 165.026 274.53 162.279 274.576 159.535C272.787 158.859 270.796 158.97 268.877 159.091C261.553 159.553 254.229 160.015 246.904 160.476C245.694 160.553 244.458 160.627 243.286 160.324C242.089 160.015 240.72 159.349 239.728 160.066C238.869 160.687 238.94 161.928 239.097 162.952C239.392 164.879 239.687 166.806 239.982 168.733C240.032 169.061 240.099 169.419 240.362 169.632C240.605 169.828 240.948 169.845 241.264 169.853C251.54 170.116 261.826 170.025 272.096 169.581C273.397 169.524 275.139 169.001 274.991 167.753V167.753Z" fill="white"/>
<path fill-rule="evenodd" clip-rule="evenodd" d="M309.959 120.877C310.186 120.049 309.356 119.238 308.46 119.059C307.564 118.881 306.645 119.141 305.756 119.35C302.216 120.18 292.381 120.176 291.046 120.185C287.138 120.21 283.231 120.235 279.323 120.26C278.398 120.266 277.614 120.977 277.285 121.785C276.956 122.592 276.986 123.483 277.02 124.346C277.056 125.238 277.091 126.13 277.127 127.022C277.148 127.554 277.223 128.175 277.712 128.449C277.924 128.567 278.177 128.595 278.423 128.619C282.211 128.992 286.03 129.091 289.834 128.916C296.564 128.606 303.297 127.439 310 128.085C309.329 125.738 309.315 123.231 309.959 120.877Z" fill="white"/>
<path fill-rule="evenodd" clip-rule="evenodd" d="M430.358 318.494C430.438 317.945 430.887 317.512 431.384 317.265C432.739 316.59 434.449 317.06 435.592 318.051C436.736 319.043 437.414 320.46 437.955 321.874C438.148 322.377 438.308 323.003 437.952 323.408C437.819 323.56 437.631 323.653 437.445 323.731C435.88 324.393 434.006 324.319 432.534 323.471C431.061 322.624 430.045 321.003 429.996 319.305C430.634 319.39 430.946 320.097 431.277 320.648C432.416 322.54 435.149 323.255 437.067 322.161C435.251 320.322 432.887 319.03 430.358 318.494Z" fill="#00160A"/>
<path fill-rule="evenodd" clip-rule="evenodd" d="M420.996 302.314C421.548 301.629 422.099 300.945 422.651 300.261C422.286 303.335 419.76 306.026 416.715 306.585C415.775 305.863 414.182 306.343 413.799 307.465C413.233 307.58 412.663 307.136 412.477 306.589C412.291 306.043 412.41 305.437 412.621 304.899C412.938 304.088 413.451 303.37 413.958 302.662C415.67 300.275 417.649 297.708 420.526 297.119C421.27 296.966 422.109 296.98 422.708 297.447C423.307 297.913 423.474 298.949 422.875 299.416C422.181 298.484 420.784 298.331 419.7 298.75C418.617 299.168 417.773 300.027 416.965 300.862C416.182 301.67 415.399 302.479 414.617 303.287C414.186 303.732 413.794 304.553 414.332 304.857C414.946 303.539 416.803 303.432 417.877 302.452C418.808 301.602 419.431 299.978 420.673 300.189C420.026 301.682 418.849 302.938 417.402 303.682C416.78 304.002 416.058 304.279 415.749 304.905C416.708 305.344 417.87 305.096 418.762 304.534C419.655 303.972 420.334 303.135 420.996 302.314Z" fill="#00160A"/>
<path fill-rule="evenodd" clip-rule="evenodd" d="M394.979 299.15C396.496 299.418 398.14 298.568 398.8 297.176C399.459 295.784 399.074 293.973 397.906 292.97C398.243 292.557 398.895 292.505 399.366 292.754C399.838 293.002 400.147 293.485 400.324 293.987C400.892 295.597 400.258 297.434 399.152 298.734C398.045 300.034 396.53 300.904 395.046 301.749C394.359 302.14 393.641 302.541 392.852 302.589C392.063 302.638 391.185 302.22 390.977 301.457C390.909 301.208 390.924 300.922 391.081 300.716C391.849 299.709 393.659 302.099 394.486 301.139C394.287 300.371 394.089 299.603 393.89 298.835C394.247 298.959 394.606 299.084 394.979 299.15Z" fill="#00160A"/>
<path fill-rule="evenodd" clip-rule="evenodd" d="M381.075 296.788C379.383 296.582 378.179 294.753 378.364 293.059C378.549 291.365 379.877 289.939 381.457 289.3C381.94 289.104 382.544 288.989 382.944 289.325C383.343 289.661 383.068 290.533 382.57 290.378C381.35 290.001 380.184 291.227 379.846 292.459C379.631 293.243 379.618 294.131 380.052 294.818C380.486 295.505 381.464 295.876 382.158 295.453C382.658 295.148 383.168 295.854 383.287 296.428C383.406 297.001 383.669 297.759 384.251 297.691C385.208 297.215 385.566 296.066 386.111 295.147C386.656 294.227 387.89 293.428 388.73 294.09C388.837 294.175 388.935 294.292 388.941 294.429C388.947 294.578 388.846 294.708 388.75 294.823C387.815 295.928 386.782 296.95 385.667 297.873C384.921 298.49 383.888 299.088 383.044 298.611C382.246 298.16 381.985 296.899 381.075 296.788Z" fill="#00160A"/>
<path fill-rule="evenodd" clip-rule="evenodd" d="M389.219 314.122C388.392 313.386 387.548 312.632 387.008 311.666C386.468 310.7 386.276 309.465 386.8 308.49C386.943 308.223 387.164 307.965 387.463 307.917C387.762 307.868 388.106 308.147 388.019 308.437C387.638 309.707 388.192 311.198 389.311 311.909C389.744 312.185 390.324 312.7 389.961 313.062C389.528 313.493 390.317 314.077 390.919 314.175C392.076 314.364 393.234 314.553 394.391 314.742C394.165 315.696 392.989 316.16 392.03 315.955C391.071 315.75 390.292 315.075 389.559 314.424C389.446 314.323 389.332 314.222 389.219 314.122Z" fill="#00160A"/>
<path fill-rule="evenodd" clip-rule="evenodd" d="M346.59 343.133C346.705 342.423 346.82 341.714 346.935 341.004C347.001 340.597 347.07 340.181 347.265 339.818C347.499 339.385 347.894 339.064 348.278 338.755C349.332 337.908 350.386 337.06 351.44 336.213C352.27 336.845 352.437 338.185 351.787 339.002C351.734 338.25 351.246 337.544 350.562 337.229C349.796 339.504 348.408 341.566 346.59 343.133Z" fill="#00160A"/>
<path fill-rule="evenodd" clip-rule="evenodd" d="M427.925 332.726C428.314 334.813 429.113 336.824 430.264 338.609C431.17 340.015 430.341 341.854 429.511 343.306C429.137 343.451 428.784 342.965 428.846 342.568C428.908 342.172 429.198 341.856 429.385 341.501C430.121 340.108 429.208 338.456 428.397 337.106C427.586 335.755 426.889 333.913 427.925 332.726L427.925 332.726Z" fill="#00160A"/>
<path fill-rule="evenodd" clip-rule="evenodd" d="M277.022 169.794C277.006 170.278 276.983 170.787 276.73 171.2C276.269 171.953 275.256 172.101 274.375 172.167C262.495 173.057 250.558 173.185 238.661 172.55C238.513 172.542 238.361 172.533 238.227 172.468C237.9 172.309 237.811 171.891 237.762 171.53C237.431 169.113 237.1 166.696 236.769 164.279C236.532 162.55 236.332 160.648 237.29 159.189C238.593 157.207 241.356 156.971 243.728 156.938C254.507 156.787 265.286 156.636 276.065 156.485C276.519 156.479 277.057 156.515 277.298 156.9C277.437 157.122 277.433 157.402 277.424 157.665C277.29 161.708 277.156 165.751 277.022 169.794ZM275.133 167.957C274.813 165.154 274.676 162.33 274.721 159.509C272.947 158.815 270.974 158.929 269.073 159.053C261.814 159.528 254.555 160.002 247.296 160.477C246.096 160.556 244.871 160.632 243.709 160.321C242.523 160.003 241.166 159.318 240.183 160.055C239.332 160.694 239.402 161.969 239.558 163.022C239.85 165.003 240.142 166.984 240.435 168.965C240.484 169.302 240.551 169.67 240.812 169.888C241.052 170.09 241.392 170.108 241.706 170.116C251.89 170.387 262.085 170.293 272.263 169.836C273.552 169.778 275.279 169.24 275.133 167.957Z" fill="#FFB61D"/>
<path fill-rule="evenodd" clip-rule="evenodd" d="M419.207 322.334C419.75 320.421 420.711 318.628 422.004 317.117C421.982 319.168 420.903 321.18 419.207 322.334L419.207 322.334Z" fill="#00160A"/>
<path fill-rule="evenodd" clip-rule="evenodd" d="M424.076 333.899C423.721 334.992 423.175 336.023 422.469 336.93C422.168 337.316 421.784 337.708 421.295 337.732C421.931 336.253 422.66 334.667 424.076 333.899L424.076 333.899Z" fill="#00160A"/>
<path fill-rule="evenodd" clip-rule="evenodd" d="M432.788 339.754C433.574 340.304 434.359 340.854 435.145 341.404C435.319 341.526 435.515 341.746 435.39 341.92C434.197 341.806 433.117 340.907 432.788 339.754Z" fill="#00160A"/>
<path fill-rule="evenodd" clip-rule="evenodd" d="M434.228 339.449C433.416 339.697 432.727 338.367 433.398 337.848C433.854 338.289 434.19 338.854 434.361 339.465L434.228 339.449Z" fill="#00160A"/>
<path fill-rule="evenodd" clip-rule="evenodd" d="M423.9 316.56C424.492 317.31 424.512 318.389 424.192 319.29C423.873 320.191 423.263 320.954 422.664 321.698C422.104 322.394 421.396 323.158 420.506 323.09C420.353 322.484 420.915 321.964 421.373 321.54C422.768 320.248 423.681 318.448 423.9 316.56Z" fill="#00160A"/>
<path fill-rule="evenodd" clip-rule="evenodd" d="M430.509 336.186C431.502 335.281 432.991 334.961 434.267 335.377C435.544 335.794 436.558 336.931 436.826 338.247C437.023 339.211 437.121 340.562 438.101 340.658C438.277 341.288 437.154 341.526 436.747 341.013C436.341 340.5 436.415 339.774 436.313 339.127C436.04 337.398 434.17 336.097 432.454 336.443C431.754 336.583 430.799 336.838 430.509 336.186L430.509 336.186Z" fill="#00160A"/>
<path fill-rule="evenodd" clip-rule="evenodd" d="M356.554 347.282C356.079 345.759 357.168 344.007 356.498 342.558C356.278 342.082 355.892 341.707 355.554 341.306C354.438 339.979 353.806 338.254 353.802 336.52C353.8 335.992 354.039 335.297 354.565 335.348C355.256 335.416 355.079 336.447 355.033 337.14C354.946 338.455 356.092 339.469 356.813 340.573C357.886 342.216 358.05 344.415 357.231 346.199C356.93 346.855 357.528 347.538 357.943 348.13C359.023 349.668 358.934 351.926 357.735 353.375C357.285 353.073 357.265 352.409 357.43 351.893C357.595 351.376 357.896 350.893 357.927 350.352C357.992 349.217 356.892 348.368 356.554 347.282H356.554Z" fill="#00160A"/>
<path fill-rule="evenodd" clip-rule="evenodd" d="M379.885 186.843C380.506 186.157 381.568 186.904 382.435 187.229C384.115 187.859 385.968 186.647 387.744 186.903C386.755 188.942 383.961 189.181 381.713 188.89C381.15 188.817 380.558 188.715 380.124 188.349C379.689 187.983 379.503 187.264 379.885 186.843L379.885 186.843Z" fill="#00160A"/>
<path fill-rule="evenodd" clip-rule="evenodd" d="M384.255 180.346C383.925 179.926 383.976 179.333 384.042 178.804C384.09 178.427 384.137 178.051 384.184 177.674C384.296 176.788 384.661 175.66 385.554 175.653C386.487 175.646 386.843 176.863 386.862 177.796C386.879 178.605 386.836 179.475 386.345 180.118C385.854 180.761 384.755 180.982 384.255 180.346V180.346Z" fill="#00160A"/>
<path fill-rule="evenodd" clip-rule="evenodd" d="M378.647 176.13C379.085 176.231 379.186 176.8 379.195 177.25C379.225 178.742 378.917 180.68 377.451 180.955C376.733 179.601 376.868 177.839 377.782 176.609C377.991 176.329 378.306 176.051 378.647 176.13L378.647 176.13Z" fill="#00160A"/>
<path fill-rule="evenodd" clip-rule="evenodd" d="M381.545 178.085C381.656 178.277 381.582 178.517 381.519 178.73C380.896 180.815 381.586 183.234 383.216 184.677C381.997 185.448 380.294 184.384 379.873 183.006C379.451 181.627 379.902 180.149 380.35 178.779C380.533 178.22 381.253 177.575 381.545 178.085L381.545 178.085Z" fill="#00160A"/>
<path fill-rule="evenodd" clip-rule="evenodd" d="M312.21 130.352C310.07 130.488 307.93 130.624 305.79 130.76C296.532 131.35 287.274 131.939 278.015 132.529C276.708 132.612 274.952 132.347 274.8 131.046C274.332 127.017 274.417 122.923 275.054 118.917C275.319 117.247 277.483 116.801 279.173 116.745C289.4 116.408 299.627 116.071 309.854 115.734C311.113 115.692 312.229 116.659 312.757 117.803C313.285 118.946 313.347 120.242 313.401 121.5C313.503 123.908 313.605 126.316 313.707 128.724C313.724 129.142 313.728 129.605 313.457 129.924C313.165 130.269 312.661 130.323 312.21 130.352ZM309.968 120.504C310.194 119.622 309.368 118.758 308.478 118.568C307.587 118.378 306.672 118.655 305.789 118.877C302.269 119.761 292.49 119.757 291.162 119.767C287.277 119.793 283.392 119.82 279.506 119.847C278.586 119.853 277.806 120.611 277.479 121.471C277.152 122.332 277.182 123.281 277.216 124.201C277.252 125.151 277.287 126.102 277.322 127.052C277.343 127.619 277.418 128.281 277.904 128.572C278.114 128.699 278.367 128.728 278.611 128.754C282.377 129.151 286.175 129.257 289.957 129.071C296.649 128.74 303.344 127.497 310.009 128.185C309.342 125.684 309.328 123.012 309.968 120.504Z" fill="#FFB61D"/>
<path fill-rule="evenodd" clip-rule="evenodd" d="M157.257 294.093C156.821 294.235 156.166 294.257 156.088 293.805C156.75 293.016 158.118 292.98 158.821 293.733C158.447 294.141 157.822 294.298 157.299 294.115L157.257 294.093Z" fill="#00160A"/>
<path fill-rule="evenodd" clip-rule="evenodd" d="M388.445 173.44C389.039 174.075 389.585 174.788 389.834 175.621C390 176.174 389.212 176.605 388.678 176.385C388.145 176.165 387.845 175.612 387.527 175.131C387.209 174.649 386.741 174.16 386.166 174.201C385.582 174.243 385.202 173.446 385.49 172.936C385.777 172.427 386.474 172.266 387.035 172.432C387.596 172.597 388.046 173.013 388.445 173.44L388.445 173.44Z" fill="#00160A"/>
<path fill-rule="evenodd" clip-rule="evenodd" d="M181.568 278.989C180.868 275.628 180.091 272.249 178.626 269.145C177.161 266.04 174.943 263.193 171.935 261.539C170.35 260.668 168.6 260.151 166.931 259.453C164.889 258.6 162.962 257.469 161.22 256.102C162.775 255.226 164.702 256.049 166.287 256.87C169.982 258.785 173.762 260.764 176.549 263.854C180.259 267.967 181.786 273.564 182.889 278.991C182.489 279.221 181.967 279.22 181.568 278.989Z" fill="#00160A"/>
<path fill-rule="evenodd" clip-rule="evenodd" d="M164.243 308.003C164.25 307.735 164.31 307.418 164.555 307.31C165.337 306.97 165.6 309.172 166.304 308.692C167.123 308.134 168.279 309.354 167.852 310.248C167.425 311.143 166.077 311.27 165.291 310.667C164.504 310.065 164.217 308.994 164.243 308.003Z" fill="#00160A"/>
<path fill-rule="evenodd" clip-rule="evenodd" d="M161.631 298.279C160.751 296.805 161.067 294.907 161.694 293.309C162.073 292.345 162.652 291.333 163.64 291.024C164.629 290.715 165.927 291.669 165.537 292.629C164.613 292.924 163.653 293.276 163.025 294.015C162.397 294.753 162.261 295.998 162.991 296.636C163.353 296.953 163.281 297.533 163.12 297.987C162.959 298.441 162.738 298.93 162.899 299.383C163.061 299.837 163.857 299.985 163.97 299.517C164.095 299.002 164.895 299.023 165.272 299.395C165.65 299.766 165.801 300.316 166.149 300.715C166.498 301.114 167.255 301.261 167.491 300.787C167.717 300.335 168.452 300.365 168.759 300.765C169.065 301.166 169.003 301.754 168.76 302.196C168.231 303.158 166.877 303.555 165.913 303.031C165.346 302.723 164.954 302.178 164.474 301.747C163.994 301.316 163.307 300.987 162.714 301.242C162.148 301.485 161.654 300.709 161.682 300.093C161.71 299.477 161.947 298.808 161.631 298.279Z" fill="#00160A"/>
<path fill-rule="evenodd" clip-rule="evenodd" d="M140.902 197.382C142.046 196.392 142.453 194.64 141.863 193.247C141.643 192.726 141.428 191.912 141.977 191.777C143.647 193.238 143.789 196.116 142.271 197.734C142.006 198.016 141.653 198.276 141.27 198.224C140.888 198.172 140.61 197.635 140.902 197.382L140.902 197.382Z" fill="#00160A"/>
<path fill-rule="evenodd" clip-rule="evenodd" d="M138.253 188.561C139.106 188.584 139.748 189.444 139.821 190.294C139.895 191.144 139.544 191.969 139.171 192.736C138.94 193.211 138.554 193.757 138.034 193.668C137.642 193.601 137.414 193.199 137.245 192.839C136.869 192.039 136.505 191.183 136.589 190.303C136.673 189.423 137.369 188.537 138.253 188.561V188.561Z" fill="#00160A"/>
<path fill-rule="evenodd" clip-rule="evenodd" d="M144.24 192.561C143.508 192.76 143.103 191.724 143.125 190.965C143.146 190.294 143.241 189.592 143.633 189.048C144.026 188.503 145.004 187.849 145.377 188.751C145.75 189.653 145.527 191.018 144.832 192.051C144.684 192.272 144.497 192.49 144.24 192.561Z" fill="#00160A"/>
<path fill-rule="evenodd" clip-rule="evenodd" d="M135.832 197.855C136.082 197.808 136.333 197.761 136.584 197.714C136.66 198.55 137.471 199.116 138.253 199.423C139.035 199.731 139.906 199.926 140.493 200.527C140.706 200.744 140.852 201.141 140.605 201.318C140.496 201.396 140.352 201.394 140.219 201.385C138.168 201.25 135.937 199.907 135.832 197.855Z" fill="#00160A"/>
<path fill-rule="evenodd" clip-rule="evenodd" d="M135.562 187.369C135.003 187.243 134.987 186.348 135.447 186.007C135.907 185.665 136.55 185.743 137.1 185.903C138.312 186.255 139.428 186.935 140.296 187.851C138.787 188.524 136.903 186.406 135.562 187.369V187.369Z" fill="#00160A"/>
<path fill-rule="evenodd" clip-rule="evenodd" d="M100.579 297.54C102.033 298.221 103.98 296.847 103.826 295.249C104.762 296.059 105.795 297.201 105.374 298.365C105.217 298.8 104.875 299.141 104.51 299.424C103.232 300.416 101.611 300.854 100.013 301.104C98.3392 301.367 96.4604 301.396 95.1422 300.331C93.8401 299.279 93.4827 297.23 94.352 295.799C94.5661 295.447 94.869 295.117 95.2693 295.018C96.1463 294.803 96.8833 295.827 96.8727 296.73C96.8622 297.633 96.4109 298.471 96.26 299.361C96.2331 299.52 96.216 299.684 96.2554 299.841C96.4192 300.491 97.4161 300.514 97.9114 300.062C98.4067 299.609 98.5896 298.918 98.9317 298.34C99.2737 297.763 99.9718 297.256 100.579 297.54ZM100.608 300.334C100.891 300.069 101.174 299.805 101.457 299.54C101.351 299.201 100.895 299.028 100.59 299.212C100.286 299.395 100.226 299.879 100.477 300.132L100.608 300.334Z" fill="#00160A"/>
<path fill-rule="evenodd" clip-rule="evenodd" d="M93.9003 307.089C94.2401 308.048 95.5686 308.293 96.4967 307.877C96.6786 307.796 96.8631 307.685 96.946 307.503C97.1863 306.978 96.4184 306.448 96.5282 305.88C96.6211 305.401 97.2579 305.265 97.7363 305.365C98.2147 305.465 98.7066 305.691 99.1708 305.538C99.7088 305.361 99.9642 304.755 100.099 304.205C100.234 303.655 100.339 303.046 100.768 302.676C101.197 302.306 102.063 302.466 102.081 303.032C102.116 304.128 101.28 305.052 100.405 305.712C99.5291 306.372 98.527 306.935 97.9525 307.869C97.4069 308.756 97.0906 310.07 96.0544 310.173C95.7223 310.206 95.394 310.087 95.093 309.943C92.9302 308.907 91.6432 306.308 92.1302 303.96C92.3462 302.918 93.3884 301.774 94.2986 302.325C95.0348 302.77 94.8874 303.885 94.5121 304.659C94.1367 305.434 93.6129 306.278 93.9003 307.089Z" fill="#00160A"/>
<path fill-rule="evenodd" clip-rule="evenodd" d="M151.854 236.521C152.841 250.248 161.912 261.865 170.594 272.542C173.061 275.575 175.69 278.73 179.325 280.17C186.168 282.879 194.664 278.776 200.987 282.544C167.905 282.62 134.827 284.432 101.935 287.968C99.1041 288.273 96.1806 288.582 93.459 287.746C90.7374 286.911 88.25 284.61 88.1369 281.765C86.6916 245.409 85.2462 209.053 83.8009 172.697C83.5332 165.962 83.2624 159.2 82.0334 152.573C80.4249 143.899 80.3864 135.021 80.353 126.2C80.3096 114.73 80.2662 103.26 80.2228 91.7902C117.508 90.1759 154.851 89.9018 192.155 90.9686C193.686 93.2452 193.995 96.102 194.251 98.8331C198.58 145.07 199.924 191.528 201.266 237.947C201.668 251.856 202.07 265.766 202.472 279.675C201.782 279.445 201.092 279.215 200.402 278.985C198.776 235.06 197.15 191.134 195.524 147.209C195.493 146.371 195.407 145.42 194.746 144.903C194.24 144.507 193.543 144.492 192.9 144.495C158.319 144.621 123.738 144.747 89.1573 144.873C86.4761 144.882 82.7098 146.277 83.5797 148.813C87.7801 161.059 86.2992 174.398 86.3493 187.344C86.3771 194.538 86.894 201.721 87.4107 208.897C88.0408 217.648 88.6709 226.399 89.301 235.151C90.7978 231.267 92.2945 227.383 93.7912 223.499C94.1384 222.599 94.4516 221.477 93.8112 220.754C89.0541 215.387 90.5454 205.8 96.7079 202.132C97.8911 201.428 99.2152 200.907 100.184 199.929C102.912 197.176 101.623 192.322 103.634 189.01C106.619 184.094 115.843 183.91 116.163 178.167C116.453 172.98 121.162 168.796 126.261 167.802C131.361 166.808 136.645 168.426 141.238 170.855C145.721 173.226 150.165 177.073 150.358 182.141C150.434 184.135 149.828 186.085 149.229 187.988C147.058 194.883 144.508 202.304 138.511 206.341C146.248 214.467 151.05 225.33 151.854 236.521ZM146.155 254.873C150.606 263.637 159.056 269.88 163.401 278.698C163.596 279.093 163.799 279.513 164.167 279.755C164.586 280.032 165.124 280.018 165.626 280.004C169.426 279.896 173.24 280.285 176.94 281.16C168.181 273.564 161.576 263.818 155.583 253.894C153.422 250.314 151.269 246.513 151.057 242.336C150.438 230.157 145.968 218.202 138.444 208.605C135.678 205.077 129.727 205.759 126.55 208.922C123.373 212.085 122.356 216.792 121.893 221.251C121.742 222.702 121.64 224.207 122.121 225.585C122.602 226.962 123.812 228.186 125.27 228.238C126.728 228.29 128.148 226.756 127.642 225.388C128.16 226.497 128.678 227.607 129.196 228.716C127.071 231.001 122.948 230.257 120.994 227.825C119.039 225.394 118.874 221.942 119.541 218.895C121.117 211.701 127.123 205.675 134.311 204.075C134.396 202.673 132.321 202.256 131.044 202.841C129.767 203.426 128.549 204.505 127.165 204.261C125.9 204.039 125.179 205.607 124.73 206.81C122.2 213.59 114.962 217.093 109.11 221.349C107.114 222.8 105.145 224.442 102.749 225.033C100.354 225.624 97.3659 224.747 96.5125 222.432C89.1847 241.366 87.4491 262.426 91.5784 282.304C91.8719 283.717 93.1715 284.747 94.5581 285.147C95.9446 285.547 97.4204 285.435 98.8588 285.318C120.188 283.593 141.518 281.868 162.848 280.143C157.767 270.353 148.21 263.309 143.856 253.174C142.841 250.811 142.124 248.307 140.835 246.08C138.883 242.709 135.698 240.115 134.104 236.56C132.179 239.208 130.254 241.856 128.33 244.503C127.896 245.099 128.096 245.926 128.314 246.63C128.797 248.19 129.301 249.791 130.329 251.06C131.356 252.329 133.044 253.204 134.625 252.798C137.851 251.971 141.525 253.364 143.39 256.122C139.446 255.378 135.501 254.634 131.556 253.89C130.985 253.783 130.386 253.662 129.942 253.285C129.566 252.966 129.351 252.502 129.146 252.053C128.412 250.441 127.679 248.829 126.945 247.217C126.305 245.811 125.677 244.114 126.493 242.803C127.184 241.692 128.621 241.359 129.698 240.617C132.671 238.571 132.282 234.043 130.927 230.698C129.572 227.353 127.542 223.909 128.324 220.385C129.928 225.598 131.569 230.889 134.562 235.448C136.772 238.813 139.673 241.702 141.699 245.181C143.489 248.255 144.544 251.701 146.155 254.873ZM82.8139 95.1231C82.9051 103.269 82.9963 111.415 83.0875 119.561C83.1076 121.356 83.7676 123.784 85.5572 123.641C120.918 120.831 156.439 120.032 191.891 121.25C192.873 121.284 193.684 120.382 193.902 119.424C194.12 118.466 193.894 117.47 193.683 116.51C192.075 109.198 191.311 101.701 191.41 94.2147C191.426 93.0269 189.843 92.6264 188.656 92.6047C153.9 91.9695 119.13 92.1612 84.3834 93.1796C84.0416 93.1897 83.6807 93.2054 83.3931 93.3904C82.857 93.7352 82.8067 94.4857 82.8139 95.1231M195.407 141.124C195.541 135.013 195.17 128.891 194.3 122.841C191.454 123.912 188.332 124.24 185.326 123.785C182.344 123.334 179.317 123.308 176.302 123.283C162.481 123.169 148.659 123.055 134.84 123.299C118.118 123.594 101.41 124.414 84.712 125.365C84.2559 125.391 83.7636 125.431 83.418 125.73C82.9692 126.118 82.9315 126.789 82.9309 127.382C82.926 132.116 83.1292 136.85 83.5396 141.566C83.5644 141.852 83.5974 142.156 83.7789 142.378C84.0647 142.727 84.587 142.731 85.0375 142.707C118.058 140.927 151.157 142.076 184.225 142.107C187.978 142.11 191.781 142.093 195.407 141.124ZM118.347 175.237C117.452 177.4 117.414 179.912 116.13 181.869C113.522 185.844 107.044 185.789 104.605 189.869C102.629 193.174 104.138 197.982 101.545 200.827C100.242 202.257 98.2321 202.77 96.6048 203.816C93.1942 206.01 91.771 210.626 92.8186 214.543C93.8662 218.461 97.0626 221.595 100.806 223.155C101.471 223.433 102.185 223.67 102.9 223.582C103.709 223.482 104.404 222.985 105.061 222.503C109.591 219.182 114.121 215.861 118.651 212.54C120.319 211.317 122.05 210.02 122.951 208.158C124.477 205.005 123.375 200.74 125.782 198.195C126.711 197.213 128.045 196.659 128.879 195.595C129.713 194.531 129.611 192.538 128.288 192.259C126.846 191.954 127.227 189.66 128.372 188.732C129.517 187.804 131.143 187.223 131.574 185.814C131.98 184.485 131.369 182.497 132.684 182.046C133.44 181.787 134.189 182.376 134.859 182.812C137.812 184.737 142.27 183.73 144.109 180.722C144.823 179.553 146.662 180.798 146.996 182.126C147.331 183.455 147.381 185.167 148.642 185.703C149.891 183.743 149.515 181.078 148.291 179.103C147.067 177.127 145.138 175.706 143.211 174.407C139.258 171.742 134.919 169.315 130.164 168.957C125.409 168.599 120.172 170.832 118.347 175.237ZM132.52 192.353C131.42 196.383 125.757 198.131 125.292 202.283C126.351 203.445 128.294 202.896 129.603 202.025C130.27 201.582 130.915 201.054 131.279 200.341C131.643 199.627 131.666 198.691 131.153 198.076C130.708 197.541 131.712 196.815 132.307 197.176C132.903 197.536 133.052 198.312 133.233 198.984C133.619 200.417 134.409 201.739 135.488 202.757C136.388 203.605 137.701 204.262 138.836 203.773C139.304 203.571 139.675 203.199 140.021 202.826C143.609 198.948 145.84 193.839 146.246 188.571C146.292 187.973 146.266 187.266 145.776 186.92C145.294 186.58 144.641 186.777 144.057 186.857C143.474 186.937 142.698 186.717 142.671 186.129C143.338 185.483 144.479 185.405 145.228 185.953C145.544 186.185 145.854 185.639 145.842 185.247C145.81 184.129 145.45 183.021 144.819 182.098C143.428 183.648 141.625 184.905 139.577 185.287C137.53 185.668 135.237 185.054 133.916 183.443C133.119 185.144 132.766 187.05 132.9 188.924C132.948 189.597 131.969 189.804 131.331 189.587C130.692 189.371 129.963 188.993 129.401 189.366C128.855 189.728 128.917 190.608 129.353 191.096C129.789 191.584 130.457 191.781 131.087 191.956C131.565 192.088 132.042 192.22 132.52 192.353ZM92.2813 231.245C92.3787 230.831 92.4238 230.29 92.0505 230.086C91.1117 232.848 90.2298 235.629 89.4054 238.427C89.0889 239.501 88.7937 240.714 89.3372 241.693C89.7294 241.71 89.9302 241.238 90.0201 240.856C90.7739 237.652 91.5276 234.449 92.2813 231.245Z" fill="#00160A"/>
<path fill-rule="evenodd" clip-rule="evenodd" d="M180.587 312.056C200.944 310.414 221.395 309.934 241.807 310.618C241.212 303.755 240.617 296.892 240.022 290.03C219.197 290.968 198.373 291.907 177.548 292.845C176.908 298.942 174.543 304.847 170.799 309.701C168.995 312.04 170.546 315.343 171.704 318.059C172.863 320.776 172.956 324.894 170.11 325.683C166.355 323.835 163.679 319.956 163.284 315.79C147.884 316.461 132.485 317.133 117.085 317.804C111.361 318.054 104.297 319.274 102.593 324.744C101.927 320.434 96.2356 319.443 91.8746 319.502C78.843 319.677 65.8114 319.852 52.7798 320.027C52.5811 314.078 52.3824 308.129 52.1838 302.181C52.1453 301.028 52.1183 299.82 52.6353 298.789C54.0233 296.021 58.0096 296.315 61.0231 297.026C60.0545 287.341 59.0858 277.656 58.1171 267.97C53.6238 268.998 55.0693 257.477 50.5466 258.367C47.8087 258.906 45.2276 256.391 44.6433 253.663C44.0589 250.934 44.9112 248.126 45.7546 245.466C48.2964 244.69 51.9391 245.458 54.515 244.69C57.091 243.922 58.6608 242.437 58.5709 239.75C56.7022 183.96 52.6678 128.242 46.4799 72.7639C42.5294 74.4632 37.8252 71.3962 36.2358 67.4002C34.6465 63.4042 35.3273 58.9034 36.1588 54.6841C36.4506 53.2033 36.809 51.63 37.8964 50.5834C39.2826 49.2492 41.4132 49.1656 43.3371 49.1613C103.71 49.0239 164.084 48.8865 224.457 48.7491C225.773 48.7461 227.222 48.7921 228.195 49.6785C229.084 50.4888 229.319 51.7745 229.503 52.9633C230.221 57.5857 230.925 62.405 229.514 66.865C228.103 71.3249 223.885 75.271 219.239 74.7253C221.78 129.786 224.322 184.848 226.863 239.909C231.005 239.003 235.849 240.536 237.915 244.239C239.981 247.941 238.096 253.536 233.959 254.463C236.599 256.657 235.325 261.328 232.42 263.158C229.516 264.987 225.821 264.8 222.402 264.488C218.984 264.176 215.336 263.843 212.304 265.454C213.02 272.089 212.931 278.81 212.04 285.423C214.98 283.67 218.959 283.853 221.725 285.87C223.646 287.27 225.391 283.863 225.373 281.487C225.331 275.952 225.288 270.417 225.246 264.882C228.244 271.757 229.078 279.558 227.602 286.912C231.298 287.2 234.994 287.488 238.69 287.776C239.801 287.863 241.004 287.988 241.819 288.749C242.63 289.506 242.841 290.692 242.982 291.793C243.892 298.897 243.756 306.134 242.58 313.2C218.633 311.54 194.521 312.265 170.717 315.362C173.186 312.81 177.047 312.341 180.587 312.056ZM109.54 294.03C111.258 289.252 117.533 288.394 122.61 288.337C124.947 288.311 127.284 288.285 129.62 288.259C134.674 288.202 139.748 288.146 144.76 288.794C145.384 289.538 146.007 290.281 146.631 291.025C148.629 290.39 151 291.232 152.15 292.985C155.568 289.435 159.786 286.346 164.662 285.628C169.538 284.91 175.085 287.164 176.949 291.726C177.622 289.412 178.463 286.957 180.407 285.533C182.351 284.11 185.713 284.456 186.509 286.731C189.647 283.251 195.989 283.541 198.796 287.293C198.828 285.466 201.305 284.823 203.094 285.194C204.883 285.564 206.857 286.357 208.421 285.413C210.105 284.396 210.207 282.036 210.112 280.071C206.976 215.574 203.839 151.076 200.703 86.5788C200.681 86.1258 200.64 85.6278 200.319 85.3077C199.983 84.9737 199.459 84.9471 198.986 84.9411C157.96 84.4192 116.935 83.8973 75.9091 83.3753C75.0278 83.3641 74.04 83.3947 73.426 84.027C72.847 84.6233 72.8087 85.5443 72.8058 86.3755C72.6252 138.119 74.6868 189.87 78.9827 241.435C79.1515 243.461 80.2701 246.194 82.2185 245.614C82.3173 251.435 82.4161 257.256 82.5149 263.077C82.5373 264.396 82.4522 265.937 81.3693 266.691C80.7673 267.109 79.9945 267.169 79.2627 267.215C73.2727 267.593 67.2828 267.97 61.2928 268.348C62.2283 277.604 63.1638 286.861 64.0993 296.118C69.4602 296.297 74.8366 296.015 80.1493 295.276C77.6039 287.237 76.7088 278.679 77.5354 270.287C79.332 270.435 79.8978 272.76 79.9895 274.56C80.2093 278.88 80.4291 283.2 80.649 287.52C80.7653 289.805 80.9384 292.25 82.3456 294.054C83.7529 295.858 86.8776 296.47 88.2519 294.641C93.1477 288.125 104.279 287.805 109.54 294.03ZM223.311 213.94C221.14 167.583 218.969 121.225 216.798 74.8681C160.582 74.2997 104.367 73.7312 48.1514 73.1627C56.2286 129.742 58.5467 186.965 60.8545 244.072C66.1449 244.698 71.5093 244.697 76.7994 244.068C75.2766 221.513 73.7537 198.958 72.2309 176.402C71.6896 168.386 71.1483 160.368 70.883 152.339C70.6623 145.658 70.6327 138.973 70.6032 132.289C70.5348 116.822 70.4664 101.354 70.3981 85.8865C70.3906 84.1874 70.9238 81.9046 72.623 81.913C115.27 82.1215 157.917 82.33 200.563 82.5385C201.502 82.5431 202.608 82.6374 203.095 83.4397C203.331 83.8287 203.361 84.3043 203.384 84.7587C205.114 118.862 206.845 152.966 208.198 187.086C208.424 192.776 208.639 198.466 208.855 204.156C209.302 215.992 209.75 227.827 210.198 239.663C210.24 240.792 211.784 241.064 212.912 240.989C216.789 240.732 220.665 240.475 224.542 240.218C224.131 231.458 223.721 222.699 223.311 213.94ZM37.6445 66.0404C38.4488 68.8373 40.7891 71.4122 43.6972 71.5247C85.9641 73.1588 128.312 70.69 170.576 72.383C187.704 73.0692 204.962 74.4321 221.912 71.8742C223.071 71.6992 224.29 71.4783 225.186 70.7208C226.024 70.0116 226.45 68.9375 226.784 67.8913C228.158 63.5819 228.49 58.9442 227.744 54.483C227.557 53.3675 227.23 52.1499 226.281 51.5335C225.574 51.0737 224.677 51.0567 223.834 51.0547C198.373 50.994 172.912 50.9333 147.451 50.8727C143.334 50.8628 139.217 50.853 135.101 50.8432C121.616 50.8111 108.13 50.779 94.6447 50.7468C77.1139 50.7051 59.582 50.6633 42.0532 50.9347C39.2022 50.9789 38.0215 54.5525 37.6311 57.377C37.2325 60.2599 36.8402 63.2435 37.6445 66.0404ZM149.169 294.948C136.133 295.421 123.097 295.893 110.06 296.366C111.136 296.606 111.245 298.148 110.78 299.147C110.315 300.145 109.515 301.09 109.619 302.187C109.948 305.632 108.88 309.19 106.709 311.885C105.17 313.794 102.963 316.175 104.236 318.27C107.897 316.467 112.099 316.211 116.174 315.986C131.143 315.163 146.113 314.339 161.083 313.515C162.057 309.886 156.695 306.501 158.183 303.051C158.523 302.263 157.98 301.395 157.464 300.71C155.352 297.908 152.676 294.821 149.169 294.948ZM54.9358 302.422C55.2517 307.514 55.891 312.587 56.8485 317.598C69.6792 317.559 82.5099 317.52 95.3406 317.481C95.9813 317.479 96.893 316.965 96.4772 316.478C94.4406 314.09 92.404 311.702 90.3674 309.314C89.234 307.985 88.0579 306.569 87.7504 304.85C87.2854 302.251 88.7609 299.049 86.8632 297.213C76.8971 298.905 66.756 299.564 56.6549 299.176C55.267 299.123 54.8498 301.036 54.9358 302.422ZM161.077 307.807C162.255 309.81 161.53 312.845 163.405 314.218C166.572 316.539 166.061 322.54 169.823 323.666C170.494 322.991 171.182 322.289 171.527 321.402C171.872 320.515 171.781 319.385 171.058 318.767C169.073 317.072 168.614 314.109 169.157 311.555C169.7 309.001 171.065 306.714 172.235 304.38C173.589 301.677 174.702 298.854 175.555 295.954C175.936 294.658 176.19 293.055 175.204 292.131C174.383 291.363 172.924 291.339 172.418 290.334C172.154 289.811 172.243 289.156 171.951 288.648C171.632 288.094 170.959 287.87 170.344 287.697C168.337 287.132 166.26 286.628 164.187 286.852C162.115 287.076 160.022 288.163 159.122 290.043C158.359 291.636 155.679 290.861 154.438 292.117C153.181 293.39 154.358 295.57 155.797 296.632C157.236 297.694 159.092 298.612 159.457 300.363C159.786 301.935 158.721 303.598 159.213 305.127C159.548 306.169 160.523 306.864 161.077 307.807ZM48.2964 255.993C48.9139 256.968 50.2634 257.091 51.417 257.093C60.4601 257.113 69.4689 256.084 78.4534 255.056C80.0778 254.87 80.4771 252.672 80.2039 251.06C79.9308 249.448 79.5295 247.49 80.7703 246.425C70.4223 245.683 60.0132 245.792 49.6831 246.752C49.1762 246.799 48.6232 246.869 48.2714 247.237C47.8892 247.637 47.8716 248.251 47.8768 248.804C47.8934 250.573 47.9101 252.343 47.9267 254.112C47.9328 254.76 47.9496 255.446 48.2964 255.993ZM106.501 293.822C104.581 292.509 102.328 291.133 100.081 291.736C99.5029 291.891 98.8453 292.164 98.3505 291.827C95.8717 290.138 91.9228 291.541 91.0653 294.415C90.7916 295.333 89.7988 295.807 89.1953 296.55C88.5917 297.293 88.8163 298.837 89.7633 298.697C90.55 298.582 90.9526 299.725 90.6176 300.446C90.2826 301.168 89.5736 301.648 89.1732 302.335C88.1064 304.165 89.5832 306.387 90.9802 307.98C93.1613 310.467 95.3424 312.954 97.5235 315.44C99.3623 317.537 101.241 319.7 102.186 322.324C103.543 321.419 103.264 319.372 102.765 317.819C102.267 316.266 101.8 314.316 102.998 313.209C103.494 312.751 104.225 312.517 104.53 311.914C104.835 311.312 103.974 310.398 103.595 310.957C102.917 311.957 101.788 312.848 100.606 312.601C99.4235 312.354 98.9078 310.395 100.033 309.957C100.427 310.756 101.638 310.319 102.351 309.784C103.368 309.022 104.385 308.261 105.402 307.499C106.722 306.51 108.144 305.359 108.402 303.73C108.676 301.995 107.603 299.908 108.801 298.622C107.799 297.757 108.359 296.032 107.676 294.899C107.399 294.44 106.943 294.124 106.501 293.822ZM210.609 253.686C211.743 253.136 213.031 253.02 214.286 252.911C220.73 252.351 227.168 251.719 233.598 251.017C234.399 250.929 235.227 250.832 235.919 250.421C237.313 249.594 237.738 247.622 237.112 246.127C236.486 244.632 235.031 243.608 233.484 243.125C231.937 242.642 230.287 242.627 228.667 242.642C223.299 242.69 217.934 243.018 212.601 243.625C211.655 243.733 210.597 243.913 210.047 244.69C209.554 245.387 209.644 246.325 209.755 247.172C210.04 249.343 210.324 251.515 210.609 253.686ZM57.2698 264.653C58.0092 265.83 59.5545 266.253 60.9421 266.164C62.3296 266.076 63.6581 265.584 65.0298 265.357C69.4435 264.627 74.205 266.635 78.3325 264.909C78.6607 264.772 78.9943 264.6 79.1934 264.306C79.39 264.015 79.4268 263.648 79.4542 263.298C79.5847 261.627 79.63 259.95 79.5897 258.274C79.5834 258.013 79.5609 257.72 79.3646 257.548C79.2128 257.415 78.9966 257.391 78.7953 257.376C71.4894 256.813 64.2334 259.093 56.9067 258.986C56.4152 258.979 56.2926 259.665 56.3437 260.154C56.4321 260.999 56.5411 261.842 56.6705 262.682C56.7758 263.366 56.902 264.067 57.2698 264.653ZM233.082 255.112C233.016 254.764 232.925 254.395 232.667 254.152C232.3 253.808 231.732 253.832 231.232 253.878C225.395 254.416 219.561 254.99 213.732 255.601C212.935 255.685 212.019 255.843 211.622 256.539C211.138 257.388 211.741 258.427 211.78 259.404C211.804 260.015 211.609 260.673 211.896 261.214C212.278 261.932 213.257 262.015 214.07 262.001C216.432 261.96 218.792 261.883 221.153 261.805C224.835 261.683 228.517 261.562 232.2 261.44C232.926 261.416 233.235 260.512 233.303 259.789C233.45 258.23 233.376 256.65 233.082 255.112ZM210.606 287.55C210.307 287.385 210.086 287.102 209.785 286.941C209.146 286.6 208.352 286.902 207.755 287.313C207.158 287.723 206.607 288.254 205.9 288.414C205.194 288.575 204.283 288.125 204.323 287.402C204.378 286.409 202.941 286.018 202.044 286.446C201.146 286.875 200.495 287.734 199.568 288.094C198.952 288.334 198.227 288.348 197.721 288.774C197.215 289.2 197.33 290.294 197.99 290.247C204.802 289.768 211.614 289.289 218.427 288.81C219 288.769 219.667 288.673 219.952 288.174C220.385 287.415 219.446 286.498 218.573 286.515C217.699 286.532 216.937 287.073 216.126 287.397C214.72 287.958 213.15 287.869 211.64 287.77C211.285 287.747 210.917 287.721 210.606 287.55ZM128.186 293.459C133.46 293.127 138.733 292.795 144.007 292.463C144.319 292.443 144.662 292.41 144.878 292.184C145.298 291.746 144.848 290.96 144.259 290.812C143.671 290.664 143.065 290.904 142.476 291.053C141.888 291.201 141.172 291.221 140.774 290.762C139.938 289.799 138.292 291.744 137.204 291.076C135.705 290.156 133.936 289.622 132.183 289.768C130.43 289.914 128.71 290.789 127.717 292.241C127.472 292.598 127.317 293.173 127.69 293.392C127.836 293.478 128.017 293.47 128.186 293.459ZM185.225 285.791C184.418 285.335 183.431 285.951 182.78 286.61C182.001 287.4 181.32 288.673 182.007 289.544C182.478 290.142 183.348 290.197 184.109 290.201C185.92 290.212 187.731 290.223 189.542 290.234C189.867 290.236 190.206 290.234 190.495 290.087C190.94 289.86 191.153 289.353 191.331 288.886C191.684 287.958 191.95 286.711 191.139 286.139C190.836 285.925 190.451 285.874 190.083 285.829C189.3 285.734 188.387 285.683 187.851 286.261C187.125 287.044 187.416 288.659 186.4 288.984C185.882 287.935 186.243 286.367 185.225 285.791ZM124.297 293.08C124.555 293.068 124.821 293.055 125.055 292.946C125.901 292.554 125.702 291.141 124.887 290.69C124.071 290.239 123.042 290.504 122.218 290.94C121.47 291.335 120.58 290.898 119.781 290.619C117.58 289.849 114.968 290.412 113.279 292.021C112.844 292.435 112.448 293.077 112.741 293.601C116.593 293.427 120.445 293.254 124.297 293.08ZM192.61 290.43C192.743 290.515 192.907 290.528 193.064 290.536C194.263 290.591 195.759 290.163 195.952 288.979C196.064 288.292 195.59 287.56 194.917 287.38C193.767 287.073 192.75 288.268 192.429 289.414C192.33 289.77 192.3 290.229 192.61 290.43ZM180.846 288.098C180.901 287.597 180.624 286.842 180.177 287.075C179.717 287.921 179.435 288.864 179.355 289.824C179.325 290.173 179.331 290.552 179.536 290.836C179.742 291.121 180.217 291.225 180.439 290.954C180.547 290.823 180.57 290.643 180.588 290.474C180.674 289.682 180.76 288.89 180.846 288.098ZM105.333 309.085C104.982 309.781 105.232 310.721 105.883 311.149C106.337 310.592 106.82 309.919 106.652 309.22C106.484 308.52 105.237 308.306 105.132 309.018M149.095 293.325C149.565 293.395 150.163 293.325 150.336 292.882C149.832 292.508 149.153 292.382 148.549 292.55C148.409 292.733 148.357 292.981 148.412 293.205C148.608 293.336 148.858 293.383 149.088 293.331L149.095 293.325Z" fill="#00160A"/>
<path fill-rule="evenodd" clip-rule="evenodd" d="M459.552 92.1865C461.402 92.2347 463.498 92.3977 464.663 93.836C465.622 95.0191 465.623 96.6857 465.577 98.2077C463.791 158.119 461.66 218.02 459.185 277.906C456.967 260.451 457.798 242.769 458.633 225.193C460.098 194.356 461.562 163.518 463.027 132.68C462.918 137.927 461.096 144.932 455.85 144.777C426.827 143.922 397.804 143.066 368.781 142.211C366.53 142.144 363.777 141.741 362.979 139.635C394.862 140.499 426.745 141.362 458.629 142.226C460.008 137.227 460.374 131.95 459.698 126.808C427.714 126.18 395.73 125.552 363.746 124.923C363.082 123.189 365.731 122.211 367.587 122.251C397.839 122.9 428.091 123.55 458.344 124.199C459.946 124.234 460.552 122.141 460.658 120.542C461.109 113.723 461.56 106.903 462.011 100.083C462.11 98.5861 462.151 96.9118 461.153 95.7917C460.12 94.6322 458.378 94.5168 456.826 94.4841C425.768 93.8293 394.71 93.1745 363.651 92.5197C361.595 133.26 360.954 174.071 361.731 214.856C364.91 206.612 371.578 199.78 379.742 196.402C374.334 191.349 372.581 182.776 375.572 176.006C372.129 177.78 369.221 172.291 370.269 168.562C370.578 167.464 372.29 166.405 372.741 165.313C373.822 162.698 373.314 161.054 372.808 157.461C372.302 153.867 377.221 152.847 380.16 154.597C383.099 156.347 386.007 159.408 389.287 158.436C393.265 157.257 397.483 160.411 398.983 164.28C400.483 168.148 399.982 172.465 399.459 176.581C398.704 182.522 396.779 189.803 390.91 191.001C390.472 195.237 396.703 195.846 400.902 196.556C406.628 197.524 411.338 201.889 414.092 207.001C416.847 212.114 417.93 217.941 418.798 223.683C421.58 242.081 422.469 261.299 416.465 278.91C430.138 278.693 443.811 278.476 457.484 278.259C449.533 281.029 440.936 281.137 432.517 281.157C409.493 281.211 386.468 280.825 363.459 280C362.075 279.951 360.569 279.853 359.536 278.93C358.43 277.942 358.21 276.321 358.083 274.843C357.263 265.328 357.36 255.734 358.372 246.237C359.224 256.79 360.075 267.343 360.927 277.896C372.1 278.31 383.273 278.724 394.446 279.138C398.691 279.295 404.072 278.711 405.394 274.675C405.386 276.006 405.377 277.337 405.369 278.668C408.296 279.306 411.346 279.37 414.297 278.856C419.426 263.784 420.465 247.342 417.273 231.744C413.823 231.375 410.895 234.646 410.166 238.039C409.438 241.431 410.254 244.934 410.655 248.38C411.671 257.103 409.934 266.126 405.752 273.848C409.326 263.626 410.113 252.445 408.006 241.823C406.473 234.096 403.432 226.53 403.744 218.658C406.25 223.358 407.45 228.746 407.175 234.065C410.58 232.65 413.985 231.235 417.39 229.819C416.835 222.154 416.207 214.224 412.552 207.463C408.897 200.702 401.332 195.414 393.792 196.903C393.122 201.615 389.918 206.567 385.169 206.871C380.419 207.174 376.761 199.885 380.812 197.387C371.23 200.097 365.594 209.728 360.969 218.547C359.12 222.072 357.226 225.802 357.357 229.78C357.488 233.758 360.447 237.942 364.427 237.923C369.038 232.985 371.716 226.287 371.78 219.531C372.977 237.002 372.926 254.558 371.63 272.021C371.498 273.792 369.596 276.138 368.608 274.663C371.033 261.368 371.321 247.686 369.457 234.301C365.163 240.222 359.26 244.964 352.553 247.882C349.474 249.221 348.682 253.287 349.186 256.607C349.69 259.927 351.051 263.198 350.615 266.528C350.179 269.857 348.376 272.923 343.703 271.733C339.03 270.542 332.276 272.464 332.276 272.464C332.276 272.464 333.151 287.805 334.673 292.37C340.539 296.923 349.343 288.3 356.118 291.34C360.331 293.231 365.132 293.126 369.748 292.987C372.631 292.9 376.684 290.732 375.005 288.388C367.67 289.159 360.253 289.148 352.92 288.357C349.766 288.017 347.458 284.966 346.906 281.843C346.354 278.719 347.159 275.534 347.957 272.464C348.445 274.975 348.269 279.361 348.539 281.157C348.81 282.953 349.598 285.926 351.572 286.119C367.052 287.632 372.245 286.649 383.08 284.121C384.985 283.677 387.332 283.116 389.287 283.128C391.627 283.143 393.816 284.405 396.087 284.968C403.972 286.921 412.237 286.312 420.337 285.689C435.97 284.488 451.603 283.287 467.236 282.086C473.599 271.374 461.529 255.116 470.104 246.076C470.828 191.727 471.552 137.379 472.276 83.0298C431.607 81.7451 390.897 81.7476 350.228 83.0373C347.45 130.214 346.923 177.523 348.65 224.749C346.072 218.007 345.89 210.621 345.777 203.403C345.166 164.391 345.626 125.362 347.155 86.3756C347.225 84.5894 347.41 82.5699 348.81 81.458C349.861 80.6233 351.307 80.5517 352.648 80.5173C392.873 79.4876 433.124 79.5055 473.348 80.5708C473.348 119.23 475.398 152.311 472.73 188.075C471.25 207.918 472.276 226.304 472.276 246.237C476.149 246.703 481.27 244.867 482.505 241.167C483.74 237.466 483.264 233.445 482.87 229.564C477.58 177.44 489.596 124.84 485.684 72.5945C435.563 70.299 385.35 70.0117 335.205 71.7335C334.168 71.7691 333.031 71.845 332.276 72.5578C331.43 73.3559 331.366 74.6566 331.358 75.8193C331.078 118.927 330.799 162.035 330.519 205.143C327.893 167.064 327.16 128.832 329.108 90.7125C329.32 86.5508 329.553 82.2855 328.321 78.3047C327.088 74.3239 324.051 70.6214 319.955 69.8502C319.148 62.7092 319.256 55.4653 320.276 48.3516C379.299 48.6585 438.321 48.9654 497.344 49.2723C497.557 53.7633 497.771 58.2543 497.984 62.7453C498.186 66.9974 496.502 73.0178 492.33 72.171C490.635 71.8269 489.822 74.1655 489.733 75.8926C489.001 90.08 488.269 104.267 487.536 118.455C485.36 160.619 483.183 202.846 484.644 245.041C488.416 245.23 492.188 245.418 495.96 245.606C496.961 247.975 497.983 250.494 497.61 253.039C497.237 255.583 494.875 258.02 492.36 257.482C494.552 262.591 488.706 268.997 483.419 267.28C483.843 273.389 484.267 279.498 484.691 285.607C484.771 286.759 484.89 288.008 485.673 288.858C488.112 291.51 493.34 287.416 495.916 289.935C496.265 295.944 496.614 301.953 496.963 307.961C497.058 309.6 497.068 311.466 495.877 312.596C495.078 313.354 493.926 313.578 492.84 313.762C471.668 317.341 449.965 317.764 428.669 315.012C429.813 320.487 430.696 326.957 426.825 330.994C423.97 333.971 418.512 336.292 419.812 340.207C422.153 339.712 424.272 338.244 425.559 336.227C425.309 338.845 422.875 341.067 420.246 341.078C417.99 341.317 418.439 337.547 419.978 335.881C423.358 332.222 427.73 328.948 428.806 324.085C429.882 319.221 424.311 313.276 420.37 316.322C417.999 318.154 418.107 321.701 418.44 324.678C416.31 322.275 416.587 318.137 419.02 316.04C412.678 317.487 406.097 317.883 399.627 317.209C407.799 315.97 415.971 314.732 424.143 313.493C421.817 307.054 422.424 299.618 425.763 293.641C420.649 293.078 415.444 293.363 410.422 294.481C409.017 294.793 407.581 295.193 406.458 296.093C405.277 297.038 404.565 298.436 403.92 299.804C398.447 311.408 395.297 324.101 394.709 336.917C393.437 329.542 394.375 321.8 397.37 314.942C396.649 313.797 395.715 312.788 394.631 311.981C402.082 309.063 405.656 298.983 401.707 292.023C401.086 290.928 400.318 289.919 399.444 289.014C394.193 283.572 384.924 282.623 378.679 286.888C376.011 290.247 377.3 291.378 376.17 293.369C375.48 294.584 373.951 295.347 373.294 296.603C373.049 297.073 372.987 297.775 372.741 298.245C374.567 299.736 376.857 300.65 379.207 300.825C378.975 303.346 378.743 305.868 378.512 308.39C379.845 308.622 381.179 308.854 382.513 309.086C380.727 310.864 382.319 314.568 384.838 314.497C387.218 322.068 389.599 329.64 391.979 337.211C389.549 331.134 387.119 325.058 384.688 318.981C376.499 319.914 368.31 320.846 360.12 321.779C360.416 323.279 361.19 324.68 362.301 325.73C357.445 326.434 352.568 321.806 353.016 316.92C350.627 321.229 354.313 326.365 358.107 329.508C361.9 332.651 366.5 336.181 366.339 341.105C362.568 342.427 357.934 339.739 357.209 335.809C358.58 338.362 361.542 339.965 364.428 339.718C362.551 337.833 360.674 335.948 358.797 334.063C360.184 334.895 361.572 335.727 362.959 336.559C363.583 334.939 362.142 333.121 360.462 332.683C358.782 332.246 357.019 332.773 355.364 333.297C352.293 334.268 349.119 335.297 346.733 337.46C344.348 339.624 342.979 343.263 344.401 346.153C347.441 345.106 350.048 342.855 351.525 340C351.363 343.839 347.648 347.158 343.814 346.887C341.098 341.552 345.586 334.095 351.572 333.997C354.039 333.957 355.502 330.864 354.852 328.484C354.202 326.103 352.211 324.368 350.32 322.784C349.047 324.446 347.402 325.823 345.542 326.785C345.482 323.978 346.034 321.159 347.148 318.582C344.632 321.44 343.213 325.241 343.24 329.049C341.956 325.911 342.071 322.229 343.548 319.176C336.103 320.444 328.544 321.039 320.992 320.95C319.748 312.325 318.504 303.7 317.261 295.074C321.93 293.812 326.768 293.172 331.606 293.177C329.182 278.668 331.606 278.265 328.594 271.733C328.185 270.845 326.732 272.541 325.743 270.542C324.754 268.543 324.312 263.336 324.312 263.336C324.312 263.336 320.274 262.746 319.955 261.659C318.706 257.394 317.302 253.584 320.34 251.289C323.579 248.843 328.65 250.939 332.044 248.712C330.768 243.678 330.521 238.385 331.322 233.253C333.316 236.643 332.606 240.952 333.703 244.729C334.8 248.506 339.97 251.68 342.441 248.621C338.819 242.162 333.964 232.873 329.057 227.327C325.921 223.782 321.471 224.629 318.214 220.715C314.958 216.801 313.992 216.024 312.843 212.752C311.695 209.479 313.261 204.997 316.696 204.519C320.055 204.052 322.595 207.375 324.312 210.299C323.54 207.719 325.604 204.692 328.289 204.47C331.611 214.946 337.63 224.554 345.607 232.114C348.11 234.486 353.162 236.081 354.157 232.778C352.382 230.003 355.466 226.822 357.182 224.01C359.257 220.611 359.348 216.406 359.379 212.424C359.682 172.858 359.986 133.291 360.289 93.7247C360.313 90.611 364.524 89.7093 367.637 89.7904C398.275 90.5891 428.914 91.3878 459.552 92.1865ZM322.241 68.4257C322.702 68.7803 323.331 68.796 323.913 68.7965C335.858 68.8074 347.804 68.8182 359.749 68.8291C366.672 68.8354 373.595 68.8417 380.518 68.848C393.775 68.86 407.033 68.8721 420.29 68.8841C444.035 68.9057 467.781 68.9273 491.526 68.9489C492.818 68.9501 494.349 68.8225 495.005 67.7093C495.34 67.141 495.35 66.4457 495.351 65.7861C495.36 61.3452 495.368 56.9042 495.376 52.4632C495.377 52.0012 495.359 51.4901 495.042 51.1542C494.704 50.7965 494.153 50.7696 493.661 50.7667C437.345 50.4339 381.029 50.1011 324.713 49.7683C324.015 49.7641 323.234 49.7928 322.747 50.293C322.309 50.744 322.255 51.433 322.226 52.0616C322.011 56.7272 321.796 61.3928 321.582 66.0584C321.542 66.9112 321.565 67.9052 322.241 68.4257ZM424.115 306.727C423.764 306.381 423.112 306.748 423.021 307.233C422.93 307.717 423.194 308.19 423.453 308.61C424.359 310.081 425.38 311.567 426.879 312.426C428.334 313.26 430.068 313.407 431.74 313.535C437.492 313.978 443.245 314.42 448.997 314.862C452.696 315.147 456.402 315.431 460.111 315.367C471.632 315.168 482.912 311.616 494.434 311.56C495.381 311.555 495.641 310.264 495.597 309.319C495.37 304.401 495.143 299.483 494.916 294.565C494.855 293.233 494.327 291.458 492.998 291.566C471.039 293.351 448.972 293.814 426.956 292.952C427.084 297.409 425.79 301.897 423.308 305.602C425.684 305.706 428.073 305.523 430.406 305.056C428.642 304.476 426.782 304.189 424.925 304.21C428.059 302.545 432.333 303.475 434.491 306.292C434.69 306.551 434.88 306.853 434.852 307.179C434.796 307.813 434.02 308.07 433.392 308.173C430.179 308.703 426.432 309.014 424.115 306.727ZM344.186 309.881C343.663 310.261 342.926 310.64 342.426 310.23C342.185 310.032 342.095 309.708 342.019 309.405C341.623 307.838 341.224 306.235 341.373 304.626C341.521 303.017 342.326 301.373 343.774 300.657C345.244 299.929 346.977 298.658 346.527 297.081C346.099 295.58 344.108 295.33 342.548 295.375C335.253 295.584 327.958 295.793 320.664 296.002C320.366 296.01 320.035 296.033 319.83 296.248C319.583 296.507 319.628 296.918 319.69 297.27C320.851 303.909 322.012 310.549 323.174 317.189C323.264 317.706 323.399 318.29 323.856 318.552C324.156 318.724 324.525 318.708 324.871 318.687C329.605 318.395 334.328 317.942 339.03 317.328C342.896 316.824 347.456 316.447 350.058 319.351C350.04 316.788 351.967 314.701 353.303 312.514C354.64 310.328 355.226 307.034 353.137 305.549C350.974 304.011 349.094 302.078 347.617 299.873C346.711 301.009 347.805 302.6 348.028 304.036C348.405 306.468 346.178 308.436 344.186 309.881ZM313.894 208.548C313.97 209.263 314.423 209.874 314.859 210.445C316.922 213.145 318.984 215.844 321.047 218.544C318.7 216.652 316.353 214.761 314.006 212.87C316.455 218.172 321.051 222.445 326.517 224.501C327.427 224.844 328.371 225.133 329.182 225.669C330.6 226.608 331.44 228.179 332.265 229.665C335.084 234.746 338.366 239.568 342.058 244.054C343.705 246.055 345.901 248.175 348.465 247.795C353.92 246.989 358.993 243.863 362.167 239.354C360.704 237.816 359.241 236.278 357.778 234.74C357.271 234.206 356.727 233.65 356.018 233.451C355.309 233.252 354.399 233.573 354.228 234.29C353.719 236.428 350.97 237.355 348.869 236.708C346.768 236.061 345.199 234.346 343.738 232.703C336.732 224.821 329.431 216.339 327.743 205.929C326.515 205.323 325.707 207.294 325.743 208.662C325.783 210.186 325.823 211.709 325.862 213.233C322.004 211.656 320.677 205.501 316.508 205.519C318.435 208.834 320.582 212.021 322.929 215.053C319.47 213.378 316.621 210.474 315.011 206.984C314.292 207.009 313.819 207.833 313.894 208.548ZM470.937 277.272C470.427 279.888 469.01 282.458 466.66 283.716C464.98 284.615 463.015 284.763 461.114 284.894C448.533 285.759 435.952 286.625 423.371 287.49C424.774 289.374 426.548 291.45 428.897 291.399C446.521 291.015 464.145 290.631 481.769 290.247C482.389 290.233 483.106 290.171 483.459 289.66C483.729 289.27 483.684 288.752 483.629 288.281C482.854 281.677 482.08 275.072 481.305 268.468C481.255 268.043 481.185 267.578 480.866 267.293C480.49 266.957 479.921 267 479.421 267.062C477.23 267.337 475.039 267.611 472.849 267.886C471.959 267.997 470.805 268.416 470.898 269.308C471.173 271.959 471.446 274.656 470.937 277.272ZM363.2 319.581C369.297 319.119 375.369 318.316 381.378 317.178C382.441 316.976 383.746 316.506 383.819 315.426C382.571 315.524 381.298 314.795 380.751 313.67C380.204 312.544 380.417 311.093 381.266 310.172C380.304 310.201 379.296 310.22 378.438 309.786C377.579 309.353 376.947 308.307 377.311 307.417C377.905 305.965 377.965 304.303 377.479 302.812C377.187 301.917 376.494 300.965 375.555 301.043C373.946 301.177 372.337 299.952 372.037 298.365C371.738 296.778 372.791 295.051 374.338 294.59C374.252 294.184 373.707 294.12 373.294 294.148C365.281 294.689 357.267 295.23 349.254 295.771C348.975 295.789 348.645 295.842 348.529 296.096C348.457 296.253 348.496 296.436 348.539 296.602C349.296 299.49 351.205 302.058 353.752 303.616C352.471 302.303 353.623 299.825 355.405 299.389C357.186 298.952 359.027 299.987 360.276 301.33C361.525 302.673 362.391 304.331 363.614 305.699C363.971 306.098 364.372 306.498 364.495 307.018C364.619 307.539 364.304 308.204 363.769 308.215C363.533 308.22 363.314 308.099 363.108 307.983C360.556 306.536 358.004 305.089 355.451 303.642C355.994 302.621 357.585 302.963 358.464 303.714C359.343 304.465 360.115 305.532 361.266 305.644C360.772 304.798 360.278 303.952 359.784 303.107C359.046 301.843 357.875 300.384 356.46 300.758C355.314 301.061 354.812 302.517 355.124 303.66C355.436 304.803 356.314 305.69 357.158 306.522C358.479 307.823 360.317 309.228 361.996 308.441C362.496 308.207 362.98 308.992 362.701 309.47C362.422 309.948 361.79 310.075 361.237 310.065C359.654 310.036 358.105 309.231 357.17 307.954C356.844 309.777 356.518 311.6 356.192 313.422C358.331 314.15 360 316.115 360.371 318.344C360.558 319.465 362.067 319.666 363.2 319.581ZM389.917 159.562C388.68 159.62 387.529 160.221 386.3 160.374C384.781 160.564 383.188 160.017 382.105 158.935C380.744 157.575 376.628 154.065 375.169 155.39C373.71 156.715 373.409 161.909 375.088 164.714C375.407 165.246 375.092 165.959 374.61 166.351C374.129 166.742 373.515 166.927 372.98 167.24C371.473 168.121 370.718 170.109 371.262 171.767C371.805 173.425 373.59 174.581 375.325 174.399C374.066 172.86 374.224 170.354 375.666 168.985C377.108 167.616 379.618 167.589 381.09 168.927C382.038 169.788 383.544 169.605 384.717 169.088C385.889 168.572 386.958 167.776 388.215 167.524C389.86 167.195 391.67 167.947 392.598 169.345C393.525 170.744 393.515 172.703 392.573 174.091C391.688 175.395 392.437 177.469 393.95 177.906C395.463 178.344 397.203 176.99 397.151 175.416C397.065 172.811 398.899 170.399 398.681 167.802C398.498 165.616 396.911 163.831 395.319 162.323C393.809 160.892 391.995 159.466 389.917 159.562ZM377.456 169.96C375.91 170.316 375.378 172.709 376.628 173.687C377.707 172.739 379.441 172.639 380.622 173.458C380.019 174.482 378.372 173.919 377.334 174.499C376.456 174.989 376.253 176.144 376.17 177.146C375.944 179.86 375.891 182.588 376.011 185.309C376.09 187.122 376.256 188.971 376.984 190.633C377.711 192.296 379.095 193.764 380.865 194.162C382.416 194.511 384.064 193.999 385.385 193.115C386.706 192.23 387.755 191.002 388.764 189.773C390.043 188.213 391.304 186.597 392.069 184.73C392.834 182.863 393.056 180.688 392.241 178.842C391.569 177.32 391.268 175.634 391.373 173.973C391.456 172.653 391.745 171.166 390.918 170.133C389.912 168.876 387.921 169.137 386.451 169.796C384.98 170.455 383.493 171.416 381.9 171.179C380.357 170.95 378.976 169.61 377.456 169.96ZM320.424 258.464C320.424 259.115 320.597 259.814 320.868 260.322C321.582 261.659 328.056 260.351 329.057 260.251C334.796 259.678 340.534 259.104 346.273 258.531C347.153 258.443 348.215 258.217 348.49 257.376C348.627 256.96 348.516 256.507 348.405 256.083C348.146 255.09 347.886 254.098 347.627 253.106C347.47 252.507 347.297 251.879 346.862 251.44C346.134 250.707 344.958 250.747 343.929 250.838C336.96 251.454 329.99 252.07 323.021 252.686C322.098 252.767 321.014 252.954 320.609 253.787C320.432 254.152 320.428 254.574 320.428 254.98C320.427 256.142 320.425 257.303 320.424 258.464ZM468.963 254.574C469.224 254.936 469.74 254.972 470.186 254.974C478.101 255.013 486.015 255.051 493.93 255.089C494.452 255.091 495.009 255.084 495.442 254.793C496.161 254.311 496.226 253.297 496.219 252.431C496.209 251.39 496.195 250.321 495.815 249.351C495.435 248.381 494.605 247.516 493.569 247.405C486.123 246.612 478.664 249.286 471.194 248.755C470.099 248.677 469.139 249.609 468.804 250.654C468.47 251.699 468.614 252.829 468.762 253.917C468.793 254.146 468.828 254.386 468.963 254.574ZM468.639 258.744C468.429 260.973 468.584 263.236 469.097 265.415C475.664 265.191 482.226 264.821 488.776 264.305C489.859 264.22 491.281 263.765 491.202 262.681C491.12 261.542 491.037 260.403 490.954 259.264C490.927 258.892 490.891 258.494 490.661 258.2C490.344 257.797 489.774 257.718 489.263 257.674C482.887 257.115 476.472 257.003 470.081 257.338C469.722 257.357 469.336 257.388 469.062 257.621C468.749 257.887 468.678 258.335 468.639 258.744ZM348.156 262.143C348.042 261.277 346.854 261.143 345.987 261.24C339.771 261.939 333.555 262.637 327.34 263.336C327.075 263.365 326.797 263.4 326.583 263.558C326.159 263.869 326.165 264.494 326.222 265.017C326.4 266.63 326.749 268.388 328.013 269.406C329.719 270.78 332.2 270.187 334.343 269.733C338.333 268.886 342.477 268.773 346.507 269.399C347.388 269.536 348.217 268.808 348.509 267.966C348.801 267.124 348.688 266.202 348.572 265.318C348.433 264.26 348.295 263.201 348.156 262.143ZM389.307 202.892C389.973 202.013 390.582 201.092 391.129 200.135C391.547 199.406 391.94 198.557 391.697 197.752C391.538 197.228 391.136 196.822 390.804 196.387C389.769 195.032 389.369 193.212 389.74 191.547C389.771 191.405 389.808 191.254 389.759 191.117C389.566 190.58 388.782 191.092 388.489 191.582C387.225 193.691 385.044 195.229 382.632 195.711C382.107 195.816 382.246 196.632 381.969 197.034C380.812 198.714 378.428 200.939 380.622 203.541C382.27 205.495 382.619 205.925 383.081 206.067C385.458 206.796 387.805 204.874 389.307 202.892ZM406.574 293.244C407.222 293.127 407.87 293.01 408.519 292.893C409.78 292.666 411.087 292.42 412.133 291.68C413.514 290.702 414.376 288.912 416.02 288.513C416.419 288.416 416.97 288.006 416.633 287.773C416.55 287.716 416.443 287.716 416.343 287.717C411.929 287.772 407.516 287.968 403.114 288.304C403.662 289.745 404.299 291.152 405.022 292.514C405.165 292.784 405.327 293.068 405.6 293.207C405.895 293.357 406.248 293.302 406.574 293.244ZM419.518 288.58C417.476 288.877 415.733 290.219 414.331 291.734C413.992 292.101 414.347 292.822 414.845 292.776C415.386 291.922 416.549 291.776 417.558 291.717C419.874 291.58 422.189 291.443 424.505 291.307C423.899 289.334 421.56 288.282 419.518 288.58ZM393.301 184.643C392.875 186.337 391.93 187.897 390.627 189.06C390.709 189.493 391.342 189.451 391.755 189.296C393.238 188.738 394.767 188.128 395.847 186.969C396.927 185.811 397.415 183.941 396.542 182.619C396.244 183.939 393.631 183.331 393.301 184.643ZM354.659 317.276C354.155 318.305 354.135 319.783 355.125 320.359C355.973 320.851 357.189 320.278 357.468 319.338C357.747 318.398 357.16 317.328 356.266 316.927C355.712 316.678 354.926 316.731 354.659 317.276ZM350.296 292.776C350.146 293.013 350.106 293.412 350.373 293.5C352.198 293.306 354.04 293.262 355.872 293.37C356.078 292.926 355.803 292.378 355.391 292.114C354.98 291.849 354.471 291.797 353.984 291.752C352.642 291.627 351.013 291.635 350.296 292.776ZM431.739 307.171C432.045 307.074 432.256 306.739 432.21 306.421C430.078 305.977 427.848 306.007 425.729 306.51C427.524 307.549 429.76 307.795 431.739 307.171ZM343.683 307.381C344.195 305.4 344.553 303.378 344.755 301.341C342.767 302.532 342.226 305.579 343.683 307.381ZM394.204 182.575C395.015 182.509 395.731 181.818 395.824 181.01C395.918 180.202 395.379 179.365 394.605 179.115C393.874 179.844 393.471 180.891 393.525 181.922C393.535 182.122 393.573 182.341 393.727 182.468C393.856 182.574 394.038 182.589 394.204 182.575ZM358.032 321.988C357.373 321.306 356.181 321.237 355.448 321.838C355.757 322.538 356.306 323.13 356.981 323.492C357.291 323.659 357.669 323.777 357.989 323.63C358.572 323.362 358.477 322.45 358.032 321.988ZM358.585 317.731C358.65 316.727 358.11 315.707 357.242 315.196C356.375 314.685 355.221 314.707 354.374 315.251C355.941 315.745 357.393 316.6 358.585 317.731ZM346.563 304.082C346.435 303.774 346.174 303.451 345.844 303.496C345.161 304.581 345.166 306.061 345.856 307.142C346.692 306.401 346.989 305.114 346.563 304.082ZM347.364 323.093C347.202 323.371 347.349 323.778 347.65 323.889C348.093 323.665 348.383 323.17 348.364 322.675C348.008 322.524 347.543 322.751 347.443 323.125M460.412 125.001C460.205 125.153 459.998 125.305 459.791 125.458C459.921 125.692 460.05 125.927 460.18 126.162C460.558 125.969 460.711 125.434 460.492 125.07L460.412 125.001Z" fill="#00160A"/>
<ellipse cx="377.264" cy="185.781" rx="0.799538" ry="1.59908" fill="#FFB61D"/>
<path fill-rule="evenodd" clip-rule="evenodd" d="M394 274.53C395.337 258.414 396.458 242.279 398.01 226.183C398.397 222.168 409.486 227.032 404.884 261.848C404.156 267.353 400.69 275.578 394.504 276L394 274.53Z" fill="#FF7F50"/>
<path fill-rule="evenodd" clip-rule="evenodd" d="M116.583 219C117.59 241.184 114.102 227.13 123.138 233.071C124.676 234.082 126.357 235.969 126.065 237.815C125.491 241.44 122.075 244.004 120.86 247.46C114.849 264.564 142.092 265.329 147.034 268.019C148.686 268.919 147.944 272.205 146.851 273.759C142.878 279.408 119.758 264.069 116.846 261.777C97.5438 246.583 99.8435 236.643 114.997 221.037L116.583 219Z" fill="#FF7F50"/>
<ellipse cx="136" cy="195.5" rx="1" ry="1.5" fill="#FFB61D"/>
</svg>
